<?xml version="1.0" encoding="UTF-8"?>
<svg version="1.1" xmlns="http://www.w3.org/2000/svg" width="1024" height="1024">
<path d="M0 0 C0.73810913 0.00093658 1.47621826 0.00187317 2.23669434 0.00283813 C91.45090799 0.2458797 177.80667149 33.39119793 266.75 111.1875 C268.13058594 112.50427734 268.13058594 112.50427734 269.5390625 113.84765625 C273.5395347 117.74210887 273.5395347 117.74210887 274.75 119.1875 C274.75 119.8475 274.75 120.5075 274.75 121.1875 C275.41 121.1875 276.07 121.1875 276.75 121.1875 C279.33248339 123.60761168 281.49739874 126.46379232 283.75 129.1875 C285.02037109 130.7034375 285.02037109 130.7034375 286.31640625 132.25 C295.50983988 143.38268604 303.66265316 155.23807846 311.75 167.1875 C312.21035645 167.86699707 312.67071289 168.54649414 313.14501953 169.24658203 C355.15087093 231.71813448 372.87644307 306.4336447 370.75 381.1875 C370.73066406 381.97979004 370.71132813 382.77208008 370.69140625 383.58837891 C369.51313686 426.72516775 360.09197192 469.68739238 342.75 509.1875 C342.29254395 510.24098633 341.83508789 511.29447266 341.36376953 512.37988281 C324.29132026 551.42439261 301.40021716 586.51919872 272.734375 617.98046875 C271.00022594 619.90919753 269.33747119 621.8746317 267.6875 623.875 C265.0314226 627.00407748 262.06676738 629.59517074 258.94140625 632.24609375 C256.49059942 634.41730764 254.22342971 636.71860694 251.9375 639.0625 C246.84734809 644.19906667 241.40468344 648.69162329 235.75 653.1875 C234.65065882 654.09823036 233.55307532 655.01108555 232.45703125 655.92578125 C216.57632947 669.07467548 199.19199739 679.93393051 181.15478516 689.86181641 C178.97367301 691.06419599 176.80461235 692.28574121 174.63671875 693.51171875 C135.12164262 715.51838074 90.38447091 728.43279848 45.75 734.1875 C44.58791016 734.364021 43.42582031 734.54054199 42.22851562 734.72241211 C36.27023344 735.45841481 30.28009575 735.37001955 24.28515625 735.390625 C22.97961288 735.39632507 21.67406952 735.40202515 20.32896423 735.40789795 C17.56281147 735.41836645 14.79668731 735.42423262 12.03051758 735.42773438 C9.24880518 735.43207239 6.46741114 735.44578666 3.68579102 735.46875 C-14.16017612 735.61302857 -31.57223835 734.84644627 -49.25 732.1875 C-50.63017893 731.99124408 -52.01045645 731.79567913 -53.39086914 731.60107422 C-89.88726449 726.21839392 -127.12997455 716.68483289 -160.25 700.1875 C-161.22775391 699.70410156 -162.20550781 699.22070312 -163.21289062 698.72265625 C-177.41072303 691.65458574 -191.09290602 684.04857907 -204.25 675.1875 C-204.97622559 674.69926758 -205.70245117 674.21103516 -206.45068359 673.70800781 C-216.5574788 666.8587747 -226.10810229 659.44544631 -235.48974609 651.63916016 C-237.05617487 650.34734524 -238.64572919 649.08368802 -240.23828125 647.82421875 C-247.28093706 642.24920757 -253.55402327 636.07194205 -259.81640625 629.65380859 C-262.78079676 626.6217702 -265.78862563 623.63629143 -268.828125 620.6796875 C-275.12223435 614.51440495 -280.7700152 608.09862133 -286.25 601.1875 C-287.1709046 600.07753773 -288.09419811 598.96955432 -289.01953125 597.86328125 C-319.66397176 560.93019248 -343.44907806 514.32108667 -356.25 468.1875 C-356.5279541 467.19443848 -356.8059082 466.20137695 -357.09228516 465.17822266 C-360.920461 451.28204867 -363.93000764 437.36103407 -366.125 423.125 C-366.280186 422.11924423 -366.280186 422.11924423 -366.43850708 421.09317017 C-380.32939144 329.89344279 -357.60702801 232.50365128 -300.60449219 152.93701172 C-283.58167715 129.92131616 -264.13875467 107.70875395 -242.25 89.1875 C-240.78240234 87.88619141 -240.78240234 87.88619141 -239.28515625 86.55859375 C-223.85206578 72.9315515 -206.95694186 61.6407153 -189.25 51.1875 C-188.04053711 50.47231201 -188.04053711 50.47231201 -186.80664062 49.74267578 C-164.52841077 36.71054992 -140.79250408 27.03608058 -116.25 19.1875 C-115.18910156 18.84235352 -114.12820313 18.49720703 -113.03515625 18.14160156 C-86.16395974 9.4695336 -58.39364489 3.62639381 -30.25 1.1875 C-29.18104492 1.0939624 -28.11208984 1.0004248 -27.01074219 0.90405273 C-18.00301583 0.18529689 -9.03012456 -0.01498446 0 0 Z M-253.25 139.1875 C-255.7146607 141.96385081 -258.03088346 144.84604938 -260.32421875 147.765625 C-262.15291356 150.06540346 -264.07045398 152.21661205 -266.0625 154.375 C-318.34199654 212.68274862 -342.5404913 293.22659315 -342.4375 370.3125 C-342.43609512 371.67560806 -342.43609512 371.67560806 -342.43466187 373.06625366 C-342.40533298 386.20053585 -342.26476504 399.18222792 -340.25 412.1875 C-340.08870605 413.2408252 -339.92741211 414.29415039 -339.76123047 415.37939453 C-330.27375786 475.60237753 -305.23232746 533.99836676 -266.25 581.1875 C-265.43917969 582.19941406 -264.62835938 583.21132813 -263.79296875 584.25390625 C-257.23200635 592.28449535 -249.99326101 599.65385945 -242.6875 607 C-241.96332382 607.73207672 -241.96332382 607.73207672 -241.22451782 608.47894287 C-234.57996936 615.17946769 -227.63769722 621.31526454 -220.25 627.1875 C-218.92144629 628.28409633 -217.59560586 629.38399447 -216.2734375 630.48828125 C-207.58702175 637.68195673 -198.67079474 644.41266592 -189.34716797 650.75976562 C-187.98809595 651.68501047 -186.63269393 652.61567856 -185.28173828 653.55273438 C-145.7245197 680.91622312 -99.52165058 695.65989312 -52.4375 703.4375 C-51.08192993 703.66421387 -51.08192993 703.66421387 -49.69897461 703.89550781 C-31.43747843 706.73629187 -13.14337792 707.56750369 5.3125 707.5 C6.877155 707.49726578 6.877155 707.49726578 8.47341919 707.49447632 C74.00683124 707.30253091 138.7740954 687.90729774 192.75 650.1875 C193.30929199 649.79949219 193.86858398 649.41148437 194.44482422 649.01171875 C201.56742122 644.0602858 208.46924789 638.94243573 215.12890625 633.375 C216.82727173 631.95758619 218.54266278 630.56023054 220.27734375 629.1875 C234.52749672 617.87309283 247.90284186 604.99275372 259.75 591.1875 C260.26900879 590.59630371 260.78801758 590.00510742 261.32275391 589.39599609 C277.5086857 570.91171329 290.78896054 549.92860139 302.53613281 528.40087891 C303.61441509 526.43472703 304.71817661 524.48682989 305.8359375 522.54296875 C337.07355337 466.76151185 348.02500053 400.11161372 342.5625 336.8125 C342.46405289 335.65462479 342.46405289 335.65462479 342.36361694 334.47335815 C336.57969341 267.74938072 310.58305998 206.43419676 267.75 155.1875 C266.90620787 154.15498235 266.0624594 153.12242901 265.21875 152.08984375 C253.93985278 138.45340565 241.42473242 125.15483133 227.41796875 114.296875 C224.72942875 112.17123576 222.18078133 109.93765579 219.62182617 107.65991211 C137.36152053 34.71249878 17.87168262 12.52237135 -253.25 139.1875 Z " fill="#5B5B5B" transform="translate(528.25,145.8125)"/>
<path d="M0 0 C1.18142578 0.00563965 2.36285156 0.0112793 3.58007812 0.01708984 C39.90022158 0.51686293 68.10432014 16.2688475 95.875 38.3125 C96.79667969 39.03953125 97.71835937 39.7665625 98.66796875 40.515625 C104.99451266 45.59146687 110.95246148 50.99775748 116.875 56.53125 C119.22516717 58.72317649 121.61937604 60.84902306 124.0625 62.9375 C148.94046736 84.50890208 148.94046736 84.50890208 152.875 96.3125 C153.46232182 105.41598827 149.81531989 109.61310543 144 116.25 C142.96054839 117.4462766 141.92148216 118.64288816 140.8828125 119.83984375 C140.37911133 120.41589355 139.87541016 120.99194336 139.35644531 121.58544922 C137.90361868 123.27913669 136.51114652 125.01171315 135.1171875 126.75390625 C134.37726563 127.59824219 133.63734375 128.44257813 132.875 129.3125 C132.215 129.3125 131.555 129.3125 130.875 129.3125 C130.545 130.3025 130.215 131.2925 129.875 132.3125 C129.215 132.3125 128.555 132.3125 127.875 132.3125 C127.875 132.9725 127.875 133.6325 127.875 134.3125 C126.51171875 135.6875 126.51171875 135.6875 124.5625 137.3125 C121.24205251 140.12300093 118.04541415 143.02144147 114.875 146 C88.1472562 170.26791024 57.36564406 185.98607488 21.875 192.3125 C20.8025 192.50714844 19.73 192.70179688 18.625 192.90234375 C-10.06857481 196.04070349 -37.3086815 190.77375053 -63.125 178.3125 C-64.05626709 177.86632324 -64.05626709 177.86632324 -65.00634766 177.41113281 C-83.8282262 168.2550783 -100.09764523 155.04753374 -115.3515625 140.86328125 C-117.58942174 138.80508113 -119.85914793 136.8279647 -122.1875 134.875 C-130.29839431 127.80525569 -146.62233245 113.48067418 -148.43359375 102.4296875 C-148.69527434 97.87803112 -148.36264024 95.05760835 -145.484375 91.43359375 C-144.6634436 90.3986377 -144.6634436 90.3986377 -143.82592773 89.34277344 C-141.282957 86.30741466 -138.65923086 83.37585199 -135.9375 80.5 C-135.3501709 79.87544922 -134.7628418 79.25089844 -134.15771484 78.60742188 C-128.93715395 73.0951119 -123.60722665 67.69171038 -118.25 62.3125 C-117.4660083 61.52383545 -116.6820166 60.7351709 -115.87426758 59.92260742 C-111.1199197 55.18135831 -106.24819763 50.65221091 -101.125 46.3125 C-100.50898926 45.78978516 -99.89297852 45.26707031 -99.25830078 44.72851562 C-70.8880985 20.88348402 -38.25043376 -0.19312827 0 0 Z M-28.125 22.3125 C-29.07761719 22.65152344 -30.03023438 22.99054688 -31.01171875 23.33984375 C-55.87376129 32.87085869 -77.01753349 48.79776233 -96.36328125 66.76953125 C-98.54040629 68.77421074 -100.74212768 70.713752 -103 72.625 C-116.68677876 84.45907988 -116.68677876 84.45907988 -128.125 98.3125 C-128.125 102.27259225 -126.71719817 103.45770759 -124.25 106.5 C-123.53070313 107.40105469 -122.81140625 108.30210937 -122.0703125 109.23046875 C-121.42835938 109.91753906 -120.78640625 110.60460937 -120.125 111.3125 C-119.465 111.3125 -118.805 111.3125 -118.125 111.3125 C-117.85623047 111.90579102 -117.58746094 112.49908203 -117.31054688 113.11035156 C-116.12209268 115.31790033 -114.91757611 116.77792882 -113.15625 118.546875 C-112.58519531 119.12050781 -112.01414062 119.69414062 -111.42578125 120.28515625 C-110.83152344 120.87167969 -110.23726563 121.45820313 -109.625 122.0625 C-108.73361328 122.96548828 -108.73361328 122.96548828 -107.82421875 123.88671875 C-107.25316406 124.45519531 -106.68210937 125.02367187 -106.09375 125.609375 C-105.57232422 126.12854492 -105.05089844 126.64771484 -104.51367188 127.18261719 C-103.16481731 128.52287547 -103.16481731 128.52287547 -101.125 128.3125 C-101.125 128.9725 -101.125 129.6325 -101.125 130.3125 C-98.23552827 133.03971198 -95.06446415 135.43386036 -91.93945312 137.88525391 C-90.6860576 138.87117294 -89.43765134 139.86345617 -88.19335938 140.86083984 C-58.2087493 164.8847412 -24.03157638 177.80582688 14.703125 175.0390625 C50.8645103 170.89067847 81.02568131 152.63176497 107.06640625 127.9453125 C109.23378122 125.91358686 111.42655674 123.97814803 113.68359375 122.05078125 C118.21992504 118.10353516 122.29401583 113.78473012 126.375 109.375 C127.10203125 108.59576172 127.8290625 107.81652344 128.578125 107.01367188 C130.34726605 105.11650088 132.11279169 103.21610821 133.875 101.3125 C131.26144651 96.30885671 127.55161888 92.5446366 123.6875 88.5 C123.01130615 87.78658447 122.3351123 87.07316895 121.63842773 86.33813477 C114.64759642 78.98224259 107.58526297 71.91401441 99.875 65.3125 C98.86788348 64.43037901 97.861424 63.54750755 96.85546875 62.6640625 C73.54095993 42.29199607 50.5889509 25.90203856 19.875 19.3125 C18.9773291 19.05098145 18.9773291 19.05098145 18.06152344 18.78417969 C3.74941878 15.69675381 -14.51443842 17.01853317 -28.125 22.3125 Z " fill="#5B5B5B" transform="translate(538.125,249.6875)"/>
<path d="M0 0 C1.38688605 -0.00551503 1.38688605 -0.00551503 2.80179 -0.01114148 C5.91317399 -0.0221921 9.0245246 -0.02602449 12.13592529 -0.02983093 C14.36143602 -0.0360945 16.5869457 -0.0427412 18.81245422 -0.04974365 C24.86833494 -0.06716228 30.92420775 -0.07770761 36.98010731 -0.08594918 C40.76204631 -0.09109713 44.54398284 -0.09717293 48.3259201 -0.10346031 C58.79848523 -0.12033025 69.27104922 -0.13496541 79.74362564 -0.14220905 C82.46081799 -0.14411892 85.17801032 -0.14603925 87.89520264 -0.147995 C88.57053951 -0.14847874 89.24587639 -0.14896248 89.94167802 -0.14946087 C100.88140673 -0.15776099 111.82102609 -0.18309811 122.76070705 -0.21557567 C133.99428857 -0.24865368 145.22781659 -0.26632573 156.4614532 -0.26985329 C162.76792624 -0.27220625 169.07422642 -0.28119899 175.38065338 -0.30631447 C181.31336712 -0.32955976 187.24579374 -0.33384253 193.17854118 -0.32355309 C195.35579062 -0.32305677 197.53305402 -0.3294053 199.71026039 -0.34310913 C202.68356898 -0.36077641 205.6558414 -0.35374693 208.62915039 -0.34057617 C209.4899594 -0.35154542 210.35076842 -0.36251466 211.23766255 -0.37381631 C216.99704839 -0.31225732 220.32564484 0.83854765 225.06854248 4.14717102 C229.30889972 8.83388165 230.19341544 11.31332516 230.2157135 17.57337952 C230.21939019 18.24055756 230.22306688 18.9077356 230.22685498 19.59513116 C230.23790961 21.84132662 230.24173866 24.08747584 230.24554443 26.33369446 C230.25180778 27.93999886 230.25845446 29.5463018 230.26545715 31.15260315 C230.28287958 35.52464392 230.29342243 39.89667375 230.30166268 44.26874065 C230.30681053 46.99954354 230.31288638 49.73034301 230.31917381 52.46114349 C230.33822992 61.00305393 230.3524598 69.5449557 230.36078578 78.08688331 C230.37055879 87.95091293 230.39687815 97.81471818 230.43728667 107.67866874 C230.46743772 115.29997313 230.48225372 122.92121319 230.48556679 130.54257607 C230.48791857 135.0957485 230.49689531 139.64868135 230.52202797 144.20178986 C230.54529589 148.48640181 230.54954718 152.77061623 230.53926659 157.05527496 C230.53877079 158.62662579 230.5451042 160.19799609 230.55882263 161.76928711 C230.57652773 163.91767653 230.56944404 166.06463717 230.55628967 168.21302795 C230.55867803 169.41429195 230.56106638 170.61555595 230.56352711 171.85322189 C229.78966292 177.00301671 227.28416738 180.07626337 223.44354248 183.45967102 C219.92383035 185.96051911 218.107523 186.27554408 213.82440186 186.29243469 C212.72986694 186.29881454 211.63533203 186.3051944 210.50762939 186.31176758 C209.32116821 186.3128804 208.13470703 186.31399323 206.91229248 186.31513977 C205.69908325 186.31846817 204.48587402 186.32179657 203.23590088 186.32522583 C200.66693502 186.33029578 198.09796256 186.33263414 195.5289917 186.33247375 C191.5850346 186.33466187 187.64135635 186.35282167 183.69744873 186.3717804 C181.20656428 186.37471389 178.71567849 186.37669898 176.22479248 186.37763977 C175.0383313 186.38482529 173.85187012 186.3920108 172.62945557 186.39941406 C171.53492065 186.39633743 170.44038574 186.3932608 169.31268311 186.39009094 C168.34608765 186.39151596 167.37949219 186.39294098 166.38360596 186.39440918 C164.06854248 186.14717102 164.06854248 186.14717102 162.06854248 184.14717102 C161.75604248 181.20967102 161.75604248 181.20967102 162.06854248 178.14717102 C173.89130771 166.32440579 195.35241076 174.5028334 212.06854248 174.14717102 C186.32854248 148.40717102 160.58854248 122.66717102 134.06854248 96.14717102 C131.42854248 98.12717102 128.78854248 100.10717102 126.06854248 102.14717102 C124.11399444 103.58981362 122.15615564 105.02801978 120.19354248 106.45967102 C119.26799561 107.13642883 118.34244873 107.81318665 117.38885498 108.51045227 C113.13413007 111.51168078 109.51660626 111.39879426 104.44354248 111.45967102 C103.26985107 111.50317688 103.26985107 111.50317688 102.07244873 111.54756165 C93.7578904 111.6371879 88.17905805 108.59288941 82.24627686 102.9342804 C81.50861084 102.20434875 81.50861084 102.20434875 80.75604248 101.45967102 C76.90660058 97.57582169 76.90660058 97.57582169 72.06854248 95.14717102 C71.36729248 95.86002258 70.66604248 96.57287415 69.94354248 97.30732727 C68.98534955 98.27491425 68.02700809 99.24235415 67.06854248 100.20967102 C66.61092529 100.67566711 66.15330811 101.14166321 65.68182373 101.6217804 C62.3026467 105.02410248 58.76374607 108.18641969 55.13885498 111.32417297 C51.00094147 114.96778149 47.04541643 118.81194925 43.06854248 122.6295929 C29.70857174 135.29808078 29.70857174 135.29808078 23.06854248 135.14717102 C20.69354248 133.70967102 20.69354248 133.70967102 19.06854248 132.14717102 C19.21244408 127.39841834 21.5483747 125.28408425 24.79119873 122.18623352 C26.1233324 120.99348262 27.46247338 119.80832228 28.8180542 118.64228821 C33.79643166 114.34936599 38.46655122 109.83904492 43.06854248 105.14717102 C47.6629632 100.46301552 52.31536643 95.95262156 57.30682373 91.69013977 C58.97727242 90.22710821 60.59127548 88.8062555 62.06854248 87.14717102 C62.06854248 86.48717102 62.06854248 85.82717102 62.06854248 85.14717102 C60.49150617 83.70818421 60.49150617 83.70818421 58.38104248 82.20967102 C54.37186014 79.18232925 50.51211133 76.03288891 46.69354248 72.77217102 C42.68420268 69.35560214 38.65531123 65.971394 34.56854248 62.64717102 C30.50523768 59.34093028 26.49554939 55.97900674 22.50604248 52.58467102 C17.96483686 48.72252418 13.3598718 44.96145309 8.68572998 41.26045227 C4.91104642 38.21253614 1.22021049 35.06806824 -2.46661377 31.91474915 C-5.22537512 29.5612873 -8.01888225 27.30600901 -10.93145752 25.14717102 C-10.93732376 25.91724991 -10.94319 26.6873288 -10.94923401 27.48074341 C-11.00711788 34.73508763 -11.07916908 41.98908668 -11.16717243 49.24312305 C-11.21191623 52.97259171 -11.25116311 56.70195013 -11.27789307 60.43159485 C-11.30388665 64.03037654 -11.34426 67.62873488 -11.39464378 71.22725487 C-11.41133943 72.60072759 -11.42283692 73.97427359 -11.42907143 75.34783363 C-11.43868227 77.27040292 -11.46842417 79.19283979 -11.49908447 81.1151886 C-11.51573906 82.75733086 -11.51573906 82.75733086 -11.5327301 84.43264771 C-11.93145752 87.14717102 -11.93145752 87.14717102 -13.26707458 89.00854492 C-15.8036931 90.74387877 -17.94350902 90.40146451 -20.93145752 90.14717102 C-21.59145752 89.81717102 -22.25145752 89.48717102 -22.93145752 89.14717102 C-23.04756433 79.3762957 -23.13628052 69.60558584 -23.19051838 59.83415985 C-23.21655665 55.29632105 -23.25184821 50.75895598 -23.30865479 46.22138977 C-23.36318191 41.83821998 -23.39292142 37.4555044 -23.40584373 33.07202148 C-23.41504666 31.40390884 -23.433018 29.73581966 -23.4601078 28.06790161 C-23.70584798 12.30356119 -23.70584798 12.30356119 -19.31321716 6.52326965 C-13.38843818 0.62276423 -7.9679673 -0.00168902 0 0 Z M-6.93145752 12.14717102 C-2.67248876 16.40967354 -2.67248876 16.40967354 1.81854248 20.31123352 C2.84503906 21.15005066 2.84503906 21.15005066 3.89227295 22.0058136 C4.61044189 22.58871155 5.32861084 23.1716095 6.06854248 23.77217102 C7.59257115 25.01754167 9.11600276 26.26364332 10.63885498 27.51045227 C11.76468994 28.43205139 11.76468994 28.43205139 12.91326904 29.37226868 C15.94862686 31.87193466 18.94953329 34.41074195 21.94354248 36.95967102 C26.66704956 40.9775499 31.44667264 44.92006766 36.25604248 48.83467102 C39.94948158 51.87149872 43.59152734 54.96678057 47.23480225 58.06343079 C50.62808357 60.94262422 54.05122034 63.77921339 57.50604248 66.58467102 C62.36459205 70.53798865 67.11718338 74.60371354 71.86151123 78.69233704 C76.40036215 82.59572383 81.00637046 86.40240724 85.65838623 90.17060852 C87.83500633 91.95564867 89.95662575 93.78656797 92.06854248 95.64717102 C96.05496638 98.96919094 98.77037175 99.33795117 103.81854248 99.45967102 C104.82401123 99.49705383 105.82947998 99.53443665 106.86541748 99.57295227 C113.58566292 98.67965135 118.07031344 94.50459191 122.81854248 89.95967102 C127.42531672 85.61904673 132.16949669 81.55475318 137.09979248 77.58076477 C140.58186342 74.72638293 143.9848938 71.7902969 147.38104248 68.83467102 C148.01469727 68.28343567 148.64835205 67.73220032 149.3012085 67.16426086 C150.58719503 66.04523269 151.87308356 64.92609188 153.15887451 63.80683899 C160.28043461 57.61758233 167.41837941 51.45474968 174.75604248 45.52217102 C179.44017692 41.72274133 183.87786776 37.70316895 188.31463623 33.61982727 C191.88738295 30.41195681 195.60875375 27.41104563 199.34197998 24.39326477 C203.7097498 20.79517359 208.00914388 17.09209634 212.06854248 13.14717102 C212.06854248 12.81717102 212.06854248 12.48717102 212.06854248 12.14717102 C139.79854248 12.14717102 67.52854248 12.14717102 -6.93145752 12.14717102 Z M211.19354248 29.08467102 C206.60513902 33.09863925 201.99865502 37.06633765 197.25604248 40.89717102 C193.7661836 43.72204941 190.38843734 46.62434681 187.06854248 49.64717102 C182.83818492 53.49779569 178.46874976 57.13090307 174.02947998 60.73701477 C170.63205455 63.50246528 167.24714145 66.28119868 163.88104248 69.08467102 C163.30378418 69.55759583 162.72652588 70.03052063 162.1317749 70.51777649 C160.7390957 71.6833171 159.39835333 72.9103835 158.06854248 74.14717102 C158.06854248 74.80717102 158.06854248 75.46717102 158.06854248 76.14717102 C157.35311279 76.3817804 156.63768311 76.61638977 155.90057373 76.85810852 C152.57704611 78.37088661 150.42059247 80.28525769 147.75604248 82.77217102 C146.87303467 83.58943665 145.99002686 84.40670227 145.08026123 85.24873352 C144.41639404 85.8752179 143.75252686 86.50170227 143.06854248 87.14717102 C149.13576038 94.49169795 155.71214253 101.38151603 163.00604248 107.52217102 C166.10805033 110.18219133 168.81649303 113.02622402 171.53338623 116.07685852 C179.35832108 124.72874925 187.67722829 132.90543837 195.93328857 141.14228821 C198.72565087 143.92921693 201.51253494 146.721546 204.29901123 149.51435852 C206.06822129 151.28290905 207.83774085 153.05115004 209.60760498 154.81904602 C210.44288727 155.65635254 211.27816956 156.49365906 212.13876343 157.3563385 C212.90401337 158.11843628 213.66926331 158.88053406 214.45770264 159.66572571 C215.13289948 160.34012695 215.80809631 161.0145282 216.50375366 161.70936584 C217.83709259 163.25993727 217.83709259 163.25993727 219.06854248 163.14717102 C219.06854248 116.94717102 219.06854248 70.74717102 219.06854248 23.14717102 C216.51440371 23.14717102 213.16083258 27.35198557 211.19354248 29.08467102 Z " fill="#5B5B5B" transform="translate(453.93145751953125,559.8528289794922)"/>
<path d="M0 0 C9.12794027 4.86823481 13.08587489 16.4992066 17.4609375 25.34375 C18.22947304 26.88506592 18.22947304 26.88506592 19.01353455 28.45751953 C20.63392489 31.70938387 22.24871397 34.96399123 23.86328125 38.21875 C24.94949528 40.4012281 26.03608078 42.58352136 27.12304688 44.765625 C32.06309608 54.68575126 32.06309608 54.68575126 34.46487427 59.54785156 C35.37406266 61.36560527 36.3008176 63.17465485 37.2428894 64.97558594 C37.6982608 65.8524707 38.1536322 66.72935547 38.62280273 67.6328125 C39.03263901 68.40834473 39.44247528 69.18387695 39.86473083 69.98291016 C41.17190838 73.10522022 41.37974334 75.62582107 40.76171875 78.9375 C38.66087435 83.92487045 34.61954353 87.49894954 30.80078125 91.21875 C29.1330981 92.86355335 27.46637996 94.50933589 25.80078125 96.15625 C25.05828125 96.86652344 24.31578125 97.57679688 23.55078125 98.30859375 C19.80058987 102.40199461 20.46758514 107.57476206 20.53125 112.82421875 C20.93536898 117.91377519 22.50674659 121.70257351 24.80078125 126.21875 C25.32542969 127.32605469 25.85007812 128.43335938 26.390625 129.57421875 C31.55790009 140.12218757 38.47475683 149.0901 45.80078125 158.21875 C46.55875 159.17910156 47.31671875 160.13945313 48.09765625 161.12890625 C49.98164446 163.50649937 51.88922816 165.86330068 53.80078125 168.21875 C54.45820313 169.05019531 55.115625 169.88164063 55.79296875 170.73828125 C61.90397034 178.38262939 68.5046654 185.51223418 75.25439453 192.59326172 C76.50646567 193.90937944 77.74719953 195.23627663 78.984375 196.56640625 C89.6430218 207.72933312 103.01683929 218.97780985 118.92578125 220.15625 C129.01991486 219.69640614 134.42833691 212.66918114 141.05078125 205.84375 C144.9603069 201.87078378 148.0734847 199.5726987 153.81640625 199.02734375 C165.04805422 199.37075745 175.61040758 208.96807476 184.48828125 215.09375 C186.10781911 216.20591971 187.72736566 217.31807696 189.34738159 218.42955017 C190.46208193 219.19440406 191.57644014 219.95975681 192.69046021 220.7256012 C196.70643207 223.48231164 200.74979074 226.19549846 204.8046875 228.89453125 C205.94656228 229.65807908 207.08824774 230.4219101 208.22973633 231.18603516 C210.39558253 232.63396615 212.56580821 234.07537392 214.7409668 235.50927734 C225.9675 243.0487865 225.9675 243.0487865 228.75390625 249.38671875 C229.67741495 255.66900823 227.53938831 259.43227517 223.94921875 264.51953125 C211.11198285 280.64776762 191.37801089 293.13789953 170.80078125 296.21875 C155.44639971 297.16437747 140.53051299 296.81385314 125.80078125 292.21875 C124.59349365 291.8487085 124.59349365 291.8487085 123.36181641 291.47119141 C111.59820637 287.78955437 100.61951938 283.10131301 89.80078125 277.21875 C88.06634766 276.29642578 88.06634766 276.29642578 86.296875 275.35546875 C71.63492304 267.29890129 58.2580343 257.35261802 45.80078125 246.21875 C45.27613281 245.75049805 44.75148438 245.28224609 44.2109375 244.79980469 C35.23378654 236.75000001 26.73695129 228.59208755 19.19140625 219.16015625 C17.61455759 217.22001402 16.00013602 215.30973718 14.34765625 213.43359375 C-0.69431388 196.34249296 -12.72735446 176.81531718 -24.19921875 157.21875 C-24.91464844 156.00662842 -24.91464844 156.00662842 -25.64453125 154.77001953 C-34.85351264 139.08515087 -41.98278316 122.65018423 -47.19921875 105.21875 C-47.59238281 104.05988281 -47.98554688 102.90101563 -48.390625 101.70703125 C-51.3713777 91.60155258 -51.62611038 81.55644824 -51.69921875 71.09375 C-51.70966217 70.37335541 -51.72010559 69.65296082 -51.73086548 68.91073608 C-51.99514984 45.53037929 -43.6075634 26.71253605 -27.32421875 9.96875 C-19.57356274 2.2793118 -11.39357999 -4.04745293 0 0 Z M-20.63671875 19.28125 C-35.17701212 33.98178736 -40.59764003 52.52472822 -40.49975586 72.82470703 C-39.68874769 109.94196883 -18.94262293 144.68475632 1.12304688 174.70751953 C2.23852865 176.37717109 3.34924093 178.05001932 4.45507812 179.72607422 C11.21946358 189.97520403 18.308031 199.54117569 26.48095703 208.70458984 C28.40460816 210.91148668 30.18644516 213.22448479 31.98828125 215.53125 C42.3820656 228.27869929 54.48268567 239.59377533 67.80078125 249.21875 C68.86683594 249.99476563 69.93289063 250.77078125 71.03125 251.5703125 C97.29860569 270.19102019 133.56314093 290.88691128 166.94921875 285.59765625 C185.85283754 282.18930733 204.08905466 271.950259 215.23828125 255.90625 C216.9683214 253.44869886 216.9683214 253.44869886 216.80078125 251.21875 C215.06015056 249.78321109 215.06015056 249.78321109 212.76953125 248.34765625 C211.90440918 247.77909912 211.03928711 247.21054199 210.14794922 246.62475586 C209.20838379 246.01639893 208.26881836 245.40804199 207.30078125 244.78125 C205.35485848 243.50353311 203.409551 242.22487867 201.46484375 240.9453125 C200.49836914 240.31141602 199.53189453 239.67751953 198.53613281 239.02441406 C194.8841492 236.61366158 191.27429547 234.14584667 187.67578125 231.65625 C187.0521167 231.22650879 186.42845215 230.79676758 185.78588867 230.35400391 C182.97060337 228.41314428 180.15868299 226.46757624 177.35107422 224.515625 C174.77465446 222.72502543 172.1941241 220.94046645 169.61328125 219.15625 C168.81067871 218.59542725 168.00807617 218.03460449 167.18115234 217.45678711 C160.76863561 212.71818048 160.76863561 212.71818048 153.17578125 211.37890625 C150.37821054 212.36817879 149.550184 213.29360552 147.80078125 215.65625 C144.59029914 219.57701576 141.05531135 222.59581888 137.05078125 225.65625 C136.2 226.31161743 136.2 226.31161743 135.33203125 226.98022461 C128.48794269 232.13060494 122.13265128 231.81388357 113.80078125 231.21875 C92.75109143 227.19311808 78.07374747 211.63732878 63.48828125 197.15625 C62.56934082 196.24673584 61.65040039 195.33722168 60.70361328 194.40014648 C54.64522411 188.31276195 49.13173065 181.94819956 43.80078125 175.21875 C42.85919713 174.06158432 41.91667818 172.90517776 40.97265625 171.75 C29.63520269 157.55989683 19.12701994 142.91030367 11.80078125 126.21875 C11.5174292 125.58050293 11.23407715 124.94225586 10.94213867 124.28466797 C8.90396733 119.36386246 8.28641461 115.02675187 8.36328125 109.71875 C8.37230469 108.97117432 8.38132812 108.22359863 8.390625 107.45336914 C8.68329441 98.16822879 11.97913032 93.65760107 18.62890625 87.3828125 C22.38779445 83.63744548 25.56635131 79.41662716 28.80078125 75.21875 C23.16626707 62.98082369 17.15372245 50.97466814 10.91040039 39.03588867 C7.23526721 32.00604939 3.61280824 24.95823277 0.19702148 17.7980957 C-1.85865781 13.49577515 -1.85865781 13.49577515 -5.19921875 10.21875 C-11.96905407 10.21875 -15.99558979 14.7074814 -20.63671875 19.28125 Z " fill="#5A5A5A" transform="translate(374.19921875,499.78125)"/>
<path d="M0 0 C3.32514349 -0.00290944 6.65028374 -0.00707524 9.97542572 -0.01134872 C23.65602447 -0.02599297 37.33582273 0.00252772 51.01610565 0.09993362 C53.11629822 0.11485161 55.21649822 0.12875441 57.3167038 0.14171219 C63.54812381 0.18152 69.77858821 0.2437403 76.00941467 0.33911896 C77.9324955 0.36598235 79.85567903 0.38638017 81.77890015 0.39987183 C84.42062142 0.42016817 87.06078259 0.46530372 89.70204926 0.51706314 C90.4722364 0.51790028 91.24242355 0.51873741 92.03594971 0.51959991 C97.19136051 0.65814001 100.13766087 1.89432414 104.12880707 5.12204361 C107.51390058 8.95848293 107.64513604 12.75636669 107.47646332 17.68454361 C106.95071202 21.37071005 105.64066315 23.4118831 103.12880707 26.12204361 C98.98877009 28.56024459 95.90896854 29.50231799 91.12245941 29.55441666 C89.94719193 29.57420074 88.77192444 29.59398483 87.56104279 29.61436844 C85.65712517 29.62396843 85.65712517 29.62396843 83.71474457 29.63376236 C82.36545007 29.65078211 81.01617064 29.66903499 79.66690826 29.6884346 C76.0367596 29.73671003 72.4066809 29.76642658 68.77630997 29.79200363 C65.71690903 29.81561717 62.65765295 29.84937052 59.59834957 29.88311386 C50.44904161 29.98375581 41.2996827 30.05244921 32.15000916 30.1091423 C29.16652742 30.12818583 26.1830705 30.15053061 23.19960785 30.17233658 C9.55757859 30.26457714 -4.08200256 30.22925686 -17.72397614 30.14487076 C-21.58565102 30.12237231 -25.44733699 30.10776545 -29.30905056 30.09369469 C-38.60769561 30.05972895 -47.90604123 30.00887687 -57.20445919 29.93492699 C-61.89482501 29.89784436 -66.58502836 29.86687487 -71.27552032 29.85159683 C-75.71000022 29.83660709 -80.14393448 29.80232638 -84.57817078 29.75386047 C-86.22790864 29.73905151 -87.87772276 29.73099649 -89.52752686 29.73012543 C-91.81039936 29.72776146 -94.09175689 29.70076941 -96.37436676 29.66794205 C-97.65870102 29.6590596 -98.94303528 29.65017715 -100.26628876 29.64102554 C-105.43739123 28.89656504 -109.23231225 26.91952564 -112.80869293 22.99704361 C-114.40806035 18.66934355 -114.52806693 14.67637002 -113.87119293 10.12204361 C-111.64679915 5.5908711 -109.40988832 3.25048038 -104.87119293 1.12204361 C-101.8354099 0.64867238 -98.82242038 0.63284738 -95.75400543 0.61032486 C-94.32177139 0.5832621 -94.32177139 0.5832621 -92.86060333 0.55565262 C-89.57250304 0.499322 -86.28461714 0.46633857 -82.99619293 0.43454361 C-80.59807646 0.40183106 -78.19996462 0.36877717 -75.80185699 0.33542252 C-50.53661621 0.02190179 -25.26680468 0.02038115 0 0 Z " fill="#5B5B5B" transform="translate(526.8711929321289,465.87795639038086)"/>
<path d="M0 0 C11.30652056 8.37971709 19.12069907 19.79457268 21.53515625 33.87890625 C22.8490429 49.32471322 20.16699735 62.1917859 10.4609375 74.51171875 C1.98965088 84.41706262 -9.30171776 91.97866551 -22.46484375 93.87890625 C-30.35451124 94.25881185 -37.92727554 94.43401412 -45.46484375 91.87890625 C-46.25117187 91.62238281 -47.0375 91.36585938 -47.84765625 91.1015625 C-60.28009543 86.67226842 -71.44078976 76.62688342 -77.46484375 64.87890625 C-78.05458984 63.81929687 -78.05458984 63.81929687 -78.65625 62.73828125 C-83.84504597 51.52903559 -83.55479515 35.1916841 -79.46484375 23.62890625 C-73.03840299 9.98618285 -63.13921254 -0.12863824 -49.265625 -6.1484375 C-32.12157057 -12.10223046 -15.1728545 -10.1074193 0 0 Z M-56.859375 20.9609375 C-62.34497766 27.51429736 -64.96972005 36.2387623 -64.71875 44.73828125 C-63.90341745 51.61216184 -61.61361163 57.39182616 -57.46484375 62.87890625 C-56.80484375 63.86890625 -56.14484375 64.85890625 -55.46484375 65.87890625 C-54.80484375 65.87890625 -54.14484375 65.87890625 -53.46484375 65.87890625 C-53.46484375 66.53890625 -53.46484375 67.19890625 -53.46484375 67.87890625 C-51.4246342 69.41086479 -51.4246342 69.41086479 -48.83984375 70.87890625 C-47.98132813 71.39453125 -47.1228125 71.91015625 -46.23828125 72.44140625 C-38.18604244 76.61496101 -29.18097983 77.49021502 -20.40234375 75.015625 C-18.02388133 74.06493144 -15.74152863 73.05017595 -13.46484375 71.87890625 C-12.80484375 71.54890625 -12.14484375 71.21890625 -11.46484375 70.87890625 C-11.46484375 70.21890625 -11.46484375 69.55890625 -11.46484375 68.87890625 C-10.86671875 68.77707031 -10.26859375 68.67523438 -9.65234375 68.5703125 C-5.16482249 67.15193525 -2.50452359 62.67292794 -0.2265625 58.7421875 C4.10037087 50.2299295 4.90972225 41.36650756 2.921875 31.984375 C-0.64585423 22.00416328 -7.64063855 15.771401 -16.8515625 10.97265625 C-31.52270428 4.83226806 -46.31335281 10.04242888 -56.859375 20.9609375 Z " fill="#5B5B5B" transform="translate(571.46484375,328.12109375)"/>
<path d="" fill="#696969" transform="translate(0,0)"/>
<path d="" fill="#575757" transform="translate(0,0)"/>
<path d="" fill="#5B5B5B" transform="translate(0,0)"/>
<path d="" fill="#5F5F5F" transform="translate(0,0)"/>
<path d="" fill="#5A5A5A" transform="translate(0,0)"/>
</svg>
