<?xml version="1.0" encoding="UTF-8"?>
<svg version="1.1" xmlns="http://www.w3.org/2000/svg" width="400" height="400">
<path d="M0 0 C1.07145264 0.30550781 1.07145264 0.30550781 2.16455078 0.6171875 C25.43021569 7.45909849 45.17728151 20.72261344 62 38 C62.48339844 38.42667969 62.96679688 38.85335937 63.46484375 39.29296875 C84.30665442 58.36935546 96.99241953 91.57758316 98.90625 119.328125 C98.9371875 120.20984375 98.968125 121.0915625 99 122 C99.07734375 123.91039062 99.07734375 123.91039062 99.15625 125.859375 C99.84144582 151.06155664 94.21502488 174.97280623 82 197 C81.4225 198.07894531 80.845 199.15789062 80.25 200.26953125 C76.22980751 207.51890613 71.42181543 213.74841108 66 220 C65.35160156 220.78246094 64.70320312 221.56492187 64.03515625 222.37109375 C58.9495462 228.37190561 53.2131546 233.2001011 47 238 C46.20464844 238.64582031 45.40929687 239.29164063 44.58984375 239.95703125 C38.5975432 244.61981979 32.20105277 248.20681982 25.5 251.75 C24.63391113 252.21003418 23.76782227 252.67006836 22.87548828 253.14404297 C14.23243925 257.60953696 5.89062813 261.7464625 -4 261 C-4 261.66 -4 262.32 -4 263 C-10.6399554 264.69291843 -16.72361559 265.31954068 -23.5625 265.3359375 C-24.55266113 265.3425943 -25.54282227 265.3492511 -26.56298828 265.35610962 C-28.65053467 265.36618378 -30.73811292 265.37092827 -32.82568359 265.37060547 C-35.96378037 265.37494986 -39.10043519 265.41124702 -42.23828125 265.44921875 C-58.24142269 265.54045664 -72.3396168 263.47495093 -87.1875 257.25 C-88.0235376 256.90565918 -88.8595752 256.56131836 -89.72094727 256.20654297 C-123.24968026 242.05904535 -148.83312527 214.890723 -162.98632812 181.57226562 C-173.13244013 155.82577332 -175.37691794 126.96452274 -169 100 C-168.8443457 99.31744141 -168.68869141 98.63488281 -168.52832031 97.93164062 C-164.35700195 80.26390099 -156.19916624 63.27050949 -145 49 C-144.58137695 48.4647168 -144.16275391 47.92943359 -143.73144531 47.37792969 C-110.20556722 4.95489492 -52.65286829 -15.47700551 0 0 Z M-122 30 C-123.24910156 31.06541016 -123.24910156 31.06541016 -124.5234375 32.15234375 C-148.65908039 53.28031422 -162.90489599 81.51682002 -168 113 C-168.13148438 113.75796875 -168.26296875 114.5159375 -168.3984375 115.296875 C-173.16853486 148.55863497 -162.59594335 183.19058932 -143 210 C-139.52489151 214.50575384 -135.80814773 218.77444268 -132 223 C-131.05253906 224.07314453 -131.05253906 224.07314453 -130.0859375 225.16796875 C-109.16014608 247.52261377 -76.6892875 261.7512769 -46.20117188 263.1262207 C-12.64175628 263.96627283 21.79374413 256.38524036 47.5 233.3125 C49.00124934 231.8763048 50.50135691 230.43891457 52 229 C53.32908596 227.89072441 54.66227676 226.78634409 56 225.6875 C77.63180993 206.66193223 92.21425748 175.45688873 95 147 C95.06558105 146.33242676 95.13116211 145.66485352 95.19873047 144.97705078 C98.59283419 107.91864729 87.33681733 73.55525556 63.8215332 44.80517578 C42.796742 19.65434159 11.2678413 2.74363119 -21.3828125 -0.7890625 C-58.14610149 -3.75207385 -93.73853726 5.74301162 -122 30 Z " fill="#000000" transform="translate(244,60)"/>
<path d="M0 0 C2.97 0 5.94 0 9 0 C8.67 1.65 8.34 3.3 8 5 C4.62537285 4.45276317 2.91765 3.9451 0 2 C0 1.34 0 0.68 0 0 Z " fill="#000000" transform="translate(201,71)"/>
<path d="M0 0 C2.98307053 3.22171617 4.37583401 6.97825564 6 11 C6.433125 10.236875 6.86625 9.47375 7.3125 8.6875 C9 6 9 6 10.625 4.5 C12.46853498 2.48887093 12.54487965 0.64485033 13 -2 C15.25028329 -1.85860519 17.50022206 -1.71171997 19.75 -1.5625 C21.62945312 -1.44068359 21.62945312 -1.44068359 23.546875 -1.31640625 C28.69538117 -0.84465399 28.69538117 -0.84465399 31 0 C31.33 0.66 31.66 1.32 32 2 C33.0725 1.9175 34.145 1.835 35.25 1.75 C57.29911611 1.90418962 80.58772625 20.93145075 95.5390625 35.46875 C108.0567649 48.73839918 118.41541272 66.2729292 123 84 C122.67 84.99 122.34 85.98 122 87 C119.03 86.01 119.03 86.01 116 85 C116.62648438 85.29390625 117.25296875 85.5878125 117.8984375 85.890625 C124.47086223 89.49820198 124.47086223 89.49820198 125.87817383 93.49243164 C126.96351105 101.4107216 127.34903903 109.19657397 127.3125 117.1875 C127.30512817 119.10006592 127.30512817 119.10006592 127.29760742 121.05126953 C126.87957626 154.79817526 112.56301865 183.29938708 89 207 C87.05830001 208.8566709 85.18306638 210.40227016 83 212 C79.91846453 210.97282151 78.73117647 209.83594686 76.5390625 207.54296875 C73.52313339 204.519385 70.2347297 201.78523872 67 199 C67 199.66 67 200.32 67 201 C68.65448684 202.634689 68.65448684 202.634689 70.75 204.3125 C73.88225788 206.9885498 76.76161519 209.49644117 79 213 C77.63603413 217.09189762 75.65151017 217.61547327 71.9375 219.6875 C70.83277344 220.31011719 69.72804688 220.93273437 68.58984375 221.57421875 C67.73519531 222.04472656 66.88054687 222.51523437 66 223 C65.34 221.68 64.68 220.36 64 219 C64.825 218.38125 65.65 217.7625 66.5 217.125 C67.325 216.42375 68.15 215.7225 69 215 C69 214.34 69 213.68 69 213 C66.65466049 212.23043864 66.65466049 212.23043864 64 212 C61.98048938 212.93597315 61.98048938 212.93597315 61 215 C61.24078037 218.85248595 61.84026622 220.76039934 64 224 C35.936581 238.97837656 3.68987482 242.60599192 -27.0078125 233.5703125 C-39.74395649 229.59081192 -39.74395649 229.59081192 -43 226 C-42.34 226 -41.68 226 -41 226 C-40.34 224.35 -39.68 222.7 -39 221 C-35.37198248 220.5602403 -33.35397312 221.21089189 -30.3125 223.0625 C-28.6728125 224.0215625 -28.6728125 224.0215625 -27 225 C-26.34 224.67 -25.68 224.34 -25 224 C-31.93870492 219.28168066 -39.26885234 216.15978086 -47 213 C-46.67 213.33 -46.34 213.66 -46 214 C-45.76470588 219.52941176 -45.76470588 219.52941176 -47 222 C-46.67 222.99 -46.34 223.98 -46 225 C-50.8871714 223.61219255 -54.87860886 221.44225216 -59.0625 218.625 C-60.03497681 217.97277466 -60.03497681 217.97277466 -61.02709961 217.30737305 C-70.43672592 210.8207029 -78.88346515 202.94650095 -86 194 C-84.68 193.67 -83.36 193.34 -82 193 C-82.33 191.35 -82.66 189.7 -83 188 C-81.4375 186.375 -81.4375 186.375 -79 185 C-77.3379565 185.47863808 -75.677263 185.96301054 -74.02734375 186.48190308 C-70.4037248 187.40793539 -66.75336358 187.33951145 -63.03125 187.37890625 C-62.1921106 187.39590073 -61.35297119 187.4128952 -60.48840332 187.43040466 C-57.82567732 187.483167 -55.16296221 187.52364402 -52.5 187.5625 C-49.83711694 187.60666418 -47.17434355 187.65356577 -44.51159668 187.70530701 C-42.8610467 187.73685255 -41.2104015 187.76386354 -39.55969238 187.78553772 C-38.42316223 187.80577248 -38.42316223 187.80577248 -37.26367188 187.82641602 C-36.60749878 187.83592789 -35.95132568 187.84543976 -35.27526855 187.85523987 C-33 188 -33 188 -29.65370178 188.50276184 C-26.14069377 188.98085276 -22.81945526 189.12690594 -19.27709961 189.12939453 C-17.98142563 189.13254669 -16.68575165 189.13569885 -15.35081482 189.13894653 C-13.95132412 189.13715508 -12.55183372 189.13510371 -11.15234375 189.1328125 C-9.69373051 189.13348763 -8.23511738 189.1344594 -6.77650452 189.13571167 C-3.72281826 189.13718205 -0.66916134 189.13505751 2.38452148 189.13037109 C6.25827186 189.12470979 10.13195237 189.12793404 14.00570011 189.13394356 C17.01983646 189.13759755 20.03395691 189.13638805 23.0480938 189.13381577 C24.47393235 189.13315793 25.89977245 189.13393391 27.32560921 189.13629532 C35.6232337 189.14701294 43.83059636 188.89635485 52.10154724 188.21408081 C61.66300962 187.5078676 71.41186561 188 81 188 C81 189.65 81 191.3 81 193 C78.03 193.99 78.03 193.99 75 195 C78.96 195.99 78.96 195.99 83 197 C83.28875 195.88625 83.5775 194.7725 83.875 193.625 C85 190 85 190 87 188 C88.75550377 187.35264032 90.52942301 186.75451366 92.3125 186.1875 C98.34457268 184.04276305 101.53351985 181.74036422 104.5997467 176.01060486 C106.60358814 171.15643526 106.4273767 166.32504774 106.40405273 161.14282227 C106.41091599 160.07200409 106.41777924 159.00118591 106.42485046 157.8979187 C106.4430991 154.37061166 106.4392836 150.84375021 106.43359375 147.31640625 C106.4381564 144.85692704 106.44346222 142.39744911 106.44947815 139.93797302 C106.45840543 134.78761612 106.45599026 129.63741431 106.44604492 124.48706055 C106.43455487 117.89522983 106.45476996 111.30393477 106.48396206 104.71217442 C106.50232989 99.63429885 106.50203039 94.55655151 106.49632454 89.47865105 C106.4961714 87.04863674 106.5022093 84.6186137 106.51461601 82.18863106 C106.52953481 78.78760533 106.51884122 75.38756761 106.50170898 71.98657227 C106.51137695 70.98839981 106.52104492 69.99022736 106.53100586 68.96180725 C106.46635203 62.81568791 105.53467797 58.12049659 102 53 C97.92885168 49.13240909 94.1915292 46.77290414 88.52954102 46.69702148 C87.65084854 46.68037949 86.77215607 46.66373749 85.86683655 46.64659119 C84.92206955 46.63817703 83.97730255 46.62976288 83.00390625 46.62109375 C82.01937973 46.60409927 81.03485321 46.5871048 80.02049255 46.56959534 C76.86789399 46.51650461 73.71530454 46.47626892 70.5625 46.4375 C67.4419048 46.39321393 64.32139905 46.34607478 61.20091248 46.29469299 C59.26190413 46.26338077 57.32282035 46.23630837 55.38368225 46.21446228 C50.42465259 46.14071152 45.51895009 45.90624125 40.57592773 45.49291992 C34.23760301 44.97515282 27.95078946 44.85494884 21.59375 44.8671875 C20.46658569 44.86623077 19.33942139 44.86527405 18.17810059 44.86428833 C15.81518497 44.8636134 13.45226743 44.86541925 11.08935547 44.86962891 C7.50874599 44.87498691 3.92826191 44.86966029 0.34765625 44.86328125 C-1.96614611 44.86394215 -4.27994838 44.86522357 -6.59375 44.8671875 C-7.64518188 44.86516327 -8.69661377 44.86313904 -9.77990723 44.86105347 C-16.19521761 44.88091491 -22.51738009 45.2383014 -28.90939331 45.77310181 C-33.33469646 46.0979873 -37.74054409 46.13511267 -42.17578125 46.140625 C-44.0110804 46.15892481 -45.84636727 46.17849241 -47.68164062 46.19921875 C-50.51006658 46.22827876 -53.33767403 46.25000431 -56.16625977 46.25048828 C-58.94096645 46.25383274 -61.71388724 46.2883843 -64.48828125 46.328125 C-65.32490799 46.3210553 -66.16153473 46.3139856 -67.02351379 46.30670166 C-73.11926137 46.43204708 -77.28708868 48.09774613 -82 52 C-85.8269932 56.8082735 -87.11769164 60.52541635 -87.14044189 66.56524658 C-87.14615204 67.47632675 -87.15186218 68.38740692 -87.15774536 69.32609558 C-87.15886322 70.31837662 -87.15998108 71.31065765 -87.16113281 72.33300781 C-87.16609772 73.38388077 -87.17106262 74.43475372 -87.17617798 75.51747131 C-87.19078957 78.9960292 -87.19760021 82.47454146 -87.203125 85.953125 C-87.20887758 88.37204998 -87.2146353 90.79097495 -87.22039795 93.2098999 C-87.23090529 98.2839784 -87.23674961 103.35804106 -87.24023438 108.43212891 C-87.24571641 114.92640849 -87.26973959 121.42047814 -87.29820633 127.91469193 C-87.31685246 132.91276659 -87.32203939 137.9107909 -87.32357025 142.9088974 C-87.32659317 145.3026316 -87.33460949 147.69636499 -87.34775543 150.090065 C-87.36485564 153.44334265 -87.36292562 156.79611022 -87.35644531 160.14941406 C-87.3656601 161.13359818 -87.37487488 162.11778229 -87.3843689 163.13179016 C-87.34802484 169.15106939 -86.33332097 173.45876023 -84 179 C-84 179.99 -84 180.98 -84 182 C-85.32267727 183.01405257 -86.65724831 184.01268258 -88 185 C-88.708348 186.3116651 -89.38167041 187.64357428 -90 189 C-91.44137875 186.79411638 -92.87815365 184.58545003 -94.3125 182.375 C-94.71662109 181.75753906 -95.12074219 181.14007813 -95.53710938 180.50390625 C-102.12317653 170.33030657 -102.12317653 170.33030657 -101.6875 165.625 C-101.460625 164.75875 -101.23375 163.8925 -101 163 C-99.02 162.67 -97.04 162.34 -95 162 C-94.01 156.555 -94.01 156.555 -93 151 C-93.99 150.67 -94.98 150.34 -96 150 C-96.3403125 151.2065625 -96.3403125 151.2065625 -96.6875 152.4375 C-98 155 -98 155 -100.3125 156.0625 C-103 156 -103 156 -105.625 154.75 C-110.66873775 148.90988261 -111.29458529 140.47739588 -112 133 C-108.7 132.67 -105.4 132.34 -102 132 C-103.98 129.525 -103.98 129.525 -106 127 C-107.98 127.33 -109.96 127.66 -112 128 C-117.14733943 110.33433108 -110.11090409 86.07518212 -103 70 C-102.67 70 -102.34 70 -102 70 C-101.67 71.65 -101.34 73.3 -101 75 C-98.525 74.505 -98.525 74.505 -96 74 C-96.845625 73.113125 -97.69125 72.22625 -98.5625 71.3125 C-100.00390625 69.80078125 -100.00390625 69.80078125 -101 68 C-100.78800209 63.43811906 -98.44194851 59.81420555 -96.125 56 C-95.72933838 55.34572021 -95.33367676 54.69144043 -94.92602539 54.01733398 C-90.61028424 47.08350496 -85.4936223 41.02074648 -80 35 C-79.35675781 34.27425781 -78.71351562 33.54851562 -78.05078125 32.80078125 C-67.59004368 21.61391872 -53.85011277 13.28844806 -40 7 C-39.01 7 -38.02 7 -37 7 C-36.89530662 12.75813575 -37.25983299 18.29014022 -38 24 C-34.57016127 22.5178524 -34.57016127 22.5178524 -32 20 C-31.14674245 14.93426373 -31.59412313 9.92637845 -33 5 C-26.32269282 1.66134641 -19.30081433 0.37258678 -12 -1 C-11.16082031 -1.15855469 -10.32164062 -1.31710938 -9.45703125 -1.48046875 C-5.7097388 -2.07806698 -3.07913303 -2.39488125 0 0 Z M-9.75 31.625 C-12 33 -12 33 -15.75 32.1875 C-16.8225 31.795625 -17.895 31.40375 -19 31 C-17.94124926 34.40312738 -16.99097846 37.01353231 -15 40 C-13.09542071 40.43827201 -13.09542071 40.43827201 -11 40.3125 C-9.948125 40.30669922 -9.948125 40.30669922 -8.875 40.30078125 C-6.7583423 40.14912946 -6.7583423 40.14912946 -5 38 C-2.6875 38.3125 -2.6875 38.3125 0 39 C0.928125 39.185625 1.85625 39.37125 2.8125 39.5625 C3.534375 39.706875 4.25625 39.85125 5 40 C2.02274613 35.99215825 -1.01573333 32.9670071 -5 30 C-8.03162353 29.65977445 -8.03162353 29.65977445 -9.75 31.625 Z M51 43 C51 43.66 51 44.32 51 45 C56.28 45 61.56 45 67 45 C61.24151287 39.24151287 57.95610037 38.85946406 51 43 Z M-44 192 C-44 194.31 -44 196.62 -44 199 C-40.20411134 198.45773019 -38.52788007 196.79872437 -36 194 C-39.65729716 190.8636191 -39.65729716 190.8636191 -44 192 Z M-27 194 C-27 195.32 -27 196.64 -27 198 C-28.98 198.99 -28.98 198.99 -31 200 C-30.195625 200.969375 -29.39125 201.93875 -28.5625 202.9375 C-25.85769398 206.64716412 -25.57240396 209.55406336 -25.296875 214.0390625 C-25.14482766 216.20876181 -25.14482766 216.20876181 -23.1875 218.125 C-20.63287356 219.14685058 -19.52643395 218.99252762 -17 218 C-17.474375 217.401875 -17.94875 216.80375 -18.4375 216.1875 C-20 214 -20 214 -21 211 C-17.7 211.66 -14.4 212.32 -11 213 C-11.36930337 205.79858436 -15.62098318 200.32237356 -20.625 195.4375 C-23.10764105 193.65479821 -23.10764105 193.65479821 -27 194 Z M-74 200 C-73.61328125 200.44730469 -73.2265625 200.89460937 -72.828125 201.35546875 C-70.44467888 204.12239012 -68.08629657 206.89151288 -65.8125 209.75 C-65.214375 210.4925 -64.61625 211.235 -64 212 C-63.566875 212.556875 -63.13375 213.11375 -62.6875 213.6875 C-60.08155951 215.71434261 -57.16504751 216.22366759 -54 217 C-55.95151801 214.49090542 -57.80332389 212.17419884 -60.1875 210.0625 C-62.48413997 207.44908211 -62.68992739 205.41079876 -63 202 C-64.258125 201.855625 -65.51625 201.71125 -66.8125 201.5625 C-69.42667123 201.26251314 -71.47439892 200.84186703 -74 200 Z M23 211 C24.485 211.99 24.485 211.99 26 213 C29.67480584 211.69903526 29.67480584 211.69903526 33 210 C29.18510326 208.53273202 26.70988378 209.56663581 23 211 Z M36 210 C38.05233685 212.2477975 39.00667261 213.0022242 42 214 C44.33299825 214.03954234 46.66708189 214.04401732 49 214 C45.99559979 211.99706653 44.29006055 211.50728374 40.8125 210.875 C39.91144531 210.70742188 39.01039063 210.53984375 38.08203125 210.3671875 C37.39496094 210.24601563 36.70789063 210.12484375 36 210 Z " fill="#000000" transform="translate(200,73)"/>
<path d="M0 0 C0.64887698 -0.00226556 1.29775396 -0.00453111 1.96629387 -0.00686532 C4.15040376 -0.01321832 6.33445181 -0.01237513 8.51856995 -0.0115509 C10.08048076 -0.01454158 11.64239083 -0.01794389 13.20429993 -0.02172852 C17.45425132 -0.03058181 21.70418261 -0.03290718 25.95414233 -0.0335443 C29.49804017 -0.03449233 33.04193329 -0.03816938 36.58582932 -0.0417164 C44.94443408 -0.04986591 53.30302807 -0.05230017 61.66163635 -0.05158997 C70.29353825 -0.05098894 78.9253777 -0.06154447 87.55726379 -0.07733363 C94.96026512 -0.09039407 102.36324601 -0.0957745 109.76625878 -0.09513456 C114.19126552 -0.09487914 118.61621678 -0.09775434 123.04121208 -0.10831261 C127.20179563 -0.11796854 131.36227037 -0.11809008 135.52285767 -0.11079597 C137.05191773 -0.10974702 138.58098448 -0.11213134 140.11003304 -0.11815643 C142.19343917 -0.1258357 144.27646574 -0.12125894 146.35986328 -0.11352539 C148.11059977 -0.11434254 148.11059977 -0.11434254 149.89670467 -0.1151762 C152.74342346 0.13371277 152.74342346 0.13371277 155.74342346 2.13371277 C152.90255078 4.99962026 150.0581621 7.86198974 147.21070862 10.72135925 C146.24590888 11.6911355 145.28201451 12.66181347 144.31910706 13.63346863 C135.29660346 22.73577584 135.29660346 22.73577584 130.83717346 26.53605652 C124.97976897 31.55168279 119.65874998 37.15127391 114.24342346 42.63371277 C101.97056671 55.05866748 101.97056671 55.05866748 95.58961487 60.48820496 C93.52275938 62.33039036 91.61884035 64.27859071 89.70826721 66.28215027 C89.04375549 66.97695496 88.37924377 67.67175964 87.69459534 68.38761902 C86.33856183 69.81599184 84.9923405 71.25373696 83.65553284 72.70011902 C80.45140419 76.01945929 78.46668554 77.91290379 73.98170471 79.28215027 C70.43302077 79.11948442 69.45570844 78.84599774 66.99342346 76.38371277 C66.00729065 75.42851746 66.00729065 75.42851746 65.00123596 74.45402527 C64.25615784 73.68832214 63.51107971 72.92261902 62.74342346 72.13371277 C61.78382993 71.17143318 60.82281119 70.21057338 59.86061096 69.25090027 C58.37368155 67.76784055 56.89113057 66.28197259 55.42408752 64.77922058 C52.84552472 62.11439652 52.84552472 62.11439652 49.74342346 60.13371277 C49.74342346 59.47371277 49.74342346 58.81371277 49.74342346 58.13371277 C49.08342346 58.13371277 48.42342346 58.13371277 47.74342346 58.13371277 C46.01535211 56.5054668 44.37935647 54.85086667 42.74342346 53.13371277 C41.68096219 52.06118147 40.61596563 50.99115748 39.54884338 49.92326355 C38.97442001 49.34561249 38.39999664 48.76796143 37.8081665 48.17280579 C35.20341515 45.55455517 32.59590652 42.9390574 29.98829651 40.32365417 C28.62118022 38.95150874 27.25496275 37.57846717 25.8896637 36.20451355 C23.89932495 34.20192583 21.90566793 32.20269149 19.91139221 30.20402527 C19.31215439 29.59962616 18.71291656 28.99522705 18.09552002 28.37251282 C14.39298193 24.66949577 10.5688653 21.16505638 6.59542847 17.7539978 C3.52314436 15.06611308 0.6306037 12.205028 -2.25657654 9.32121277 C-2.84052185 8.74951355 -3.42446716 8.17781433 -4.02610779 7.58879089 C-5.47672858 6.14326596 -6.87209971 4.6427081 -8.25657654 3.13371277 C-8.25657654 2.47371277 -8.25657654 1.81371277 -8.25657654 1.13371277 C-5.45236665 -0.26839218 -3.1381342 0.00450729 0 0 Z M54.74342346 2.13371277 C58.10964227 5.92070893 62.1598415 8.96097587 66.74342346 11.13371277 C67.40342346 10.80371277 68.06342346 10.47371277 68.74342346 10.13371277 C67.36203008 8.78542467 65.96265866 7.45553899 64.55592346 6.13371277 C63.77861877 5.39121277 63.00131409 4.64871277 62.20045471 3.88371277 C59.41297142 1.89835106 58.08560978 1.75378395 54.74342346 2.13371277 Z M44.74342346 4.13371277 C45.9635029 6.82426557 45.9635029 6.82426557 47.74342346 9.13371277 C47.81547858 10.81980243 47.82728414 12.50871936 47.80592346 14.19621277 C47.79690002 15.11531433 47.78787659 16.03441589 47.77857971 16.98136902 C47.76697815 17.69164246 47.75537659 18.40191589 47.74342346 19.13371277 C49.06342346 19.13371277 50.38342346 19.13371277 51.74342346 19.13371277 C53.06342346 16.82371277 54.38342346 14.51371277 55.74342346 12.13371277 C54.29054685 10.79443556 52.83095087 9.46244429 51.36842346 8.13371277 C50.55631409 7.39121277 49.74420471 6.64871277 48.90748596 5.88371277 C46.94808355 3.92411464 46.94808355 3.92411464 44.74342346 4.13371277 Z M124.74342346 6.13371277 C126.06342346 7.45371277 127.38342346 8.77371277 128.74342346 10.13371277 C129.07342346 7.82371277 129.40342346 5.51371277 129.74342346 3.13371277 C127.7751946 3.13371277 126.23813801 4.97651441 124.74342346 6.13371277 Z M61.74342346 26.13371277 C62.40342346 28.11371277 63.06342346 30.09371277 63.74342346 32.13371277 C67.52069435 30.32062274 71.11612169 28.22638687 74.74342346 26.13371277 C74.74342346 25.80371277 74.74342346 25.47371277 74.74342346 25.13371277 C72.95183857 25.10674912 71.16013873 25.0873336 69.36842346 25.07121277 C67.8718219 25.05381042 67.8718219 25.05381042 66.34498596 25.03605652 C63.75909893 24.95364675 63.75909893 24.95364675 61.74342346 26.13371277 Z " fill="#000000" transform="translate(136.25657653808594,128.8662872314453)"/>
<path d="M0 0 C10.86517687 9.31300874 21.11059469 18.99322084 31.14941406 29.1862793 C34.75354975 32.8299836 38.36675261 36.37428456 42.265625 39.703125 C45.5941429 42.55065286 48.30673276 45.54925135 51 49 C48.83656815 51.1907786 46.66938036 53.37762406 44.5 55.5625 C43.89929688 56.17158203 43.29859375 56.78066406 42.6796875 57.40820312 C39.67683504 60.42702821 36.64603826 63.33903464 33.3984375 66.09375 C29.54404224 69.4188445 25.96290767 72.9758095 22.3828125 76.58984375 C21.79493958 77.18322037 21.20706665 77.77659698 20.60137939 78.38795471 C18.14603608 80.87109868 15.69446217 83.35789531 13.24707031 85.84887695 C11.442454 87.68350719 9.63181915 89.5120205 7.8203125 91.33984375 C7.26513947 91.90847641 6.70996643 92.47710907 6.13796997 93.06297302 C4.79613293 94.41362049 3.40245259 95.71240459 2 97 C1.34 97 0.68 97 0 97 C0 64.99 0 32.98 0 0 Z " fill="#000000" transform="translate(122,141)"/>
<path d="M0 0 C0 32.01 0 64.02 0 97 C-3.93909003 95.03045499 -5.96870648 93.26347415 -9.02734375 90.16796875 C-9.49813858 89.69434402 -9.96893341 89.2207193 -10.45399475 88.73274231 C-11.9532789 87.22231245 -13.4454658 85.70508851 -14.9375 84.1875 C-15.9363829 83.17857482 -16.93572751 82.17010655 -17.93554688 81.16210938 C-19.78537161 79.29601596 -21.63187321 77.42685112 -23.47631836 75.55541992 C-27.30126148 71.68237362 -31.12799347 67.83584278 -35.13671875 64.15234375 C-36.24950195 63.12077148 -36.24950195 63.12077148 -37.38476562 62.06835938 C-38.92818665 60.64013856 -40.47510739 59.21569105 -42.02539062 57.79492188 C-43.13237305 56.7652832 -43.13237305 56.7652832 -44.26171875 55.71484375 C-44.93162842 55.09730225 -45.60153809 54.47976074 -46.29174805 53.84350586 C-48.02008904 51.97832037 -48.91915483 50.28065181 -50 48 C-45.45039225 43.42485803 -40.89672678 38.85378313 -36.34033203 34.28540039 C-34.79351499 32.73358112 -33.24759993 31.18086219 -31.70263672 29.62719727 C-29.47084213 27.3831559 -27.23573155 25.14246196 -25 22.90234375 C-24.31945557 22.21663803 -23.63891113 21.53093231 -22.93774414 20.82444763 C-18.99409073 16.88034296 -14.9462466 13.12275135 -10.71250916 9.49108887 C-8.55636648 7.61372645 -6.55121198 5.61523491 -4.5625 3.5625 C-1.10815939 0 -1.10815939 0 0 0 Z M-35 43 C-33.35 44.65 -31.7 46.3 -30 48 C-30 46.68 -30 45.36 -30 44 C-31.65 43.67 -33.3 43.34 -35 43 Z M-26 48 C-25.67 49.32 -25.34 50.64 -25 52 C-24.34 52 -23.68 52 -23 52 C-22.34 53.32 -21.68 54.64 -21 56 C-20.34 55.34 -19.68 54.68 -19 54 C-19 53.01 -19 52.02 -19 51 C-21.31 50.01 -23.62 49.02 -26 48 Z M-21 63 C-21.66 64.65 -22.32 66.3 -23 68 C-20.9600281 66.63676257 -20.9600281 66.63676257 -19 65 C-19 64.34 -19 63.68 -19 63 C-19.66 63 -20.32 63 -21 63 Z " fill="#000000" transform="translate(297,141)"/>
<path d="M0 0 C3.89539692 3.20288191 7.46955385 6.47093904 10.91894531 10.15625 C16.59892251 16.14271511 21.9042977 20.77105343 30.49609375 21.09375 C38.25709842 20.22199908 42.7498199 15.3713381 48 10 C48.94877441 9.05943298 49.89932773 8.12065732 50.8515625 7.18359375 C53.25259932 4.80622912 55.6335749 2.41173962 58 0 C58.47050781 0.40992188 58.94101563 0.81984375 59.42578125 1.2421875 C60.35970703 2.05042969 60.35970703 2.05042969 61.3125 2.875 C62.23482422 3.67550781 62.23482422 3.67550781 63.17578125 4.4921875 C65.13498212 6.1640447 65.13498212 6.1640447 68 8 C68 8.66 68 9.32 68 10 C68.85851562 10.37125 68.85851562 10.37125 69.734375 10.75 C72.35010611 12.19316199 74.14773456 13.88216222 76.25 16 C76.95640625 16.70125 77.6628125 17.4025 78.390625 18.125 C80 20 80 20 80 22 C80.57202148 22.24532471 81.14404297 22.49064941 81.73339844 22.7434082 C84.38736797 24.21475473 86.14499183 25.93552401 88.265625 28.10546875 C89.07386719 28.92466797 89.88210938 29.74386719 90.71484375 30.58789062 C91.96974609 31.87469727 91.96974609 31.87469727 93.25 33.1875 C98.512907 38.56194428 103.7246305 43.80182312 109.59277344 48.52075195 C111 50 111 50 111 53 C98.30899215 53.18530776 85.61830573 53.32748079 72.92622089 53.41449738 C67.03276624 53.45626028 61.14023664 53.51291022 55.24731445 53.60351562 C49.5608581 53.69040002 43.87529172 53.73826582 38.18822289 53.75901794 C36.01795625 53.77380732 33.84773872 53.80268865 31.67785072 53.84584045 C28.63873472 53.90387799 25.60330113 53.91191518 22.5637207 53.90820312 C21.66532471 53.93696533 20.76692871 53.96572754 19.84130859 53.99536133 C17.3184041 53.96199212 15.3766241 53.85317848 13 53 C9.921643 49.78914579 8.39119111 46.17357334 7 42 C5.02 44.97 3.04 47.94 1 51 C2.258125 50.773125 3.51625 50.54625 4.8125 50.3125 C6.95703125 49.92578125 6.95703125 49.92578125 9 50 C9.99 50.99 10.98 51.98 12 53 C-9.12 53 -30.24 53 -52 53 C-49.96986589 48.93973179 -47.57604446 46.34542624 -44.375 43.25 C-43.859375 42.74339844 -43.34375 42.23679688 -42.8125 41.71484375 C-41.54616661 40.47196098 -40.2736856 39.23534724 -39 38 C-35.15625 39.703125 -35.15625 39.703125 -33.75 42.375 C-33 45 -33 45 -33 49 C-31.35 48.34 -29.7 47.68 -28 47 C-28.61875 46.2575 -29.2375 45.515 -29.875 44.75 C-32.99260636 40.7154506 -34.49170776 38.1716428 -34 33 C-32.65820312 31.07470703 -32.65820312 31.07470703 -30.78125 29.2578125 C-30.09546875 28.58363281 -29.4096875 27.90945312 -28.703125 27.21484375 C-27.97609375 26.52519531 -27.2490625 25.83554688 -26.5 25.125 C-25.45585937 24.10212891 -25.45585937 24.10212891 -24.390625 23.05859375 C-20.32109137 19.10210272 -16.12078425 15.32989106 -11.83007812 11.61621094 C-9.2774725 9.36190874 -6.89157823 6.9872946 -4.5 4.5625 C-3.6440625 3.69753906 -2.788125 2.83257812 -1.90625 1.94140625 C-1.2771875 1.30074219 -0.648125 0.66007813 0 0 Z M52 13 C51.525625 13.680625 51.05125 14.36125 50.5625 15.0625 C48.23839723 17.94438743 45.51207226 18.20481383 42 19 C41.67 21.64 41.34 24.28 41 27 C45.06461516 24.72859741 48.46377136 22.02052863 52 19 C53.36125 18.01 53.36125 18.01 54.75 17 C57.22214778 14.80253531 58.0436113 13.12999939 59 10 C56.50753097 10 54.08619912 11.8317285 52 13 Z M-1 15 C0.28288757 17.55503957 0.28288757 17.55503957 2 20 C2.99 20 3.98 20 5 20 C4.34 18.35 3.68 16.7 3 15 C1.68 15 0.36 15 -1 15 Z M13 26 C16.44450737 28.29633824 18.93812283 28.54016485 23 29 C22.34 27.35 21.68 25.7 21 24 C18.36423317 24 15.51486589 25.26840265 13 26 Z M78 33 C77.34 34.65 76.68 36.3 76 38 C78.0399719 36.63676257 78.0399719 36.63676257 80 35 C80 34.34 80 33.68 80 33 C79.34 33 78.68 33 78 33 Z M17 34 C16.20188733 37.39365554 15.67842386 40.51452962 16 44 C17.95260483 46.61710386 20.23070519 48.30113087 23 50 C22.77065591 48.08075213 22.51565657 46.1645594 22.25 44.25 C22.11078125 43.18265625 21.9715625 42.1153125 21.828125 41.015625 C20.8902252 37.60025402 19.68083082 36.24492337 17 34 Z M93 45 C91.515 47.475 91.515 47.475 90 50 C91.32 49.34 92.64 48.68 94 48 C93.67 47.01 93.34 46.02 93 45 Z " fill="#000000" transform="translate(180,197)"/>
</svg>
