<?xml version="1.0" encoding="UTF-8"?>
<svg version="1.1" xmlns="http://www.w3.org/2000/svg" width="1024" height="1024">
<path d="M0 0 C0.73810913 0.00093658 1.47621826 0.00187317 2.23669434 0.00283813 C91.45090799 0.2458797 177.80667149 33.39119793 266.75 111.1875 C268.13058594 112.50427734 268.13058594 112.50427734 269.5390625 113.84765625 C273.5395347 117.74210887 273.5395347 117.74210887 274.75 119.1875 C274.75 119.8475 274.75 120.5075 274.75 121.1875 C275.41 121.1875 276.07 121.1875 276.75 121.1875 C279.33248339 123.60761168 281.49739874 126.46379232 283.75 129.1875 C285.02037109 130.7034375 285.02037109 130.7034375 286.31640625 132.25 C295.50983988 143.38268604 303.66265316 155.23807846 311.75 167.1875 C312.21035645 167.86699707 312.67071289 168.54649414 313.14501953 169.24658203 C355.15087093 231.71813448 372.87644307 306.4336447 370.75 381.1875 C370.73066406 381.97979004 370.71132813 382.77208008 370.69140625 383.58837891 C369.51313686 426.72516775 360.09197192 469.68739238 342.75 509.1875 C342.29254395 510.24098633 341.83508789 511.29447266 341.36376953 512.37988281 C324.29132026 551.42439261 301.40021716 586.51919872 272.734375 617.98046875 C271.00022594 619.90919753 269.33747119 621.8746317 267.6875 623.875 C265.0314226 627.00407748 262.06676738 629.59517074 258.94140625 632.24609375 C256.49059942 634.41730764 254.22342971 636.71860694 251.9375 639.0625 C246.84734809 644.19906667 241.40468344 648.69162329 235.75 653.1875 C234.65065882 654.09823036 233.55307532 655.01108555 232.45703125 655.92578125 C216.57632947 669.07467548 199.19199739 679.93393051 181.15478516 689.86181641 C178.97367301 691.06419599 176.80461235 692.28574121 174.63671875 693.51171875 C135.12164262 715.51838074 90.38447091 728.43279848 45.75 734.1875 C44.58791016 734.364021 43.42582031 734.54054199 42.22851562 734.72241211 C36.27023344 735.45841481 30.28009575 735.37001955 24.28515625 735.390625 C22.97961288 735.39632507 21.67406952 735.40202515 20.32896423 735.40789795 C17.56281147 735.41836645 14.79668731 735.42423262 12.03051758 735.42773438 C9.24880518 735.43207239 6.46741114 735.44578666 3.68579102 735.46875 C-14.16017612 735.61302857 -31.57223835 734.84644627 -49.25 732.1875 C-50.63017893 731.99124408 -52.01045645 731.79567913 -53.39086914 731.60107422 C-89.88726449 726.21839392 -127.12997455 716.68483289 -160.25 700.1875 C-161.22775391 699.70410156 -162.20550781 699.22070312 -163.21289062 698.72265625 C-177.41072303 691.65458574 -191.09290602 684.04857907 -204.25 675.1875 C-204.97622559 674.69926758 -205.70245117 674.21103516 -206.45068359 673.70800781 C-216.5574788 666.8587747 -226.10810229 659.44544631 -235.48974609 651.63916016 C-237.05617487 650.34734524 -238.64572919 649.08368802 -240.23828125 647.82421875 C-247.28093706 642.24920757 -253.55402327 636.07194205 -259.81640625 629.65380859 C-262.78079676 626.6217702 -265.78862563 623.63629143 -268.828125 620.6796875 C-275.12223435 614.51440495 -280.7700152 608.09862133 -286.25 601.1875 C-287.1709046 600.07753773 -288.09419811 598.96955432 -289.01953125 597.86328125 C-319.66397176 560.93019248 -343.44907806 514.32108667 -356.25 468.1875 C-356.5279541 467.19443848 -356.8059082 466.20137695 -357.09228516 465.17822266 C-360.920461 451.28204867 -363.93000764 437.36103407 -366.125 423.125 C-366.280186 422.11924423 -366.280186 422.11924423 -366.43850708 421.09317017 C-380.32939144 329.89344279 -357.60702801 232.50365128 -300.60449219 152.93701172 C-283.58167715 129.92131616 -264.13875467 107.70875395 -242.25 89.1875 C-240.78240234 87.88619141 -240.78240234 87.88619141 -239.28515625 86.55859375 C-223.85206578 72.9315515 -206.95694186 61.6407153 -189.25 51.1875 C-188.04053711 50.47231201 -188.04053711 50.47231201 -186.80664062 49.74267578 C-164.52841077 36.71054992 -140.79250408 27.03608058 -116.25 19.1875 C-115.18910156 18.84235352 -114.12820313 18.49720703 -113.03515625 18.14160156 C-86.16395974 9.4695336 -58.39364489 3.62639381 -30.25 1.1875 C-29.18104492 1.0939624 -28.11208984 1.0004248 -27.01074219 0.90405273 C-18.00301583 0.18529689 -9.03012456 -0.01498446 0 0 Z M-253.25 139.1875 C-255.7146607 141.96385081 -258.03088346 144.84604938 -260.32421875 147.765625 C-262.15291356 150.06540346 -264.07045398 152.21661205 -266.0625 154.375 C-318.34199654 212.68274862 -342.5404913 293.22659315 -342.4375 370.3125 C-342.43609512 371.67560806 -342.43609512 371.67560806 -342.43466187 373.06625366 C-342.40533298 386.20053585 -342.26476504 399.18222792 -340.25 412.1875 C-340.08870605 413.2408252 -339.92741211 414.29415039 -339.76123047 415.37939453 C-330.27375786 475.60237753 -305.23232746 533.99836676 -266.25 581.1875 C-265.43917969 582.19941406 -264.62835938 583.21132813 -263.79296875 584.25390625 C-257.23200635 592.28449535 -249.99326101 599.65385945 -242.6875 607 C-241.96332382 607.73207672 -241.96332382 607.73207672 -241.22451782 608.47894287 C-234.57996936 615.17946769 -227.63769722 621.31526454 -220.25 627.1875 C-218.92144629 628.28409633 -217.59560586 629.38399447 -216.2734375 630.48828125 C-207.58702175 637.68195673 -198.67079474 644.41266592 -189.34716797 650.75976562 C-187.98809595 651.68501047 -186.63269393 652.61567856 -185.28173828 653.55273438 C-145.7245197 680.91622312 -99.52165058 695.65989312 -52.4375 703.4375 C-51.08192993 703.66421387 -51.08192993 703.66421387 -49.69897461 703.89550781 C-31.43747843 706.73629187 -13.14337792 707.56750369 5.3125 707.5 C6.877155 707.49726578 6.877155 707.49726578 8.47341919 707.49447632 C74.00683124 707.30253091 138.7740954 687.90729774 192.75 650.1875 C193.30929199 649.79949219 193.86858398 649.41148437 194.44482422 649.01171875 C201.56742122 644.0602858 208.46924789 638.94243573 215.12890625 633.375 C216.82727173 631.95758619 218.54266278 630.56023054 220.27734375 629.1875 C234.52749672 617.87309283 247.90284186 604.99275372 259.75 591.1875 C260.26900879 590.59630371 260.78801758 590.00510742 261.32275391 589.39599609 C277.5086857 570.91171329 290.78896054 549.92860139 302.53613281 528.40087891 C303.61441509 526.43472703 304.71817661 524.48682989 305.8359375 522.54296875 C337.07355337 466.76151185 348.02500053 400.11161372 342.5625 336.8125 C342.46405289 335.65462479 342.46405289 335.65462479 342.36361694 334.47335815 C336.57969341 267.74938072 310.58305998 206.43419676 267.75 155.1875 C266.90620787 154.15498235 266.0624594 153.12242901 265.21875 152.08984375 C253.93985278 138.45340565 241.42473242 125.15483133 227.41796875 114.296875 C224.72942875 112.17123576 222.18078133 109.93765579 219.62182617 107.65991211 C137.36152053 34.71249878 17.87168262 12.52237135 -253.25 139.1875 Z " fill="#5B5B5B" transform="translate(528.25,145.8125)"/>
<path d="M0 0 C1.03398926 0.33572021 1.03398926 0.33572021 2.08886719 0.67822266 C42.24920161 14.03507506 77.59474488 39.60651222 108.6171875 67.8359375 C110.1954019 69.26926665 111.78389285 70.6913678 113.3828125 72.1015625 C118.43928071 76.57271606 123.32417239 81.19481277 128.125 85.9375 C128.70612549 86.5056543 129.28725098 87.07380859 129.88598633 87.65917969 C131.29722465 89.06723141 132.65396691 90.5294905 134 92 C134 92.66 134 93.32 134 94 C134.66 94 135.32 94 136 94 C137.3046875 95.29296875 137.3046875 95.29296875 138.875 97.1875 C141.61635482 100.42001423 144.42711063 103.55868525 147.32226562 106.65234375 C153.15825087 112.8920764 158.70705179 119.28964453 164 126 C164.82516113 127.04027344 164.82516113 127.04027344 165.66699219 128.1015625 C167.5339149 130.4589395 169.39314244 132.82218845 171.25 135.1875 C172.13631104 136.31031372 172.13631104 136.31031372 173.04052734 137.45581055 C184.13229109 151.6792002 184.13229109 151.6792002 183.65625 157.83203125 C182.10381825 162.96060044 178.33877085 166.91874087 175 171 C174.00921569 172.24383597 173.01969579 173.48867986 172.03125 174.734375 C161.99342754 187.30720445 151.49115213 199.44007017 140.5 211.1875 C139.82928467 211.90671631 139.15856934 212.62593262 138.4675293 213.36694336 C135.15128744 216.87970944 131.83237911 220.04020265 128 223 C127.401875 223.763125 126.80375 224.52625 126.1875 225.3125 C123.79082811 228.25698261 121.18775961 230.54854264 118.3046875 233.00390625 C115.82796599 235.14899895 113.45254521 237.38387858 111.0625 239.625 C103.77056627 246.26407465 95.91073139 252.12409021 88 258 C87.26297852 258.55123535 86.52595703 259.1024707 85.76660156 259.67041016 C69.98152612 271.44520448 53.33751214 281.67163977 36 291 C35.32694824 291.3700415 34.65389648 291.74008301 33.96044922 292.12133789 C28.22027965 295.16475169 23.50777541 296.16245759 17 295 C13.76803699 293.37438043 11.80710575 291.06391213 9.625 288.1875 C8.1809014 283.1331549 8.1855415 279.54548466 10.6015625 274.9609375 C13.30642542 271.62170933 15.91207957 270.17241702 19.75 268.5 C43.54454886 257.30683857 65.87806121 242.70500327 85.74267578 225.48974609 C87.00808332 224.39336529 88.27437095 223.29799949 89.54150391 222.20361328 C90.77584775 221.13520492 92.00621806 220.06218286 93.23193359 218.98388672 C96.00778256 216.5696548 98.57506788 214.40531613 102 213 C102 212.34 102 211.68 102 211 C103.29296875 209.73046875 103.29296875 209.73046875 105.1875 208.1875 C114.15373025 200.56141804 122.43758884 192.0122852 130 183 C131.24330078 181.55560547 131.24330078 181.55560547 132.51171875 180.08203125 C135.37523854 176.74935578 138.19792839 173.38445554 141 170 C141.49097168 169.40864258 141.98194336 168.81728516 142.48779297 168.20800781 C143.92431979 166.4632807 145.34000714 164.70370688 146.75 162.9375 C147.4138269 162.13372925 147.4138269 162.13372925 148.09106445 161.3137207 C150.43126594 158.5082366 150.43126594 158.5082366 150.76391602 155.03881836 C149.93706235 152.83202548 148.97894475 151.41475236 147.48046875 149.6015625 C146.9589624 148.96452393 146.43745605 148.32748535 145.90014648 147.67114258 C145.05238647 146.658302 145.05238647 146.658302 144.1875 145.625 C143.60363525 144.91819092 143.01977051 144.21138184 142.41821289 143.4831543 C140.6208659 141.31464508 138.81244832 139.15589631 137 137 C136.47341797 136.3714209 135.94683594 135.7428418 135.40429688 135.09521484 C125.70561922 123.54753122 115.64421756 112.37675618 104.765625 101.92578125 C103 100 103 100 103 98 C102.43410156 97.76410156 101.86820313 97.52820313 101.28515625 97.28515625 C98.47697948 95.70585684 96.65617519 93.77313994 94.4375 91.4375 C90.1277763 87.03943643 85.63919319 83.10629094 80.828125 79.26953125 C77.95759026 76.96596677 75.17014786 74.58170452 72.375 72.1875 C34.95357475 41.02705967 -10.70919938 17.93060663 -60 16 C-60.89847656 15.95875 -61.79695313 15.9175 -62.72265625 15.875 C-134.30991307 14.22694804 -194.3966013 54.96085175 -244.1484375 102.3046875 C-251.94778025 108.99395518 -251.94778025 108.99395518 -258 117 C-258.66 117 -259.32 117 -260 117 C-260.23847656 117.55945313 -260.47695313 118.11890625 -260.72265625 118.6953125 C-262.28591515 121.51587137 -264.21581151 123.53600635 -266.4375 125.875 C-271.90053523 131.78013056 -276.84547586 138.00545078 -281.75 144.37695312 C-283.5525214 146.71741451 -285.37080741 149.04553128 -287.1875 151.375 C-288.12537819 152.58303982 -289.06305076 153.79123955 -290 155 C-286.21141318 161.09468315 -281.60772246 166.51389357 -277 172 C-276.54028809 172.5475293 -276.08057617 173.09505859 -275.60693359 173.65917969 C-261.21579966 190.74102106 -246.17945116 208.20081741 -228.54296875 222.0078125 C-226.84629836 223.33700128 -225.1813387 224.70767851 -223.55078125 226.1171875 C-193.49942224 251.98068484 -150.02297857 271.45857829 -110 269 C-75.91883183 265.87842753 -43.84994504 246.56951705 -21.6875 221.125 C-16.61762889 214.83506235 -12.72145459 208.14000008 -9 201 C-8.38511719 199.88431641 -8.38511719 199.88431641 -7.7578125 198.74609375 C-2.60877135 188.54779906 -0.48372336 175.33028947 0 164 C0.07476563 163.08089844 0.14953125 162.16179687 0.2265625 161.21484375 C1.14285301 142.14153331 -6.44672306 121.65767501 -18.87890625 107.23828125 C-25.84840207 99.88373041 -32.80646011 94.32559359 -42 90 C-42.82371094 89.60941406 -43.64742187 89.21882813 -44.49609375 88.81640625 C-61.98679479 81.17646804 -82.00538902 82.79149826 -99.515625 89.46484375 C-113.36034224 95.56459025 -125.58220976 104.99754856 -132 119 C-137.70570277 134.70444236 -139.18827082 149.37520768 -132.7109375 165.13671875 C-127.01709182 177.27039524 -119.31435947 185.07267679 -106.859375 190.32421875 C-94.49877084 194.57877453 -83.03825188 194.13419484 -71 189 C-64.24734279 185.31276553 -59.67036568 180.07231463 -57.25390625 172.734375 C-55.19807189 164.3976122 -55.61026582 156.92207538 -59 149 C-61.42120829 145.11463921 -63.81116668 142.5817695 -67.9375 140.5625 C-74.6391779 139.33157957 -78.85533759 140.0952505 -85 143 C-89.78709832 144.9946243 -92.95334521 145.41660485 -98 144 C-101.20695021 141.81315324 -104.24454734 139.51090531 -106 136 C-106.55308557 131.46651174 -106.42758431 127.92643268 -104.5 123.75 C-97.78011506 116.35812656 -89.78729859 114.15929218 -80 113 C-65.91889412 112.624704 -54.87916889 117.0588274 -44.375 126.3125 C-43.199375 127.6428125 -43.199375 127.6428125 -42 129 C-41.44570313 129.62390625 -40.89140625 130.2478125 -40.3203125 130.890625 C-30.33861247 142.80012117 -28.09285974 155.51652476 -28.77783203 170.53759766 C-29.96918622 183.74199144 -37.34955323 195.33483807 -46 205 C-63.20547235 218.89672767 -80.21344559 222.53615755 -102 221 C-115.70986908 219.20613162 -127.55384218 212.76806018 -138 204 C-138.99 203.278125 -139.98 202.55625 -141 201.8125 C-153.17480851 191.35292694 -162.34031825 172.86272754 -164 157 C-165.83878619 130.63448761 -160.52299201 107.00652584 -143.1875 86.4375 C-126.36077547 67.53340207 -102.24320663 56.65777854 -77.09375 55.0859375 C-49.62447529 53.95846727 -24.60994531 64.61961935 -4.359375 82.76953125 C15.09505911 100.9544811 26.76226859 127.65070812 27.97827148 154.05493164 C28.79379841 186.64450774 18.15229964 216.29509405 -3 241 C-4.06347656 242.24716797 -4.06347656 242.24716797 -5.1484375 243.51953125 C-26.89018722 268.35089804 -63.52645987 292.06765204 -97.24504089 295.20916748 C-99.68582981 295.31139847 -102.1196232 295.35492135 -104.5625 295.37109375 C-105.46340866 295.38220688 -106.36431732 295.39332001 -107.29252625 295.4047699 C-110.19519738 295.43174341 -113.09720904 295.43815811 -116 295.4375 C-116.98876129 295.4385675 -117.97752258 295.43963501 -118.99624634 295.44073486 C-134.2342842 295.41691842 -148.35161327 294.53821087 -163 290 C-163.75023437 289.78069824 -164.50046875 289.56139648 -165.2734375 289.33544922 C-197.24228765 279.8429192 -225.82122076 260.27451657 -250.50585938 238.32226562 C-251.94431145 237.04928255 -253.40152624 235.79759771 -254.859375 234.546875 C-255.68953125 233.83015625 -256.5196875 233.1134375 -257.375 232.375 C-258.08398438 231.76398438 -258.79296875 231.15296875 -259.5234375 230.5234375 C-261 229 -261 229 -261 227 C-261.58700684 226.74275146 -262.17401367 226.48550293 -262.77880859 226.22045898 C-265.19450874 224.89312495 -266.66907795 223.48951304 -268.5390625 221.47265625 C-269.19688721 220.76858643 -269.85471191 220.0645166 -270.5324707 219.33911133 C-271.56827271 218.21218872 -271.56827271 218.21218872 -272.625 217.0625 C-273.34067139 216.29123779 -274.05634277 215.51997559 -274.79370117 214.7253418 C-276.22137775 213.1845596 -277.64648492 211.64139211 -279.06884766 210.09570312 C-280.66600822 208.36245075 -282.27232866 206.63903638 -283.88671875 204.921875 C-288.80653822 199.62970204 -293.3316577 194.12789023 -297.74414062 188.41479492 C-301.13976459 184.0355655 -304.68244785 179.81126526 -308.3125 175.625 C-321.1228029 160.77173618 -321.1228029 160.77173618 -321 155 C-319.09544124 149.76714675 -316.54289047 145.73904608 -313 141.4375 C-312.00747098 140.20600434 -311.01529313 138.97422558 -310.0234375 137.7421875 C-309.26691895 136.80971191 -309.26691895 136.80971191 -308.49511719 135.85839844 C-307.07235447 134.08993505 -305.67561754 132.3047472 -304.2890625 130.5078125 C-292.39234758 115.0975487 -279.52390569 100.30642559 -265.62890625 86.6640625 C-263.85981248 84.91879227 -263.85981248 84.91879227 -262 82.4375 C-259.6329983 79.55271667 -256.96278705 77.29527238 -254.12890625 74.87890625 C-252.0463054 73.0408677 -250.11907613 71.12003653 -248.1875 69.125 C-244.32697585 65.21179813 -240.18084233 61.77202271 -235.89453125 58.3359375 C-233.02952899 56.02383041 -230.23591335 53.64200478 -227.4375 51.25 C-163.44113303 -2.02532611 -80.79306096 -26.3499782 0 0 Z " fill="#5B5B5B" transform="translate(597,345)"/>
<path d="M0 0 C0.70549 -0.00297112 1.41098001 -0.00594224 2.1378485 -0.0090034 C4.50765191 -0.01769209 6.87740481 -0.01919878 9.2472229 -0.02069092 C10.94396574 -0.02531893 12.64070754 -0.03034357 14.33744812 -0.03573608 C18.95109502 -0.0488627 23.56472737 -0.05530542 28.17839003 -0.05974674 C31.0597818 -0.06267671 33.94116959 -0.06678135 36.82255936 -0.07125092 C45.83486455 -0.0849258 54.84716064 -0.09459281 63.85947549 -0.09845281 C74.2685059 -0.10293535 84.67740511 -0.12049238 95.08639562 -0.1494534 C103.12893328 -0.17105485 111.17143398 -0.18115625 119.21400034 -0.18249393 C124.01914614 -0.18354295 128.82416861 -0.18947152 133.62928391 -0.20731354 C138.14859668 -0.22376793 142.66769306 -0.22596257 147.18702507 -0.21717453 C148.84586732 -0.21640277 150.50472108 -0.22076511 152.16353416 -0.23063278 C154.42804788 -0.24331379 156.69179069 -0.23749703 158.95629883 -0.22705078 C160.2235549 -0.22851734 161.49081097 -0.2299839 162.79646873 -0.2314949 C167.48536554 0.29559793 170.00613774 2.13055431 173.41763306 5.26544189 C175.77280403 9.27795541 175.9056367 12.5935812 175.10513306 17.14044189 C173.0378422 21.20119179 171.37187262 23.55071135 167.10513306 25.14044189 C163.92510319 25.39491749 163.92510319 25.39491749 160.0900116 25.40113831 C159.03049495 25.40687663 159.03049495 25.40687663 157.94957393 25.41273087 C155.58281285 25.4230494 153.21629489 25.41907096 150.84951782 25.4151001 C149.1526263 25.4194472 147.45573673 25.42463035 145.7588501 25.43058777 C141.14937203 25.44398899 136.5399759 25.4445552 131.93048215 25.44202447 C128.08345787 25.44095555 124.23645023 25.4458361 120.38942951 25.45062989 C111.31442679 25.4617289 102.23946546 25.46216023 93.16445923 25.45611572 C83.79975485 25.45007422 74.43520065 25.46239053 65.07052189 25.48368579 C57.03220332 25.50129337 48.99393259 25.50730449 40.95559543 25.50404805 C36.15382775 25.50223374 31.35216719 25.50488607 26.55041695 25.51876259 C22.03518117 25.53132264 17.52017977 25.52941416 13.00494766 25.5163517 C11.34772221 25.51398241 9.69048035 25.51673322 8.0332737 25.52497482 C5.77098883 25.53541443 3.50949447 25.52736474 1.24723816 25.5146637 C-0.01871909 25.51483144 -1.28467634 25.51499918 -2.58899593 25.515172 C-7.31642598 24.97930404 -9.83450905 23.20079979 -13.14486694 19.89044189 C-15.31824112 16.47513962 -15.82392894 14.18390789 -15.89486694 10.14044189 C-14.50053627 6.51518214 -12.96717566 3.5726863 -9.89486694 1.14044189 C-6.40759301 -0.02198275 -3.68122862 0.00864619 0 0 Z " fill="#5B5B5B" transform="translate(448.8948669433594,667.8595581054688)"/>
<path d="" fill="#5B5B5B" transform="translate(0,0)"/>
<path d="" fill="#5B5B5B" transform="translate(0,0)"/>
<path d="" fill="#5B5B5B" transform="translate(0,0)"/>
<path d="" fill="#5B5B5B" transform="translate(0,0)"/>
<path d="" fill="#5B5B5B" transform="translate(0,0)"/>
<path d="" fill="#5B5B5B" transform="translate(0,0)"/>
<path d="" fill="#5B5B5B" transform="translate(0,0)"/>
<path d="" fill="#575757" transform="translate(0,0)"/>
<path d="" fill="#5B5B5B" transform="translate(0,0)"/>
<path d="" fill="#5A5A5A" transform="translate(0,0)"/>
</svg>
