<?xml version="1.0" encoding="UTF-8"?>
<svg version="1.1" xmlns="http://www.w3.org/2000/svg" width="400" height="400">
<path d="M0 0 C0.74883453 -0.00570007 1.49766907 -0.01140015 2.26919556 -0.01727295 C3.85083631 -0.02667245 5.43249621 -0.0332367 7.01416016 -0.03710938 C9.37309514 -0.0467083 11.73111653 -0.07773414 14.08984375 -0.109375 C28.03237131 -0.20730857 41.4187425 1.68779551 54.7890625 5.765625 C55.60632813 6.01393066 56.42359375 6.26223633 57.265625 6.51806641 C76.20858954 12.57448915 92.89603278 22.41783827 108.0390625 35.203125 C108.87308594 35.90179688 109.70710937 36.60046875 110.56640625 37.3203125 C116.81815106 42.73399599 122.02817784 48.6345496 127.0390625 55.203125 C127.64492188 55.98171875 128.25078125 56.7603125 128.875 57.5625 C150.02972665 86.08787801 155.88864479 122.54070311 151.37890625 157.16796875 C146.60131086 186.2224793 131.51511942 211.54285441 111.0390625 232.203125 C110.26304687 232.99203125 109.48703125 233.7809375 108.6875 234.59375 C92.39853415 250.15503009 70.72822228 261.41934906 49.0390625 267.203125 C48.33813477 267.39777344 47.63720703 267.59242188 46.91503906 267.79296875 C23.41302138 274.05471661 -4.57067058 273.71475674 -27.9609375 267.203125 C-28.70972168 267.00477051 -29.45850586 266.80641602 -30.22998047 266.60205078 C-64.5645696 257.27046623 -94.84282373 233.65792569 -112.9609375 203.203125 C-130.2159591 172.78355017 -137.10998817 136.00625807 -128.28515625 101.6640625 C-120.75356161 75.43952468 -107.60774411 50.50655941 -85.9609375 33.203125 C-84.93742187 32.38070312 -83.91390625 31.55828125 -82.859375 30.7109375 C-59.70841555 12.66169741 -29.63792478 0.1804557 0 0 Z " fill="#010101" transform="translate(194.9609375,53.796875)"/>
<path d="M0 0 C0.74883453 -0.00570007 1.49766907 -0.01140015 2.26919556 -0.01727295 C3.85083631 -0.02667245 5.43249621 -0.0332367 7.01416016 -0.03710938 C9.37309514 -0.0467083 11.73111653 -0.07773414 14.08984375 -0.109375 C28.03237131 -0.20730857 41.4187425 1.68779551 54.7890625 5.765625 C55.60632813 6.01393066 56.42359375 6.26223633 57.265625 6.51806641 C76.20858954 12.57448915 92.89603278 22.41783827 108.0390625 35.203125 C108.87308594 35.90179688 109.70710937 36.60046875 110.56640625 37.3203125 C116.81815106 42.73399599 122.02817784 48.6345496 127.0390625 55.203125 C127.64492188 55.98171875 128.25078125 56.7603125 128.875 57.5625 C150.02972665 86.08787801 155.88864479 122.54070311 151.37890625 157.16796875 C146.60131086 186.2224793 131.51511942 211.54285441 111.0390625 232.203125 C110.26304687 232.99203125 109.48703125 233.7809375 108.6875 234.59375 C92.39853415 250.15503009 70.72822228 261.41934906 49.0390625 267.203125 C48.33813477 267.39777344 47.63720703 267.59242188 46.91503906 267.79296875 C23.41302138 274.05471661 -4.57067058 273.71475674 -27.9609375 267.203125 C-28.70972168 267.00477051 -29.45850586 266.80641602 -30.22998047 266.60205078 C-64.5645696 257.27046623 -94.84282373 233.65792569 -112.9609375 203.203125 C-130.2159591 172.78355017 -137.10998817 136.00625807 -128.28515625 101.6640625 C-120.75356161 75.43952468 -107.60774411 50.50655941 -85.9609375 33.203125 C-84.93742187 32.38070312 -83.91390625 31.55828125 -82.859375 30.7109375 C-59.70841555 12.66169741 -29.63792478 0.1804557 0 0 Z M17.0390625 17.203125 C16.6678125 18.811875 16.6678125 18.811875 16.2890625 20.453125 C15.00796024 24.29643177 13.90511616 25.52197803 11.0390625 28.203125 C10.2517947 30.3413216 10.2517947 30.3413216 10.0390625 32.203125 C9.3790625 32.203125 8.7190625 32.203125 8.0390625 32.203125 C7.9565625 31.1925 7.8740625 30.181875 7.7890625 29.140625 C7.19900182 24.82525584 5.34990248 21.85574303 3.0390625 18.203125 C-3.60215854 17.78146017 -9.4041304 18.5537723 -15.8359375 20.078125 C-16.57320068 20.25182617 -17.31046387 20.42552734 -18.07006836 20.60449219 C-21.57860165 21.47349368 -24.82370378 22.37991587 -27.9609375 24.203125 C-27.868125 25.22792969 -27.7753125 26.25273438 -27.6796875 27.30859375 C-26.99939111 38.06445165 -26.99939111 38.06445165 -29.7421875 41.3125 C-31.78755918 42.53684221 -33.69557479 43.46991609 -35.9609375 44.203125 C-35.8165625 43.5740625 -35.6721875 42.945 -35.5234375 42.296875 C-34.33079303 36.79745881 -33.752666 31.82645557 -33.9609375 26.203125 C-61.38282742 37.71354793 -81.70744076 57.12473598 -96.09765625 82.99609375 C-97.27782995 85.31925074 -97.27782995 85.31925074 -95.9609375 88.203125 C-94.66737923 89.57508074 -93.33795048 90.91495156 -91.9609375 92.203125 C-94.4359375 93.193125 -94.4359375 93.193125 -96.9609375 94.203125 C-97.6209375 93.213125 -98.2809375 92.223125 -98.9609375 91.203125 C-101.74330937 97.2266641 -103.62656209 103.32741184 -105.1484375 109.765625 C-105.31504883 110.46099365 -105.48166016 111.1563623 -105.65332031 111.87280273 C-107.58493143 120.33797939 -108.11083422 128.59990443 -108.0234375 137.265625 C-108.01892578 138.13123047 -108.01441406 138.99683594 -108.00976562 139.88867188 C-107.99813663 141.99352039 -107.98020823 144.09833258 -107.9609375 146.203125 C-107.18234375 146.01234375 -106.40375 145.8215625 -105.6015625 145.625 C-102.9609375 145.203125 -102.9609375 145.203125 -100.7109375 146.453125 C-98.9609375 148.203125 -98.9609375 148.203125 -97.9609375 151.203125 C-100.9309375 151.533125 -103.9009375 151.863125 -106.9609375 152.203125 C-105.85441461 164.16411077 -105.85441461 164.16411077 -99.9609375 174.203125 C-97.50384375 174.78663005 -97.50384375 174.78663005 -94.9609375 174.203125 C-93.0984937 171.79453786 -93.0984937 171.79453786 -91.9609375 169.203125 C-90.9709375 169.533125 -89.9809375 169.863125 -88.9609375 170.203125 C-89.2909375 174.163125 -89.6209375 178.123125 -89.9609375 182.203125 C-92.2709375 182.203125 -94.5809375 182.203125 -96.9609375 182.203125 C-97.61030802 188.09384326 -95.48748154 191.62483222 -92.5859375 196.515625 C-92.1734375 197.24330078 -91.7609375 197.97097656 -91.3359375 198.72070312 C-89.3026059 202.61651216 -89.3026059 202.61651216 -85.9609375 205.203125 C-85.9609375 204.543125 -85.9609375 203.883125 -85.9609375 203.203125 C-85.1978125 202.955625 -84.4346875 202.708125 -83.6484375 202.453125 C-80.68302055 201.0738613 -79.57733477 200.01055185 -77.9609375 197.203125 C-77.9609375 196.213125 -77.9609375 195.223125 -77.9609375 194.203125 C-75.9809375 194.203125 -74.0009375 194.203125 -71.9609375 194.203125 C-70.99216278 192.05289664 -70.99216278 192.05289664 -70.9609375 189.203125 C-72.39488291 186.61346239 -74.09376858 184.52570097 -75.9609375 182.203125 C-71.5059375 185.668125 -71.5059375 185.668125 -66.9609375 189.203125 C-64.9809375 188.213125 -64.9809375 188.213125 -62.9609375 187.203125 C-61.92739242 184.10248977 -61.82728754 181.88868432 -61.8359375 178.640625 C-61.83335937 177.66996094 -61.83078125 176.69929687 -61.828125 175.69921875 C-61.79442797 173.20359547 -61.79442797 173.20359547 -62.9609375 171.203125 C-59.05919515 174.45457696 -58.19472626 177.35609774 -56.9609375 182.203125 C-56.3009375 183.193125 -55.6409375 184.183125 -54.9609375 185.203125 C-54.546875 187.46484375 -54.546875 187.46484375 -54.3359375 189.890625 C-54.26117188 190.69886719 -54.18640625 191.50710937 -54.109375 192.33984375 C-54.06039062 192.95472656 -54.01140625 193.56960937 -53.9609375 194.203125 C-55.9409375 194.533125 -57.9209375 194.863125 -59.9609375 195.203125 C-60.2909375 196.193125 -60.6209375 197.183125 -60.9609375 198.203125 C-62.0128125 197.914375 -63.0646875 197.625625 -64.1484375 197.328125 C-65.4065625 197.286875 -66.6646875 197.245625 -67.9609375 197.203125 C-70.40395016 199.63010028 -70.40395016 199.63010028 -71.6953125 201.56640625 C-73.69683658 204.15479696 -76.1799339 205.52158794 -78.9609375 207.203125 C-78.6309375 208.853125 -78.3009375 210.503125 -77.9609375 212.203125 C-78.9509375 212.533125 -79.9409375 212.863125 -80.9609375 213.203125 C-70.96052612 224.72374543 -59.20361485 236.9645969 -44.9609375 243.203125 C-44.3009375 242.873125 -43.6409375 242.543125 -42.9609375 242.203125 C-43.6209375 241.213125 -44.2809375 240.223125 -44.9609375 239.203125 C-44.3009375 239.203125 -43.6409375 239.203125 -42.9609375 239.203125 C-42.18291563 236.9015839 -42.18291563 236.9015839 -41.9609375 234.203125 C-43.38453717 232.04076989 -43.38453717 232.04076989 -44.9609375 230.203125 C-41.54076496 231.7998923 -38.12546043 233.40681636 -34.7109375 235.015625 C-33.25880859 235.69334961 -33.25880859 235.69334961 -31.77734375 236.38476562 C-30.37548828 237.04702148 -30.37548828 237.04702148 -28.9453125 237.72265625 C-27.65705566 238.32750854 -27.65705566 238.32750854 -26.34277344 238.94458008 C-24.01163432 240.17633717 -22.01996941 241.56298521 -19.9609375 243.203125 C-21.5234375 243.953125 -21.5234375 243.953125 -23.9609375 244.203125 C-25.80618839 243.29976552 -27.47377527 242.25701786 -29.1796875 241.11328125 C-31.22121096 239.89978644 -31.22121096 239.89978644 -34.9609375 240.203125 C-35.9509375 242.183125 -36.9409375 244.163125 -37.9609375 246.203125 C-29.58437996 250.45235585 -21.08784364 253.1270887 -11.9609375 255.203125 C-10.95804687 255.43128906 -9.95515625 255.65945313 -8.921875 255.89453125 C16.47815219 260.68635696 46.80730915 256.9096938 69.0390625 243.203125 C68.1934375 242.31625 67.3478125 241.429375 66.4765625 240.515625 C64.02154511 237.5972663 64.02154511 237.5972663 64.1640625 234.390625 C65.0390625 232.203125 65.0390625 232.203125 66.0390625 231.203125 C68.4140625 230.890625 68.4140625 230.890625 71.0390625 231.203125 C72.8515625 233.203125 72.8515625 233.203125 74.0390625 235.203125 C71.5640625 236.193125 71.5640625 236.193125 69.0390625 237.203125 C69.0390625 238.193125 69.0390625 239.183125 69.0390625 240.203125 C70.74669562 241.0403967 70.74669562 241.0403967 73.0390625 241.203125 C75.9318171 239.79233849 75.9318171 239.79233849 78.7890625 237.765625 C79.77390625 237.10691406 80.75875 236.44820312 81.7734375 235.76953125 C82.52109375 235.25261719 83.26875 234.73570312 84.0390625 234.203125 C82.91469996 230.83003739 81.96563517 230.05189403 79.2890625 227.828125 C76.04237409 225.07778284 73.00001071 222.25660284 70.0390625 219.203125 C70.3690625 218.873125 70.6990625 218.543125 71.0390625 218.203125 C72.64505599 219.47164894 74.24878825 220.743036 75.8515625 222.015625 C76.74488281 222.72332031 77.63820313 223.43101562 78.55859375 224.16015625 C81.0390625 226.203125 81.0390625 226.203125 82.73828125 227.96484375 C83.9811715 229.43295574 83.9811715 229.43295574 86.0390625 229.203125 C86.0390625 229.863125 86.0390625 230.523125 86.0390625 231.203125 C98.11674363 225.78086524 108.43201627 211.24576339 115.0390625 200.203125 C115.38372559 199.63303711 115.72838867 199.06294922 116.08349609 198.47558594 C121.98245603 188.57792928 125.94412422 178.28265263 129.0390625 167.203125 C129.38066406 165.98882812 129.72226562 164.77453125 130.07421875 163.5234375 C132.14759409 154.55488369 132.34102505 145.69109933 132.4140625 136.515625 C132.42808105 135.30414795 132.44209961 134.0926709 132.45654297 132.84448242 C132.41468711 124.95250699 132.19660215 116.54767472 129.0390625 109.203125 C126.49824699 107.28912412 124.30533112 106.19495614 121.31640625 105.1328125 C119.0390625 104.203125 119.0390625 104.203125 117.0390625 101.203125 C120.3390625 102.853125 123.6390625 104.503125 127.0390625 106.203125 C128.37400091 102.19830977 127.06251885 99.71566734 125.6015625 95.953125 C125.32860352 95.24438232 125.05564453 94.53563965 124.77441406 93.80541992 C118.22514538 77.28373455 108.99026819 63.43035025 96.0390625 51.203125 C95.23726562 50.39359375 94.43546875 49.5840625 93.609375 48.75 C80.38356509 35.64479018 64.1544339 26.48494006 46.0390625 22.203125 C45.7090625 21.873125 45.3790625 21.543125 45.0390625 21.203125 C43.18618748 21.13085998 41.33072372 21.1193128 39.4765625 21.140625 C38.46464844 21.14964844 37.45273438 21.15867187 36.41015625 21.16796875 C35.62769531 21.17957031 34.84523437 21.19117188 34.0390625 21.203125 C34.0390625 20.543125 34.0390625 19.883125 34.0390625 19.203125 C25.61109767 17.47885415 25.61109767 17.47885415 17.0390625 17.203125 Z " fill="#FCFCFC" transform="translate(194.9609375,53.796875)"/>
<path d="M0 0 C0.33 0 0.66 0 1 0 C1.33 29.7 1.66 59.4 2 90 C3.485 89.505 3.485 89.505 5 89 C5.33 88.34 5.66 87.68 6 87 C6.66 87.66 7.32 88.32 8 89 C8.81928886 87.75443908 9.63015186 86.50333365 10.4375 85.25 C10.88996094 84.55390625 11.34242188 83.8578125 11.80859375 83.140625 C12.9608009 81.07042986 13.54676982 79.31303676 14 77 C14.66 77 15.32 77 16 77 C19.42857143 84.28571429 19.42857143 84.28571429 19 89 C21.5264052 85.2103922 21.3068863 82.15797162 21.31884766 77.76489258 C21.33391609 76.50602486 21.33391609 76.50602486 21.34928894 75.22172546 C21.3801951 72.44600107 21.39717667 69.67037344 21.4140625 66.89453125 C21.43276817 64.97066918 21.45234113 63.04681536 21.4727478 61.12297058 C21.52413847 56.05792094 21.56372706 50.99284468 21.60089111 45.92767334 C21.64088732 40.75965757 21.69199963 35.59175319 21.7421875 30.42382812 C21.83902888 20.28263026 21.92340737 10.14136959 22 0 C22.33 0 22.66 0 23 0 C23 30.36 23 60.72 23 92 C31.58 92 40.16 92 49 92 C48.95359375 88.07351562 48.9071875 84.14703125 48.859375 80.1015625 C48.82813096 76.27556652 48.80387064 72.44958505 48.78027344 68.62353516 C48.7602262 65.9756834 48.73298116 63.32787554 48.69824219 60.68017578 C48.64942256 56.86219412 48.62696119 53.04480064 48.609375 49.2265625 C48.58872986 48.05324371 48.56808472 46.87992493 48.54681396 45.67105103 C48.54458241 37.39549544 49.44230468 29.64891828 55.4375 23.5 C61.03789685 20.22171892 65.54075008 19.27984349 72 20 C76.5203583 21.21191602 80.1201151 23.26681587 83 27 C86.40745695 35.07029279 86.13796347 43.45789773 86.09765625 52.05859375 C86.0962413 53.20288345 86.09482635 54.34717316 86.09336853 55.52613831 C86.08779301 59.16328601 86.07524498 62.80037105 86.0625 66.4375 C86.05748184 68.9108064 86.05291948 71.38411377 86.04882812 73.85742188 C86.03783159 79.90497188 86.02058381 85.95247533 86 92 C92.6 92 99.2 92 106 92 C106.33 93.65 106.66 95.3 107 97 C111.455 96.505 111.455 96.505 116 96 C116.82934992 98.88736639 117.15572513 100.54024008 116.1796875 103.421875 C115.53386719 104.57429688 115.53386719 104.57429688 114.875 105.75 C114.45992187 106.52859375 114.04484375 107.3071875 113.6171875 108.109375 C112 110 112 110 109.4453125 110.828125 C107 111 107 111 105 110 C105.33 110.99 105.66 111.98 106 113 C105.01 113.495 105.01 113.495 104 114 C103.34 113.67 102.68 113.34 102 113 C101.505 114.98 101.505 114.98 101 117 C99.02 115.35 97.04 113.7 95 112 C96.52074746 115.60047236 98.66244345 117.90006763 101.4375 120.625 C102.21996094 121.40101563 103.00242187 122.17703125 103.80859375 122.9765625 C106.02787407 125.13190932 106.02787407 125.13190932 109 127 C109 127.66 109 128.32 109 129 C106.734375 130.76171875 106.734375 130.76171875 103.75 132.6875 C102.28820312 133.65236328 102.28820312 133.65236328 100.796875 134.63671875 C98 136 98 136 95.640625 135.70703125 C95.09921875 135.47371094 94.5578125 135.24039063 94 135 C94 134.01 94 133.02 94 132 C95.65 131.34 97.3 130.68 99 130 C97.84315671 127.9004467 97.84315671 127.9004467 96 126 C93.45709375 125.41649495 93.45709375 125.41649495 91 126 C88.74358069 128.73832802 88.74358069 128.73832802 89.125 131.4375 C90.16443062 134.48154683 91.69087652 135.81606996 94 138 C68.41378033 152.66527225 36.48997664 156.09574301 8 149 C0.69910017 146.993761 -6.27149522 144.50697825 -13 141 C-12.01 139.02 -11.02 137.04 -10 135 C-6.68545551 135.38541215 -4.44901102 135.68447874 -1.6875 137.625 C2.28681311 139.6583695 5.71720667 138.77444847 10 138 C10 137.01 10 136.02 10 135 C10.66 134.34 11.32 133.68 12 133 C11.34 132.236875 10.68 131.47375 10 130.6875 C8 128 8 128 8 125 C12.0284349 124.81688932 14.48375245 125.05841983 18 127 C15.86089392 120.5162499 13.38162457 115.82872274 8.66015625 110.88671875 C7.03023259 109.03435845 6.02295016 107.32769174 4.9375 105.125 C3.24834211 101.74450181 3.24834211 101.74450181 -0.25 100.5625 C-1.61125 100.2840625 -1.61125 100.2840625 -3 100 C-3.33 100.66 -3.66 101.32 -4 102 C-5.485 102.495 -5.485 102.495 -7 103 C-7.66 103.99 -8.32 104.98 -9 106 C-8.34 106.99 -7.68 107.98 -7 109 C-9.8125 111.0625 -9.8125 111.0625 -13 113 C-13.99 112.67 -14.98 112.34 -16 112 C-16.09796875 111.32453125 -16.1959375 110.6490625 -16.296875 109.953125 C-17.43008699 103.08880853 -17.43008699 103.08880853 -22 98 C-22 97.34 -22 96.68 -22 96 C-20.02 96 -18.04 96 -16 96 C-15.67 95.01 -15.34 94.02 -15 93 C-10.51793698 90.75896849 -5.01109879 92 0 92 C0 61.64 0 31.28 0 0 Z " fill="#050505" transform="translate(170,159)"/>
<path d="M0 0 C8.50827769 6.95209171 10.33723033 16.94728486 11.75 27.375 C12.09803578 32.32036464 12.10401775 37.22802269 12.04296875 42.18359375 C12.03735058 43.52978535 12.03309105 44.87598322 12.03010559 46.22218323 C12.01883093 49.70905492 11.98952173 53.19553179 11.95599365 56.68225098 C11.92490997 60.26272144 11.91135353 63.84325968 11.89648438 67.42382812 C11.86623285 74.407897 11.80747361 81.39089186 11.75 88.375 C3.17 88.375 -5.41 88.375 -14.25 88.375 C-14.29898438 84.73726563 -14.34796875 81.09953125 -14.3984375 77.3515625 C-14.45254573 73.80350863 -14.50981453 70.25551875 -14.56738281 66.70751953 C-14.60551527 64.25379258 -14.64039473 61.80001272 -14.671875 59.34619141 C-14.71786857 55.80612358 -14.77580538 52.26641507 -14.8359375 48.7265625 C-14.84748871 47.64073883 -14.85903992 46.55491516 -14.87094116 45.43618774 C-15.0234764 32.6755229 -15.0234764 32.6755229 -20.25 21.375 C-24.6107976 17.43621507 -29.16875997 17.0076196 -34.87109375 17.1015625 C-39.56220651 17.64077086 -43.60327642 19.3237345 -46.6015625 23.05859375 C-49.57731202 28.03601651 -50.36555722 32.27605808 -50.45532227 37.96972656 C-50.47526749 39.09058655 -50.49521271 40.21144653 -50.51576233 41.36627197 C-50.53247482 42.57055847 -50.54918732 43.77484497 -50.56640625 45.015625 C-50.58718735 46.25294373 -50.60796844 47.49026245 -50.62937927 48.76507568 C-50.68365872 52.04638691 -50.73391779 55.32772733 -50.78222656 58.60913086 C-50.83256092 61.96083104 -50.8882636 65.3124372 -50.94335938 68.6640625 C-51.05123515 75.2343078 -51.15038431 81.80460346 -51.25 88.375 C-59.83 88.375 -68.41 88.375 -77.25 88.375 C-77.25 58.015 -77.25 27.655 -77.25 -3.625 C-69.33 -3.625 -61.41 -3.625 -53.25 -3.625 C-53.25 0.665 -53.25 4.955 -53.25 9.375 C-48.93935164 8.29733791 -48.54903431 7.91647149 -46 4.625 C-34.78570223 -8.80804056 -14.14019986 -9.40937514 0 0 Z " fill="#FEFEFE" transform="translate(270.25,162.625)"/>
<path d="M0 0 C0.74883453 -0.00570007 1.49766907 -0.01140015 2.26919556 -0.01727295 C3.85083631 -0.02667245 5.43249621 -0.0332367 7.01416016 -0.03710938 C9.37309514 -0.0467083 11.73111653 -0.07773414 14.08984375 -0.109375 C28.03237131 -0.20730857 41.4187425 1.68779551 54.7890625 5.765625 C55.60632813 6.01393066 56.42359375 6.26223633 57.265625 6.51806641 C76.20858954 12.57448915 92.89603278 22.41783827 108.0390625 35.203125 C108.87308594 35.90179688 109.70710937 36.60046875 110.56640625 37.3203125 C116.81815106 42.73399599 122.02817784 48.6345496 127.0390625 55.203125 C127.64492188 55.98171875 128.25078125 56.7603125 128.875 57.5625 C150.02972665 86.08787801 155.88864479 122.54070311 151.37890625 157.16796875 C146.21254017 188.58675276 129.23786223 214.21474043 107.0390625 236.203125 C106.3790625 235.873125 105.7190625 235.543125 105.0390625 235.203125 C105.71710938 234.57148438 106.39515625 233.93984375 107.09375 233.2890625 C114.45840791 226.2100146 120.47830634 218.76541224 126.0390625 210.203125 C126.73902344 209.12546875 127.43898438 208.0478125 128.16015625 206.9375 C137.62834495 191.36020709 143.13750472 174.12263571 146.0390625 156.203125 C146.26529297 154.83027344 146.26529297 154.83027344 146.49609375 153.4296875 C146.8058832 151.00919924 146.95347385 148.64240148 147.0390625 146.203125 C147.090625 144.92953125 147.1421875 143.6559375 147.1953125 142.34375 C148.19785695 105.30368438 135.27826018 71.14625181 110.11328125 44.02734375 C92.13896579 25.10642383 70.10189044 13.12258991 45.0390625 6.203125 C44.3579541 6.01105469 43.6768457 5.81898437 42.97509766 5.62109375 C22.3200136 0.10605475 -3.56562483 1.26985931 -23.9609375 7.203125 C-24.66605469 7.40147949 -25.37117188 7.59983398 -26.09765625 7.80419922 C-43.9625114 12.99276736 -60.87317475 22.09120556 -74.9609375 34.203125 C-75.84910156 34.94175781 -76.73726562 35.68039063 -77.65234375 36.44140625 C-83.86661764 41.78283556 -88.97738577 47.71544675 -93.9609375 54.203125 C-94.62867188 55.04359375 -95.29640625 55.8840625 -95.984375 56.75 C-117.38505574 84.6639314 -125.44940828 120.60982689 -121.46484375 155.2734375 C-116.59954639 189.65609158 -98.30470601 222.69866224 -70.67578125 243.94042969 C-63.46102337 249.25289093 -55.75073131 253.79548218 -47.9609375 258.203125 C-48.6209375 258.533125 -49.2809375 258.863125 -49.9609375 259.203125 C-52.62837019 258.01861436 -55.14792073 256.77403983 -57.7109375 255.390625 C-58.8551416 254.77537964 -58.8551416 254.77537964 -60.02246094 254.14770508 C-93.47922828 235.76459791 -116.52830726 205.39102898 -127.60253906 169.10058594 C-137.02308843 136.15105749 -131.40053592 98.34656889 -115.15332031 68.56665039 C-107.54456064 55.21868091 -97.99576584 42.82319814 -85.9609375 33.203125 C-84.93742187 32.38070312 -83.91390625 31.55828125 -82.859375 30.7109375 C-59.70841555 12.66169741 -29.63792478 0.1804557 0 0 Z " fill="#FDFDFD" transform="translate(194.9609375,53.796875)"/>
<path d="M0 0 C2.51195969 2.21597685 4.96042083 4.4841001 7.39453125 6.78515625 C8.21695313 7.543125 9.039375 8.30109375 9.88671875 9.08203125 C30.8671953 29.0821117 42.81439165 56.49901936 47.39453125 84.78515625 C47.54535156 85.70039063 47.69617188 86.615625 47.8515625 87.55859375 C48.16135195 89.97908201 48.3089426 92.34587977 48.39453125 94.78515625 C48.471875 96.69554687 48.471875 96.69554687 48.55078125 98.64453125 C49.51399433 134.23145775 37.56999776 169.30732107 12.93359375 195.390625 C11.4722813 196.8398003 9.99676975 198.27497621 8.5 199.6875 C6.26633369 201.82570354 6.26633369 201.82570354 4.140625 204.67578125 C1.05342496 208.42768097 -2.69066692 210.95104061 -6.73046875 213.59765625 C-7.90766479 214.37314819 -7.90766479 214.37314819 -9.10864258 215.16430664 C-21.89057469 223.37755053 -35.90885436 229.86605908 -50.60546875 233.78515625 C-51.30639648 233.97980469 -52.00732422 234.17445313 -52.72949219 234.375 C-76.15610139 240.61665644 -104.29776768 240.38582679 -127.60546875 233.78515625 C-128.43933105 233.54958008 -129.27319336 233.31400391 -130.13232422 233.07128906 C-144.62390529 228.84722371 -144.62390529 228.84722371 -150.60546875 223.78515625 C-152.79499803 222.52279801 -155.00511401 221.29573098 -157.23046875 220.09765625 C-163.99154125 216.34180062 -169.79485348 211.90235973 -175.60546875 206.78515625 C-176.45882812 206.06457031 -177.3121875 205.34398437 -178.19140625 204.6015625 C-184.43442845 199.21335411 -189.5855439 193.31380169 -194.60546875 186.78515625 C-195.58966797 185.55925781 -195.58966797 185.55925781 -196.59375 184.30859375 C-217.97288149 156.63140149 -225.87238161 120.90425028 -222.109375 86.48828125 C-218.565782 59.95936437 -207.2420399 34.87824981 -189.60546875 14.78515625 C-188.92484375 13.98335937 -188.24421875 13.1815625 -187.54296875 12.35546875 C-169.99870841 -7.99861453 -145.41994755 -21.54659342 -119.60546875 -28.21484375 C-118.41179687 -28.55257812 -117.218125 -28.8903125 -115.98828125 -29.23828125 C-75.65831087 -38.85746456 -31.16251473 -26.49047355 0 0 Z M-180.60546875 9.78515625 C-181.19585937 10.31109375 -181.78625 10.83703125 -182.39453125 11.37890625 C-206.0927293 33.39239828 -218.39983665 67.39549191 -219.828125 99.0546875 C-220.3235755 116.36653761 -217.76613651 133.58610275 -211.60546875 149.78515625 C-211.35812988 150.43790527 -211.11079102 151.0906543 -210.85595703 151.76318359 C-204.55632184 167.98088851 -195.34791477 182.00508613 -183.60546875 194.78515625 C-182.8165625 195.6565625 -182.02765625 196.52796875 -181.21484375 197.42578125 C-159.25816694 220.54572571 -126.75522648 234.98648693 -94.95703125 236.0625 C-57.01066768 236.82358711 -23.1650177 225.57535839 4.7734375 199.38305664 C23.84413072 180.96542923 36.61300385 157.57866706 42.39453125 131.78515625 C42.62785156 130.75390625 42.86117188 129.72265625 43.1015625 128.66015625 C49.65099087 94.73505963 42.21270475 58.74363368 23.19042969 29.96337891 C20.45468201 26.07172816 17.48408559 22.39965733 14.39453125 18.78515625 C13.95882812 18.27114258 13.523125 17.75712891 13.07421875 17.22753906 C-9.03820327 -8.58645067 -39.92398904 -24.35497949 -73.60546875 -28.21484375 C-114.75910782 -30.7852229 -150.48149269 -18.54195107 -180.60546875 9.78515625 Z " fill="#060606" transform="translate(294.60546875,87.21484375)"/>
<path d="M0 0 C8.58 0 17.16 0 26 0 C26 30.36 26 60.72 26 92 C17.42 92 8.84 92 0 92 C0 61.64 0 31.28 0 0 Z " fill="#FEFEFE" transform="translate(144,159)"/>
<path d="M0 0 C0 1.32 0 2.64 0 4 C4.29 4 8.58 4 13 4 C12.34 4.99 11.68 5.98 11 7 C11.495 7.495 11.495 7.495 12 8 C8.71023192 9.09658936 7.28696233 8.79953138 4 8 C4.42152344 8.4846875 4.84304687 8.969375 5.27734375 9.46875 C9.29937137 14.38981909 10.77284549 17.6396736 11 24 C13.49361571 22.79618552 15.68143083 21.54571278 18 20 C17.34 19.34 16.68 18.68 16 18 C16.375 15.875 16.375 15.875 17 14 C17.66 14 18.32 14 19 14 C19.5775 13.649375 20.155 13.29875 20.75 12.9375 C23.92459399 11.6147525 25.75135887 11.96319964 29 13 C30.4375 15.0625 30.4375 15.0625 32 18 C33.12233222 19.3121384 34.27086875 20.60208667 35.4375 21.875 C40.08654724 27.10394954 43.30041818 31.8292864 44 39 C40.7 38.34 37.4 37.68 34 37 C35.53604696 40.14191424 37.05731159 43.08596738 39 46 C38.01 47.65 37.02 49.3 36 51 C32.30319828 50.43673949 29.80993627 49.47290695 26.6875 47.4375 C19.73014669 43.09839194 12.35848539 39.59707599 5 36 C5.66515625 36.76699219 6.3303125 37.53398437 7.015625 38.32421875 C9 41 9 41 8.75 43.8125 C8.5025 44.534375 8.255 45.25625 8 46 C7.34 46 6.68 46 6 46 C6.66 47.32 7.32 48.64 8 50 C-7.11465173 44.35899605 -19.78674826 32.16617326 -30 20 C-29.01 19.67 -28.02 19.34 -27 19 C-27.33 17.35 -27.66 15.7 -28 14 C-27.37351562 13.52949219 -26.74703125 13.05898438 -26.1015625 12.57421875 C-25.28429687 11.95160156 -24.46703125 11.32898438 -23.625 10.6875 C-22.81289062 10.07261719 -22.00078125 9.45773437 -21.1640625 8.82421875 C-18.80220611 7.00519317 -18.80220611 7.00519317 -17 4 C-14.69 4.33 -12.38 4.66 -10 5 C-9.67 4.01 -9.34 3.02 -9 2 C-3.21052632 0 -3.21052632 0 0 0 Z " fill="#040404" transform="translate(144,247)"/>
<path d="M0 0 C4.06445632 2.68374929 6.58655457 5.2547296 8.02734375 10.02734375 C8.39900427 15.50253772 7.75182867 19.72730371 4.21484375 24.02734375 C1.50897925 26.9210189 -1.12460468 28.73356845 -5.0859375 29.36328125 C-10.63164513 29.46178405 -14.7164957 28.75424081 -18.97265625 25.02734375 C-22.61088267 20.87244613 -23.63400735 16.62732525 -23.35546875 11.16796875 C-22.47424633 6.24031686 -19.77568228 3.63371034 -15.91015625 0.71484375 C-10.55710376 -2.36031407 -5.57745084 -2.75006982 0 0 Z " fill="#FCFCFC" transform="translate(164.97265625,112.97265625)"/>
<path d="M0 0 C3.8970193 1.32621076 6.26177529 2.94166693 9.1875 5.8125 C13.1664715 9.49054088 17.11630831 11.85233172 22.03125 14.08984375 C24 15 24 15 25 16 C25.07226502 17.85287502 25.0838122 19.70833878 25.0625 21.5625 C25.05347656 22.57441406 25.04445312 23.58632812 25.03515625 24.62890625 C25.02355469 25.41136719 25.01195312 26.19382813 25 27 C23.1015625 26.7578125 23.1015625 26.7578125 21 26 C20.0859375 24.1796875 20.0859375 24.1796875 19.375 21.875 C16.98749324 15.89668308 12.54300039 12.98469252 7 10 C4.80869466 9.30420546 4.80869466 9.30420546 3 9 C2.67 9.99 2.34 10.98 2 12 C5.17539556 15.42578949 5.17539556 15.42578949 9 18 C9 18.66 9 19.32 9 20 C2.66326595 19.49306128 -1.34404272 17.97289729 -5.63671875 13.16796875 C-8.68516913 9.30758243 -10.79030142 5.83879431 -12 1 C-11.278125 1.350625 -10.55625 1.70125 -9.8125 2.0625 C-6.64633734 3.11788755 -5.14082715 3.01864664 -2 2 C-1.34 1.34 -0.68 0.68 0 0 Z " fill="#F9F9F9" transform="translate(191,102)"/>
<path d="M0 0 C2.8125 0.1875 2.8125 0.1875 6 1 C7.4375 3.0625 7.4375 3.0625 9 6 C10.12233222 7.3121384 11.27086875 8.60208667 12.4375 9.875 C17.08654724 15.10394954 20.30041818 19.8292864 21 27 C17.7 26.34 14.4 25.68 11 25 C12.53604696 28.14191424 14.05731159 31.08596738 16 34 C11.78810903 33.52137603 9.08944995 32.97037051 6 30 C5.56640625 27.765625 5.56640625 27.765625 5.5625 25.25 C5.25564462 19.74275351 3.52861948 17.16196144 0 13 C0.99 12.34 1.98 11.68 3 11 C3.49871032 7.84150129 3.32137282 6.46866869 1.5 3.8125 C1.005 3.214375 0.51 2.61625 0 2 C0 1.34 0 0.68 0 0 Z " fill="#F7F7F7" transform="translate(167,259)"/>
<path d="M0 0 C11.22551525 3.41360698 19.14239729 10.52878841 27 19 C26.01 19 25.02 19 24 19 C22.66018514 19.3062434 21.32488113 19.63451555 20 20 C20 20.66 20 21.32 20 22 C19.01 22 18.02 22 17 22 C17 22.99 17 23.98 17 25 C16.34 24.67 15.68 24.34 15 24 C14.67 24.33 14.34 24.66 14 25 C13.01 25 12.02 25 11 25 C9.31201173 26.43750191 9.31201173 26.43750191 8 28 C6.68 27.34 5.36 26.68 4 26 C4.268125 24.824375 4.53625 23.64875 4.8125 22.4375 C5.31258399 18.74609054 4.74935349 17.00385213 2.5625 14 C1.716875 13.01 0.87125 12.02 0 11 C2.97 11.495 2.97 11.495 6 12 C6.66 10.68 7.32 9.36 8 8 C7.4225 7.50628906 6.845 7.01257813 6.25 6.50390625 C5.13625 5.54291016 5.13625 5.54291016 4 4.5625 C3.2575 3.92441406 2.515 3.28632812 1.75 2.62890625 C1.1725 2.09136719 0.595 1.55382812 0 1 C0 0.67 0 0.34 0 0 Z " fill="#0C0C0C" transform="translate(178,121)"/>
<path d="M0 0 C2.625 -0.1875 2.625 -0.1875 5 0 C4.01 0.495 4.01 0.495 3 1 C2.27306096 2.97888961 1.60183749 4.97954558 1 7 C0.01 7 -0.98 7 -2 7 C-2.66 8.32 -3.32 9.64 -4 11 C-4.66 11 -5.32 11 -6 11 C-6 11.66 -6 12.32 -6 13 C-5.34 13 -4.68 13 -4 13 C-3.67 13.99 -3.34 14.98 -3 16 C-3.66 16.33 -4.32 16.66 -5 17 C-2.82779645 19.73277221 -1.14172035 21.72888915 2.3359375 22.5546875 C4.56274452 22.78650022 6.76217118 22.94637012 9 23 C9.2475 24.7634375 9.2475 24.7634375 9.5 26.5625 C10.81316581 32.06015688 14.62521438 34.74434558 19 38 C18.67 38.66 18.34 39.32 18 40 C17.48050781 39.73445313 16.96101563 39.46890625 16.42578125 39.1953125 C15.72839844 38.84210938 15.03101563 38.48890625 14.3125 38.125 C13.62800781 37.77695312 12.94351563 37.42890625 12.23828125 37.0703125 C10.01872799 35.95032631 10.01872799 35.95032631 7.63671875 35.22265625 C3.98248906 33.52817641 1.41133493 31.05834141 -1.5 28.3125 C-2.05558594 27.80783203 -2.61117187 27.30316406 -3.18359375 26.78320312 C-7.05478786 23.18071543 -10.04411124 19.38420068 -13 15 C-12.01 15 -11.02 15 -10 15 C-10.33 13.35 -10.66 11.7 -11 10 C-10.37351562 9.52949219 -9.74703125 9.05898438 -9.1015625 8.57421875 C-8.28429687 7.95160156 -7.46703125 7.32898438 -6.625 6.6875 C-5.81289062 6.07261719 -5.00078125 5.45773437 -4.1640625 4.82421875 C-1.80220611 3.00519317 -1.80220611 3.00519317 0 0 Z " fill="#090909" transform="translate(127,251)"/>
<path d="M0 0 C0.66 0 1.32 0 2 0 C2 0.66 2 1.32 2 2 C3.32 1.67 4.64 1.34 6 1 C6.33 1.66 6.66 2.32 7 3 C8.65 2.01 10.3 1.02 12 0 C13.65 1.65 15.3 3.3 17 5 C15.35 6.65 13.7 8.3 12 10 C9.69 9.01 7.38 8.02 5 7 C7.64 9.31 10.28 11.62 13 14 C12.34 15.32 11.68 16.64 11 18 C7.88742431 18 5.89234315 17.82638376 3 17 C2.67 17.66 2.34 18.32 2 19 C1.01 19.33 0.02 19.66 -1 20 C-1.66 19.34 -2.32 18.68 -3 18 C-2.90625 15.79296875 -2.90625 15.79296875 -2.5 13.1875 C-1.99737434 9.19538129 -1.95515617 6.60854793 -4 3 C-3.01 2.67 -2.02 2.34 -1 2 C-0.67 1.34 -0.34 0.68 0 0 Z " fill="#080808" transform="translate(174,115)"/>
<path d="M0 0 C1.58303394 0.24089647 3.16565251 0.48482964 4.74609375 0.7421875 C9.14488887 1.24534257 13.57917085 1.07194839 18 1 C17.125 6.875 17.125 6.875 16 8 C13.52836314 8.12682623 11.09709389 8.18520251 8.625 8.1875 C7.93921875 8.19974609 7.2534375 8.21199219 6.546875 8.22460938 C2.80703203 8.23552331 1.1900263 8.1266842 -2 6 C-1.125 1.125 -1.125 1.125 0 0 Z " fill="#FAFAFA" transform="translate(287,230)"/>
<path d="M0 0 C0.66 0 1.32 0 2 0 C5.42857143 7.28571429 5.42857143 7.28571429 5 12 C3.02 12 1.04 12 -1 12 C-0.48480955 15.81240932 0.26029415 17.3794118 3 20 C3 20.99 3 21.98 3 23 C-0.89835017 21.70054994 -3.60392154 20.40980397 -6 17 C-6 11.47650736 -4.13382661 8.40694367 -1 4 C-0.23060319 1.77397385 -0.23060319 1.77397385 0 0 Z " fill="#F6F6F6" transform="translate(184,236)"/>
<path d="M0 0 C0.82934992 2.88736639 1.15572513 4.54024008 0.1796875 7.421875 C-0.25085938 8.19015625 -0.68140625 8.9584375 -1.125 9.75 C-1.74761719 10.91789062 -1.74761719 10.91789062 -2.3828125 12.109375 C-4 14 -4 14 -6.53515625 14.88671875 C-9 15 -9 15 -11.3125 13.0625 C-11.869375 12.381875 -12.42625 11.70125 -13 11 C-11.02 10.67 -9.04 10.34 -7 10 C-7.59927826 6.64404172 -8.84622436 4.62198774 -11 2 C-7.17010894 0.19769832 -4.21878192 -0.19622241 0 0 Z " fill="#F9F9F9" transform="translate(286,255)"/>
<path d="M0 0 C0.66 0 1.32 0 2 0 C2 1.32 2 2.64 2 4 C2.99 4 3.98 4 5 4 C5 3.01 5 2.02 5 1 C7.475 1.99 7.475 1.99 10 3 C8.57298983 6.13659662 6.85240215 8.62380533 4.625 11.25 C4.03976563 11.95640625 3.45453125 12.6628125 2.8515625 13.390625 C1 15 1 15 -3 15 C-3 10.71 -3 6.42 -3 2 C-2.01 1.67 -1.02 1.34 0 1 C0 0.67 0 0.34 0 0 Z " fill="#1C1C1C" transform="translate(220,157)"/>
<path d="M0 0 C6.13602988 1.41600689 10.26698362 5.0663375 15 9 C14.360625 9.28875 13.72125 9.5775 13.0625 9.875 C10.84793921 10.82823451 10.84793921 10.82823451 10 13 C8.68 12.67 7.36 12.34 6 12 C6 11.34 6 10.68 6 10 C5.4225 9.7525 4.845 9.505 4.25 9.25 C1.6997003 7.83316683 -0.01785701 6.12372463 -2 4 C-1.34 2.68 -0.68 1.36 0 0 Z " fill="#090909" transform="translate(194,110)"/>
<path d="M0 0 C1.03125 0.495 2.0625 0.99 3.125 1.5 C6.52451578 2.97473902 9.27021549 3.27291106 13 3 C13.165 4.175625 13.33 5.35125 13.5 6.5625 C14.81316581 12.06015688 18.62521438 14.74434558 23 18 C22.67 18.66 22.34 19.32 22 20 C15.49799682 17.3272398 11.28076795 14.83230576 7.3828125 8.9296875 C5.96510354 6.95130268 4.53174677 5.62379165 2.625 4.125 C1.75875 3.42375 0.8925 2.7225 0 2 C0 1.34 0 0.68 0 0 Z " fill="#F5F5F5" transform="translate(123,271)"/>
<path d="M0 0 C0.99 0.33 1.98 0.66 3 1 C3.639375 0.773125 4.27875 0.54625 4.9375 0.3125 C7 0 7 0 9.3125 1.625 C11 4 11 4 10.75 6.75 C10.5025 7.4925 10.255 8.235 10 9 C9.34 9 8.68 9 8 9 C8.66 10.32 9.32 11.64 10 13 C6.09544063 11.57497833 2.75164038 9.73347873 -0.75 7.5 C-1.71421875 6.8915625 -2.6784375 6.283125 -3.671875 5.65625 C-6 4 -6 4 -7 2 C-2 4 -2 4 3 6 C1.68 4.35 0.36 2.7 -1 1 C-0.67 0.67 -0.34 0.34 0 0 Z " fill="#0E0E0E" transform="translate(142,284)"/>
<path d="M0 0 C2.16796875 -0.375 2.16796875 -0.375 5 0 C7.0122134 1.97402541 8.62584511 3.78111179 10.3125 6 C10.76689453 6.57234375 11.22128906 7.1446875 11.68945312 7.734375 C12.80662795 9.14554319 13.90517971 10.57141896 15 12 C10.5 16 10.5 16 6 16 C5.85304687 14.98679687 5.85304687 14.98679687 5.703125 13.953125 C4.56991301 7.08880853 4.56991301 7.08880853 0 2 C0 1.34 0 0.68 0 0 Z " fill="#F6F6F6" transform="translate(148,255)"/>
<path d="M0 0 C0.33 0.66 0.66 1.32 1 2 C1.33 1.34 1.66 0.68 2 0 C3.32 0.66 4.64 1.32 6 2 C5.34 2.66 4.68 3.32 4 4 C2.98792094 7.90312983 2.98792094 7.90312983 3.5625 11.75 C4.08392301 14.43160405 3.65719465 16.37122139 3 19 C1.68 19.33 0.36 19.66 -1 20 C-1.66 19.01 -2.32 18.02 -3 17 C-3.99 17 -4.98 17 -6 17 C-5.6390625 16.34773438 -5.278125 15.69546875 -4.90625 15.0234375 C-1.374286 8.40485047 -1.374286 8.40485047 -1 1 C-0.67 0.67 -0.34 0.34 0 0 Z " fill="#0B0B0B" transform="translate(287,253)"/>
<path d="M0 0 C11.22551525 3.41360698 19.14239729 10.52878841 27 19 C18.21128404 19 8.19985688 8.64219779 2 3 C1.34 2.01 0.68 1.02 0 0 Z " fill="#F5F5F5" transform="translate(178,121)"/>
<path d="M0 0 C16.60372622 3.59883721 16.60372622 3.59883721 20.9375 9.75 C21.288125 10.4925 21.63875 11.235 22 12 C13.37605874 10.93312067 5.6372997 6.60924792 0 0 Z " fill="#F7F7F7" transform="translate(112,143)"/>
<path d="M0 0 C3.57814867 0.59635811 5.54422861 1.999934 8.25 4.375 C8.95640625 4.98085937 9.6628125 5.58671875 10.390625 6.2109375 C12 8 12 8 12 11 C10.72245446 13.0360882 9.39300182 15.04109119 8 17 C6.68 16.34 5.36 15.68 4 15 C4.268125 13.824375 4.53625 12.64875 4.8125 11.4375 C5.31258399 7.74609054 4.74935349 6.00385213 2.5625 3 C1.716875 2.01 0.87125 1.02 0 0 Z " fill="#F8F8F8" transform="translate(178,132)"/>
<path d="M0 0 C0.16682272 4.92127034 0.24828052 8.50343896 -2 13 C-4.50037734 10.82575883 -5.43628586 9.26954202 -6 6 C-6.99 6.99 -7.98 7.98 -9 9 C-9.66 7.68 -10.32 6.36 -11 5 C-9.35538655 4.16426177 -7.70927487 3.33147118 -6.0625 2.5 C-4.68771484 1.80390625 -4.68771484 1.80390625 -3.28515625 1.09375 C-1 0 -1 0 0 0 Z " fill="#070707" transform="translate(161,80)"/>
<path d="M0 0 C0 0.33 0 0.66 0 1 C-6.36468509 1.33961758 -10.27538877 0.99241041 -16 -2 C-19.06991681 -1.83557723 -19.06991681 -1.83557723 -22 -1 C-24.75 -0.3125 -24.75 -0.3125 -27 0 C-27.66 -0.66 -28.32 -1.32 -29 -2 C-19.94053105 -7.11256713 -9.23778533 -2.75901855 0 0 Z " fill="#F6F6F6" transform="translate(250,286)"/>
<path d="M0 0 C4.21878192 -0.19622241 7.17010894 0.19769832 11 2 C9.60667426 5.36720387 8.0210714 6.9859524 5 9 C0 3.375 0 3.375 0 0 Z " fill="#161616" transform="translate(178,284)"/>
<path d="M0 0 C0.99 0 1.98 0 3 0 C5.21538462 5.41538462 5.21538462 5.41538462 4.125 8.375 C3.75375 8.91125 3.3825 9.4475 3 10 C2.54625 9.505 2.0925 9.01 1.625 8.5 C0.12364481 6.77390663 0.12364481 6.77390663 -2 7 C-2 7.66 -2 8.32 -2 9 C-2.99 9.33 -3.98 9.66 -5 10 C-5 9.34 -5 8.68 -5 8 C-5.66 7.67 -6.32 7.34 -7 7 C-6.34 5.35 -5.68 3.7 -5 2 C-4.67 3.32 -4.34 4.64 -4 6 C-3.34 6 -2.68 6 -2 6 C-1.34 4.02 -0.68 2.04 0 0 Z " fill="#0A0A0A" transform="translate(207,80)"/>
<path d="M0 0 C0.33 0.99 0.66 1.98 1 3 C1.66 3 2.32 3 3 3 C3.33 3.66 3.66 4.32 4 5 C4.99 5.66 5.98 6.32 7 7 C6.34 7 5.68 7 5 7 C5 7.66 5 8.32 5 9 C2 10 2 10 -0.04296875 9.00390625 C-0.75066406 8.52824219 -1.45835937 8.05257812 -2.1875 7.5625 C-2.90292969 7.08941406 -3.61835938 6.61632812 -4.35546875 6.12890625 C-4.89816406 5.75636719 -5.44085938 5.38382813 -6 5 C-5.01 3.68 -4.02 2.36 -3 1 C-2.01 1.33 -1.02 1.66 0 2 C0 1.34 0 0.68 0 0 Z " fill="#0F0F0F" transform="translate(270,155)"/>
<path d="M0 0 C0.66 0.33 1.32 0.66 2 1 C2 4 2 4 1 7 C-0.65 7.33 -2.3 7.66 -4 8 C-4.33 7.01 -4.66 6.02 -5 5 C-5.99 4.67 -6.98 4.34 -8 4 C-6.71349294 3.30289269 -5.42059335 2.61757124 -4.125 1.9375 C-3.40570313 1.55464844 -2.68640625 1.17179688 -1.9453125 0.77734375 C-1.30335938 0.52082031 -0.66140625 0.26429688 0 0 Z " fill="#0F0F0F" transform="translate(233,179)"/>
<path d="M0 0 C1.65 0.33 3.3 0.66 5 1 C5.33 3.31 5.66 5.62 6 8 C0.46153846 7.38461538 0.46153846 7.38461538 -1.875 5.4375 C-2.24625 4.963125 -2.6175 4.48875 -3 4 C-2.01 2.68 -1.02 1.36 0 0 Z M1 1 C2 3 2 3 2 3 Z " fill="#0D0D0D" transform="translate(127,267)"/>
<path d="M0 0 C0.99 0.33 1.98 0.66 3 1 C3.66 0.67 4.32 0.34 5 0 C5.99 0.33 6.98 0.66 8 1 C8.66 0.67 9.32 0.34 10 0 C10.33 1.32 10.66 2.64 11 4 C10.01 4.495 10.01 4.495 9 5 C8.34 4.67 7.68 4.34 7 4 C6.67 5.32 6.34 6.64 6 8 C3.69 6.02 1.38 4.04 -1 2 C-0.67 1.34 -0.34 0.68 0 0 Z " fill="#0B0B0B" transform="translate(265,268)"/>
<path d="M0 0 C3.28109638 1.12787688 6.29812021 2.60988406 9.3125 4.3125 C10.00988281 4.70050781 10.70726562 5.08851563 11.42578125 5.48828125 C13 7 13 7 13.23046875 9.66796875 C13.15441406 10.43753906 13.07835937 11.20710937 13 12 C7.90789714 8.43679155 3.77339973 4.95258714 0 0 Z " fill="#F6F6F6" transform="translate(176,205)"/>
<path d="M0 0 C2.00720923 0.28674418 4.0085944 0.61866701 6 1 C6.33 2.32 6.66 3.64 7 5 C6.34 5 5.68 5 5 5 C4.67 5.99 4.34 6.98 4 8 C2.0625 7.3125 2.0625 7.3125 0 6 C-0.8125 3.4375 -0.8125 3.4375 -1 1 C-0.67 0.67 -0.34 0.34 0 0 Z " fill="#0A0A0A" transform="translate(183,247)"/>
<path d="M0 0 C1.32 0.99 2.64 1.98 4 3 C3.34 5.31 2.68 7.62 2 10 C1.4225 9.360625 0.845 8.72125 0.25 8.0625 C-1.98062401 6.01776132 -3.07436391 5.41794801 -6 5 C-4.62308038 2.24616077 -2.63279958 1.48516899 0 0 Z " fill="#111111" transform="translate(136,220)"/>
<path d="M0 0 C-1 3 -1 3 -3.75 4.5625 C-6.48116059 5.77051334 -9.21083436 6.93355431 -12 8 C-12 7.01 -12 6.02 -12 5 C-11.34 5 -10.68 5 -10 5 C-9.67 4.01 -9.34 3.02 -9 2 C-3.21052632 0 -3.21052632 0 0 0 Z " fill="#0D0D0D" transform="translate(144,247)"/>
<path d="M0 0 C3.7758544 0.52442422 6.22372155 1.32654667 9 4 C9 4.99 9 5.98 9 7 C7.68 7.33 6.36 7.66 5 8 C4.16382818 6.8562364 3.33113541 5.70992861 2.5 4.5625 C2.0359375 3.92441406 1.571875 3.28632813 1.09375 2.62890625 C0 1 0 1 0 0 Z " fill="#FAFAFA" transform="translate(196,255)"/>
<path d="M0 0 C1.32 0.66 2.64 1.32 4 2 C4 2.66 4 3.32 4 4 C4.66 4.33 5.32 4.66 6 5 C5.01 6.485 5.01 6.485 4 8 C1.36 7.67 -1.28 7.34 -4 7 C-3.34 6.21625 -2.68 5.4325 -2 4.625 C0.20201441 2.28487188 0.20201441 2.28487188 0 0 Z " fill="#0E0E0E" transform="translate(231,275)"/>
<path d="M0 0 C1.98 0.495 1.98 0.495 4 1 C4 4 4 4 3 7 C2.65772583 8.33106622 2.32248257 9.66400079 2 11 C-0.7865517 8.2134483 -0.65662895 5.84575573 -1 2 C-0.67 1.34 -0.34 0.68 0 0 Z " fill="#0C0C0C" transform="translate(280,174)"/>
<path d="M0 0 C0.33 0.66 0.66 1.32 1 2 C1.66 2 2.32 2 3 2 C3.33 1.34 3.66 0.68 4 0 C4.33 0.99 4.66 1.98 5 3 C4.01 4.485 4.01 4.485 3 6 C3 6.99 3 7.98 3 9 C2.01 9.495 2.01 9.495 1 10 C0.34786708 12.02463255 0.34786708 12.02463255 0 14 C0.66 14.33 1.32 14.66 2 15 C1.01 15.33 0.02 15.66 -1 16 C-0.67 10.72 -0.34 5.44 0 0 Z " fill="#131313" transform="translate(88,172)"/>
<path d="M0 0 C1.65 0.33 3.3 0.66 5 1 C4.01 1.495 4.01 1.495 3 2 C4.65 2.33 6.3 2.66 8 3 C7.01 4.32 6.02 5.64 5 7 C2.525 6.01 2.525 6.01 0 5 C-0.33 5.99 -0.66 6.98 -1 8 C-2.2077558 4.37673261 -1.54311128 3.35853631 0 0 Z " fill="#161616" transform="translate(191,251)"/>
<path d="M0 0 C4.875 2.75 4.875 2.75 6 5 C5.360625 5.12375 4.72125 5.2475 4.0625 5.375 C3.0415625 5.684375 3.0415625 5.684375 2 6 C1.67 6.66 1.34 7.32 1 8 C-0.32 7.34 -1.64 6.68 -3 6 C-2 4 -1 2 0 0 Z " fill="#111111" transform="translate(203,115)"/>
<path d="M0 0 C1.98 0 3.96 0 6 0 C6 3.13751221 5.64820195 4.39757586 4 7 C3.01 7.33 2.02 7.66 1 8 C0.67 5.36 0.34 2.72 0 0 Z " fill="#141414" transform="translate(88,206)"/>
<path d="M0 0 C2.76262553 0.3810518 3.84143894 0.83597132 5.8125 2.875 C6.204375 3.57625 6.59625 4.2775 7 5 C6.67 5.99 6.34 6.98 6 8 C6 8.66 6 9.32 6 10 C4.68 9.67 3.36 9.34 2 9 C1.61866701 7.0085944 1.28674418 5.00720923 1 3 C1.33 2.67 1.66 2.34 2 2 C1.34 1.34 0.68 0.68 0 0 Z " fill="#0B0B0B" transform="translate(302,121)"/>
<path d="M0 0 C7.66742597 5.96583144 7.66742597 5.96583144 9 11 C8.01 10.67 7.02 10.34 6 10 C5.67 10.66 5.34 11.32 5 12 C4.34 11.67 3.68 11.34 3 11 C3.0928125 9.576875 3.0928125 9.576875 3.1875 8.125 C3.125625 7.09375 3.06375 6.0625 3 5 C2.01 4.34 1.02 3.68 0 3 C0 2.01 0 1.02 0 0 Z " fill="#0C0C0C" transform="translate(294,109)"/>
<path d="M0 0 C1.875 0.75 1.875 0.75 2.875 2.75 C1.885 4.235 1.885 4.235 0.875 5.75 C-2.125 5.75 -2.125 5.75 -5.125 3.75 C-5.125 3.09 -5.125 2.43 -5.125 1.75 C-2.125 -0.25 -2.125 -0.25 0 0 Z " fill="#111111" transform="translate(103.125,137.25)"/>
<path d="M0 0 C3.375 0.3125 3.375 0.3125 7 1 C7.66 1.99 8.32 2.98 9 4 C6.03 4.66 3.06 5.32 0 6 C0 4.02 0 2.04 0 0 Z " fill="#121212" transform="translate(276,251)"/>
<path d="M0 0 C2.88575819 0.39803561 3.82189513 0.79009069 5.75 3.0625 C6.1625 3.701875 6.575 4.34125 7 5 C4.69 5.66 2.38 6.32 0 7 C-0.93423645 3.98968256 -1.04449911 3.13349732 0 0 Z " fill="#111111" transform="translate(175,121)"/>
<path d="M0 0 C2.97 0 5.94 0 9 0 C8.34 1.65 7.68 3.3 7 5 C3.34683329 3.75023244 2.21934164 3.32901247 0 0 Z " fill="#141414" transform="translate(200,71)"/>
<path d="M0 0 C3.01327566 1.50663783 3.61056618 4.03166411 5 7 C2.39417629 7.93065133 1.35801776 8.14917407 -1.25 7.0625 C-1.8275 6.711875 -2.405 6.36125 -3 6 C-2.625 3.5625 -2.625 3.5625 -2 1 C-1.34 0.67 -0.68 0.34 0 0 Z " fill="#0A0A0A" transform="translate(176,249)"/>
<path d="M0 0 C3.58790575 0.29899215 4.78166776 0.76986601 7.3125 3.4375 C9 6 9 6 9 8 C5.56247993 6.4722133 2.81046312 4.49818944 0 2 C0 1.34 0 0.68 0 0 Z " fill="#141414" transform="translate(126,278)"/>
<path d="M0 0 C-0.99 1.485 -0.99 1.485 -2 3 C-1.67 3.33 -1.34 3.66 -1 4 C-4.1964086 5.06546953 -6.65747276 5.07427838 -10 5 C-10 4.34 -10 3.68 -10 3 C-6.81719857 -0.18280143 -4.38555569 -0.29901516 0 0 Z " fill="#202020" transform="translate(157,251)"/>
<path d="M0 0 C4.59306496 1.4859916 7.43569245 3.85014682 11 7 C9 8 9 8 6.4375 7.25 C4 6 4 6 3 3 C1.68 3.99 0.36 4.98 -1 6 C-0.67 4.02 -0.34 2.04 0 0 Z " fill="#1E1E1E" transform="translate(279,96)"/>
<path d="M0 0 C2.125 0.9375 2.125 0.9375 4 2 C4 5 4 5 3 7 C2.34 7 1.68 7 1 7 C-1 4 -1 4 -2 1 C-1.34 0.67 -0.68 0.34 0 0 Z " fill="#0D0D0D" transform="translate(289,105)"/>
<path d="M0 0 C2.31 0.66 4.62 1.32 7 2 C6.01 2.495 6.01 2.495 5 3 C5 3.66 5 4.32 5 5 C1 5 1 5 -2 4 C-1.34 2.68 -0.68 1.36 0 0 Z " fill="#141414" transform="translate(287,237)"/>
<path d="M0 0 C0.99 0.99 1.98 1.98 3 3 C1.63016497 6.16115776 1.0109362 6.9927092 -2 9 C-2.33 8.34 -2.66 7.68 -3 7 C-2.06421005 4.64018187 -1.06652192 2.30368736 0 0 Z " fill="#1C1C1C" transform="translate(96,145)"/>
<path d="M0 0 C2.475 0.99 2.475 0.99 5 2 C5 2.99 5 3.98 5 5 C4.34 5 3.68 5 3 5 C3 5.66 3 6.32 3 7 C1.35 6.67 -0.3 6.34 -2 6 C-1.34 4.02 -0.68 2.04 0 0 Z " fill="#0F0F0F" transform="translate(148,139)"/>
<path d="M0 0 C0.33 1.32 0.66 2.64 1 4 C1.66 4 2.32 4 3 4 C3 3.34 3 2.68 3 2 C3.66 2 4.32 2 5 2 C5 2.99 5 3.98 5 5 C4.34 5 3.68 5 3 5 C3 5.66 3 6.32 3 7 C2.01 7.33 1.02 7.66 0 8 C0 7.34 0 6.68 0 6 C-0.66 5.67 -1.32 5.34 -2 5 C-1.34 3.35 -0.68 1.7 0 0 Z " fill="#161616" transform="translate(202,82)"/>
<path d="M0 0 C0.33 0.66 0.66 1.32 1 2 C-2.78187881 3.83691257 -4.94568308 4.15837626 -9 3 C-5.92807025 0.26939578 -4.09590633 -0.34132553 0 0 Z " fill="#F0F0F0" transform="translate(230,282)"/>
<path d="M0 0 C0.66 0 1.32 0 2 0 C2.33 1.32 2.66 2.64 3 4 C2.34 4 1.68 4 1 4 C1.33 4.99 1.66 5.98 2 7 C1.01 7.66 0.02 8.32 -1 9 C-1.66 7.68 -2.32 6.36 -3 5 C-2.505 4.54625 -2.01 4.0925 -1.5 3.625 C0.22609337 2.12364481 0.22609337 2.12364481 0 0 Z " fill="#0D0D0D" transform="translate(139,274)"/>
<path d="M0 0 C0.99 0.66 1.98 1.32 3 2 C1.35 3.65 -0.3 5.3 -2 7 C-2.66 6.34 -3.32 5.68 -4 5 C-2.68 3.35 -1.36 1.7 0 0 Z " fill="#101010" transform="translate(188,118)"/>
<path d="M0 0 C0.33 0.66 0.66 1.32 1 2 C1.66 2 2.32 2 3 2 C3.33 1.34 3.66 0.68 4 0 C5.32 1.65 6.64 3.3 8 5 C6.88625 4.814375 5.7725 4.62875 4.625 4.4375 C1.17431139 3.68319343 1.17431139 3.68319343 -1 5 C-0.67 3.35 -0.34 1.7 0 0 Z " fill="#0B0B0B" transform="translate(264,276)"/>
<path d="M0 0 C0.66 0 1.32 0 2 0 C1.75 3.375 1.75 3.375 1 7 C-1.0625 8.4375 -1.0625 8.4375 -3 9 C-2.5359375 7.88625 -2.5359375 7.88625 -2.0625 6.75 C-1.1905075 4.49307824 -0.52332993 2.3549847 0 0 Z " fill="#101010" transform="translate(131,234)"/>
<path d="M0 0 C2.125 0.375 2.125 0.375 4 1 C3 4 3 4 1 5 C0.67 5.66 0.34 6.32 0 7 C-0.66 5.35 -1.32 3.7 -2 2 C-1.34 1.34 -0.68 0.68 0 0 Z " fill="#0F0F0F" transform="translate(194,110)"/>
<path d="M0 0 C0.66 0.33 1.32 0.66 2 1 C2 1.99 2 2.98 2 4 C-0.31 5.32 -2.62 6.64 -5 8 C-4.45773019 4.20411134 -2.79872437 2.52788007 0 0 Z " fill="#111111" transform="translate(150,109)"/>
<path d="M0 0 C0.99 1.32 1.98 2.64 3 4 C2.34 4 1.68 4 1 4 C0.67 4.66 0.34 5.32 0 6 C-1.98 6.99 -1.98 6.99 -4 8 C-2.68 5.36 -1.36 2.72 0 0 Z " fill="#121212" transform="translate(224,184)"/>
<path d="M0 0 C0.66 0.33 1.32 0.66 2 1 C2.625 4.0625 2.625 4.0625 3 7 C1.02 6.01 -0.96 5.02 -3 4 C-2.67 3.34 -2.34 2.68 -2 2 C-1.34 2 -0.68 2 0 2 C0 1.34 0 0.68 0 0 Z " fill="#010101" transform="translate(320,153)"/>
<path d="M0 0 C0.99 0.66 1.98 1.32 3 2 C2.01 2.495 2.01 2.495 1 3 C1.33 4.32 1.66 5.64 2 7 C1.01 7 0.02 7 -1 7 C-1.66 5.68 -2.32 4.36 -3 3 C-2.01 2.01 -1.02 1.02 0 0 Z " fill="#121212" transform="translate(187,130)"/>
<path d="M0 0 C0.33 0.66 0.66 1.32 1 2 C3.02463255 2.65213292 3.02463255 2.65213292 5 3 C5 3.33 5 3.66 5 4 C2.03 4 -0.94 4 -4 4 C-4 3.01 -4 2.02 -4 1 C-2 0 -2 0 0 0 Z " fill="#0C0C0C" transform="translate(298,228)"/>
<path d="M0 0 C2.475 0.99 2.475 0.99 5 2 C5 2.66 5 3.32 5 4 C4.34 4 3.68 4 3 4 C2.67 4.66 2.34 5.32 2 6 C0.35 4.68 -1.3 3.36 -3 2 C-2.01 2 -1.02 2 0 2 C0 1.34 0 0.68 0 0 Z " fill="#101010" transform="translate(184,205)"/>
<path d="M0 0 C0.33 0.66 0.66 1.32 1 2 C0.01 3.32 -0.98 4.64 -2 6 C-1.34 6.66 -0.68 7.32 0 8 C-0.99 8.33 -1.98 8.66 -3 9 C-3.66 7.68 -4.32 6.36 -5 5 C-3.35 3.35 -1.7 1.7 0 0 Z " fill="#101010" transform="translate(130,98)"/>
<path d="M0 0 C2.0625 0.4375 2.0625 0.4375 4 1 C4.33 2.65 4.66 4.3 5 6 C2.5625 5.1875 2.5625 5.1875 0 4 C-0.33 3.01 -0.66 2.02 -1 1 C-0.67 0.67 -0.34 0.34 0 0 Z " fill="#131313" transform="translate(207,121)"/>
<path d="M0 0 C2 0.125 2 0.125 4 1 C5.25 3.0625 5.25 3.0625 6 5 C3.36 4.01 0.72 3.02 -2 2 C-1.34 1.34 -0.68 0.68 0 0 Z " fill="#111111" transform="translate(207,111)"/>
<path d="M0 0 C1.32 1.32 2.64 2.64 4 4 C3.01 4.495 3.01 4.495 2 5 C2 5.66 2 6.32 2 7 C1.01 6.67 0.02 6.34 -1 6 C-1 2 -1 2 0 0 Z " fill="#161616" transform="translate(169,275)"/>
<path d="M0 0 C0.33 0.66 0.66 1.32 1 2 C1.66 2 2.32 2 3 2 C3.33 2.99 3.66 3.98 4 5 C2.35 5.33 0.7 5.66 -1 6 C-1.33 5.01 -1.66 4.02 -2 3 C-1.34 3 -0.68 3 0 3 C0 2.01 0 1.02 0 0 Z " fill="#090909" transform="translate(184,267)"/>
<path d="M0 0 C-0.99 1.485 -0.99 1.485 -2 3 C-2.66 3 -3.32 3 -4 3 C-4 2.01 -4 1.02 -4 0 C-5.32 0.33 -6.64 0.66 -8 1 C-8 0.34 -8 -0.32 -8 -1 C-4.59745511 -2.2151946 -3.06748874 -1.86240388 0 0 Z " fill="#0B0B0B" transform="translate(308,239)"/>
<path d="M0 0 C0 3 0 3 -1 6 C-1.99 6.33 -2.98 6.66 -4 7 C-4.33 5.68 -4.66 4.36 -5 3 C-3.35 2.01 -1.7 1.02 0 0 Z " fill="#131313" transform="translate(155,82)"/>
<path d="M0 0 C0.99 0.33 1.98 0.66 3 1 C3.33 1.99 3.66 2.98 4 4 C3.01 5.485 3.01 5.485 2 7 C0.4375 5.75 0.4375 5.75 -1 4 C-0.6875 1.8125 -0.6875 1.8125 0 0 Z " fill="#0C0C0C" transform="translate(168,77)"/>
<path d="M0 0 C0.66 0.66 1.32 1.32 2 2 C0.515 4.475 0.515 4.475 -1 7 C-3.1385485 4.8614515 -3.42655063 3.86724686 -4 1 C-2.68 1.33 -1.36 1.66 0 2 C0 1.34 0 0.68 0 0 Z " fill="#161616" transform="translate(178,260)"/>
<path d="M0 0 C0.66 0 1.32 0 2 0 C1.75 1.875 1.75 1.875 1 4 C-1.0625 5.25 -1.0625 5.25 -3 6 C-3 5.01 -3 4.02 -3 3 C-2.34 3 -1.68 3 -1 3 C-0.67 2.01 -0.34 1.02 0 0 Z " fill="#141414" transform="translate(135,249)"/>
<path d="M0 0 C2.97 0.495 2.97 0.495 6 1 C2.375 4 2.375 4 -1 4 C-0.67 2.68 -0.34 1.36 0 0 Z " fill="#151515" transform="translate(183,247)"/>
<path d="M0 0 C0.66 0.33 1.32 0.66 2 1 C0.35 2.98 -1.3 4.96 -3 7 C-3.66 6.67 -4.32 6.34 -5 6 C-5 5.34 -5 4.68 -5 4 C-3.37373596 2.61767557 -1.7074998 1.28062485 0 0 Z " fill="#1E1E1E" transform="translate(169,136)"/>
<path d="M0 0 C1.485 0.99 1.485 0.99 3 2 C2.01 2.33 1.02 2.66 0 3 C0 2.01 0 1.02 0 0 Z M-1 3 C0.98 3.99 0.98 3.99 3 5 C2.67 5.99 2.34 6.98 2 8 C1.01 7.34 0.02 6.68 -1 6 C-1 5.01 -1 4.02 -1 3 Z " fill="#080808" transform="translate(217,116)"/>
<path d="M0 0 C0.99 0.99 1.98 1.98 3 3 C1.68 3.99 0.36 4.98 -1 6 C-1.66 4.68 -2.32 3.36 -3 2 C-2.01 1.34 -1.02 0.68 0 0 Z " fill="#121212" transform="translate(185,115)"/>
<path d="M0 0 C1.32 0.33 2.64 0.66 4 1 C4 1.66 4 2.32 4 3 C5.32 3.33 6.64 3.66 8 4 C7.34 4.66 6.68 5.32 6 6 C4.02 5.01 2.04 4.02 0 3 C0 2.01 0 1.02 0 0 Z " fill="#111111" transform="translate(160,109)"/>
</svg>
