<?xml version="1.0" encoding="UTF-8"?>
<svg version="1.1" xmlns="http://www.w3.org/2000/svg" width="400" height="400">
<path d="M0 0 C1.07145264 0.30550781 1.07145264 0.30550781 2.16455078 0.6171875 C25.43021569 7.45909849 45.17728151 20.72261344 62 38 C62.48339844 38.42667969 62.96679688 38.85335937 63.46484375 39.29296875 C84.30665442 58.36935546 96.99241953 91.57758316 98.90625 119.328125 C98.9371875 120.20984375 98.968125 121.0915625 99 122 C99.07734375 123.91039062 99.07734375 123.91039062 99.15625 125.859375 C99.84144582 151.06155664 94.21502488 174.97280623 82 197 C81.4225 198.07894531 80.845 199.15789062 80.25 200.26953125 C76.22980751 207.51890613 71.42181543 213.74841108 66 220 C65.35160156 220.78246094 64.70320312 221.56492187 64.03515625 222.37109375 C58.9495462 228.37190561 53.2131546 233.2001011 47 238 C46.20464844 238.64582031 45.40929687 239.29164063 44.58984375 239.95703125 C38.5975432 244.61981979 32.20105277 248.20681982 25.5 251.75 C24.63391113 252.21003418 23.76782227 252.67006836 22.87548828 253.14404297 C14.23243925 257.60953696 5.89062813 261.7464625 -4 261 C-4 261.66 -4 262.32 -4 263 C-10.6399554 264.69291843 -16.72361559 265.31954068 -23.5625 265.3359375 C-24.55266113 265.3425943 -25.54282227 265.3492511 -26.56298828 265.35610962 C-28.65053467 265.36618378 -30.73811292 265.37092827 -32.82568359 265.37060547 C-35.96378037 265.37494986 -39.10043519 265.41124702 -42.23828125 265.44921875 C-58.24142269 265.54045664 -72.3396168 263.47495093 -87.1875 257.25 C-88.0235376 256.90565918 -88.8595752 256.56131836 -89.72094727 256.20654297 C-123.24968026 242.05904535 -148.83312527 214.890723 -162.98632812 181.57226562 C-173.13244013 155.82577332 -175.37691794 126.96452274 -169 100 C-168.8443457 99.31744141 -168.68869141 98.63488281 -168.52832031 97.93164062 C-164.35700195 80.26390099 -156.19916624 63.27050949 -145 49 C-144.58137695 48.4647168 -144.16275391 47.92943359 -143.73144531 47.37792969 C-110.20556722 4.95489492 -52.65286829 -15.47700551 0 0 Z M-122 30 C-123.24910156 31.06541016 -123.24910156 31.06541016 -124.5234375 32.15234375 C-148.65908039 53.28031422 -162.90489599 81.51682002 -168 113 C-168.13148438 113.75796875 -168.26296875 114.5159375 -168.3984375 115.296875 C-173.16853486 148.55863497 -162.59594335 183.19058932 -143 210 C-139.52489151 214.50575384 -135.80814773 218.77444268 -132 223 C-131.05253906 224.07314453 -131.05253906 224.07314453 -130.0859375 225.16796875 C-109.16014608 247.52261377 -76.6892875 261.7512769 -46.20117188 263.1262207 C-12.64175628 263.96627283 21.79374413 256.38524036 47.5 233.3125 C49.00124934 231.8763048 50.50135691 230.43891457 52 229 C53.32908596 227.89072441 54.66227676 226.78634409 56 225.6875 C77.63180993 206.66193223 92.21425748 175.45688873 95 147 C95.06558105 146.33242676 95.13116211 145.66485352 95.19873047 144.97705078 C98.59283419 107.91864729 87.33681733 73.55525556 63.8215332 44.80517578 C42.796742 19.65434159 11.2678413 2.74363119 -21.3828125 -0.7890625 C-58.14610149 -3.75207385 -93.73853726 5.74301162 -122 30 Z " fill="#000000" transform="translate(244,60)"/>
<path d="M0 0 C2.97 0 5.94 0 9 0 C8.67 1.65 8.34 3.3 8 5 C4.62537285 4.45276317 2.91765 3.9451 0 2 C0 1.34 0 0.68 0 0 Z " fill="#000000" transform="translate(201,71)"/>
<path d="M0 0 C2.98307053 3.22171617 4.37583401 6.97825564 6 11 C6.433125 10.236875 6.86625 9.47375 7.3125 8.6875 C9 6 9 6 10.625 4.5 C12.46853498 2.48887093 12.54487965 0.64485033 13 -2 C15.25028329 -1.85860519 17.50022206 -1.71171997 19.75 -1.5625 C21.62945312 -1.44068359 21.62945312 -1.44068359 23.546875 -1.31640625 C28.69538117 -0.84465399 28.69538117 -0.84465399 31 0 C31.33 0.66 31.66 1.32 32 2 C33.0725 1.9175 34.145 1.835 35.25 1.75 C57.29911611 1.90418962 80.58772625 20.93145075 95.5390625 35.46875 C108.0567649 48.73839918 118.41541272 66.2729292 123 84 C122.67 84.99 122.34 85.98 122 87 C119.03 86.01 119.03 86.01 116 85 C116.62648438 85.29390625 117.25296875 85.5878125 117.8984375 85.890625 C124.47086223 89.49820198 124.47086223 89.49820198 125.87817383 93.49243164 C126.96351105 101.4107216 127.34903903 109.19657397 127.3125 117.1875 C127.30512817 119.10006592 127.30512817 119.10006592 127.29760742 121.05126953 C126.87957626 154.79817526 112.56301865 183.29938708 89 207 C87.05830001 208.8566709 85.18306638 210.40227016 83 212 C79.91846453 210.97282151 78.73117647 209.83594686 76.5390625 207.54296875 C73.52313339 204.519385 70.2347297 201.78523872 67 199 C67 199.66 67 200.32 67 201 C68.65448684 202.634689 68.65448684 202.634689 70.75 204.3125 C73.88225788 206.9885498 76.76161519 209.49644117 79 213 C77.63603413 217.09189762 75.65151017 217.61547327 71.9375 219.6875 C70.83277344 220.31011719 69.72804688 220.93273437 68.58984375 221.57421875 C67.73519531 222.04472656 66.88054687 222.51523437 66 223 C65.34 221.68 64.68 220.36 64 219 C64.825 218.38125 65.65 217.7625 66.5 217.125 C67.325 216.42375 68.15 215.7225 69 215 C69 214.34 69 213.68 69 213 C66.65466049 212.23043864 66.65466049 212.23043864 64 212 C61.98048938 212.93597315 61.98048938 212.93597315 61 215 C61.24078037 218.85248595 61.84026622 220.76039934 64 224 C35.936581 238.97837656 3.68987482 242.60599192 -27.0078125 233.5703125 C-39.74395649 229.59081192 -39.74395649 229.59081192 -43 226 C-42.34 226 -41.68 226 -41 226 C-40.34 224.35 -39.68 222.7 -39 221 C-35.37198248 220.5602403 -33.35397312 221.21089189 -30.3125 223.0625 C-28.6728125 224.0215625 -28.6728125 224.0215625 -27 225 C-26.34 224.67 -25.68 224.34 -25 224 C-31.93870492 219.28168066 -39.26885234 216.15978086 -47 213 C-46.67 213.33 -46.34 213.66 -46 214 C-45.76470588 219.52941176 -45.76470588 219.52941176 -47 222 C-46.67 222.99 -46.34 223.98 -46 225 C-50.8871714 223.61219255 -54.87860886 221.44225216 -59.0625 218.625 C-60.03497681 217.97277466 -60.03497681 217.97277466 -61.02709961 217.30737305 C-70.43672592 210.8207029 -78.88346515 202.94650095 -86 194 C-84.68 193.67 -83.36 193.34 -82 193 C-82.33 191.35 -82.66 189.7 -83 188 C-82.38511719 187.54109375 -81.77023438 187.0821875 -81.13671875 186.609375 C-80.32847656 185.99578125 -79.52023438 185.3821875 -78.6875 184.75 C-77.88699219 184.14671875 -77.08648437 183.5434375 -76.26171875 182.921875 C-74.11450388 181.09729864 -72.58398701 179.31702954 -71 177 C-69.02 177.33 -67.04 177.66 -65 178 C-63.67424167 176.35460678 -63.67424167 176.35460678 -63 174 C-64.28322447 170.76605639 -64.28322447 170.76605639 -66 168 C-66.66 168.66 -67.32 169.32 -68 170 C-72.24465971 169.72317437 -74.81617671 168.81645906 -78 166 C-75.9375 167.6875 -75.9375 167.6875 -74 170 C-74.25 172.75 -74.25 172.75 -75 175 C-75.7425 175.04125 -76.485 175.0825 -77.25 175.125 C-81.10652281 176.35207544 -81.91010033 178.62919407 -84 182 C-85.32392972 183.01241685 -86.65599167 184.01439389 -88 185 C-88.70380954 186.31410592 -89.37565535 187.6463324 -90 189 C-91.44137875 186.79411638 -92.87815365 184.58545003 -94.3125 182.375 C-94.71662109 181.75753906 -95.12074219 181.14007813 -95.53710938 180.50390625 C-102.12317653 170.33030657 -102.12317653 170.33030657 -101.6875 165.625 C-101.460625 164.75875 -101.23375 163.8925 -101 163 C-99.02 162.67 -97.04 162.34 -95 162 C-94.01 156.555 -94.01 156.555 -93 151 C-93.99 150.67 -94.98 150.34 -96 150 C-96.3403125 151.2065625 -96.3403125 151.2065625 -96.6875 152.4375 C-98 155 -98 155 -100.3125 156.0625 C-103 156 -103 156 -105.625 154.75 C-110.66873775 148.90988261 -111.29458529 140.47739588 -112 133 C-108.7 132.67 -105.4 132.34 -102 132 C-103.98 129.525 -103.98 129.525 -106 127 C-107.98 127.33 -109.96 127.66 -112 128 C-117.14733943 110.33433108 -110.11090409 86.07518212 -103 70 C-102.67 70 -102.34 70 -102 70 C-101.67 71.65 -101.34 73.3 -101 75 C-98.525 74.505 -98.525 74.505 -96 74 C-96.845625 73.113125 -97.69125 72.22625 -98.5625 71.3125 C-100.00390625 69.80078125 -100.00390625 69.80078125 -101 68 C-100.78800209 63.43811906 -98.44194851 59.81420555 -96.125 56 C-95.72933838 55.34572021 -95.33367676 54.69144043 -94.92602539 54.01733398 C-90.61028424 47.08350496 -85.4936223 41.02074648 -80 35 C-79.35675781 34.27425781 -78.71351562 33.54851562 -78.05078125 32.80078125 C-67.59004368 21.61391872 -53.85011277 13.28844806 -40 7 C-39.01 7 -38.02 7 -37 7 C-36.89530662 12.75813575 -37.25983299 18.29014022 -38 24 C-34.57016127 22.5178524 -34.57016127 22.5178524 -32 20 C-31.14674245 14.93426373 -31.59412313 9.92637845 -33 5 C-26.32269282 1.66134641 -19.30081433 0.37258678 -12 -1 C-11.16082031 -1.15855469 -10.32164062 -1.31710938 -9.45703125 -1.48046875 C-5.7097388 -2.07806698 -3.07913303 -2.39488125 0 0 Z M-9.75 31.625 C-12 33 -12 33 -15.75 32.1875 C-16.8225 31.795625 -17.895 31.40375 -19 31 C-17.94124926 34.40312738 -16.99097846 37.01353231 -15 40 C-13.09542071 40.43827201 -13.09542071 40.43827201 -11 40.3125 C-9.948125 40.30669922 -9.948125 40.30669922 -8.875 40.30078125 C-6.7583423 40.14912946 -6.7583423 40.14912946 -5 38 C-2.6875 38.3125 -2.6875 38.3125 0 39 C0.928125 39.185625 1.85625 39.37125 2.8125 39.5625 C3.534375 39.706875 4.25625 39.85125 5 40 C2.02274613 35.99215825 -1.01573333 32.9670071 -5 30 C-8.03162353 29.65977445 -8.03162353 29.65977445 -9.75 31.625 Z M-54.25390625 55.99609375 C-68.37843782 72.20612662 -66.17643071 94.62406607 -66.13037109 114.77514648 C-66.12499895 117.56304338 -66.13036096 120.35077973 -66.13671875 123.13867188 C-66.94576377 152.65590093 -66.94576377 152.65590093 -54.03125 178.12109375 C-41.95375191 189.70953822 -26.72836308 190.31887886 -10.76171875 190.30078125 C-9.30882142 190.30468147 -7.8559252 190.3090188 -6.4030304 190.31376648 C-3.37322274 190.3211791 -0.3435317 190.32097416 2.6862793 190.31567383 C6.52869037 190.30989104 10.37061753 190.32680545 14.2129488 190.3500185 C17.20994254 190.36490239 20.20682371 190.3656078 23.20384789 190.36250877 C24.61853174 190.36301484 26.03322313 190.3681146 27.44787025 190.37832069 C43.00832717 190.47682225 57.42989282 188.74230466 69.1796875 177.9140625 C77.81825742 168.83058769 80.09108028 157.18231587 80.16113281 144.98583984 C80.16609772 144.32294952 80.17106262 143.6600592 80.17617798 142.9770813 C80.19066508 140.8050224 80.19758025 138.63303659 80.203125 136.4609375 C80.20595238 135.7113036 80.20877975 134.96166969 80.21169281 134.18931961 C80.22663361 130.21914576 80.2358943 126.24900774 80.24023438 122.27880859 C80.24569992 118.21426542 80.26970187 114.15006044 80.29820633 110.08562279 C80.31699471 106.92826433 80.32204691 103.77098457 80.32357025 100.61357498 C80.32656283 99.1171141 80.33447369 97.62065344 80.34775543 96.1242485 C80.47226264 81.01366116 78.89804241 67.21055701 68.3125 55.75 C55.53111731 43.66665892 38.38995675 43.84967996 21.83203125 43.83203125 C20.15339241 43.82703865 20.15339241 43.82703865 18.44084167 43.82194519 C16.08873908 43.81691791 13.73662945 43.81453555 11.38452148 43.81469727 C7.83890677 43.81251624 4.29360656 43.79432979 0.74804688 43.77539062 C-28.83084928 42.91813449 -28.83084928 42.91813449 -54.25390625 55.99609375 Z M-84 72 C-79.79489908 77.0461211 -75.13340841 78.86819397 -69 81 C-69.2581686 78.55103329 -69.2581686 78.55103329 -70 76 C-74.60064982 73.4236361 -78.72708386 72.53805267 -84 72 Z M89 157 C87.28288757 159.44496043 87.28288757 159.44496043 86 162 C87.01521147 163.64842688 87.01521147 163.64842688 89 165 C91.64996326 165.2172101 94.05076558 165.28351554 96.6875 165.1875 C97.38939453 165.17396484 98.09128906 165.16042969 98.81445312 165.14648438 C100.54329829 165.11120182 102.27174765 165.05739583 104 165 C104.66 163.02 105.32 161.04 106 159 C105.32453125 159.02320313 104.6490625 159.04640625 103.953125 159.0703125 C102.61507812 159.09738281 102.61507812 159.09738281 101.25 159.125 C100.36828125 159.14820313 99.4865625 159.17140625 98.578125 159.1953125 C95.85611915 158.98909994 94.37542601 158.26755925 92 157 C91.01 157 90.02 157 89 157 Z M77 184 C77 184.66 77 185.32 77 186 C77.99 186.66 78.98 187.32 80 188 C80.1875 190.625 80.1875 190.625 80 193 C78.35 193 76.7 193 75 193 C75 193.66 75 194.32 75 195 C78.08809695 196.76462683 79.23312136 197 83 197 C83.89415055 195.25970698 84.76475178 193.5072985 85.625 191.75 C86.11226562 190.77546875 86.59953125 189.8009375 87.1015625 188.796875 C88.29407457 186.06250148 88.29407457 186.06250148 87.1484375 183.640625 C86.76945313 183.09921875 86.39046875 182.5578125 86 182 C82.61976483 182 80.16531063 182.87455622 77 184 Z M-45 190 C-44.67 192.97 -44.34 195.94 -44 199 C-39.80825346 197.95206337 -38.78407039 197.08236365 -36 194 C-40.09947304 190.86293483 -40.09947304 190.86293483 -45 190 Z M-27 194 C-27 195.32 -27 196.64 -27 198 C-28.98 198.99 -28.98 198.99 -31 200 C-30.195625 200.969375 -29.39125 201.93875 -28.5625 202.9375 C-25.85769398 206.64716412 -25.57240396 209.55406336 -25.296875 214.0390625 C-25.14482766 216.20876181 -25.14482766 216.20876181 -23.1875 218.125 C-20.63287356 219.14685058 -19.52643395 218.99252762 -17 218 C-17.474375 217.401875 -17.94875 216.80375 -18.4375 216.1875 C-20 214 -20 214 -21 211 C-17.7 211.66 -14.4 212.32 -11 213 C-11.36930337 205.79858436 -15.62098318 200.32237356 -20.625 195.4375 C-23.10764105 193.65479821 -23.10764105 193.65479821 -27 194 Z M-74 200 C-73.61328125 200.44730469 -73.2265625 200.89460937 -72.828125 201.35546875 C-70.44467888 204.12239012 -68.08629657 206.89151288 -65.8125 209.75 C-65.214375 210.4925 -64.61625 211.235 -64 212 C-63.566875 212.556875 -63.13375 213.11375 -62.6875 213.6875 C-60.08155951 215.71434261 -57.16504751 216.22366759 -54 217 C-55.95151801 214.49090542 -57.80332389 212.17419884 -60.1875 210.0625 C-62.48413997 207.44908211 -62.68992739 205.41079876 -63 202 C-64.258125 201.855625 -65.51625 201.71125 -66.8125 201.5625 C-69.42667123 201.26251314 -71.47439892 200.84186703 -74 200 Z M23 211 C24.485 211.99 24.485 211.99 26 213 C29.67480584 211.69903526 29.67480584 211.69903526 33 210 C29.18510326 208.53273202 26.70988378 209.56663581 23 211 Z M36 210 C38.05233685 212.2477975 39.00667261 213.0022242 42 214 C44.33299825 214.03954234 46.66708189 214.04401732 49 214 C45.99559979 211.99706653 44.29006055 211.50728374 40.8125 210.875 C39.91144531 210.70742188 39.01039063 210.53984375 38.08203125 210.3671875 C37.39496094 210.24601563 36.70789063 210.12484375 36 210 Z " fill="#000000" transform="translate(200,73)"/>
<path d="M0 0 C1.08974121 0.01788574 2.17948242 0.03577148 3.30224609 0.05419922 C6.76476512 0.12115266 10.22578475 0.21262391 13.6875 0.3125 C14.75033203 0.33489746 15.81316406 0.35729492 16.90820312 0.38037109 C28.18403071 0.77243495 37.93140294 2.67164931 46 11 C53.97950591 21.16460288 53.30773385 34.7101625 53.265625 47.00390625 C53.26697709 48.4177202 53.26892211 49.83153369 53.27142334 51.24534607 C53.2743481 54.18761688 53.2701627 57.12976509 53.26074219 60.07202148 C53.24933861 63.81259942 53.25592972 67.55289048 53.26788712 71.29345798 C53.27516891 74.20625407 53.27278923 77.1189839 53.26763153 80.03178215 C53.26631298 81.40986097 53.2678785 82.78794614 53.27259064 84.16601753 C53.30608005 96.7045377 53.10735634 108.87730704 44.46875 118.75 C33.56731824 129.03436959 18.73304378 128.1546275 4.73046875 128.16796875 C3.491866 128.17129715 2.25326324 128.17462555 0.97712708 128.17805481 C-1.62893302 128.18309019 -4.2349995 128.18546419 -6.84106445 128.18530273 C-10.79063721 128.1874879 -14.73992967 128.20567684 -18.68945312 128.22460938 C-21.23697822 128.22754442 -23.78450463 128.22952847 -26.33203125 128.23046875 C-27.49394485 128.23765427 -28.65585846 128.24483978 -29.85298157 128.25224304 C-42.86640141 128.21664283 -55.74563945 127.91120265 -65.75 118.8125 C-72.675565 111.44420481 -74.09819384 102.7348587 -74.17700195 92.91577148 C-74.18685875 91.89239433 -74.18685875 91.89239433 -74.19691467 90.8483429 C-74.21651011 88.60592506 -74.22828222 86.36357391 -74.23828125 84.12109375 C-74.24235678 83.34847765 -74.2464323 82.57586155 -74.25063133 81.77983284 C-74.27143827 77.68647664 -74.28576049 73.59315337 -74.29516602 69.49975586 C-74.30619137 65.30617491 -74.34056142 61.11313023 -74.38033772 56.91973782 C-74.40668995 53.66544215 -74.4148744 50.41127045 -74.41844749 47.15687752 C-74.42326922 45.61295024 -74.43475438 44.0690268 -74.45348549 42.52520561 C-74.58215558 31.21309011 -74.0377499 19.83482838 -66.875 10.5 C-60.21247364 3.7082436 -51.89871941 1.05297349 -42.59765625 0.68359375 C-41.55416016 0.64153809 -40.51066406 0.59948242 -39.43554688 0.55615234 C-37.76588867 0.49741943 -37.76588867 0.49741943 -36.0625 0.4375 C-34.90169922 0.3957666 -33.74089844 0.3540332 -32.54492188 0.31103516 C-21.6909637 -0.05244485 -10.85835049 -0.18680643 0 0 Z M-27 5 C-23.63378119 8.78699616 -19.58358196 11.8272631 -15 14 C-14.34 13.67 -13.68 13.34 -13 13 C-14.38139338 11.6517119 -15.7807648 10.32182622 -17.1875 9 C-17.96480469 8.2575 -18.74210937 7.515 -19.54296875 6.75 C-22.33045204 4.76463829 -23.65781368 4.62007118 -27 5 Z M-37 7 C-35.77992056 9.6905528 -35.77992056 9.6905528 -34 12 C-33.92794489 13.68608966 -33.91613932 15.37500659 -33.9375 17.0625 C-33.94652344 17.98160156 -33.95554688 18.90070313 -33.96484375 19.84765625 C-33.97644531 20.55792969 -33.98804688 21.26820313 -34 22 C-32.68 22 -31.36 22 -30 22 C-28.68 19.69 -27.36 17.38 -26 15 C-27.45287661 13.66072279 -28.91247259 12.32873153 -30.375 11 C-31.18710938 10.2575 -31.99921875 9.515 -32.8359375 8.75 C-34.79533992 6.79040187 -34.79533992 6.79040187 -37 7 Z M24 19 C22.57958179 21.84083641 22.68547728 23.85477278 23 27 C24.41666667 29.58333333 24.41666667 29.58333333 27 31 C30.62649951 31.08916154 30.62649951 31.08916154 34 30 C36.33043558 26.50434664 36.58763244 25.1134271 36 21 C33.79511741 18.53583866 33.79511741 18.53583866 31 17 C27.87099787 17 26.62581138 17.42451317 24 19 Z M-39.32421875 40.8671875 C-46.08027365 49.46580283 -47.87096335 59.37172264 -47 70 C-45.06605764 79.78057476 -40.50712624 87.61469577 -32.6796875 93.84765625 C-24.21505023 99.38641407 -14.71793928 101.95940116 -4.65234375 100.55859375 C6.2311455 98.26648924 14.60320739 92.34196469 20.9375 83.125 C26.26860304 73.6348804 27.22118051 63.91731156 24.4375 53.5625 C20.98078548 43.08319705 14.32793391 35.7337568 4.5390625 30.74609375 C-11.63108477 23.94135436 -27.39105494 28.64297092 -39.32421875 40.8671875 Z M-64 43 C-62.62731009 46.12782079 -61.07187357 48.07609002 -58.5625 50.375 C-55.52087448 53.30890128 -53.63626888 56.05370447 -52 60 C-51.67 60 -51.34 60 -51 60 C-49.79172045 57.36223534 -49.79172045 57.36223534 -50 54 C-52.33532621 51.24384089 -55.12241063 49.16474392 -58 47 C-58.969375 46.195625 -59.93875 45.39125 -60.9375 44.5625 C-62.70159366 42.89935705 -62.70159366 42.89935705 -64 43 Z M44 58 C45.65 59.65 47.3 61.3 49 63 C48.67 61.35 48.34 59.7 48 58 C46.68 58 45.36 58 44 58 Z M-21 105 C-21.79811267 108.39365554 -22.32157614 111.51452962 -22 115 C-20.04739517 117.61710386 -17.76929481 119.30113087 -15 121 C-15.22934409 119.08075213 -15.48434343 117.1645594 -15.75 115.25 C-15.88921875 114.18265625 -16.0284375 113.1153125 -16.171875 112.015625 C-17.1097748 108.60025402 -18.31916918 107.24492337 -21 105 Z M-32 110 C-32.433125 111.03125 -32.86625 112.0625 -33.3125 113.125 C-34.74912525 116.48396666 -36.33421945 119.74776178 -38 123 C-37.39671875 122.90460938 -36.7934375 122.80921875 -36.171875 122.7109375 C-34.97304687 122.54464844 -34.97304687 122.54464844 -33.75 122.375 C-32.96109375 122.25898438 -32.1721875 122.14296875 -31.359375 122.0234375 C-28.67847541 121.99680605 -27.27305911 122.63407916 -25 124 C-25.28617188 123.44828125 -25.57234375 122.8965625 -25.8671875 122.328125 C-27.07739151 119.84094711 -28.1095306 117.32252247 -29.125 114.75 C-29.47820312 113.85796875 -29.83140625 112.9659375 -30.1953125 112.046875 C-30.46085937 111.37140625 -30.72640625 110.6959375 -31 110 C-31.33 110 -31.66 110 -32 110 Z " fill="#000000" transform="translate(218,126)"/>
<path d="M0 0 C6.75418311 4.88051437 11.53151492 9.96167701 13.5234375 18.15234375 C14.92911315 27.03933758 12.9722837 34.77250591 7.70703125 42.0234375 C2.83546172 47.66420222 -2.85711444 50.53367994 -10.296875 51.37109375 C-19.31529374 51.54452488 -25.83427116 50.40540511 -32.8046875 44.4609375 C-37.95359789 39.05586241 -41.1374434 31.912823 -41.4375 24.4375 C-41.0393386 16.91224957 -38.42643785 9.36244684 -33 4 C-23.26132204 -3.00362717 -11.07989336 -6.54720971 0 0 Z " fill="#000000" transform="translate(221,166)"/>
</svg>
