<?xml version="1.0" encoding="UTF-8"?>
<svg version="1.1" xmlns="http://www.w3.org/2000/svg" width="400" height="400">
<path d="M0 0 C1.07145264 0.30550781 1.07145264 0.30550781 2.16455078 0.6171875 C25.43021569 7.45909849 45.17728151 20.72261344 62 38 C62.48339844 38.42667969 62.96679688 38.85335937 63.46484375 39.29296875 C84.30665442 58.36935546 96.99241953 91.57758316 98.90625 119.328125 C98.9371875 120.20984375 98.968125 121.0915625 99 122 C99.07734375 123.91039062 99.07734375 123.91039062 99.15625 125.859375 C99.84144582 151.06155664 94.21502488 174.97280623 82 197 C81.4225 198.07894531 80.845 199.15789062 80.25 200.26953125 C76.22980751 207.51890613 71.42181543 213.74841108 66 220 C65.35160156 220.78246094 64.70320312 221.56492187 64.03515625 222.37109375 C58.9495462 228.37190561 53.2131546 233.2001011 47 238 C46.20464844 238.64582031 45.40929687 239.29164063 44.58984375 239.95703125 C38.5975432 244.61981979 32.20105277 248.20681982 25.5 251.75 C24.63391113 252.21003418 23.76782227 252.67006836 22.87548828 253.14404297 C14.23243925 257.60953696 5.89062813 261.7464625 -4 261 C-4 261.66 -4 262.32 -4 263 C-10.6399554 264.69291843 -16.72361559 265.31954068 -23.5625 265.3359375 C-24.55266113 265.3425943 -25.54282227 265.3492511 -26.56298828 265.35610962 C-28.65053467 265.36618378 -30.73811292 265.37092827 -32.82568359 265.37060547 C-35.96378037 265.37494986 -39.10043519 265.41124702 -42.23828125 265.44921875 C-58.24142269 265.54045664 -72.3396168 263.47495093 -87.1875 257.25 C-88.0235376 256.90565918 -88.8595752 256.56131836 -89.72094727 256.20654297 C-123.24968026 242.05904535 -148.83312527 214.890723 -162.98632812 181.57226562 C-173.13244013 155.82577332 -175.37691794 126.96452274 -169 100 C-168.8443457 99.31744141 -168.68869141 98.63488281 -168.52832031 97.93164062 C-164.35700195 80.26390099 -156.19916624 63.27050949 -145 49 C-144.58137695 48.4647168 -144.16275391 47.92943359 -143.73144531 47.37792969 C-110.20556722 4.95489492 -52.65286829 -15.47700551 0 0 Z M-122 30 C-123.24910156 31.06541016 -123.24910156 31.06541016 -124.5234375 32.15234375 C-148.65908039 53.28031422 -162.90489599 81.51682002 -168 113 C-168.13148438 113.75796875 -168.26296875 114.5159375 -168.3984375 115.296875 C-173.16853486 148.55863497 -162.59594335 183.19058932 -143 210 C-139.52489151 214.50575384 -135.80814773 218.77444268 -132 223 C-131.05253906 224.07314453 -131.05253906 224.07314453 -130.0859375 225.16796875 C-109.16014608 247.52261377 -76.6892875 261.7512769 -46.20117188 263.1262207 C-12.64175628 263.96627283 21.79374413 256.38524036 47.5 233.3125 C49.00124934 231.8763048 50.50135691 230.43891457 52 229 C53.32908596 227.89072441 54.66227676 226.78634409 56 225.6875 C77.63180993 206.66193223 92.21425748 175.45688873 95 147 C95.06558105 146.33242676 95.13116211 145.66485352 95.19873047 144.97705078 C98.59283419 107.91864729 87.33681733 73.55525556 63.8215332 44.80517578 C42.796742 19.65434159 11.2678413 2.74363119 -21.3828125 -0.7890625 C-58.14610149 -3.75207385 -93.73853726 5.74301162 -122 30 Z " fill="#000000" transform="translate(244,60)"/>
<path d="M0 0 C2.97 0 5.94 0 9 0 C8.67 1.65 8.34 3.3 8 5 C4.62537285 4.45276317 2.91765 3.9451 0 2 C0 1.34 0 0.68 0 0 Z " fill="#000000" transform="translate(201,71)"/>
<path d="M0 0 C2.25028329 0.14139481 4.50022206 0.28828003 6.75 0.4375 C8.62945312 0.55931641 8.62945312 0.55931641 10.546875 0.68359375 C15.69538117 1.15534601 15.69538117 1.15534601 18 2 C18.33 2.66 18.66 3.32 19 4 C20.0725 3.9175 21.145 3.835 22.25 3.75 C44.29911611 3.90418962 67.58772625 22.93145075 82.5390625 37.46875 C95.0567649 50.73839918 105.41541272 68.2729292 110 86 C109.505 87.485 109.505 87.485 109 89 C107.02 88.34 105.04 87.68 103 87 C103.62648438 87.29390625 104.25296875 87.5878125 104.8984375 87.890625 C111.47086223 91.49820198 111.47086223 91.49820198 112.87817383 95.49243164 C113.96351105 103.4107216 114.34903903 111.19657397 114.3125 119.1875 C114.30512817 121.10006592 114.30512817 121.10006592 114.29760742 123.05126953 C113.87957626 156.79817526 99.56301865 185.29938708 76 209 C74.05830001 210.8566709 72.18306638 212.40227016 70 214 C64.58685333 212.19561778 61.40156693 207.40943861 58 203 C61.69948187 199.38860104 61.69948187 199.38860104 64 198 C67.375 198.1875 67.375 198.1875 70 199 C70.2784375 197.59814453 70.2784375 197.59814453 70.5625 196.16796875 C72.16463518 190.56472661 75.71367703 186.04731271 79 181.3125 C80.272763 179.45574835 81.54367231 177.59772434 82.8125 175.73828125 C83.37582031 174.92399658 83.93914062 174.10971191 84.51953125 173.27075195 C86.03679502 171.06919462 86.03679502 171.06919462 87.01171875 168.76635742 C88 167 88 167 91 166 C91.09796875 165.44054687 91.1959375 164.88109375 91.296875 164.3046875 C92.50292503 157.83776404 94.20910894 151.59678375 96.09765625 145.296875 C100.88790961 127.79482378 99.97894909 104.07431036 94 87 C93.45666016 85.42412109 93.45666016 85.42412109 92.90234375 83.81640625 C88.45907622 72.23378681 81.95323894 61.48639343 74 52 C73.57847656 51.43410156 73.15695312 50.86820313 72.72265625 50.28515625 C58.15766538 31.47019844 32.07310091 19.94283784 9 17 C8.00395752 16.86899902 8.00395752 16.86899902 6.98779297 16.73535156 C2.32888714 16.12404384 -2.33352565 15.55037464 -7 15 C-5.62571307 10.47039957 -4.31486015 8.31486015 -1 5 C-0.35695144 2.43159957 -0.35695144 2.43159957 0 0 Z " fill="#000000" transform="translate(213,71)"/>
<path d="M0 0 C3.79136494 4.0830084 5 8.5065496 5 14 C4.43192627 14.06993164 3.86385254 14.13986328 3.27856445 14.21191406 C-6.98663913 15.50271698 -16.8357118 16.79088774 -26.6015625 20.328125 C-29 21 -29 21 -32 20 C-31.98839844 19.25234375 -31.97679687 18.5046875 -31.96484375 17.734375 C-31.95582031 16.74953125 -31.94679687 15.7646875 -31.9375 14.75 C-31.92589844 13.77546875 -31.91429687 12.8009375 -31.90234375 11.796875 C-31.98804423 9.34241322 -32.29293934 7.33831086 -33 5 C-26.32269282 1.66134641 -19.30081433 0.37258678 -12 -1 C-11.16082031 -1.15855469 -10.32164062 -1.31710938 -9.45703125 -1.48046875 C-5.7097388 -2.07806698 -3.07913303 -2.39488125 0 0 Z " fill="#000000" transform="translate(200,73)"/>
<path d="M0 0 C0.09977174 2.69383687 0.08720541 5.30971309 0 8 C0.02320313 9.20849609 0.02320313 9.20849609 0.046875 10.44140625 C-0.15980481 13.44296071 -0.58014349 15.32683906 -2 18 C-5.81780849 21.09383116 -9.93368237 23.45039473 -14.18115234 25.89990234 C-32.93929269 37.24542992 -46.3840162 57.28638267 -53.125 77.8125 C-53.37636719 78.54275391 -53.62773438 79.27300781 -53.88671875 80.02539062 C-62.67367126 106.45525563 -58.60408187 134.26060825 -47.015625 159.02978516 C-45.55660321 161.86014714 -43.84634063 164.40770479 -42 167 C-43.7965512 171.24639375 -46.81623183 175.90811592 -51 178 C-52.13350534 180.01669827 -52.13350534 180.01669827 -53 182 C-54.44137875 179.79411638 -55.87815365 177.58545003 -57.3125 175.375 C-57.71662109 174.75753906 -58.12074219 174.14007813 -58.53710938 173.50390625 C-65.12317653 163.33030657 -65.12317653 163.33030657 -64.6875 158.625 C-64.460625 157.75875 -64.23375 156.8925 -64 156 C-62.02 155.67 -60.04 155.34 -58 155 C-57.01 149.555 -57.01 149.555 -56 144 C-56.99 143.67 -57.98 143.34 -59 143 C-59.3403125 144.2065625 -59.3403125 144.2065625 -59.6875 145.4375 C-61 148 -61 148 -63.3125 149.0625 C-66 149 -66 149 -68.625 147.75 C-73.66873775 141.90988261 -74.29458529 133.47739588 -75 126 C-70.05 125.505 -70.05 125.505 -65 125 C-66.32 123.35 -67.64 121.7 -69 120 C-71.97 120.495 -71.97 120.495 -75 121 C-80.14733943 103.33433108 -73.11090409 79.07518212 -66 63 C-65.67 63 -65.34 63 -65 63 C-64.67 64.65 -64.34 66.3 -64 68 C-61.525 67.505 -61.525 67.505 -59 67 C-59.845625 66.113125 -60.69125 65.22625 -61.5625 64.3125 C-63.00390625 62.80078125 -63.00390625 62.80078125 -64 61 C-63.78800209 56.43811906 -61.44194851 52.81420555 -59.125 49 C-58.72933838 48.34572021 -58.33367676 47.69144043 -57.92602539 47.01733398 C-53.61028424 40.08350496 -48.4936223 34.02074648 -43 28 C-42.35675781 27.27425781 -41.71351562 26.54851562 -41.05078125 25.80078125 C-32.22401118 16.36130697 -13.43449602 0 0 0 Z " fill="#000000" transform="translate(163,80)"/>
<path d="M0 0 C11.17837895 -1.15638403 20.62233557 4.45865284 30 10 C30.66 10 31.32 10 32 10 C31.67 12.64 31.34 15.28 31 18 C32.32 18 33.64 18 35 18 C36.25664978 15.09399739 37 13.20395416 37 10 C39 8 39 8 41.09375 7.8046875 C41.8878125 7.82789063 42.681875 7.85109375 43.5 7.875 C44.69109375 7.90207031 44.69109375 7.90207031 45.90625 7.9296875 C46.5971875 7.95289063 47.288125 7.97609375 48 8 C48.66 8 49.32 8 50 8 C50 7.67 50 7.34 50 7 C57.26475132 6.68464906 63.82533357 6.8565683 70.91650391 8.37939453 C79.47759351 10.36098886 79.47759351 10.36098886 87.5 7.4375 C89.00196891 6.29424875 90.5020096 5.14845931 92 4 C98.11135629 0.86910516 103.14982902 -0.50742007 110 0 C113.71188012 7.42376025 114.8206939 18.1344691 112.3125 26.21484375 C111.79101361 28.1243967 111.79101361 28.1243967 113.109375 30.11328125 C113.92148437 31.20189453 113.92148437 31.20189453 114.75 32.3125 C122.22296215 42.8717435 123.47438134 54.46836221 121.69970703 67.14501953 C119.60891432 78.64837456 115.65396002 88.9130981 106.3046875 96.41015625 C96.92435038 102.88099898 86.96938089 105.6335092 76 108 C76.639375 109.093125 77.27875 110.18625 77.9375 111.3125 C80.87432577 116.3335247 81.18403897 120.7007993 81.28125 126.4296875 C81.29965942 127.257034 81.31806885 128.08438049 81.33703613 128.9367981 C81.39576191 131.5827934 81.44856718 134.22885349 81.5 136.875 C81.56784719 140.35169296 81.64157239 143.8281906 81.71875 147.3046875 C81.73232544 148.10067352 81.74590088 148.89665955 81.7598877 149.71676636 C81.84627103 153.59595035 82.06560437 157.21040155 83 161 C93.09409358 157.7738006 102.14399341 154.17363132 111.14453125 148.5390625 C114 147 114 147 118 147 C119.88671875 148.390625 119.88671875 148.390625 121.6875 150.25 C122.28949219 150.85328125 122.89148438 151.4565625 123.51171875 152.078125 C125 154 125 154 126 158 C122.04 160.64 118.08 163.28 114 166 C113.01 165.34 112.02 164.68 111 164 C112.36983503 160.83884224 112.9890638 160.0072908 116 158 C116 157.34 116 156.68 116 156 C113.65466049 155.23043864 113.65466049 155.23043864 111 155 C108.98048938 155.93597315 108.98048938 155.93597315 108 158 C108.24078037 161.85248595 108.84026622 163.76039934 111 167 C82.32903535 182.3026438 50.51048642 184.9620143 19 177 C14.11465742 175.47719228 9.41639452 173.60664095 5 171 C4.67 170.34 4.34 169.68 4 169 C4.66 169 5.32 169 6 169 C6.66 167.35 7.32 165.7 8 164 C8.99 164 9.98 164 11 164 C11 163.01 11 162.02 11 161 C6.02093741 160.24572703 6.02093741 160.24572703 1 160 C0.20046862 163.28696233 -0.09658936 164.71023192 1 168 C-3.8871714 166.61219255 -7.87860886 164.44225216 -12.0625 161.625 C-12.71081787 161.19018311 -13.35913574 160.75536621 -14.02709961 160.30737305 C-23.43672592 153.8207029 -31.88346515 145.94650095 -39 137 C-37.68 136.67 -36.36 136.34 -35 136 C-35.33 134.35 -35.66 132.7 -36 131 C-34.71283353 129.99421411 -33.42011342 128.99553202 -32.125 128 C-31.40570313 127.443125 -30.68640625 126.88625 -29.9453125 126.3125 C-28 125 -28 125 -26 125 C-24.58984375 126.43359375 -24.58984375 126.43359375 -22.9375 128.4375 C-9.21754171 144.40663178 7.01003801 154.31044579 27 161 C29.54515542 156.08557388 29.44153121 151.0960069 29.625 145.6875 C29.66367188 144.75615234 29.70234375 143.82480469 29.7421875 142.86523438 C29.83606313 140.57701593 29.92174509 138.28879705 30 136 C29.15405273 136.02356567 29.15405273 136.02356567 28.29101562 136.04760742 C25.69411565 136.11061574 23.09737725 136.14919598 20.5 136.1875 C19.613125 136.21263672 18.72625 136.23777344 17.8125 136.26367188 C10.60442246 136.34317273 5.36372909 135.10710871 -0.75 131.27734375 C-3.64491136 128.34725118 -5.22754228 125.24791513 -7 121.5625 C-10.00656134 115.34771771 -13.20637639 111.11073784 -18.8125 106.875 C-19.534375 106.25625 -20.25625 105.6375 -21 105 C-21 104.01 -21 103.02 -21 102 C-14.34454208 101.45669731 -10.54165256 102.22695996 -5 106 C-6.32 107.65 -7.64 109.3 -9 111 C-8.071875 111.804375 -7.14375 112.60875 -6.1875 113.4375 C-3.50326774 116.05916274 -2.46268979 118.13845468 -1.5 121.75 C-0.92481101 124.04528084 -0.92481101 124.04528084 0 126 C3.02884844 127.68036511 3.02884844 127.68036511 6 128 C6.33 127.34 6.66 126.68 7 126 C6.030625 125.319375 5.06125 124.63875 4.0625 123.9375 C1.2186553 121.60889305 1.01085438 121.04729408 0.125 117.1875 C0.08375 116.135625 0.0425 115.08375 0 114 C0.4125 114.39832031 0.825 114.79664063 1.25 115.20703125 C6.12599263 119.68031913 10.72399936 123.01961468 17.5546875 122.98828125 C21.74750045 122.60881302 25.89831175 121.95706059 30 121 C30.0825 119.96875 30.165 118.9375 30.25 117.875 C31.06421356 113.66822995 32.55344761 111.45453197 35 108 C34.00742188 107.79246094 33.01484375 107.58492188 31.9921875 107.37109375 C19.70527758 104.6482792 5.63427856 100.81522796 -2 90 C-10.38335957 76.44690202 -13.52178496 60.16151136 -10.2734375 44.49609375 C-8.85943895 39.90347243 -7.47798973 36.33277253 -4.1875 32.8125 C-0.80932435 28.64846475 -2.10251401 23.55107363 -2.59814453 18.56982422 C-3.20032748 11.93130133 -2.15622755 6.32249772 0 0 Z M24 13 C25 16 25 16 25 16 Z M1 39 C2.37268991 42.12782079 3.92812643 44.07609002 6.4375 46.375 C9.47912552 49.30890128 11.36373112 52.05370447 13 56 C13.33 56 13.66 56 14 56 C15.20827955 53.36223534 15.20827955 53.36223534 15 50 C12.66467379 47.24384089 9.87758937 45.16474392 7 43 C6.030625 42.195625 5.06125 41.39125 4.0625 40.5625 C2.29840634 38.89935705 2.29840634 38.89935705 1 39 Z M109 54 C110.36323743 56.0399719 110.36323743 56.0399719 112 58 C112.66 58 113.32 58 114 58 C114 57.01 114 56.02 114 55 C112.35 54.67 110.7 54.34 109 54 Z M70 97 C70 97.66 70 98.32 70 99 C70.99 98.67 71.98 98.34 73 98 C72.01 97.67 71.02 97.34 70 97 Z M76 98 C78.17424117 100.50037734 79.73045798 101.43628586 83 102 C83.33 101.34 83.66 100.68 84 100 C81.36 99.34 78.72 98.68 76 98 Z M44 101 C43.20188733 104.39365554 42.67842386 107.51452962 43 111 C44.95260483 113.61710386 47.23070519 115.30113087 50 117 C49.77065591 115.08075213 49.51565657 113.1645594 49.25 111.25 C49.11078125 110.18265625 48.9715625 109.1153125 48.828125 108.015625 C47.8902252 104.60025402 46.68083082 103.24492337 44 101 Z M37 117 C37 117.66 37 118.32 37 119 C37.99 119.33 38.98 119.66 40 120 C39.67 119.01 39.34 118.02 39 117 C38.34 117 37.68 117 37 117 Z M33 124 C33.66 124.66 34.32 125.32 35 126 C35.33 125.34 35.66 124.68 36 124 C35.01 124 34.02 124 33 124 Z M-27 143 C-26.61328125 143.44730469 -26.2265625 143.89460937 -25.828125 144.35546875 C-23.44467888 147.12239012 -21.08629657 149.89151288 -18.8125 152.75 C-18.214375 153.4925 -17.61625 154.235 -17 155 C-16.566875 155.556875 -16.13375 156.11375 -15.6875 156.6875 C-13.08155951 158.71434261 -10.16504751 159.22366759 -7 160 C-8.95151801 157.49090542 -10.80332389 155.17419884 -13.1875 153.0625 C-15.48413997 150.44908211 -15.68992739 148.41079876 -16 145 C-17.258125 144.855625 -18.51625 144.71125 -19.8125 144.5625 C-22.42667123 144.26251314 -24.47439892 143.84186703 -27 143 Z M34 152 C34 153.32 34 154.64 34 156 C34.66 156 35.32 156 36 156 C35.67 154.68 35.34 153.36 35 152 C34.67 152 34.34 152 34 152 Z M70 154 C71.485 154.99 71.485 154.99 73 156 C76.67480584 154.69903526 76.67480584 154.69903526 80 153 C76.18510326 151.53273202 73.70988378 152.56663581 70 154 Z " fill="#000000" transform="translate(153,130)"/>
</svg>
