<?xml version="1.0" encoding="UTF-8"?>
<svg version="1.1" xmlns="http://www.w3.org/2000/svg" width="400" height="400">
<path d="M0 0 C0.74883453 -0.00570007 1.49766907 -0.01140015 2.26919556 -0.01727295 C3.85083631 -0.02667245 5.43249621 -0.0332367 7.01416016 -0.03710938 C9.37309514 -0.0467083 11.73111653 -0.07773414 14.08984375 -0.109375 C28.03237131 -0.20730857 41.4187425 1.68779551 54.7890625 5.765625 C55.60632813 6.01393066 56.42359375 6.26223633 57.265625 6.51806641 C76.20858954 12.57448915 92.89603278 22.41783827 108.0390625 35.203125 C108.87308594 35.90179688 109.70710937 36.60046875 110.56640625 37.3203125 C116.81815106 42.73399599 122.02817784 48.6345496 127.0390625 55.203125 C127.64492188 55.98171875 128.25078125 56.7603125 128.875 57.5625 C150.02972665 86.08787801 155.88864479 122.54070311 151.37890625 157.16796875 C146.60131086 186.2224793 131.51511942 211.54285441 111.0390625 232.203125 C110.26304687 232.99203125 109.48703125 233.7809375 108.6875 234.59375 C92.39853415 250.15503009 70.72822228 261.41934906 49.0390625 267.203125 C48.33813477 267.39777344 47.63720703 267.59242188 46.91503906 267.79296875 C23.41302138 274.05471661 -4.57067058 273.71475674 -27.9609375 267.203125 C-28.70972168 267.00477051 -29.45850586 266.80641602 -30.22998047 266.60205078 C-64.5645696 257.27046623 -94.84282373 233.65792569 -112.9609375 203.203125 C-130.2159591 172.78355017 -137.10998817 136.00625807 -128.28515625 101.6640625 C-120.75356161 75.43952468 -107.60774411 50.50655941 -85.9609375 33.203125 C-84.93742187 32.38070312 -83.91390625 31.55828125 -82.859375 30.7109375 C-59.70841555 12.66169741 -29.63792478 0.1804557 0 0 Z " fill="#030303" transform="translate(194.9609375,53.796875)"/>
<path d="M0 0 C0.74883453 -0.00570007 1.49766907 -0.01140015 2.26919556 -0.01727295 C3.85083631 -0.02667245 5.43249621 -0.0332367 7.01416016 -0.03710938 C9.37309514 -0.0467083 11.73111653 -0.07773414 14.08984375 -0.109375 C28.03237131 -0.20730857 41.4187425 1.68779551 54.7890625 5.765625 C55.60632813 6.01393066 56.42359375 6.26223633 57.265625 6.51806641 C76.20858954 12.57448915 92.89603278 22.41783827 108.0390625 35.203125 C108.87308594 35.90179688 109.70710937 36.60046875 110.56640625 37.3203125 C116.81815106 42.73399599 122.02817784 48.6345496 127.0390625 55.203125 C127.64492188 55.98171875 128.25078125 56.7603125 128.875 57.5625 C150.02972665 86.08787801 155.88864479 122.54070311 151.37890625 157.16796875 C146.60131086 186.2224793 131.51511942 211.54285441 111.0390625 232.203125 C110.26304687 232.99203125 109.48703125 233.7809375 108.6875 234.59375 C92.39853415 250.15503009 70.72822228 261.41934906 49.0390625 267.203125 C48.33813477 267.39777344 47.63720703 267.59242188 46.91503906 267.79296875 C23.41302138 274.05471661 -4.57067058 273.71475674 -27.9609375 267.203125 C-28.70972168 267.00477051 -29.45850586 266.80641602 -30.22998047 266.60205078 C-64.5645696 257.27046623 -94.84282373 233.65792569 -112.9609375 203.203125 C-130.2159591 172.78355017 -137.10998817 136.00625807 -128.28515625 101.6640625 C-120.75356161 75.43952468 -107.60774411 50.50655941 -85.9609375 33.203125 C-84.93742187 32.38070312 -83.91390625 31.55828125 -82.859375 30.7109375 C-59.70841555 12.66169741 -29.63792478 0.1804557 0 0 Z M-10.7734375 19.015625 C-11.65064453 19.18126953 -12.52785156 19.34691406 -13.43164062 19.51757812 C-18.63057322 20.54803223 -23.17327938 21.92359883 -27.9609375 24.203125 C-27.7959375 24.821875 -27.6309375 25.440625 -27.4609375 26.078125 C-27.02079468 28.8290176 -26.69173247 31.48670558 -26.5234375 34.265625 C-26.46285156 35.10222656 -26.40226562 35.93882813 -26.33984375 36.80078125 C-26.9609375 39.203125 -26.9609375 39.203125 -32.9609375 43.203125 C-32.6309375 37.593125 -32.3009375 31.983125 -31.9609375 26.203125 C-36.56035497 27.12300849 -39.97196903 28.51515495 -44.0234375 30.703125 C-44.68174561 31.05769775 -45.34005371 31.41227051 -46.01831055 31.77758789 C-66.95781004 43.35161353 -86.03340487 62.19548793 -95.9609375 84.203125 C-95.84423991 88.05414541 -93.39683379 90.37434221 -90.9609375 93.203125 C-93.9309375 94.193125 -93.9309375 94.193125 -96.9609375 95.203125 C-96.9609375 93.223125 -96.9609375 91.243125 -96.9609375 89.203125 C-100.43982316 93.00393739 -101.58654004 97.49633978 -103.0234375 102.328125 C-103.28656738 103.21177734 -103.54969727 104.09542969 -103.82080078 105.00585938 C-106.9163801 115.90945868 -111.66045093 134.7511597 -106.9453125 145.5234375 C-106.45804688 146.35488281 -106.45804688 146.35488281 -105.9609375 147.203125 C-104.3109375 146.873125 -102.6609375 146.543125 -100.9609375 146.203125 C-98.9809375 148.678125 -98.9809375 148.678125 -96.9609375 151.203125 C-100.2609375 151.533125 -103.5609375 151.863125 -106.9609375 152.203125 C-106.56317067 154.93626525 -106.14361363 157.66298115 -105.7109375 160.390625 C-105.54658203 161.54401367 -105.54658203 161.54401367 -105.37890625 162.72070312 C-104.59244502 167.54295225 -103.62252953 170.70548486 -99.9609375 174.203125 C-96.82230046 175.08906498 -96.82230046 175.08906498 -93.9609375 175.203125 C-91.61806332 172.53064866 -91.61806332 172.53064866 -90.9609375 169.203125 C-89.9709375 169.533125 -88.9809375 169.863125 -87.9609375 170.203125 C-88.2909375 173.833125 -88.6209375 177.463125 -88.9609375 181.203125 C-91.2709375 181.533125 -93.5809375 181.863125 -95.9609375 182.203125 C-97.17475701 186.17449346 -97.08781854 188.5284917 -95.23046875 192.1484375 C-94.42850308 193.55154713 -93.60888767 194.94469138 -92.7734375 196.328125 C-92.37318359 197.03066406 -91.97292969 197.73320312 -91.56054688 198.45703125 C-89.38484786 202.18780849 -87.22371917 205.30787506 -83.9609375 208.203125 C-83.9196875 207.64625 -83.8784375 207.089375 -83.8359375 206.515625 C-82.52981927 203.06374111 -79.75673297 201.53295456 -76.9609375 199.203125 C-76.01657401 197.03781332 -76.01657401 197.03781332 -75.9609375 195.203125 C-75.1978125 195.244375 -74.4346875 195.285625 -73.6484375 195.328125 C-70.73375334 195.42393324 -70.73375334 195.42393324 -67.9609375 193.203125 C-67.1484375 194.828125 -67.1484375 194.828125 -66.9609375 197.203125 C-70.05641288 201.70563464 -73.3164227 204.39481372 -77.9609375 207.203125 C-77.6309375 208.853125 -77.3009375 210.503125 -76.9609375 212.203125 C-78.2809375 212.533125 -79.6009375 212.863125 -80.9609375 213.203125 C-70.87106417 224.91236072 -56.96724192 240.79561427 -40.9609375 244.203125 C-41.1465625 243.56375 -41.3321875 242.924375 -41.5234375 242.265625 C-41.74 241.2446875 -41.74 241.2446875 -41.9609375 240.203125 C-41.6309375 239.873125 -41.3009375 239.543125 -40.9609375 239.203125 C-40.92012967 237.20354136 -40.91839394 235.20267246 -40.9609375 233.203125 C-36.56785413 234.17868912 -32.84220613 236.07857411 -28.8359375 238.078125 C-28.10761719 238.43003906 -27.37929687 238.78195312 -26.62890625 239.14453125 C-25.93152344 239.49128906 -25.23414063 239.83804688 -24.515625 240.1953125 C-23.88124512 240.50839355 -23.24686523 240.82147461 -22.59326172 241.14404297 C-20.9609375 242.203125 -20.9609375 242.203125 -18.9609375 245.203125 C-20.44133721 244.56012311 -21.92022532 243.91364001 -23.3984375 243.265625 C-24.22214844 242.90597656 -25.04585938 242.54632813 -25.89453125 242.17578125 C-27.9609375 241.203125 -27.9609375 241.203125 -28.9609375 240.203125 C-30.62710865 240.16248668 -32.29481845 240.160404 -33.9609375 240.203125 C-34.2496875 241.0075 -34.5384375 241.811875 -34.8359375 242.640625 C-35.9609375 245.203125 -35.9609375 245.203125 -37.9609375 246.203125 C-14.31762963 259.7854508 17.94480866 260.68850059 43.75195312 253.86230469 C52.6778328 251.28973049 61.04359235 247.95331469 69.0390625 243.203125 C68.265625 241.8728125 68.265625 241.8728125 67.4765625 240.515625 C65.9521688 237.00289169 65.88958355 235.75605993 67.0390625 232.203125 C70.04937994 231.26888855 70.90556518 231.15862589 74.0390625 232.203125 C72.90601258 235.60227475 71.91387775 236.25566951 69.0390625 238.203125 C69.6990625 239.523125 70.3590625 240.843125 71.0390625 242.203125 C73.02442056 241.11012999 75.00220193 240.00336264 76.9765625 238.890625 C78.07871094 238.27574219 79.18085938 237.66085937 80.31640625 237.02734375 C83.30418546 235.42794341 83.30418546 235.42794341 84.0390625 232.203125 C80.65290127 227.0319267 75.7999359 223.05716537 71.0390625 219.203125 C70.7090625 218.543125 70.3790625 217.883125 70.0390625 217.203125 C72.33505433 218.96858086 74.62585155 220.74013451 76.9140625 222.515625 C77.56503906 223.01513672 78.21601563 223.51464844 78.88671875 224.02929688 C79.51191406 224.51591797 80.13710938 225.00253906 80.78125 225.50390625 C81.3572998 225.94903564 81.93334961 226.39416504 82.52685547 226.8527832 C84.0390625 228.203125 84.0390625 228.203125 86.0390625 231.203125 C105.16238221 223.0915747 118.02470536 197.42738939 125.5 179.375 C130.78248193 165.75073371 132.21920717 151.51297687 132.2265625 137.015625 C132.23880859 135.76458984 132.25105469 134.51355469 132.26367188 133.22460938 C132.44157031 121.53663417 132.44157031 121.53663417 130.0390625 110.203125 C127.28120712 107.58790174 124.4719974 105.81363767 121.0390625 104.203125 C123.3490625 104.863125 125.6590625 105.523125 128.0390625 106.203125 C124.89366723 89.04642353 115.98307568 73.58306369 105.0390625 60.203125 C103.84023438 58.73746094 103.84023438 58.73746094 102.6171875 57.2421875 C88.49736877 40.94021496 64.85772048 22.73995147 42.62109375 21.015625 C40.75936728 21.015625 38.89792257 21.099855 37.0390625 21.203125 C36.7090625 20.543125 36.3790625 19.883125 36.0390625 19.203125 C30.13764379 17.33951909 24.17946255 16.97570278 18.0390625 17.203125 C17.6678125 18.811875 17.6678125 18.811875 17.2890625 20.453125 C16.02354108 24.24968926 14.98210211 25.63983243 12.0390625 28.203125 C11.7090625 28.863125 11.3790625 29.523125 11.0390625 30.203125 C10.71292969 29.51605469 10.38679688 28.82898438 10.05078125 28.12109375 C9.61378906 27.22003906 9.17679687 26.31898437 8.7265625 25.390625 C8.08267578 24.05064453 8.08267578 24.05064453 7.42578125 22.68359375 C6.12591883 20.35848773 5.17006434 18.78690661 3.0390625 17.203125 C-1.75297321 17.203125 -6.08900302 18.08145569 -10.7734375 19.015625 Z " fill="#FAFAFA" transform="translate(194.9609375,53.796875)"/>
<path d="M0 0 C0.06939224 13.39495746 0.12275637 26.78987243 0.15543652 40.18497276 C0.17111827 46.40430406 0.19240234 52.62351273 0.22631836 58.84277344 C0.25882226 64.84036089 0.27683408 70.83783011 0.28463173 76.83549881 C0.29019139 79.1281381 0.30104743 81.42077064 0.31719017 83.71335983 C0.33884508 86.91500785 0.34197192 90.1161621 0.34057617 93.31787109 C0.351362 94.27380661 0.36214783 95.22974213 0.3732605 96.21464539 C0.36913651 97.08405258 0.36501251 97.95345978 0.36076355 98.84921265 C0.36352893 99.60692648 0.36629431 100.36464031 0.36914349 101.14531517 C0.24732614 101.75736116 0.12550879 102.36940716 0 103 C-3.77168462 105.51445642 -7.06167893 105.53322304 -11.453125 105.81640625 C-12.2968013 105.87747559 -13.1404776 105.93854492 -14.00971985 106.00146484 C-16.75593136 106.19749362 -19.50283784 106.38032049 -22.25 106.5625 C-24.13927257 106.69413541 -26.02851414 106.82621647 -27.91772461 106.95874023 C-38.34013104 107.67880304 -48.75908342 108.29097634 -59.20068359 108.65429688 C-65.94924789 108.90344334 -72.65012693 109.45401653 -79.375 110.0625 C-86.54537872 110.70024028 -93.6741127 111.20556932 -100.875 111.25 C-101.5767334 111.259104 -102.2784668 111.26820801 -103.00146484 111.27758789 C-107.7518842 111.2481158 -107.7518842 111.2481158 -110 109 C-110.25447559 107.16931248 -110.25447559 107.16931248 -110.26069641 104.90736389 C-110.26778122 104.05070633 -110.27486603 103.19404877 -110.28216553 102.31143188 C-110.27968811 101.36956024 -110.27721069 100.4276886 -110.2746582 99.45727539 C-110.27976913 98.46693802 -110.28488007 97.47660065 -110.29014587 96.45625305 C-110.30408982 93.1699933 -110.30308149 89.88394214 -110.30078125 86.59765625 C-110.30466555 84.32083558 -110.30899967 82.04401564 -110.31376648 79.76719666 C-110.32123904 74.98971205 -110.32092992 70.21230133 -110.31567383 65.43481445 C-110.30987803 59.30316417 -110.32680805 53.17181583 -110.3500185 47.04021549 C-110.36472835 42.33656537 -110.36563129 37.63298843 -110.36250877 32.92931938 C-110.36302338 30.66822143 -110.368287 28.40711953 -110.37832069 26.14604378 C-110.39061438 22.98786756 -110.38393579 19.83028537 -110.37231445 16.67211914 C-110.37995819 15.73227173 -110.38760193 14.79242432 -110.39547729 13.82409668 C-110.38846298 12.96461929 -110.38144867 12.10514191 -110.3742218 11.21961975 C-110.37438954 10.47279969 -110.37455729 9.72597963 -110.37473011 8.95652866 C-109.89360597 6.44449897 -108.99338347 5.55609523 -107 4 C-104.73291016 3.56762695 -104.73291016 3.56762695 -102.0390625 3.48828125 C-101.02312012 3.45275146 -100.00717773 3.41722168 -98.96044922 3.38061523 C-97.85975098 3.35813721 -96.75905273 3.33565918 -95.625 3.3125 C-93.92561279 3.26234741 -93.92561279 3.26234741 -92.19189453 3.21118164 C-78.79812854 2.85977099 -65.39690426 2.90549178 -52 3 C-52 2.34 -52 1.68 -52 1 C-47.12968802 0.70992598 -42.25909315 0.42536855 -37.38818359 0.14550781 C-35.73770859 0.04994893 -34.08731405 -0.0470119 -32.43701172 -0.14550781 C-3.71340304 -1.85670152 -3.71340304 -1.85670152 0 0 Z " fill="#FAFAFA" transform="translate(274,148)"/>
<path d="M0 0 C0.74883453 -0.00570007 1.49766907 -0.01140015 2.26919556 -0.01727295 C3.85083631 -0.02667245 5.43249621 -0.0332367 7.01416016 -0.03710938 C9.37309514 -0.0467083 11.73111653 -0.07773414 14.08984375 -0.109375 C28.03237131 -0.20730857 41.4187425 1.68779551 54.7890625 5.765625 C55.60632813 6.01393066 56.42359375 6.26223633 57.265625 6.51806641 C76.20858954 12.57448915 92.89603278 22.41783827 108.0390625 35.203125 C108.87308594 35.90179688 109.70710937 36.60046875 110.56640625 37.3203125 C116.81815106 42.73399599 122.02817784 48.6345496 127.0390625 55.203125 C127.64492188 55.98171875 128.25078125 56.7603125 128.875 57.5625 C150.02972665 86.08787801 155.88864479 122.54070311 151.37890625 157.16796875 C146.55991859 186.47420263 131.36371503 211.1800308 111.0390625 232.203125 C111.0390625 228.25126161 112.24597815 227.667886 114.9765625 224.890625 C138.02921129 199.92294426 148.31161343 164.29592991 147.35546875 130.890625 C146.36990218 109.7521649 140.27234475 89.65666833 130.0390625 71.203125 C129.1728125 69.58470703 129.1728125 69.58470703 128.2890625 67.93359375 C124.26971502 60.68574263 119.44068525 54.46861022 114.0390625 48.203125 C113.2346875 47.21505859 113.2346875 47.21505859 112.4140625 46.20703125 C92.89410489 22.39056123 60.12864696 7.25677472 30.0390625 3.203125 C24.31885593 2.70153407 18.58909743 2.71562061 12.8515625 2.765625 C11.70261505 2.77118408 11.70261505 2.77118408 10.53045654 2.77685547 C-21.38702597 2.99613398 -50.4710363 13.58046066 -74.9609375 34.203125 C-75.96769531 35.04488281 -76.97445312 35.88664062 -78.01171875 36.75390625 C-102.76701867 58.11040066 -118.03606107 89.94500993 -121.9609375 122.203125 C-124.28588193 159.37452492 -115.74611795 195.52478245 -90.9609375 224.203125 C-89.70216797 225.70359375 -89.70216797 225.70359375 -88.41796875 227.234375 C-78.12407123 239.19781282 -65.59742401 248.38456612 -51.9609375 256.203125 C-52.6209375 256.533125 -53.2809375 256.863125 -53.9609375 257.203125 C-86.65623766 243.31263705 -110.21876096 213.44736704 -123.44580078 181.40844727 C-136.31960237 148.50918852 -133.9761426 110.27871934 -119.9609375 78.203125 C-112.1499729 61.06047703 -100.72177319 45.00223961 -85.9609375 33.203125 C-84.93742187 32.38070312 -83.91390625 31.55828125 -82.859375 30.7109375 C-59.70841555 12.66169741 -29.63792478 0.1804557 0 0 Z " fill="#FAFAFA" transform="translate(194.9609375,53.796875)"/>
<path d="M0 0 C0.7566394 0.00143005 1.51327881 0.00286011 2.29284668 0.0043335 C21.11348957 0.09184607 38.87933639 3.24431493 55.9375 11.5 C56.63069336 11.83547852 57.32388672 12.17095703 58.03808594 12.51660156 C73.68506854 20.21877155 86.74914164 29.98222655 98.9375 42.5 C99.42089844 42.92667969 99.90429688 43.35335937 100.40234375 43.79296875 C121.7875058 63.36668178 134.49395224 97.56132964 136.07788086 126.02246094 C137.37774777 162.34093688 126.90885577 196.77230807 102.9375 224.5 C102.26074219 225.15097656 101.58398438 225.80195313 100.88671875 226.47265625 C98.84622173 228.42365304 98.84622173 228.42365304 97.5859375 230.91796875 C95.44897118 234.26520747 92.68041827 236.43643856 89.5625 238.8125 C88.93964111 239.29178955 88.31678223 239.7710791 87.67504883 240.26489258 C72.54930373 251.72645895 55.28927936 260.53851559 36.9375 265.5 C35.88175781 265.79414795 35.88175781 265.79414795 34.8046875 266.09423828 C4.0841416 274.27612583 -35.96874728 272.24395167 -64.0625 256.5 C-65.07577844 255.51345714 -66.07526985 254.51260882 -67.0625 253.5 C-68.56377147 252.5353358 -70.06757233 251.57398499 -71.5925293 250.6472168 C-102.94178001 231.5697314 -123.79222327 200.53253986 -132.64453125 165.17529297 C-137.4371795 144.18001803 -136.78789568 121.19950746 -131.0625 100.5 C-130.86414551 99.75669434 -130.66579102 99.01338867 -130.46142578 98.24755859 C-125.44507845 79.97400694 -116.46316653 62.82325049 -104.0625 48.5 C-103.63501465 47.99710449 -103.2075293 47.49420898 -102.76708984 46.97607422 C-86.52661399 27.96767733 -65.72098688 14.27503664 -42.0625 6.1875 C-41.40032471 5.95724121 -40.73814941 5.72698242 -40.0559082 5.48974609 C-26.9240668 1.23877832 -13.72085307 -0.08449081 0 0 Z M-85.0625 34.5 C-86.31160156 35.56541016 -86.31160156 35.56541016 -87.5859375 36.65234375 C-112.45081135 58.41867178 -129.39010353 90.42071415 -131.93359375 123.6484375 C-133.72697057 163.32010661 -121.63356557 198.01649031 -95.0625 227.5 C-94.11503906 228.57314453 -94.11503906 228.57314453 -93.1484375 229.66796875 C-72.58547747 251.63500755 -40.17279234 266.32435656 -10.15185547 267.6262207 C3.52795132 267.95351367 16.64599374 267.97188448 29.9375 264.5 C31.10796875 264.20996094 32.2784375 263.91992188 33.484375 263.62109375 C53.25909675 258.36980653 70.27589772 249.58542454 85.9375 236.5 C86.45054687 236.07348145 86.96359375 235.64696289 87.4921875 235.20751953 C114.05709801 212.81444617 128.94645836 180.30152121 132.41015625 146.12890625 C135.51949381 109.55582794 122.54905086 75.37140949 99.25 47.5 C77.24137912 21.85056722 44.48620277 6.10291659 10.9375 3.5 C-24.29480772 1.53745766 -58.01996118 11.28922157 -85.0625 34.5 Z " fill="#0A0A0A" transform="translate(207.0625,55.5)"/>
<path d="M0 0 C1.20366211 0.00966797 1.20366211 0.00966797 2.43164062 0.01953125 C3.26501953 0.03628906 4.09839844 0.05304688 4.95703125 0.0703125 C6.22450195 0.08384766 6.22450195 0.08384766 7.51757812 0.09765625 C9.60168368 0.12120547 11.68564342 0.15707603 13.76953125 0.1953125 C13.43953125 1.5153125 13.10953125 2.8353125 12.76953125 4.1953125 C11.77953125 4.1953125 10.78953125 4.1953125 9.76953125 4.1953125 C9.76953125 23.9953125 9.76953125 43.7953125 9.76953125 64.1953125 C4.63883635 66.76065995 0.4025612 67.63353291 -5.23046875 66.1953125 C-8.34571967 63.29470643 -10.20126129 59.90586329 -12.23046875 56.1953125 C-13.20287827 54.69092322 -14.18131989 53.19040159 -15.16796875 51.6953125 C-17.23046875 48.45897809 -17.23046875 48.45897809 -17.23046875 46.1953125 C-17.89046875 46.1953125 -18.55046875 46.1953125 -19.23046875 46.1953125 C-19.23046875 45.5353125 -19.23046875 44.8753125 -19.23046875 44.1953125 C-19.89046875 44.1953125 -20.55046875 44.1953125 -21.23046875 44.1953125 C-21.56046875 42.2153125 -21.89046875 40.2353125 -22.23046875 38.1953125 C-22.89046875 38.1953125 -23.55046875 38.1953125 -24.23046875 38.1953125 C-24.23046875 37.5353125 -24.23046875 36.8753125 -24.23046875 36.1953125 C-24.89046875 36.1953125 -25.55046875 36.1953125 -26.23046875 36.1953125 C-26.9140625 34.47005208 -27.59765625 32.74479167 -28.28125 31.01953125 C-29.31451422 28.8103928 -29.31451422 28.8103928 -32.23046875 26.1953125 C-32.56046875 37.7453125 -32.89046875 49.2953125 -33.23046875 61.1953125 C-30.92046875 61.1953125 -28.61046875 61.1953125 -26.23046875 61.1953125 C-26.23046875 62.1853125 -26.23046875 63.1753125 -26.23046875 64.1953125 C-30.69913104 68.23122013 -35.89344103 67.53852386 -41.54296875 67.3828125 C-42.93999023 67.36250977 -42.93999023 67.36250977 -44.36523438 67.34179688 C-46.65424521 67.30658132 -48.94205333 67.25733349 -51.23046875 67.1953125 C-50.35546875 63.3203125 -50.35546875 63.3203125 -49.23046875 62.1953125 C-47.58046875 62.1953125 -45.93046875 62.1953125 -44.23046875 62.1953125 C-44.23046875 44.7053125 -44.23046875 27.2153125 -44.23046875 9.1953125 C-46.54046875 9.1953125 -48.85046875 9.1953125 -51.23046875 9.1953125 C-50.35546875 4.3203125 -50.35546875 4.3203125 -49.23046875 3.1953125 C-47.52274517 3.10817419 -45.81148226 3.08831243 -44.1015625 3.09765625 C-42.54985352 3.10249023 -42.54985352 3.10249023 -40.96679688 3.10742188 C-39.87818359 3.11580078 -38.78957031 3.12417969 -37.66796875 3.1328125 C-36.02924805 3.13958008 -36.02924805 3.13958008 -34.35742188 3.14648438 C-31.6483838 3.15831424 -28.93945276 3.17479707 -26.23046875 3.1953125 C-26.23046875 3.8553125 -26.23046875 4.5153125 -26.23046875 5.1953125 C-25.57046875 5.1953125 -24.91046875 5.1953125 -24.23046875 5.1953125 C-23.57046875 6.8453125 -22.91046875 8.4953125 -22.23046875 10.1953125 C-21.57046875 10.1953125 -20.91046875 10.1953125 -20.23046875 10.1953125 C-19.65296875 11.2265625 -19.07546875 12.2578125 -18.48046875 13.3203125 C-17.07318119 15.80316984 -15.61197711 18.08868932 -13.98046875 20.4453125 C-12.23046875 23.1953125 -12.23046875 23.1953125 -12.23046875 26.1953125 C-11.57046875 26.1953125 -10.91046875 26.1953125 -10.23046875 26.1953125 C-8.75737764 28.29550264 -7.4173724 30.37298979 -6.10546875 32.5703125 C-5.73292969 33.17359375 -5.36039063 33.776875 -4.9765625 34.3984375 C-2.23046875 38.92496566 -2.23046875 38.92496566 -2.23046875 41.1953125 C-1.57046875 41.1953125 -0.91046875 41.1953125 -0.23046875 41.1953125 C-0.23046875 29.6453125 -0.23046875 18.0953125 -0.23046875 6.1953125 C-2.87046875 6.1953125 -5.51046875 6.1953125 -8.23046875 6.1953125 C-7.91796875 4.3203125 -7.91796875 4.3203125 -7.23046875 2.1953125 C-4.12961304 0.12807536 -3.50115194 -0.04966173 0 0 Z " fill="#0C0C0C" transform="translate(238.23046875,169.8046875)"/>
<path d="M0 0 C3.84100143 1.78196389 6.78332601 4.27661787 10 7 C11.92974618 8.38586108 13.8673698 9.76081535 15.8125 11.125 C19.57269149 13.80212304 22.79574404 16.67493726 26 20 C24.45119141 20.07347656 24.45119141 20.07347656 22.87109375 20.1484375 C14.3549898 20.57540031 5.87022898 21.15950265 -2.62109375 21.9375 C-13.87718869 22.94016247 -25.14032119 23.73241607 -36.41894531 24.43261719 C-39.52706644 24.62669004 -42.63460113 24.82881406 -45.7421875 25.03125 C-77.55190097 27.05901359 -77.55190097 27.05901359 -81.5 24 C-82.325 23.01 -83.15 22.02 -84 21 C-85.1846939 19.64337773 -86.37236521 18.28935162 -87.5625 16.9375 C-88.14257812 16.25171875 -88.72265625 15.5659375 -89.3203125 14.859375 C-91.08954174 12.79595912 -91.08954174 12.79595912 -93.9375 10.6875 C-94.618125 10.130625 -95.29875 9.57375 -96 9 C-96 8.01 -96 7.02 -96 6 C-95.0212793 5.94465088 -94.04255859 5.88930176 -93.03417969 5.83227539 C-89.39609332 5.62551838 -85.75831407 5.41373147 -82.12060547 5.20043945 C-80.54744235 5.10890113 -78.97419968 5.01871913 -77.40087891 4.92993164 C-75.13682025 4.8019258 -72.87309436 4.66901273 -70.609375 4.53515625 C-69.90818542 4.49656998 -69.20699585 4.4579837 -68.48455811 4.41822815 C-64.73547924 4.19887648 -64.73547924 4.19887648 -61.0553894 3.49900818 C-58.87055124 2.96857238 -56.87554568 2.80955805 -54.63037109 2.71875 C-53.77623627 2.68201172 -52.92210144 2.64527344 -52.04208374 2.60742188 C-51.12843048 2.57197266 -50.21477722 2.53652344 -49.2734375 2.5 C-48.32941071 2.45939453 -47.38538391 2.41878906 -46.41275024 2.37695312 C-42.37633157 2.20335269 -38.33954309 2.03924397 -34.30273438 1.875 C-31.35529996 1.7536908 -28.40813021 1.62702521 -25.4609375 1.5 C-24.54323578 1.46455078 -23.62553406 1.42910156 -22.68002319 1.39257812 C-21.83219269 1.35583984 -20.98436218 1.31910156 -20.11083984 1.28125 C-19.36345551 1.25095703 -18.61607117 1.22066406 -17.84603882 1.18945312 C-2.78631545 -0.35607865 -2.78631545 -0.35607865 0 0 Z " fill="#F7F7F7" transform="translate(239,120)"/>
<path d="M0 0 C7.68121195 3.60959188 14.56540551 9.76097637 19 17 C21.47848373 24.42169096 20.75645006 32.41421397 20.46484375 40.12109375 C20.43680662 42.31918538 20.41548317 44.51737187 20.40052795 46.71559143 C20.3437166 52.45397624 20.19682019 58.18650868 20.02996826 63.92260742 C19.87549031 69.79460486 19.80779832 75.66756453 19.73242188 81.54101562 C19.57237486 93.02989145 19.31697048 104.514456 19 116 C18.34 116 17.68 116 17 116 C15.54082037 114.41005885 14.15750645 112.75012428 12.8125 111.0625 C12.01457031 110.06476563 11.21664062 109.06703125 10.39453125 108.0390625 C9.60433594 107.03617187 8.81414062 106.03328125 8 105 C7.30261719 104.12085938 6.60523438 103.24171875 5.88671875 102.3359375 C1.03207053 96.16460415 -0.1462706 93.08406739 -0.11352539 85.14404297 C-0.11367142 84.22691528 -0.11381744 83.3097876 -0.1139679 82.36486816 C-0.11326948 79.32395081 -0.1054804 76.2830942 -0.09765625 73.2421875 C-0.09579182 71.13754307 -0.09436803 69.0328982 -0.09336853 66.92825317 C-0.08954535 61.38143725 -0.07971674 55.8346474 -0.06866455 50.2878418 C-0.05844616 44.6307002 -0.05386999 38.97355441 -0.04882812 33.31640625 C-0.03809431 22.21092603 -0.02102026 11.10546518 0 0 Z " fill="#F9F9F9" transform="translate(138,134)"/>
<path d="M0 0 C-2.63822053 2.63822053 -3.94797129 2.28940811 -7.62890625 2.37890625 C-8.74587891 2.41306641 -9.86285156 2.44722656 -11.01367188 2.48242188 C-12.18478516 2.50884766 -13.35589844 2.53527344 -14.5625 2.5625 C-16.87641268 2.62215655 -19.19022866 2.68573897 -21.50390625 2.75390625 C-22.53330322 2.77783447 -23.5627002 2.8017627 -24.62329102 2.82641602 C-26.95423223 2.736325 -26.95423223 2.736325 -28 4 C-30.31 4 -32.62 4 -35 4 C-34.67 37.66 -34.34 71.32 -34 106 C-18.0840737 108.25288197 -18.0840737 108.25288197 -5 104 C-3.0440013 103.84074016 -1.08249189 103.74849348 0.87890625 103.68359375 C2.10391846 103.64161865 3.32893066 103.59964355 4.59106445 103.55639648 C5.90163818 103.51716064 7.21221191 103.4779248 8.5625 103.4375 C9.87887451 103.3950415 11.19524902 103.35258301 12.55151367 103.30883789 C21.70472019 103.02866645 30.84314244 102.87021777 40 103 C40 103.33 40 103.66 40 104 C32.76961991 104.72416816 25.57335773 105.18657236 18.3125 105.4375 C10.0555495 105.75142413 1.8533785 106.31374845 -6.375 107.0625 C-13.5453293 107.70062389 -20.67414725 108.20556954 -27.875 108.25 C-28.5767334 108.259104 -29.2784668 108.26820801 -30.00146484 108.27758789 C-34.7518842 108.2481158 -34.7518842 108.2481158 -37 106 C-37.25447559 104.16931248 -37.25447559 104.16931248 -37.26069641 101.90736389 C-37.26778122 101.05070633 -37.27486603 100.19404877 -37.28216553 99.31143188 C-37.27968811 98.36956024 -37.27721069 97.4276886 -37.2746582 96.45727539 C-37.27976913 95.46693802 -37.28488007 94.47660065 -37.29014587 93.45625305 C-37.30408982 90.1699933 -37.30308149 86.88394214 -37.30078125 83.59765625 C-37.30466555 81.32083558 -37.30899967 79.04401564 -37.31376648 76.76719666 C-37.32123904 71.98971205 -37.32092992 67.21230133 -37.31567383 62.43481445 C-37.30987803 56.30316417 -37.32680805 50.17181583 -37.3500185 44.04021549 C-37.36472835 39.33656537 -37.36563129 34.63298843 -37.36250877 29.92931938 C-37.36302338 27.66822143 -37.368287 25.40711953 -37.37832069 23.14604378 C-37.39061438 19.98786756 -37.38393579 16.83028537 -37.37231445 13.67211914 C-37.37995819 12.73227173 -37.38760193 11.79242432 -37.39547729 10.82409668 C-37.38846298 9.96461929 -37.38144867 9.10514191 -37.3742218 8.21961975 C-37.37438954 7.47279969 -37.37455729 6.72597963 -37.37473011 5.95652866 C-36.89210222 3.43664762 -36.01111473 2.5499878 -34 1 C-31.3996582 0.56762695 -31.3996582 0.56762695 -28.30078125 0.48828125 C-27.17349609 0.45283203 -26.04621094 0.41738281 -24.88476562 0.38085938 C-23.70591797 0.35830078 -22.52707031 0.33574219 -21.3125 0.3125 C-20.15298828 0.27833984 -18.99347656 0.24417969 -17.79882812 0.20898438 C-11.86484803 0.04368305 -5.93604813 -0.03659709 0 0 Z " fill="#C7C7C7" transform="translate(201,151)"/>
<path d="M0 0 C0.99 0.33 1.98 0.66 3 1 C3 34.33 3 67.66 3 102 C1.68 101.67 0.36 101.34 -1 101 C-0.01 100.505 -0.01 100.505 1 100 C0.67 67 0.34 34 0 0 Z " fill="#3D3D3D" transform="translate(156,150)"/>
<path d="M0 0 C3.85865969 1.45936488 5.00320762 3.26600121 6.75 6.9375 C7.17796875 7.81277344 7.6059375 8.68804687 8.046875 9.58984375 C9 12 9 12 9 15 C5.7 14.34 2.4 13.68 -1 13 C0.53604696 16.14191424 2.05731159 19.08596738 4 22 C-2.75 20.25 -2.75 20.25 -5 18 C-5.2734375 16.08203125 -5.2734375 16.08203125 -5.375 13.8125 C-5.79097318 8.96209572 -7.33800407 6.03592932 -10 2 C-9.04287109 1.90912109 -9.04287109 1.90912109 -8.06640625 1.81640625 C-6.82697266 1.69072266 -6.82697266 1.69072266 -5.5625 1.5625 C-4.73878906 1.48128906 -3.91507813 1.40007812 -3.06640625 1.31640625 C-1.01337975 1.21069185 -1.01337975 1.21069185 0 0 Z " fill="#F2F2F2" transform="translate(180,271)"/>
<path d="M0 0 C0.53625 0.37125 1.0725 0.7425 1.625 1.125 C-0.08600614 7.11352148 -4.38038168 9.79525445 -9.375 13.125 C-9.375 14.445 -9.375 15.765 -9.375 17.125 C-11.73464273 16.71816505 -13.23434088 16.22685661 -15.1875 14.8125 C-16.375 13.125 -16.375 13.125 -16.375 11.1875 C-14.99535589 8.34198403 -12.84730723 7.05460564 -10.375 5.125 C-9.9109375 4.073125 -9.9109375 4.073125 -9.4375 3 C-8.375 1.125 -8.375 1.125 -5.5 -0.25 C-2.375 -0.875 -2.375 -0.875 0 0 Z " fill="#F5F5F5" transform="translate(275.375,109.875)"/>
<path d="M0 0 C6.97402718 0.4815444 13.42134699 1.66002725 20.125 3.625 C21.03008301 3.88716309 21.93516602 4.14932617 22.86767578 4.41943359 C31.23394391 6.92533641 39.18160029 10.11739334 47 14 C47.64743164 14.31678711 48.29486328 14.63357422 48.96191406 14.95996094 C53.77928493 17.47028384 53.77928493 17.47028384 54.9375 20.25 C54.958125 20.8275 54.97875 21.405 55 22 C54.00742187 21.49210937 53.01484375 20.98421875 51.9921875 20.4609375 C47.68059597 18.267959 43.34518174 16.12552219 39 14 C37.86433594 13.44183594 36.72867188 12.88367188 35.55859375 12.30859375 C23.94715593 6.95699244 11.50399029 4.41761143 -1 2 C-0.67 1.34 -0.34 0.68 0 0 Z " fill="#F3F3F3" transform="translate(226,55)"/>
<path d="M0 0 C2.31 0.33 4.62 0.66 7 1 C7 20.47 7 39.94 7 60 C5.02 60.495 5.02 60.495 3 61 C3 60.34 3 59.68 3 59 C3.66 59 4.32 59 5 59 C4.95836549 51.40072376 4.8860726 43.80218194 4.79248047 36.20336914 C4.76425863 33.61847567 4.74305021 31.0334957 4.72900391 28.44848633 C4.70759223 24.73213377 4.66094764 21.01682253 4.609375 17.30078125 C4.60814636 16.14540359 4.60691772 14.99002594 4.60565186 13.79963684 C4.5442522 7.42964133 4.5442522 7.42964133 1.96191406 1.73120117 C1.31448242 1.15990479 0.66705078 0.5886084 0 0 Z " fill="#525252" transform="translate(241,174)"/>
<path d="M0 0 C3.36947918 0.38448414 5.25633491 1.78340881 7.75 4 C8.67039063 4.804375 8.67039063 4.804375 9.609375 5.625 C10.06828125 6.07875 10.5271875 6.5325 11 7 C11 7.33 11 7.66 11 8 C9.72125 7.95875 8.4425 7.9175 7.125 7.875 C4.98128508 7.75787127 4.98128508 7.75787127 3 8 C2.34 8.66 1.68 9.32 1 10 C-1.68839385 10.26991906 -4.29141936 10.08737357 -7 10 C-10.22265625 4.7265625 -10.22265625 4.7265625 -11 3 C-10.67 2.34 -10.34 1.68 -10 1 C-9.0925 1.391875 -8.185 1.78375 -7.25 2.1875 C-6.1775 2.455625 -5.105 2.72375 -4 3 C-1.86655232 1.6083124 -1.86655232 1.6083124 0 0 Z " fill="#F5F5F5" transform="translate(192,103)"/>
<path d="M0 0 C2.56695636 0.39491636 4.67123994 0.83561997 7 2 C8.70702735 2.06996014 10.41668003 2.08440154 12.125 2.0625 C13.03507812 2.05347656 13.94515625 2.04445312 14.8828125 2.03515625 C15.58148438 2.02355469 16.28015625 2.01195312 17 2 C16.34 3.98 15.68 5.96 15 8 C12.54137599 8.05383848 10.0839245 8.09359038 7.625 8.125 C6.57699219 8.15013672 6.57699219 8.15013672 5.5078125 8.17578125 C3.67102514 8.19344267 1.83398037 8.10303261 0 8 C-0.66 7.34 -1.32 6.68 -2 6 C-1.44444444 1.44444444 -1.44444444 1.44444444 0 0 Z " fill="#F4F4F4" transform="translate(289,230)"/>
<path d="M0 0 C4 0 8 0 12 0 C11.50704225 6.4084507 11.50704225 6.4084507 9.125 9.1875 C8.073125 10.0846875 8.073125 10.0846875 7 11 C5.98099021 12.31886195 4.97795875 13.65041693 4 15 C3.32779649 13.06441401 2.66241923 11.12645628 2 9.1875 C1.62875 8.10855469 1.2575 7.02960938 0.875 5.91796875 C0 3 0 3 0 0 Z " fill="#EFEFEF" transform="translate(201,71)"/>
<path d="M0 0 C3.85865969 1.45936488 5.00320762 3.26600121 6.75 6.9375 C7.17796875 7.81277344 7.6059375 8.68804687 8.046875 9.58984375 C9 12 9 12 9 15 C4.04032572 13.73124612 1.15309622 12.08047746 -2 8 C-2.4375 4.8125 -2.4375 4.8125 -2 2 C-1.34 1.34 -0.68 0.68 0 0 Z " fill="#F1F1F1" transform="translate(280,127)"/>
<path d="M0 0 C0.5775 0.28875 1.155 0.5775 1.75 0.875 C3.055239 4.79071701 2.07239848 5.91392997 0.3125 9.5625 C-0.16058594 10.55636719 -0.63367188 11.55023438 -1.12109375 12.57421875 C-1.49363281 13.33347656 -1.86617188 14.09273438 -2.25 14.875 C-8 14 -8 14 -10.25 12.875 C-10.25 12.215 -10.25 11.555 -10.25 10.875 C-8.6 10.875 -6.95 10.875 -5.25 10.875 C-5.25 9.225 -5.25 7.575 -5.25 5.875 C-5.91 5.545 -6.57 5.215 -7.25 4.875 C-7.25 4.215 -7.25 3.555 -7.25 2.875 C-4.74882592 0.99911944 -3.18007397 -0.17667078 0 0 Z " fill="#EBEBEB" transform="translate(285.25,255.125)"/>
<path d="M0 0 C0 0.33 0 0.66 0 1 C-7.23039577 1.72416973 -14.4266403 2.18637252 -21.6875 2.4375 C-31.13050617 2.79892117 -40.52108715 3.46843616 -49.93041992 4.33959961 C-55.31629435 4.82779696 -60.59172326 5.09577822 -66 5 C-66 4.67 -66 4.34 -66 4 C-65.09906616 3.91697632 -65.09906616 3.91697632 -64.17993164 3.83227539 C-61.47366869 3.58029218 -58.76810116 3.3214883 -56.0625 3.0625 C-55.11697266 2.97548828 -54.17144531 2.88847656 -53.19726562 2.79882812 C-51.84858398 2.66831055 -51.84858398 2.66831055 -50.47265625 2.53515625 C-49.64000244 2.456604 -48.80734863 2.37805176 -47.94946289 2.29711914 C-45.999388 2.19688602 -45.999388 2.19688602 -45 1 C-43.0440013 0.84074016 -41.08249189 0.74849348 -39.12109375 0.68359375 C-37.89608154 0.64161865 -36.67106934 0.59964355 -35.40893555 0.55639648 C-34.09836182 0.51716064 -32.78778809 0.4779248 -31.4375 0.4375 C-29.46293823 0.37381226 -29.46293823 0.37381226 -27.44848633 0.30883789 C-18.29527981 0.02866645 -9.15685756 -0.12978223 0 0 Z " fill="#A8A8A8" transform="translate(241,254)"/>
<path d="M0 0 C0.495 0.309375 0.99 0.61875 1.5 0.9375 C4.97986781 2.41644382 8.24028509 2.62402851 12 3 C12.3403125 4.5778125 12.3403125 4.5778125 12.6875 6.1875 C13.80943237 10.18287066 15.91724869 12.22552383 19 15 C19.99 16.485 19.99 16.485 21 18 C12.76237624 15.99339934 12.76237624 15.99339934 9.9375 12.3125 C9.298125 11.219375 8.65875 10.12625 8 9 C5.93183011 6.80733833 3.7856385 4.72164272 1.609375 2.63671875 C0 1 0 1 0 0 Z " fill="#EEEEEE" transform="translate(125,272)"/>
<path d="M0 0 C1.18432617 0.00483398 1.18432617 0.00483398 2.39257812 0.00976562 C3.59237305 0.02233398 3.59237305 0.02233398 4.81640625 0.03515625 C5.64333984 0.03966797 6.47027344 0.04417969 7.32226562 0.04882812 C9.34117771 0.06049814 11.36005199 0.07842907 13.37890625 0.09765625 C13.37890625 0.42765625 13.37890625 0.75765625 13.37890625 1.09765625 C4.77466113 2.76710737 -3.61701729 3.49193706 -12.37109375 3.72265625 C-13.59086914 3.76060303 -14.81064453 3.7985498 -16.06738281 3.83764648 C-24.92044928 4.09675203 -33.7648411 4.22142376 -42.62109375 4.09765625 C-42.62109375 3.76765625 -42.62109375 3.43765625 -42.62109375 3.09765625 C-41.26745728 3.01463257 -41.26745728 3.01463257 -39.88647461 2.92993164 C-36.51116513 2.72156314 -33.1360329 2.51066436 -29.76098633 2.2980957 C-28.30531954 2.20692491 -26.84959076 2.11673811 -25.39379883 2.02758789 C-23.29100409 1.89863953 -21.18846408 1.76605375 -19.0859375 1.6328125 C-17.82386475 1.55426025 -16.56179199 1.47570801 -15.26147461 1.39477539 C-12.81480657 1.19508422 -10.37331003 0.91873878 -7.94335938 0.5703125 C-5.22937701 0.18419626 -2.73104311 -0.01993462 0 0 Z " fill="#666666" transform="translate(251.62109375,139.90234375)"/>
<path d="M0 0 C0.86625 0.4640625 0.86625 0.4640625 1.75 0.9375 C3.84294184 1.92583364 5.74535275 2.5168613 8 3 C7.67 5.64 7.34 8.28 7 11 C4.03 10.01 1.06 9.02 -2 8 C-1.34 5.36 -0.68 2.72 0 0 Z " fill="#F2F2F2" transform="translate(168,109)"/>
<path d="M0 0 C0.74362793 0.01047363 1.48725586 0.02094727 2.25341797 0.03173828 C3.46191406 0.04140625 3.46191406 0.04140625 4.69482422 0.05126953 C5.95746094 0.07640625 5.95746094 0.07640625 7.24560547 0.10205078 C8.51984375 0.11558594 8.51984375 0.11558594 9.81982422 0.12939453 C11.9202043 0.15299431 14.02043991 0.18886595 16.12060547 0.22705078 C15.80810547 2.16455078 15.80810547 2.16455078 15.12060547 4.22705078 C14.13060547 4.55705078 13.14060547 4.88705078 12.12060547 5.22705078 C11.46060547 5.88705078 10.80060547 6.54705078 10.12060547 7.22705078 C10.12060547 6.56705078 10.12060547 5.90705078 10.12060547 5.22705078 C7.15060547 4.73205078 7.15060547 4.73205078 4.12060547 4.22705078 C4.45060547 3.56705078 4.78060547 2.90705078 5.12060547 2.22705078 C2.15060547 2.22705078 -0.81939453 2.22705078 -3.87939453 2.22705078 C-1.87939453 0.22705078 -1.87939453 0.22705078 0 0 Z " fill="#161616" transform="translate(235.87939453125,169.77294921875)"/>
<path d="M0 0 C0 0.33 0 0.66 0 1 C-8.91 1.99 -17.82 2.98 -27 4 C-27 4.99 -27 5.98 -27 7 C-28.5 5.6875 -28.5 5.6875 -30 4 C-30 3.01 -30 2.02 -30 1 C-19.96557967 0.12198822 -10.06394247 -0.1176305 0 0 Z " fill="#BFBFBF" transform="translate(173,125)"/>
<path d="M0 0 C0 9.09521432 -12.944343 19.62152305 -19 26 C-19 22.02807311 -17.73023032 21.3711322 -15 18.5625 C-10.54262014 13.7882448 -7.10750555 8.88766031 -3.62890625 3.37109375 C-2 1 -2 1 0 0 Z " fill="#F0F0F0" transform="translate(325,260)"/>
<path d="M0 0 C3.68546592 1.61950403 6.57332194 3.9054113 9.6875 6.4375 C10.66074219 7.21996094 11.63398438 8.00242188 12.63671875 8.80859375 C15 11 15 11 16 14 C15.01 14.33 14.02 14.66 13 15 C12.56429688 14.48050781 12.12859375 13.96101562 11.6796875 13.42578125 C8.81130547 10.06691831 6.02829027 6.87943475 2.5625 4.125 C1.716875 3.42375 0.87125 2.7225 0 2 C0 1.34 0 0.68 0 0 Z " fill="#E5E5E5" transform="translate(283,168)"/>
<path d="M0 0 C1.98 0.99 1.98 0.99 4 2 C3.67 2.66 3.34 3.32 3 4 C2.67 4 2.34 4 2 4 C1.67 15.22 1.34 26.44 1 38 C0.67 38 0.34 38 0 38 C0 25.46 0 12.92 0 0 Z " fill="#7D7D7D" transform="translate(204,192)"/>
<path d="M0 0 C1.32 0 2.64 0 4 0 C3.67 0.99 3.34 1.98 3 3 C7.95 3.33 12.9 3.66 18 4 C18 4.33 18 4.66 18 5 C11.4 5 4.8 5 -2 5 C-1 1 -1 1 0 0 Z " fill="#464646" transform="translate(189,232)"/>
<path d="M0 0 C4.22536306 1.9862017 8.02835984 4.34127542 11 8 C10.9375 11.375 10.9375 11.375 10 14 C9.58105469 13.42507812 9.16210938 12.85015625 8.73046875 12.2578125 C6.45543821 9.28948822 3.94354973 6.56745623 1.42578125 3.8046875 C0 2 0 2 0 0 Z " fill="#EDEDED" transform="translate(230,215)"/>
<path d="M0 0 C2.97 0 5.94 0 9 0 C8.67 1.65 8.34 3.3 8 5 C4.62537285 4.45276317 2.91765 3.9451 0 2 C0 1.34 0 0.68 0 0 Z " fill="#030303" transform="translate(201,71)"/>
<path d="M0 0 C5.445 1.485 5.445 1.485 11 3 C11 4.65 11 6.3 11 8 C9.72320272 7.42983875 8.45375712 6.84320153 7.1875 6.25 C6.12595703 5.76273438 6.12595703 5.76273438 5.04296875 5.265625 C3 4 3 4 0 0 Z " fill="#DDDDDD" transform="translate(312,204)"/>
<path d="M0 0 C5.445 1.485 5.445 1.485 11 3 C11 4.65 11 6.3 11 8 C9.72320272 7.42983875 8.45375712 6.84320153 7.1875 6.25 C6.12595703 5.76273438 6.12595703 5.76273438 5.04296875 5.265625 C3 4 3 4 0 0 Z " fill="#E0E0E0" transform="translate(115,144)"/>
<path d="M0 0 C1.65 0 3.3 0 5 0 C5.66 1.32 6.32 2.64 7 4 C5.02 4 3.04 4 1 4 C0.67 2.68 0.34 1.36 0 0 Z " fill="#E8E8E8" transform="translate(155,112)"/>
<path d="M0 0 C3.43595166 1.52708963 6.11912454 3.59927045 9 6 C8.67 6.99 8.34 7.98 8 9 C6.66079162 7.88200014 5.32877444 6.75538103 4 5.625 C2.88625 4.68527344 2.88625 4.68527344 1.75 3.7265625 C1.1725 3.15679687 0.595 2.58703125 0 2 C0 1.34 0 0.68 0 0 Z " fill="#E4E4E4" transform="translate(265,271)"/>
<path d="M0 0 C-1 2 -1 2 -3.3125 3.1875 C-6.11989571 4.03624754 -7.301935 3.99928333 -10 3 C-6.1865669 0.45771127 -4.5252563 -0.11908569 0 0 Z " fill="#BFBFBF" transform="translate(233,282)"/>
</svg>
