<?xml version="1.0" encoding="UTF-8"?>
<svg version="1.1" xmlns="http://www.w3.org/2000/svg" width="1024" height="1024">
<path d="M0 0 C0.73810913 0.00093658 1.47621826 0.00187317 2.23669434 0.00283813 C91.45090799 0.2458797 177.80667149 33.39119793 266.75 111.1875 C268.13058594 112.50427734 268.13058594 112.50427734 269.5390625 113.84765625 C273.5395347 117.74210887 273.5395347 117.74210887 274.75 119.1875 C274.75 119.8475 274.75 120.5075 274.75 121.1875 C275.41 121.1875 276.07 121.1875 276.75 121.1875 C279.33248339 123.60761168 281.49739874 126.46379232 283.75 129.1875 C285.02037109 130.7034375 285.02037109 130.7034375 286.31640625 132.25 C295.50983988 143.38268604 303.66265316 155.23807846 311.75 167.1875 C312.21035645 167.86699707 312.67071289 168.54649414 313.14501953 169.24658203 C355.15087093 231.71813448 372.87644307 306.4336447 370.75 381.1875 C370.73066406 381.97979004 370.71132813 382.77208008 370.69140625 383.58837891 C369.51313686 426.72516775 360.09197192 469.68739238 342.75 509.1875 C342.29254395 510.24098633 341.83508789 511.29447266 341.36376953 512.37988281 C324.29132026 551.42439261 301.40021716 586.51919872 272.734375 617.98046875 C271.00022594 619.90919753 269.33747119 621.8746317 267.6875 623.875 C265.0314226 627.00407748 262.06676738 629.59517074 258.94140625 632.24609375 C256.49059942 634.41730764 254.22342971 636.71860694 251.9375 639.0625 C246.84734809 644.19906667 241.40468344 648.69162329 235.75 653.1875 C234.65065882 654.09823036 233.55307532 655.01108555 232.45703125 655.92578125 C216.57632947 669.07467548 199.19199739 679.93393051 181.15478516 689.86181641 C178.97367301 691.06419599 176.80461235 692.28574121 174.63671875 693.51171875 C135.12164262 715.51838074 90.38447091 728.43279848 45.75 734.1875 C44.59298584 734.36474609 43.43597168 734.54199219 42.24389648 734.72460938 C36.19997564 735.47135671 30.1195703 735.35009173 24.0390625 735.35546875 C22.70356208 735.35869255 21.36806199 735.36205741 20.03256226 735.36555481 C17.23703191 735.37151951 14.44153234 735.37339778 11.64599609 735.37280273 C8.81650335 735.37272192 5.98717404 735.37959524 3.15771484 735.39331055 C-25.21710161 735.52910996 -25.21710161 735.52910996 -38.64306641 733.6184082 C-41.4075642 733.28814297 -43.89430046 733.15404672 -46.65771484 733.18823242 C-50.25 733.1875 -50.25 733.1875 -51.25 732.1875 C-53.96027491 731.90101121 -56.67089608 731.73914579 -59.390625 731.56640625 C-62.25 731.1875 -62.25 731.1875 -64.5703125 730.24267578 C-67.3744362 729.13850098 -70.03019261 728.51300331 -72.984375 727.92578125 C-74.10328125 727.69769775 -75.2221875 727.46961426 -76.375 727.23461914 C-77.57125 726.99219482 -78.7675 726.74977051 -80 726.5 C-124.62732598 717.16888445 -166.31928516 700.73319148 -204.25 675.1875 C-204.97622559 674.69926758 -205.70245117 674.21103516 -206.45068359 673.70800781 C-216.54484735 666.86733485 -226.08756558 659.46484031 -235.45898438 651.66992188 C-237.12351756 650.29218939 -238.79980345 648.93123664 -240.484375 647.578125 C-244.35790533 644.45836273 -248.16243378 641.38873633 -251.625 637.8125 C-254.09437375 635.34312625 -256.2647357 633.93497178 -259.25 632.1875 C-260.50078959 631.25756513 -261.72876108 630.29647342 -262.9375 629.3125 C-263.51886719 628.84070313 -264.10023438 628.36890625 -264.69921875 627.8828125 C-266.25 626.1875 -266.25 626.1875 -267.203125 623.75 C-268.43794378 620.7274585 -269.92773083 619.27482554 -272.3125 617.0625 C-277.43085264 612.10715222 -281.81258581 606.75029371 -286.25 601.1875 C-287.17385093 600.07521678 -288.09971872 598.9646064 -289.02734375 597.85546875 C-319.66399869 560.91711544 -343.4490308 514.32125697 -356.25 468.1875 C-356.5279541 467.19443848 -356.8059082 466.20137695 -357.09228516 465.17822266 C-360.920461 451.28204867 -363.93000764 437.36103407 -366.125 423.125 C-366.280186 422.11924423 -366.280186 422.11924423 -366.43850708 421.09317017 C-380.32939144 329.89344279 -357.60702801 232.50365128 -300.60449219 152.93701172 C-283.58167715 129.92131616 -264.13875467 107.70875395 -242.25 89.1875 C-240.78240234 87.88619141 -240.78240234 87.88619141 -239.28515625 86.55859375 C-223.85206578 72.9315515 -206.95694186 61.6407153 -189.25 51.1875 C-188.04053711 50.47231201 -188.04053711 50.47231201 -186.80664062 49.74267578 C-164.52841077 36.71054992 -140.79250408 27.03608058 -116.25 19.1875 C-115.18910156 18.84235352 -114.12820313 18.49720703 -113.03515625 18.14160156 C-86.16395974 9.4695336 -58.39364489 3.62639381 -30.25 1.1875 C-29.18104492 1.0939624 -28.11208984 1.0004248 -27.01074219 0.90405273 C-18.00301583 0.18529689 -9.03012456 -0.01498446 0 0 Z M-253.25 139.1875 C-255.7146607 141.96385081 -258.03088346 144.84604938 -260.32421875 147.765625 C-262.15291356 150.06540346 -264.07045398 152.21661205 -266.0625 154.375 C-318.34199654 212.68274862 -342.5404913 293.22659315 -342.4375 370.3125 C-342.43609512 371.67560806 -342.43609512 371.67560806 -342.43466187 373.06625366 C-342.40533298 386.20053585 -342.26476504 399.18222792 -340.25 412.1875 C-340.08870605 413.2408252 -339.92741211 414.29415039 -339.76123047 415.37939453 C-330.27375786 475.60237753 -305.23232746 533.99836676 -266.25 581.1875 C-265.43917969 582.19941406 -264.62835938 583.21132813 -263.79296875 584.25390625 C-257.23200635 592.28449535 -249.99326101 599.65385945 -242.6875 607 C-241.96332382 607.73207672 -241.96332382 607.73207672 -241.22451782 608.47894287 C-234.57996936 615.17946769 -227.63769722 621.31526454 -220.25 627.1875 C-218.92144629 628.28409633 -217.59560586 629.38399447 -216.2734375 630.48828125 C-207.58702175 637.68195673 -198.67079474 644.41266592 -189.34716797 650.75976562 C-187.98809595 651.68501047 -186.63269393 652.61567856 -185.28173828 653.55273438 C-145.7245197 680.91622312 -99.52165058 695.65989312 -52.4375 703.4375 C-51.08192993 703.66421387 -51.08192993 703.66421387 -49.69897461 703.89550781 C-31.43747843 706.73629187 -13.14337792 707.56750369 5.3125 707.5 C6.877155 707.49726578 6.877155 707.49726578 8.47341919 707.49447632 C74.00683124 707.30253091 138.7740954 687.90729774 192.75 650.1875 C193.30929199 649.79949219 193.86858398 649.41148437 194.44482422 649.01171875 C201.56742122 644.0602858 208.46924789 638.94243573 215.12890625 633.375 C216.82727173 631.95758619 218.54266278 630.56023054 220.27734375 629.1875 C234.52749672 617.87309283 247.90284186 604.99275372 259.75 591.1875 C260.26900879 590.59630371 260.78801758 590.00510742 261.32275391 589.39599609 C277.5086857 570.91171329 290.78896054 549.92860139 302.53613281 528.40087891 C303.61441509 526.43472703 304.71817661 524.48682989 305.8359375 522.54296875 C337.07355337 466.76151185 348.02500053 400.11161372 342.5625 336.8125 C342.46405289 335.65462479 342.46405289 335.65462479 342.36361694 334.47335815 C336.57969341 267.74938072 310.58305998 206.43419676 267.75 155.1875 C266.90620787 154.15498235 266.0624594 153.12242901 265.21875 152.08984375 C253.93985278 138.45340565 241.42473242 125.15483133 227.41796875 114.296875 C224.72942875 112.17123576 222.18078133 109.93765579 219.62182617 107.65991211 C137.36152053 34.71249878 17.87168262 12.52237135 -253.25 139.1875 Z " fill="#5B5B5B" transform="translate(528.25,145.8125)"/>
<path d="M0 0 C1.66194738 0.67834587 3.32598903 1.35199575 5 2 C5 2.66 5 3.32 5 4 C6.175625 4.4640625 6.175625 4.4640625 7.375 4.9375 C10 6 10 6 12 7 C12 7.66 12 8.32 12 9 C12.5775 9.226875 13.155 9.45375 13.75 9.6875 C19.5243375 13.05586354 22.71942089 19.91845571 25 26 C25.98595158 31.69660913 25.21716272 36.1187876 22 41 C19.3125 43.875 19.3125 43.875 17 46 C23.56720628 49.89654239 30.11588609 53.69032985 37 57 C37 57.66 37 58.32 37 59 C37.71542969 59.11214844 38.43085938 59.22429687 39.16796875 59.33984375 C42.19115998 60.04456005 44.56322688 61.13287798 47.3125 62.5625 C48.63701172 63.24505859 48.63701172 63.24505859 49.98828125 63.94140625 C50.65214844 64.29074219 51.31601562 64.64007812 52 65 C52 65.66 52 66.32 52 67 C53.21816406 66.6390625 54.43632812 66.278125 55.69140625 65.90625 C57.31496371 65.43701374 58.93866962 64.96829091 60.5625 64.5 C61.76229492 64.14228516 61.76229492 64.14228516 62.98632812 63.77734375 C67.83294329 62.39259656 71.960647 61.72943071 77 62 C77 61.34 77 60.68 77 60 C77.66386719 59.93941406 78.32773437 59.87882813 79.01171875 59.81640625 C80.33623047 59.69072266 80.33623047 59.69072266 81.6875 59.5625 C82.55761719 59.48128906 83.42773438 59.40007812 84.32421875 59.31640625 C86.9563757 59.04719707 86.9563757 59.04719707 89.33666992 58.5 C92.02065474 57.99612238 94.56191782 57.79464179 97.2890625 57.68359375 C98.30492432 57.64161865 99.32078613 57.59964355 100.36743164 57.55639648 C101.4424292 57.51716064 102.51742676 57.4779248 103.625 57.4375 C104.7277124 57.3950415 105.8304248 57.35258301 106.96655273 57.30883789 C116.64749192 56.96141737 126.31437498 56.89610176 136 57 C136 57.66 136 58.32 136 59 C137.918125 58.690625 137.918125 58.690625 139.875 58.375 C145.11667769 57.52956811 149.8956776 58.87237377 155 60 C156.9321917 60.4067252 158.86448577 60.81296435 160.796875 61.21875 C162.78144037 61.64494783 164.76581423 62.07203836 166.75 62.5 C168.25240234 62.81904297 168.25240234 62.81904297 169.78515625 63.14453125 C174.63671938 64.19195481 179.31597977 65.3342542 184 67 C185.45338907 67.39372747 186.91126202 67.77168394 188.375 68.125 C189.57125 68.41375 190.7675 68.7025 192 69 C192 69.66 192 70.32 192 71 C195.3 71.66 198.6 72.32 202 73 C202 73.66 202 74.32 202 75 C209.84675683 74.60766216 215.89940191 72.25914845 223 69 C224.68802734 68.22849609 224.68802734 68.22849609 226.41015625 67.44140625 C228.63006153 66.41938327 230.84763242 65.39226998 233.0625 64.359375 C236.34947342 62.8382756 239.65936523 61.39840525 243 60 C241.05477383 56.52638185 239.19297529 53.25913824 236.8125 50.0625 C234.58692583 46.30204709 233.81248792 43.3553943 234 39 C234.79699876 36.13080448 235.48558069 34.46850347 237 32 C237.46921875 31.21496094 237.9384375 30.42992187 238.421875 29.62109375 C244.14006215 21.33478273 251.93405484 17.70109358 261 14 C262.26517456 13.47998413 262.26517456 13.47998413 263.5559082 12.94946289 C270.17049892 10.37748313 276.52401844 8.9974565 283.5625 8.1875 C284.60535156 8.0635083 285.64820313 7.9395166 286.72265625 7.81176758 C295.95712869 6.81801499 304.78777055 6.97306295 314 8 C314.70092773 8.07412109 315.40185547 8.14824219 316.12402344 8.22460938 C324.79850905 9.160446 333.41098769 10.47089554 342 12 C342.33 12.99 342.66 13.98 343 15 C344.65 15 346.3 15 348 15 C348 15.66 348 16.32 348 17 C348.59425781 17.06316406 349.18851563 17.12632812 349.80078125 17.19140625 C357.27132564 18.29514142 363.1158158 21.25685532 369 26 C369 26.66 369 27.32 369 28 C369.66 28 370.32 28 371 28 C376.01354031 33.10813541 378.97462482 37.93630429 380 45 C380.165 46.11375 380.33 47.2275 380.5 48.375 C379.57678636 55.0682989 375.85627696 60.85860301 370.625 65.125 C360.69517687 71.80195004 349.79369582 76.85569167 338 79 C340.31 79.66 342.62 80.32 345 81 C345 81.66 345 82.32 345 83 C345.59167969 83.19335938 346.18335938 83.38671875 346.79296875 83.5859375 C347.58316406 83.84632813 348.37335938 84.10671875 349.1875 84.375 C350.01121094 84.64570312 350.83492187 84.91640625 351.68359375 85.1953125 C354 86 354 86 356.75 87.25 C360.16434113 88.38811371 362.53934563 87.5781067 365.83081055 86.27539062 C372.148011 83.86994747 377.85015971 83.5777495 384.5625 83.6875 C385.55185547 83.68427734 386.54121094 83.68105469 387.56054688 83.67773438 C396.16726136 83.74055711 403.18273248 85.41708572 411 89 C411 89.66 411 90.32 411 91 C411.99 91 412.98 91 414 91 C414 91.66 414 92.32 414 93 C414.66 93 415.32 93 416 93 C416 93.66 416 94.32 416 95 C416.9075 95.20625 417.815 95.4125 418.75 95.625 C422.78598296 97.33253125 423.94201798 99.20064859 426 103 C426 103.66 426 104.32 426 105 C426.66 105 427.32 105 428 105 C432.47896455 117.93700921 433.58179671 127.24160751 428 140 C427.34 140 426.68 140 426 140 C425.773125 140.556875 425.54625 141.11375 425.3125 141.6875 C423.04399551 145.68438886 420.38100054 148.53966649 416 150 C416 150.66 416 151.32 416 152 C400.04182891 160.59024954 384.71167691 162.36940047 367 158 C367 157.34 367 156.68 367 156 C365.35 155.67 363.7 155.34 362 155 C362 154.34 362 153.68 362 153 C361.01 153 360.02 153 359 153 C359 152.34 359 151.68 359 151 C357.88625 150.6596875 357.88625 150.6596875 356.75 150.3125 C353.42302592 148.72462601 352.18783693 146.93990588 350 144 C348.7625 142.88625 348.7625 142.88625 347.5 141.75 C340.93218713 134.52540584 340.2452831 126.46792753 340 117 C340.14695312 115.71996094 340.14695312 115.71996094 340.296875 114.4140625 C339.84241569 110.71859076 337.78142329 109.49072144 335 107.125 C334.49670166 106.68937744 333.99340332 106.25375488 333.47485352 105.80493164 C331.99309659 104.52511453 330.49677483 103.26222047 329 102 C327.64347882 100.81519036 326.28899653 99.62803801 324.9375 98.4375 C324.31101562 97.89480469 323.68453125 97.35210938 323.0390625 96.79296875 C319.77440897 93.92232513 316.58723526 90.96591045 313.39453125 88.015625 C311.03623975 85.91528077 311.03623975 85.91528077 308.19921875 84.359375 C307.47347656 83.91078125 306.74773437 83.4621875 306 83 C306 82.34 306 81.68 306 81 C305.44763672 80.96036133 304.89527344 80.92072266 304.32617188 80.87988281 C272.49305867 78.49305867 272.49305867 78.49305867 268 74 C263.42935116 73.64993585 260.38868747 74.41653371 256.25 76.3125 C252.50660352 77.96033298 248.88005663 79.41218134 244.9375 80.5 C239.35327017 82.07084839 234.21692877 84.49071677 229 87 C229.3681274 88.97295555 229.3681274 88.97295555 230 91 C231.79932579 92.06716704 231.79932579 92.06716704 234 93 C241.13358228 97.6271885 248.49922709 108.02652886 250.59375 116.36328125 C251.6084962 122.94937435 251.6744549 130.55978885 250 137 C247.875 139.4375 247.875 139.4375 245 142 C243.9708753 143.24318263 242.95080927 144.49389291 241.9375 145.75 C237.35481254 151.08628495 231.70910779 154.95018955 226 159 C227.05316406 159.556875 228.10632813 160.11375 229.19140625 160.6875 C229.88169922 161.05302979 230.57199219 161.41855957 231.28320312 161.79516602 C232.81581394 162.60530251 234.34969268 163.41304444 235.88476562 164.21850586 C239.67705092 166.21351992 243.44213654 168.23457329 247.15234375 170.37890625 C256.47965923 175.75728228 256.47965923 175.75728228 267 176 C269.56197166 175.66173101 272.12422636 175.32805324 274.6875 175 C275.38399658 174.90904053 276.08049316 174.81808105 276.7980957 174.72436523 C293.51671636 172.60820645 310.75855876 174.62584135 327 179 C327 179.66 327 180.32 327 181 C329.64 181.33 332.28 181.66 335 182 C335 182.66 335 183.32 335 184 C335.60585938 184.12375 336.21171875 184.2475 336.8359375 184.375 C345.266385 186.45018708 352.45659177 190.97729416 357.5 198.1875 C360.27837489 203.39695292 361.52760046 206.98535475 361 213 C359.2339577 217.74042933 357.05403966 220.06082125 353 223 C352.59394531 223.45890625 352.18789063 223.9178125 351.76953125 224.390625 C349.2238695 226.70588469 346.25466037 228.06906589 343.1875 229.5625 C342.28161133 230.01786133 342.28161133 230.01786133 341.35742188 230.48242188 C336.07782693 233.09096233 331.08297956 235.10298501 325.1875 235.5625 C322.02696754 235.82190719 318.88597858 236.13386844 315.73828125 236.515625 C290.01006395 239.39503311 259.30618105 235.85281328 238 220 C237.67 219.01 237.34 218.02 237 217 C236.38125 216.690625 235.7625 216.38125 235.125 216.0625 C232.52780505 214.76390252 231.51703702 213.45615517 230 211 C228.34140528 205.65306178 227.60141019 198.99697816 230.01171875 193.83203125 C232.07108403 190.93160387 234.47069872 188.49221475 237 186 C235.3970947 185.18501438 233.79262722 184.37310073 232.1875 183.5625 C230.84751953 182.88380859 230.84751953 182.88380859 229.48046875 182.19140625 C226.96000522 180.9168395 226.96000522 180.9168395 224 180 C224 179.34 224 178.68 224 178 C221.69 177.34 219.38 176.68 217 176 C217 175.34 217 174.68 217 174 C216.319375 173.9175 215.63875 173.835 214.9375 173.75 C212 173 212 173 208.625 170.875 C203.62814196 167.90273099 199.53746545 169.62803255 194.125 170.9375 C188.815709 172.16837369 183.43860916 172.71813582 178.02783203 173.30249023 C175.1599515 173.61470067 172.32989911 173.93133555 169.50390625 174.51953125 C137.38555282 180.68264743 99.36740744 173.84550266 69 163 C69 162.34 69 161.68 69 161 C67.989375 160.855625 66.97875 160.71125 65.9375 160.5625 C63.51087472 160.21583925 61.09083663 159.81000954 58.69140625 159.30859375 C54.33490738 158.94439966 51.99768502 159.78169679 48 161.5 C47.36570068 161.76828613 46.73140137 162.03657227 46.07788086 162.31298828 C38.96975835 165.35595955 31.97133109 168.65771644 25 172 C25.48210937 172.51949219 25.96421875 173.03898438 26.4609375 173.57421875 C31.91408218 179.59493563 34.43963939 183.61246802 34.26171875 191.8515625 C33.90240048 194.80119011 32.78940155 196.66001335 31 199 C30.34 199.99 29.68 200.98 29 202 C26.9375 203.375 26.9375 203.375 24 205 C22.96939453 205.62648438 22.96939453 205.62648438 21.91796875 206.265625 C17.18870729 209.06934389 13.55156528 210.48596618 8 211 C6.96875 211.309375 5.9375 211.61875 4.875 211.9375 C-6.13887719 215.16107381 -16.69627692 215.11231357 -28 214 C-28.71269043 213.93796387 -29.42538086 213.87592773 -30.15966797 213.81201172 C-42.46709322 212.73425063 -53.7043411 210.177177 -65 205 C-65.825 204.71125 -66.65 204.4225 -67.5 204.125 C-70.40734255 202.81669585 -72.75254308 201.11743014 -75.3046875 199.22265625 C-77.10622437 197.87809063 -77.10622437 197.87809063 -79.625 196.5 C-86.44920263 192.18997729 -90.35760157 185.84525447 -92.125 178.0625 C-92.5130255 173.48740866 -90.39695686 170.52636174 -87.72265625 166.96875 C-77.73111413 155.54984472 -59.38648679 153.34541863 -45.1171875 152.2578125 C-29.77675786 151.39874844 -14.67647935 153.61196699 0 158 C0 158.66 0 159.32 0 160 C4.55047206 160.40151224 6.99546554 159.07642528 11 157 C12.74330829 156.35657076 14.49414799 155.73336562 16.25 155.125 C21.74669074 153.17528705 26.84133709 150.7034704 32 148 C33.33196442 147.3306025 34.66484685 146.66301455 36 146 C35.32453125 145.48050781 34.6490625 144.96101562 33.953125 144.42578125 C33.06109375 143.72839844 32.1690625 143.03101563 31.25 142.3125 C30.36828125 141.62800781 29.4865625 140.94351563 28.578125 140.23828125 C26.01201863 138.01043435 24.06890751 135.68470653 22 133 C21.195625 132.278125 20.39125 131.55625 19.5625 130.8125 C13.62340084 124.29397654 10.6136588 116.33003846 10.71484375 107.5703125 C11.87162015 97.14347868 17.19951266 89.26384449 25.02734375 82.6796875 C27.49710842 80.57671957 29.74304544 78.32748439 32 76 C31.01 75.67 30.02 75.34 29 75 C29 74.34 29 73.68 29 73 C28.0925 72.896875 27.185 72.79375 26.25 72.6875 C22.92070026 71.98322506 21.56280941 71.12094572 19 69 C18.01 68.67 17.02 68.34 16 68 C16 67.34 16 66.68 16 66 C15.14148438 65.72414063 14.28296875 65.44828125 13.3984375 65.1640625 C10.07421963 64.02542236 6.86145373 62.74150269 3.625 61.375 C2.56539063 60.92898438 1.50578125 60.48296875 0.4140625 60.0234375 C-0.78089844 59.51683594 -0.78089844 59.51683594 -2 59 C-2 58.34 -2 57.68 -2 57 C-2.74378906 57.20496094 -3.48757813 57.40992188 -4.25390625 57.62109375 C-18.8239675 61.21630367 -34.09312623 61.82517851 -49 60.25 C-50.06589355 60.13942261 -50.06589355 60.13942261 -51.15332031 60.02661133 C-55.87064233 59.42137642 -59.67576459 57.91115761 -64 56 C-66.64194746 55.22209325 -69.31426006 54.60712129 -72 54 C-77.30048138 52.80180689 -82.05141657 51.26810074 -87 49 C-87 48.34 -87 47.68 -87 47 C-89.31 46.34 -91.62 45.68 -94 45 C-94 44.01 -94 43.02 -94 42 C-94.680625 41.835 -95.36125 41.67 -96.0625 41.5 C-102.15239494 38.39026641 -106.5473742 32.23550501 -109.33984375 26.0703125 C-110.74317485 21.66933332 -110.93789734 17.38781007 -109.234375 13.05078125 C-104.32539267 4.07046041 -97.8436275 -1.82862845 -88.3125 -5.1875 C-87.60697998 -5.44233154 -86.90145996 -5.69716309 -86.17456055 -5.9597168 C-58.90684 -15.51693016 -25.8844094 -12.3938062 0 0 Z M-80 14.5 C-82.73035826 17.90940442 -82.73035826 17.90940442 -84 22 C-82.94458084 25.7687027 -82.94458084 25.7687027 -81 29 C-80.01 29.33 -79.02 29.66 -78 30 C-77.690625 30.63035156 -77.38125 31.26070312 -77.0625 31.91015625 C-74.21153869 37.5177456 -65.58797184 39.27776185 -59.92871094 41.13305664 C-45.39152395 45.54013631 -27.40793462 46.56537986 -13 41 C-8.73543263 38.24593588 -5.80428951 35.20643427 -3 31 C-2.45624419 27.46558723 -2.32061065 25.07326845 -4.2734375 21.98828125 C-5.77292952 20.18523353 -7.21467477 18.52168912 -9 17 C-9.66 17 -10.32 17 -11 17 C-11 16.34 -11 15.68 -11 15 C-15.57500054 11.35019862 -20.1247628 9.7479332 -25.75 8.3125 C-26.57838379 8.09972412 -27.40676758 7.88694824 -28.26025391 7.66772461 C-45.57512052 3.49410321 -65.58036767 2.48363972 -80 14.5 Z M275 30 C274.17371094 30.43054688 273.34742188 30.86109375 272.49609375 31.3046875 C269.03395492 33.29897856 265.69970222 35.28190139 264 39 C263.48287451 43.07174885 263.48287451 43.07174885 264 47 C266.53453657 50.21954645 268.11297305 51.70432435 272 53 C272 53.66 272 54.32 272 55 C272.66 55 273.32 55 274 55 C274 55.66 274 56.32 274 57 C274.79664063 57.26554688 275.59328125 57.53109375 276.4140625 57.8046875 C286 61 286 61 289.00390625 62.05859375 C304.92649904 67.06165094 323.40993409 65.69406148 339 60 C344.52731954 56.9267805 349.1385567 53.24913108 351 47 C350.76446775 43.93808079 350.36902471 41.73804942 349 39 C348.01 39 347.02 39 346 39 C345.505 37.515 345.505 37.515 345 36 C340.06967479 31.90305879 335.5859973 29.87866862 329.4375 28.25 C328.70853516 28.04246094 327.97957031 27.83492187 327.22851562 27.62109375 C310.80856445 23.03946921 290.40479411 21.91082548 275 30 Z M49 91 C48.09876037 93.09647785 48.09876037 93.09647785 48 95 C47.09314453 95.12375 47.09314453 95.12375 46.16796875 95.25 C42.58580703 96.48923433 41.70718431 99.22773844 40.05078125 102.46875 C37.40535372 108.84137841 37.46964968 114.35914498 39.90625 120.7890625 C42.1944915 125.41457924 45.36392605 129.36392605 49 133 C49.99 133 50.98 133 52 133 C52.33 133.99 52.66 134.98 53 136 C53.99 136 54.98 136 56 136 C56 136.66 56 137.32 56 138 C70.06570383 146.31155226 84.16244967 152.09729077 100 156 C101.58167969 156.41958984 101.58167969 156.41958984 103.1953125 156.84765625 C119.99596859 160.95494195 137.73032067 161.68210906 154.90917969 160.16894531 C157.07695513 159.99378177 159.24169726 159.87597084 161.4140625 159.7734375 C162.13263428 159.73774658 162.85120605 159.70205566 163.59155273 159.6652832 C165.54409379 159.5695325 167.49665547 159.47420269 169.44921875 159.37890625 C173.16565226 158.98232314 176.43293104 158.09724356 180 157 C181.85307312 156.57849654 183.70722359 156.16169718 185.5625 155.75 C192.63608319 153.99503506 199.59684122 151.50757913 206 148 C206.33 147.01 206.66 146.02 207 145 C208.32 145 209.64 145 211 145 C211 144.34 211 143.68 211 143 C211.556875 142.79375 212.11375 142.5875 212.6875 142.375 C217.83949175 139.31165355 220.65028438 134.62492934 222.49609375 129.06640625 C224.13204662 122.35773129 222.97050392 116.13831068 220 110 C218.22642957 107.42714049 216.36724046 105.0507292 214 103 C213.34 103 212.68 103 212 103 C212 102.34 212 101.68 212 101 C210.08984039 99.4046006 210.08984039 99.4046006 207.6875 97.875 C206.88699219 97.33617187 206.08648438 96.79734375 205.26171875 96.2421875 C202.99181294 94.75930217 202.99181294 94.75930217 200 95 C200 94.34 200 93.68 200 93 C196.19572508 90.7986134 196.19572508 90.7986134 192 90 C192 89.34 192 88.68 192 88 C189.29189883 87.04100649 186.58352839 86.08278553 183.875 85.125 C183.11445312 84.85558594 182.35390625 84.58617187 181.5703125 84.30859375 C143.08459746 70.70588412 83.9816406 64.80955704 49 91 Z M369 105 C365.53603478 108.84885025 363.28947335 113.11842325 362.5 118.25 C363.31718172 124.37886289 365.4588094 129.60626726 370.01953125 133.90234375 C378.70302942 140.12222247 388.53857102 141.06167967 399 140 C402.28992994 139.06140234 405.07252027 137.75526038 408 136 C408.928125 135.46375 409.85625 134.9275 410.8125 134.375 C414.2217002 130.67358264 416.08187255 126.96193878 417 122 C416.55256986 116.88562492 415.89365293 111.74940984 412 108.15234375 C410.09588153 106.83358866 410.09588153 106.83358866 408 107 C407.505 105.515 407.505 105.515 407 104 C396.26963755 96.98399378 379.07868836 96.43311489 369 105 Z M-64.73828125 175.3828125 C-66.43165304 177.55326427 -66.2919613 178.73229612 -66 181.4375 C-65.48800785 184.86005621 -65.14459232 185.83934186 -62.75 188.5 C-60.07816171 189.95736634 -58.0089763 190.65611699 -55 191 C-55 191.66 -55 192.32 -55 193 C-46.63951691 196.95917108 -38.06683092 198.63193458 -29 200 C-27.89269531 200.18046875 -26.78539062 200.3609375 -25.64453125 200.546875 C-15.61289497 201.793041 -4.38717447 200.01307818 4.4375 194.8125 C7.42302531 191.53570392 8.18661749 189.51489673 8.32421875 185.140625 C8.12386638 182.74063804 8.12386638 182.74063804 6.0625 180.25 C5.051875 179.5075 4.04125 178.765 3 178 C2.44054687 177.58105469 1.88109375 177.16210938 1.3046875 176.73046875 C-16.14951534 164.64398101 -47.71688708 161.84219781 -64.73828125 175.3828125 Z M257.1875 197.9375 C254.84196061 200.80601016 254.84196061 200.80601016 254.3125 204 C255.3337335 208.45629163 257.94119991 211.62254855 261.70336914 214.13964844 C263.56408197 215.13901721 265.44322813 216.0216068 267.375 216.875 C268.00921875 217.18179688 268.6434375 217.48859375 269.296875 217.8046875 C273.66567488 219.80185316 277.1200974 220.31523919 282 220 C282.33 220.66 282.66 221.32 283 222 C298.76577667 225.09132876 317.128579 223.66787418 331.09375 215.40234375 C333.12380754 214.13193675 333.12380754 214.13193675 334 212 C334.45104276 208.71383134 334.60533069 206.1684867 333.046875 203.16015625 C326.36527085 194.3857508 314.42372545 191.51617825 304 190 C279.13204309 187.62567599 279.13204309 187.62567599 257.1875 197.9375 Z " fill="#5B5B5B" transform="translate(375,530)"/>
<path d="M0 0 C1.18142578 0.00563965 2.36285156 0.0112793 3.58007812 0.01708984 C39.90022158 0.51686293 68.10432014 16.2688475 95.875 38.3125 C96.79667969 39.03953125 97.71835937 39.7665625 98.66796875 40.515625 C104.99451266 45.59146687 110.95246148 50.99775748 116.875 56.53125 C119.22516717 58.72317649 121.61937604 60.84902306 124.0625 62.9375 C148.94046736 84.50890208 148.94046736 84.50890208 152.875 96.3125 C153.46232182 105.41598827 149.81531989 109.61310543 144 116.25 C142.96054839 117.4462766 141.92148216 118.64288816 140.8828125 119.83984375 C140.37911133 120.41589355 139.87541016 120.99194336 139.35644531 121.58544922 C137.90361868 123.27913669 136.51114652 125.01171315 135.1171875 126.75390625 C134.37726563 127.59824219 133.63734375 128.44257813 132.875 129.3125 C132.215 129.3125 131.555 129.3125 130.875 129.3125 C130.545 130.3025 130.215 131.2925 129.875 132.3125 C129.215 132.3125 128.555 132.3125 127.875 132.3125 C127.875 132.9725 127.875 133.6325 127.875 134.3125 C126.51171875 135.6875 126.51171875 135.6875 124.5625 137.3125 C121.24205251 140.12300093 118.04541415 143.02144147 114.875 146 C88.1472562 170.26791024 57.36564406 185.98607488 21.875 192.3125 C20.8025 192.50714844 19.73 192.70179688 18.625 192.90234375 C-10.06857481 196.04070349 -37.3086815 190.77375053 -63.125 178.3125 C-64.05626709 177.86632324 -64.05626709 177.86632324 -65.00634766 177.41113281 C-83.8282262 168.2550783 -100.09764523 155.04753374 -115.3515625 140.86328125 C-117.58942174 138.80508113 -119.85914793 136.8279647 -122.1875 134.875 C-130.29839431 127.80525569 -146.62233245 113.48067418 -148.43359375 102.4296875 C-148.69527434 97.87803112 -148.36264024 95.05760835 -145.484375 91.43359375 C-144.6634436 90.3986377 -144.6634436 90.3986377 -143.82592773 89.34277344 C-141.282957 86.30741466 -138.65923086 83.37585199 -135.9375 80.5 C-135.3501709 79.87544922 -134.7628418 79.25089844 -134.15771484 78.60742188 C-128.93715395 73.0951119 -123.60722665 67.69171038 -118.25 62.3125 C-117.4660083 61.52383545 -116.6820166 60.7351709 -115.87426758 59.92260742 C-111.1199197 55.18135831 -106.24819763 50.65221091 -101.125 46.3125 C-100.50898926 45.78978516 -99.89297852 45.26707031 -99.25830078 44.72851562 C-70.8880985 20.88348402 -38.25043376 -0.19312827 0 0 Z M-28.125 22.3125 C-29.07761719 22.65152344 -30.03023438 22.99054688 -31.01171875 23.33984375 C-55.87376129 32.87085869 -77.01753349 48.79776233 -96.36328125 66.76953125 C-98.54040629 68.77421074 -100.74212768 70.713752 -103 72.625 C-116.68677876 84.45907988 -116.68677876 84.45907988 -128.125 98.3125 C-128.125 102.27259225 -126.71719817 103.45770759 -124.25 106.5 C-123.53070313 107.40105469 -122.81140625 108.30210937 -122.0703125 109.23046875 C-121.42835938 109.91753906 -120.78640625 110.60460937 -120.125 111.3125 C-119.465 111.3125 -118.805 111.3125 -118.125 111.3125 C-117.85623047 111.90579102 -117.58746094 112.49908203 -117.31054688 113.11035156 C-116.12209268 115.31790033 -114.91757611 116.77792882 -113.15625 118.546875 C-112.58519531 119.12050781 -112.01414062 119.69414062 -111.42578125 120.28515625 C-110.83152344 120.87167969 -110.23726563 121.45820313 -109.625 122.0625 C-108.73361328 122.96548828 -108.73361328 122.96548828 -107.82421875 123.88671875 C-107.25316406 124.45519531 -106.68210937 125.02367187 -106.09375 125.609375 C-105.57232422 126.12854492 -105.05089844 126.64771484 -104.51367188 127.18261719 C-103.16481731 128.52287547 -103.16481731 128.52287547 -101.125 128.3125 C-101.125 128.9725 -101.125 129.6325 -101.125 130.3125 C-98.23552827 133.03971198 -95.06446415 135.43386036 -91.93945312 137.88525391 C-90.6860576 138.87117294 -89.43765134 139.86345617 -88.19335938 140.86083984 C-58.2087493 164.8847412 -24.03157638 177.80582688 14.703125 175.0390625 C50.8645103 170.89067847 81.02568131 152.63176497 107.06640625 127.9453125 C109.23378122 125.91358686 111.42655674 123.97814803 113.68359375 122.05078125 C118.21992504 118.10353516 122.29401583 113.78473012 126.375 109.375 C127.10203125 108.59576172 127.8290625 107.81652344 128.578125 107.01367188 C130.34726605 105.11650088 132.11279169 103.21610821 133.875 101.3125 C131.26144651 96.30885671 127.55161888 92.5446366 123.6875 88.5 C123.01130615 87.78658447 122.3351123 87.07316895 121.63842773 86.33813477 C114.64759642 78.98224259 107.58526297 71.91401441 99.875 65.3125 C98.86788348 64.43037901 97.861424 63.54750755 96.85546875 62.6640625 C73.54095993 42.29199607 50.5889509 25.90203856 19.875 19.3125 C18.9773291 19.05098145 18.9773291 19.05098145 18.06152344 18.78417969 C3.74941878 15.69675381 -14.51443842 17.01853317 -28.125 22.3125 Z " fill="#5B5B5B" transform="translate(538.125,249.6875)"/>
<path d="M0 0 C3.32514349 -0.00290944 6.65028374 -0.00707524 9.97542572 -0.01134872 C23.65602447 -0.02599297 37.33582273 0.00252772 51.01610565 0.09993362 C53.11629822 0.11485161 55.21649822 0.12875441 57.3167038 0.14171219 C63.54812381 0.18152 69.77858821 0.2437403 76.00941467 0.33911896 C77.9324955 0.36598235 79.85567903 0.38638017 81.77890015 0.39987183 C84.42062142 0.42016817 87.06078259 0.46530372 89.70204926 0.51706314 C90.4722364 0.51790028 91.24242355 0.51873741 92.03594971 0.51959991 C97.19136051 0.65814001 100.13766087 1.89432414 104.12880707 5.12204361 C107.51390058 8.95848293 107.64513604 12.75636669 107.47646332 17.68454361 C106.95071202 21.37071005 105.64066315 23.4118831 103.12880707 26.12204361 C98.98877009 28.56024459 95.90896854 29.50231799 91.12245941 29.55441666 C89.94719193 29.57420074 88.77192444 29.59398483 87.56104279 29.61436844 C85.65712517 29.62396843 85.65712517 29.62396843 83.71474457 29.63376236 C82.36545007 29.65078211 81.01617064 29.66903499 79.66690826 29.6884346 C76.0367596 29.73671003 72.4066809 29.76642658 68.77630997 29.79200363 C65.71690903 29.81561717 62.65765295 29.84937052 59.59834957 29.88311386 C50.44904161 29.98375581 41.2996827 30.05244921 32.15000916 30.1091423 C29.16652742 30.12818583 26.1830705 30.15053061 23.19960785 30.17233658 C9.55757859 30.26457714 -4.08200256 30.22925686 -17.72397614 30.14487076 C-21.58565102 30.12237231 -25.44733699 30.10776545 -29.30905056 30.09369469 C-38.60769561 30.05972895 -47.90604123 30.00887687 -57.20445919 29.93492699 C-61.89482501 29.89784436 -66.58502836 29.86687487 -71.27552032 29.85159683 C-75.71000022 29.83660709 -80.14393448 29.80232638 -84.57817078 29.75386047 C-86.22790864 29.73905151 -87.87772276 29.73099649 -89.52752686 29.73012543 C-91.81039936 29.72776146 -94.09175689 29.70076941 -96.37436676 29.66794205 C-97.65870102 29.6590596 -98.94303528 29.65017715 -100.26628876 29.64102554 C-105.43739123 28.89656504 -109.23231225 26.91952564 -112.80869293 22.99704361 C-114.40806035 18.66934355 -114.52806693 14.67637002 -113.87119293 10.12204361 C-111.64679915 5.5908711 -109.40988832 3.25048038 -104.87119293 1.12204361 C-101.8354099 0.64867238 -98.82242038 0.63284738 -95.75400543 0.61032486 C-94.32177139 0.5832621 -94.32177139 0.5832621 -92.86060333 0.55565262 C-89.57250304 0.499322 -86.28461714 0.46633857 -82.99619293 0.43454361 C-80.59807646 0.40183106 -78.19996462 0.36877717 -75.80185699 0.33542252 C-50.53661621 0.02190179 -25.26680468 0.02038115 0 0 Z " fill="#5B5B5B" transform="translate(526.8711929321289,465.87795639038086)"/>
<path d="M0 0 C11.30652056 8.37971709 19.12069907 19.79457268 21.53515625 33.87890625 C22.8490429 49.32471322 20.16699735 62.1917859 10.4609375 74.51171875 C1.98965088 84.41706262 -9.30171776 91.97866551 -22.46484375 93.87890625 C-30.35451124 94.25881185 -37.92727554 94.43401412 -45.46484375 91.87890625 C-46.25117187 91.62238281 -47.0375 91.36585938 -47.84765625 91.1015625 C-60.28009543 86.67226842 -71.44078976 76.62688342 -77.46484375 64.87890625 C-78.05458984 63.81929687 -78.05458984 63.81929687 -78.65625 62.73828125 C-83.84504597 51.52903559 -83.55479515 35.1916841 -79.46484375 23.62890625 C-73.03840299 9.98618285 -63.13921254 -0.12863824 -49.265625 -6.1484375 C-32.12157057 -12.10223046 -15.1728545 -10.1074193 0 0 Z M-56.859375 20.9609375 C-62.34497766 27.51429736 -64.96972005 36.2387623 -64.71875 44.73828125 C-63.90341745 51.61216184 -61.61361163 57.39182616 -57.46484375 62.87890625 C-56.80484375 63.86890625 -56.14484375 64.85890625 -55.46484375 65.87890625 C-54.80484375 65.87890625 -54.14484375 65.87890625 -53.46484375 65.87890625 C-53.46484375 66.53890625 -53.46484375 67.19890625 -53.46484375 67.87890625 C-51.4246342 69.41086479 -51.4246342 69.41086479 -48.83984375 70.87890625 C-47.98132813 71.39453125 -47.1228125 71.91015625 -46.23828125 72.44140625 C-38.18604244 76.61496101 -29.18097983 77.49021502 -20.40234375 75.015625 C-18.02388133 74.06493144 -15.74152863 73.05017595 -13.46484375 71.87890625 C-12.80484375 71.54890625 -12.14484375 71.21890625 -11.46484375 70.87890625 C-11.46484375 70.21890625 -11.46484375 69.55890625 -11.46484375 68.87890625 C-10.86671875 68.77707031 -10.26859375 68.67523438 -9.65234375 68.5703125 C-5.16482249 67.15193525 -2.50452359 62.67292794 -0.2265625 58.7421875 C4.10037087 50.2299295 4.90972225 41.36650756 2.921875 31.984375 C-0.64585423 22.00416328 -7.64063855 15.771401 -16.8515625 10.97265625 C-31.52270428 4.83226806 -46.31335281 10.04242888 -56.859375 20.9609375 Z " fill="#5B5B5B" transform="translate(571.46484375,328.12109375)"/>
<path d="" fill="#606060" transform="translate(0,0)"/>
<path d="" fill="#5E5E5E" transform="translate(0,0)"/>
<path d="" fill="#606060" transform="translate(0,0)"/>
<path d="" fill="#606060" transform="translate(0,0)"/>
<path d="" fill="#696969" transform="translate(0,0)"/>
<path d="" fill="#575757" transform="translate(0,0)"/>
<path d="" fill="#5B5B5B" transform="translate(0,0)"/>
<path d="" fill="#5F5F5F" transform="translate(0,0)"/>
<path d="" fill="#5A5A5A" transform="translate(0,0)"/>
</svg>
