<?xml version="1.0" encoding="UTF-8"?>
<svg version="1.1" xmlns="http://www.w3.org/2000/svg" width="1024" height="1024">
<path d="M0 0 C0.73810913 0.00093658 1.47621826 0.00187317 2.23669434 0.00283813 C91.45090799 0.2458797 177.80667149 33.39119793 266.75 111.1875 C268.13058594 112.50427734 268.13058594 112.50427734 269.5390625 113.84765625 C273.5395347 117.74210887 273.5395347 117.74210887 274.75 119.1875 C274.75 119.8475 274.75 120.5075 274.75 121.1875 C275.41 121.1875 276.07 121.1875 276.75 121.1875 C279.33248339 123.60761168 281.49739874 126.46379232 283.75 129.1875 C285.02037109 130.7034375 285.02037109 130.7034375 286.31640625 132.25 C295.50983988 143.38268604 303.66265316 155.23807846 311.75 167.1875 C312.21035645 167.86699707 312.67071289 168.54649414 313.14501953 169.24658203 C355.15087093 231.71813448 372.87644307 306.4336447 370.75 381.1875 C370.73066406 381.97979004 370.71132813 382.77208008 370.69140625 383.58837891 C369.51313686 426.72516775 360.09197192 469.68739238 342.75 509.1875 C342.29254395 510.24098633 341.83508789 511.29447266 341.36376953 512.37988281 C324.29132026 551.42439261 301.40021716 586.51919872 272.734375 617.98046875 C271.00022594 619.90919753 269.33747119 621.8746317 267.6875 623.875 C265.0314226 627.00407748 262.06676738 629.59517074 258.94140625 632.24609375 C256.49059942 634.41730764 254.22342971 636.71860694 251.9375 639.0625 C246.84734809 644.19906667 241.40468344 648.69162329 235.75 653.1875 C234.65065882 654.09823036 233.55307532 655.01108555 232.45703125 655.92578125 C216.57632947 669.07467548 199.19199739 679.93393051 181.15478516 689.86181641 C178.97367301 691.06419599 176.80461235 692.28574121 174.63671875 693.51171875 C135.12164262 715.51838074 90.38447091 728.43279848 45.75 734.1875 C44.58791016 734.364021 43.42582031 734.54054199 42.22851562 734.72241211 C36.27023344 735.45841481 30.28009575 735.37001955 24.28515625 735.390625 C22.97961288 735.39632507 21.67406952 735.40202515 20.32896423 735.40789795 C17.56281147 735.41836645 14.79668731 735.42423262 12.03051758 735.42773438 C9.24880518 735.43207239 6.46741114 735.44578666 3.68579102 735.46875 C-14.16017612 735.61302857 -31.57223835 734.84644627 -49.25 732.1875 C-50.63017893 731.99124408 -52.01045645 731.79567913 -53.39086914 731.60107422 C-89.88726449 726.21839392 -127.12997455 716.68483289 -160.25 700.1875 C-161.22775391 699.70410156 -162.20550781 699.22070312 -163.21289062 698.72265625 C-177.41072303 691.65458574 -191.09290602 684.04857907 -204.25 675.1875 C-204.97622559 674.69926758 -205.70245117 674.21103516 -206.45068359 673.70800781 C-216.5574788 666.8587747 -226.10810229 659.44544631 -235.48974609 651.63916016 C-237.05617487 650.34734524 -238.64572919 649.08368802 -240.23828125 647.82421875 C-247.28093706 642.24920757 -253.55402327 636.07194205 -259.81640625 629.65380859 C-262.78079676 626.6217702 -265.78862563 623.63629143 -268.828125 620.6796875 C-275.12223435 614.51440495 -280.7700152 608.09862133 -286.25 601.1875 C-287.1709046 600.07753773 -288.09419811 598.96955432 -289.01953125 597.86328125 C-319.66397176 560.93019248 -343.44907806 514.32108667 -356.25 468.1875 C-356.5279541 467.19443848 -356.8059082 466.20137695 -357.09228516 465.17822266 C-360.920461 451.28204867 -363.93000764 437.36103407 -366.125 423.125 C-366.280186 422.11924423 -366.280186 422.11924423 -366.43850708 421.09317017 C-380.32939144 329.89344279 -357.60702801 232.50365128 -300.60449219 152.93701172 C-283.58167715 129.92131616 -264.13875467 107.70875395 -242.25 89.1875 C-240.78240234 87.88619141 -240.78240234 87.88619141 -239.28515625 86.55859375 C-223.85206578 72.9315515 -206.95694186 61.6407153 -189.25 51.1875 C-188.04053711 50.47231201 -188.04053711 50.47231201 -186.80664062 49.74267578 C-164.52841077 36.71054992 -140.79250408 27.03608058 -116.25 19.1875 C-115.18910156 18.84235352 -114.12820313 18.49720703 -113.03515625 18.14160156 C-86.16395974 9.4695336 -58.39364489 3.62639381 -30.25 1.1875 C-29.18104492 1.0939624 -28.11208984 1.0004248 -27.01074219 0.90405273 C-18.00301583 0.18529689 -9.03012456 -0.01498446 0 0 Z M-253.25 139.1875 C-255.7146607 141.96385081 -258.03088346 144.84604938 -260.32421875 147.765625 C-262.15291356 150.06540346 -264.07045398 152.21661205 -266.0625 154.375 C-318.34199654 212.68274862 -342.5404913 293.22659315 -342.4375 370.3125 C-342.43609512 371.67560806 -342.43609512 371.67560806 -342.43466187 373.06625366 C-342.40533298 386.20053585 -342.26476504 399.18222792 -340.25 412.1875 C-340.08870605 413.2408252 -339.92741211 414.29415039 -339.76123047 415.37939453 C-330.27375786 475.60237753 -305.23232746 533.99836676 -266.25 581.1875 C-265.43917969 582.19941406 -264.62835938 583.21132813 -263.79296875 584.25390625 C-257.23200635 592.28449535 -249.99326101 599.65385945 -242.6875 607 C-241.96332382 607.73207672 -241.96332382 607.73207672 -241.22451782 608.47894287 C-234.57996936 615.17946769 -227.63769722 621.31526454 -220.25 627.1875 C-218.92144629 628.28409633 -217.59560586 629.38399447 -216.2734375 630.48828125 C-207.58702175 637.68195673 -198.67079474 644.41266592 -189.34716797 650.75976562 C-187.98809595 651.68501047 -186.63269393 652.61567856 -185.28173828 653.55273438 C-145.7245197 680.91622312 -99.52165058 695.65989312 -52.4375 703.4375 C-51.08192993 703.66421387 -51.08192993 703.66421387 -49.69897461 703.89550781 C-31.43747843 706.73629187 -13.14337792 707.56750369 5.3125 707.5 C6.877155 707.49726578 6.877155 707.49726578 8.47341919 707.49447632 C74.00683124 707.30253091 138.7740954 687.90729774 192.75 650.1875 C193.30929199 649.79949219 193.86858398 649.41148437 194.44482422 649.01171875 C201.56742122 644.0602858 208.46924789 638.94243573 215.12890625 633.375 C216.82727173 631.95758619 218.54266278 630.56023054 220.27734375 629.1875 C234.52749672 617.87309283 247.90284186 604.99275372 259.75 591.1875 C260.26900879 590.59630371 260.78801758 590.00510742 261.32275391 589.39599609 C277.5086857 570.91171329 290.78896054 549.92860139 302.53613281 528.40087891 C303.61441509 526.43472703 304.71817661 524.48682989 305.8359375 522.54296875 C337.07355337 466.76151185 348.02500053 400.11161372 342.5625 336.8125 C342.46405289 335.65462479 342.46405289 335.65462479 342.36361694 334.47335815 C336.57969341 267.74938072 310.58305998 206.43419676 267.75 155.1875 C266.90620787 154.15498235 266.0624594 153.12242901 265.21875 152.08984375 C253.93985278 138.45340565 241.42473242 125.15483133 227.41796875 114.296875 C224.72942875 112.17123576 222.18078133 109.93765579 219.62182617 107.65991211 C137.36152053 34.71249878 17.87168262 12.52237135 -253.25 139.1875 Z " fill="#5B5B5B" transform="translate(528.25,145.8125)"/>
<path d="M0 0 C1.18142578 0.00563965 2.36285156 0.0112793 3.58007812 0.01708984 C39.90022158 0.51686293 68.10432014 16.2688475 95.875 38.3125 C96.79667969 39.03953125 97.71835937 39.7665625 98.66796875 40.515625 C104.99451266 45.59146687 110.95246148 50.99775748 116.875 56.53125 C119.22516717 58.72317649 121.61937604 60.84902306 124.0625 62.9375 C148.94046736 84.50890208 148.94046736 84.50890208 152.875 96.3125 C153.46232182 105.41598827 149.81531989 109.61310543 144 116.25 C142.96054839 117.4462766 141.92148216 118.64288816 140.8828125 119.83984375 C140.37911133 120.41589355 139.87541016 120.99194336 139.35644531 121.58544922 C137.90361868 123.27913669 136.51114652 125.01171315 135.1171875 126.75390625 C134.37726563 127.59824219 133.63734375 128.44257813 132.875 129.3125 C132.215 129.3125 131.555 129.3125 130.875 129.3125 C130.545 130.3025 130.215 131.2925 129.875 132.3125 C129.215 132.3125 128.555 132.3125 127.875 132.3125 C127.875 132.9725 127.875 133.6325 127.875 134.3125 C126.51171875 135.6875 126.51171875 135.6875 124.5625 137.3125 C121.24205251 140.12300093 118.04541415 143.02144147 114.875 146 C88.1472562 170.26791024 57.36564406 185.98607488 21.875 192.3125 C20.8025 192.50714844 19.73 192.70179688 18.625 192.90234375 C-10.06857481 196.04070349 -37.3086815 190.77375053 -63.125 178.3125 C-64.05626709 177.86632324 -64.05626709 177.86632324 -65.00634766 177.41113281 C-83.8282262 168.2550783 -100.09764523 155.04753374 -115.3515625 140.86328125 C-117.58942174 138.80508113 -119.85914793 136.8279647 -122.1875 134.875 C-130.29839431 127.80525569 -146.62233245 113.48067418 -148.43359375 102.4296875 C-148.69527434 97.87803112 -148.36264024 95.05760835 -145.484375 91.43359375 C-144.6634436 90.3986377 -144.6634436 90.3986377 -143.82592773 89.34277344 C-141.282957 86.30741466 -138.65923086 83.37585199 -135.9375 80.5 C-135.3501709 79.87544922 -134.7628418 79.25089844 -134.15771484 78.60742188 C-128.93715395 73.0951119 -123.60722665 67.69171038 -118.25 62.3125 C-117.4660083 61.52383545 -116.6820166 60.7351709 -115.87426758 59.92260742 C-111.1199197 55.18135831 -106.24819763 50.65221091 -101.125 46.3125 C-100.50898926 45.78978516 -99.89297852 45.26707031 -99.25830078 44.72851562 C-70.8880985 20.88348402 -38.25043376 -0.19312827 0 0 Z M-28.125 22.3125 C-29.07761719 22.65152344 -30.03023438 22.99054688 -31.01171875 23.33984375 C-55.87376129 32.87085869 -77.01753349 48.79776233 -96.36328125 66.76953125 C-98.54040629 68.77421074 -100.74212768 70.713752 -103 72.625 C-116.68677876 84.45907988 -116.68677876 84.45907988 -128.125 98.3125 C-128.125 102.27259225 -126.71719817 103.45770759 -124.25 106.5 C-123.53070313 107.40105469 -122.81140625 108.30210937 -122.0703125 109.23046875 C-121.42835938 109.91753906 -120.78640625 110.60460937 -120.125 111.3125 C-119.465 111.3125 -118.805 111.3125 -118.125 111.3125 C-117.85623047 111.90579102 -117.58746094 112.49908203 -117.31054688 113.11035156 C-116.12209268 115.31790033 -114.91757611 116.77792882 -113.15625 118.546875 C-112.58519531 119.12050781 -112.01414062 119.69414062 -111.42578125 120.28515625 C-110.83152344 120.87167969 -110.23726563 121.45820313 -109.625 122.0625 C-108.73361328 122.96548828 -108.73361328 122.96548828 -107.82421875 123.88671875 C-107.25316406 124.45519531 -106.68210937 125.02367187 -106.09375 125.609375 C-105.57232422 126.12854492 -105.05089844 126.64771484 -104.51367188 127.18261719 C-103.16481731 128.52287547 -103.16481731 128.52287547 -101.125 128.3125 C-101.125 128.9725 -101.125 129.6325 -101.125 130.3125 C-98.23552827 133.03971198 -95.06446415 135.43386036 -91.93945312 137.88525391 C-90.6860576 138.87117294 -89.43765134 139.86345617 -88.19335938 140.86083984 C-58.2087493 164.8847412 -24.03157638 177.80582688 14.703125 175.0390625 C50.8645103 170.89067847 81.02568131 152.63176497 107.06640625 127.9453125 C109.23378122 125.91358686 111.42655674 123.97814803 113.68359375 122.05078125 C118.21992504 118.10353516 122.29401583 113.78473012 126.375 109.375 C127.10203125 108.59576172 127.8290625 107.81652344 128.578125 107.01367188 C130.34726605 105.11650088 132.11279169 103.21610821 133.875 101.3125 C131.26144651 96.30885671 127.55161888 92.5446366 123.6875 88.5 C123.01130615 87.78658447 122.3351123 87.07316895 121.63842773 86.33813477 C114.64759642 78.98224259 107.58526297 71.91401441 99.875 65.3125 C98.86788348 64.43037901 97.861424 63.54750755 96.85546875 62.6640625 C73.54095993 42.29199607 50.5889509 25.90203856 19.875 19.3125 C18.9773291 19.05098145 18.9773291 19.05098145 18.06152344 18.78417969 C3.74941878 15.69675381 -14.51443842 17.01853317 -28.125 22.3125 Z " fill="#5B5B5B" transform="translate(538.125,249.6875)"/>
<path d="M0 0 C0 0.66 0 1.32 0 2 C0.598125 2.268125 1.19625 2.53625 1.8125 2.8125 C5.75281902 4.95153032 6.77561139 6.3032143 8.1875 10.6875 C8.5896875 12.3271875 8.5896875 12.3271875 9 14 C9.33 14 9.66 14 10 14 C10.25 20.625 10.25 20.625 8 24 C7.505 25.485 7.505 25.485 7 27 C6.34 27 5.68 27 5 27 C4.731875 27.639375 4.46375 28.27875 4.1875 28.9375 C3 31 3 31 0 32 C-1.20882096 34.00016466 -1.20882096 34.00016466 -2 36 C-2.66 36 -3.32 36 -4 36 C-4.66 37.32 -5.32 38.64 -6 40 C-6.66 40 -7.32 40 -8 40 C-8 40.66 -8 41.32 -8 42 C-9.36328125 43.33984375 -9.36328125 43.33984375 -11.3125 44.9375 C-15.57534743 48.5368989 -19.4615561 52.4186798 -23.31762695 56.44311523 C-24.50909296 57.66490714 -25.75093864 58.83715331 -27 60 C-27.66 60 -28.32 60 -29 60 C-29.33 60.99 -29.66 61.98 -30 63 C-31.52026367 64.49902344 -31.52026367 64.49902344 -33.48046875 66.109375 C-38.35087106 70.24210094 -42.82238073 74.71151988 -47.3125 79.25 C-48.10978516 80.05179688 -48.90707031 80.85359375 -49.72851562 81.6796875 C-51.19819232 83.15801662 -52.6668314 84.63737865 -54.1340332 86.11816406 C-54.74980225 86.73916992 -55.36557129 87.36017578 -56 88 C-56.51715576 88.52819336 -57.03431152 89.05638672 -57.56713867 89.60058594 C-59.4250922 91.41516928 -61.44426114 93.01926542 -63.4453125 94.671875 C-66.76362244 97.50661213 -69.57969839 100.36954759 -72 104 C-69.2046217 107.43970309 -66.48401416 110.59837123 -63.0625 113.4375 C-59.86646274 116.11173526 -57.34709328 118.99332895 -54.65625 122.15625 C-52.643133 124.39726704 -50.35523389 126.12789101 -48 128 C-47.00171091 129.12921224 -46.02396221 130.27677101 -45.0625 131.4375 C-43.1395616 133.75287481 -41.40961657 135.48989263 -39.0625 137.4375 C-35.84680207 140.12818602 -33.28642877 143.01654656 -30.61328125 146.23046875 C-28.92720578 148.22269441 -28.92720578 148.22269441 -26 150 C-26 150.66 -26 151.32 -26 152 C-25.43023437 152.24105469 -24.86046875 152.48210937 -24.2734375 152.73046875 C-21.55716666 154.24728666 -19.77554863 156.06762907 -17.625 158.3125 C-15.08827228 160.91576484 -12.59899931 163.42896687 -9.75 165.6875 C-7 168 -7 168 -4.5625 170.9375 C-2.53234254 173.36378574 -0.79807139 175.05443115 1.625 177 C4.81942563 179.68637972 6.62885961 181.96723414 8 186 C8.5851767 193.37322648 7.38721805 199.85789473 3 206 C0 208 0 208 -3 208 C-3 208.66 -3 209.32 -3 210 C-5.79748841 210.93249614 -7.54320881 211.13476152 -10.4375 211.125 C-11.19933594 211.12757813 -11.96117187 211.13015625 -12.74609375 211.1328125 C-14.95315859 211.00276015 -16.87969276 210.60856199 -19 210 C-19 209.34 -19 208.68 -19 208 C-19.969375 207.731875 -20.93875 207.46375 -21.9375 207.1875 C-22.948125 206.795625 -23.95875 206.40375 -25 206 C-25.33 205.01 -25.66 204.02 -26 203 C-27.52956409 201.44565676 -27.52956409 201.44565676 -29.375 200 C-34.11671132 196.12592096 -34.11671132 196.12592096 -36 194 C-36 193.34 -36 192.68 -36 192 C-36.556875 191.7525 -37.11375 191.505 -37.6875 191.25 C-42.77343859 188.500844 -46.20715427 184.68339828 -49.90625 180.3515625 C-54.05310187 175.69409081 -58.56279281 171.37830621 -63 167 C-65.48646582 164.52120845 -67.9649493 162.03555786 -70.4296875 159.53515625 C-75.94511393 153.95300017 -75.94511393 153.95300017 -81.8125 148.75 C-84.00977983 146.92574674 -85.57814787 145.30325769 -87.4375 143.0625 C-89.53013234 140.56154915 -91.47437939 138.65242052 -93.9375 136.5625 C-96.51829631 134.37098582 -98.75742051 132.20197585 -100.875 129.5625 C-103.97707216 125.76160938 -107.6972596 122.9894022 -111.6328125 120.08984375 C-115.58161101 116.60369325 -118.09408089 113.27537143 -118.63671875 107.9765625 C-118.68560682 106.52676694 -118.70161104 105.07555096 -118.6875 103.625 C-118.68169922 102.86912598 -118.67589844 102.11325195 -118.66992188 101.33447266 C-118.48088245 96.87757877 -118.00328798 93.86623638 -115 90.375 C-113.0625 88.6171875 -113.0625 88.6171875 -111 87 C-109.66408382 85.83629177 -108.33075396 84.66960797 -107 83.5 C-106.3296875 82.9328125 -105.659375 82.365625 -104.96875 81.78125 C-102.96375334 79.9672054 -101.24555043 78.06292323 -99.5 76 C-96.60980343 72.59322983 -93.50488145 69.73193621 -90.1015625 66.84765625 C-87.79748895 64.8219559 -85.65248842 62.68577433 -83.5 60.5 C-80.10455991 57.0578872 -76.59704453 53.84562602 -72.921875 50.70703125 C-70.28764491 48.36727811 -67.86433083 45.84481518 -65.4453125 43.28515625 C-64 42 -64 42 -62 42 C-61.67 41.01 -61.34 40.02 -61 39 C-58.5625 36.3125 -58.5625 36.3125 -56 34 C-55.34 34 -54.68 34 -54 34 C-53.67 33.01 -53.34 32.02 -53 31 C-51.54714873 29.77828416 -50.09002328 28.56088335 -48.6015625 27.3828125 C-46.59158747 25.64737065 -45.05563514 23.60529414 -43.41015625 21.53125 C-41.77741343 19.75829934 -40.02354429 18.46165115 -38.0625 17.0625 C-34.6681245 14.62616319 -32.19503821 12.02780571 -29.56640625 8.8046875 C-21.25399714 -0.7722028 -12.31364389 -5.05175134 0 0 Z " fill="#5B5B5B" transform="translate(452,564)"/>
<path d="M0 0 C2.87167317 1.97885599 4.59204138 4.37141976 6.68359375 7.16015625 C6.68359375 7.82015625 6.68359375 8.48015625 6.68359375 9.16015625 C7.34359375 9.16015625 8.00359375 9.16015625 8.68359375 9.16015625 C10.35128852 14.16324057 10.35128852 20.15707193 8.68359375 25.16015625 C8.02359375 25.16015625 7.36359375 25.16015625 6.68359375 25.16015625 C6.57402344 25.74023438 6.46445312 26.3203125 6.3515625 26.91796875 C6.19300781 27.69914063 6.03445313 28.4803125 5.87109375 29.28515625 C5.64486328 30.43371094 5.64486328 30.43371094 5.4140625 31.60546875 C4.53397684 34.68341538 3.11510434 37.29713508 1.68359375 40.16015625 C0.70139841 42.75800395 -0.15580198 45.39091574 -1.00390625 48.03515625 C-1.34131836 49.06769531 -1.34131836 49.06769531 -1.68554688 50.12109375 C-2.23333593 51.79942617 -2.77546518 53.47960416 -3.31640625 55.16015625 C-3.97640625 55.16015625 -4.63640625 55.16015625 -5.31640625 55.16015625 C-5.46078125 56.08828125 -5.60515625 57.01640625 -5.75390625 57.97265625 C-6.31640625 61.16015625 -6.31640625 61.16015625 -7.31640625 64.16015625 C-7.97640625 64.16015625 -8.63640625 64.16015625 -9.31640625 64.16015625 C-9.53296875 65.73796875 -9.53296875 65.73796875 -9.75390625 67.34765625 C-10.19167591 70.31476174 -10.69445491 73.22809991 -11.31640625 76.16015625 C-11.97640625 76.16015625 -12.63640625 76.16015625 -13.31640625 76.16015625 C-13.97640625 79.13015625 -14.63640625 82.10015625 -15.31640625 85.16015625 C-15.97640625 85.16015625 -16.63640625 85.16015625 -17.31640625 85.16015625 C-17.44595703 86.15982422 -17.44595703 86.15982422 -17.578125 87.1796875 C-18.70283311 94.55735994 -21.08728996 100.48049856 -24.31640625 107.16015625 C-27.23866282 113.73940818 -29.82432569 120.10668449 -31.31640625 127.16015625 C-31.97640625 127.16015625 -32.63640625 127.16015625 -33.31640625 127.16015625 C-33.39890625 127.94390625 -33.48140625 128.72765625 -33.56640625 129.53515625 C-34.35815592 133.36194634 -35.6336906 136.61972965 -37.12890625 140.21484375 C-39.37808829 145.7934071 -41.32167129 151.4866068 -43.31640625 157.16015625 C-43.97640625 157.16015625 -44.63640625 157.16015625 -45.31640625 157.16015625 C-45.46078125 158.25328125 -45.60515625 159.34640625 -45.75390625 160.47265625 C-46.31640625 164.16015625 -46.31640625 164.16015625 -47.31640625 167.16015625 C-47.97640625 167.16015625 -48.63640625 167.16015625 -49.31640625 167.16015625 C-49.39890625 168.29453125 -49.48140625 169.42890625 -49.56640625 170.59765625 C-50.07933922 174.84443953 -51.50933555 178.26040879 -53.37890625 182.08203125 C-54.28884393 184.09905978 -54.84980607 186.00213041 -55.31640625 188.16015625 C-55.97640625 188.16015625 -56.63640625 188.16015625 -57.31640625 188.16015625 C-57.97640625 191.79015625 -58.63640625 195.42015625 -59.31640625 199.16015625 C-59.97640625 199.16015625 -60.63640625 199.16015625 -61.31640625 199.16015625 C-61.43628906 200.01867187 -61.55617188 200.8771875 -61.6796875 201.76171875 C-63.32444044 210.54046143 -66.82014754 219.81695075 -73.31640625 226.16015625 C-76.19140625 227.66015625 -76.19140625 227.66015625 -78.31640625 228.16015625 C-78.31640625 228.82015625 -78.31640625 229.48015625 -78.31640625 230.16015625 C-83.26640625 230.16015625 -88.21640625 230.16015625 -93.31640625 230.16015625 C-93.31640625 229.50015625 -93.31640625 228.84015625 -93.31640625 228.16015625 C-94.43015625 227.81984375 -94.43015625 227.81984375 -95.56640625 227.47265625 C-100.21169332 225.25558742 -102.19339454 221.79892356 -104.06640625 217.16015625 C-105.15021458 214.06690868 -105.62627233 211.46539446 -105.31640625 208.16015625 C-104.65640625 208.16015625 -103.99640625 208.16015625 -103.31640625 208.16015625 C-103.23390625 207.19078125 -103.15140625 206.22140625 -103.06640625 205.22265625 C-102.52486828 201.37773665 -101.1501479 198.23054277 -99.44921875 194.76171875 C-98.48624165 192.55019204 -97.71553605 190.39953495 -96.97265625 188.109375 C-94.77291548 181.37258204 -92.07792842 174.82931872 -89.45703125 168.24804688 C-89.06773437 167.26384766 -88.6784375 166.27964844 -88.27734375 165.265625 C-87.92462402 164.38028076 -87.5719043 163.49493652 -87.20849609 162.58276367 C-86.42342903 160.4507931 -85.81358649 158.37431273 -85.31640625 156.16015625 C-84.65640625 156.16015625 -83.99640625 156.16015625 -83.31640625 156.16015625 C-83.23390625 155.19078125 -83.15140625 154.22140625 -83.06640625 153.22265625 C-82.51142808 149.19906449 -80.95989976 145.8990827 -79.23828125 142.25 C-78.20941361 139.91760936 -77.64251581 137.68750533 -77.31640625 135.16015625 C-76.65640625 135.16015625 -75.99640625 135.16015625 -75.31640625 135.16015625 C-74.65640625 131.86015625 -73.99640625 128.56015625 -73.31640625 125.16015625 C-72.65640625 125.16015625 -71.99640625 125.16015625 -71.31640625 125.16015625 C-71.13464844 124.39832031 -70.95289063 123.63648438 -70.765625 122.8515625 C-69.21967062 116.50125761 -67.47547289 110.32891807 -65.31640625 104.16015625 C-64.65640625 104.16015625 -63.99640625 104.16015625 -63.31640625 104.16015625 C-62.65640625 101.19015625 -61.99640625 98.22015625 -61.31640625 95.16015625 C-60.65640625 95.16015625 -59.99640625 95.16015625 -59.31640625 95.16015625 C-58.65640625 91.53015625 -57.99640625 87.90015625 -57.31640625 84.16015625 C-56.65640625 84.16015625 -55.99640625 84.16015625 -55.31640625 84.16015625 C-54.97609375 82.30390625 -54.97609375 82.30390625 -54.62890625 80.41015625 C-53.28560355 74.34147667 -50.78508602 68.84109403 -48.31640625 63.16015625 C-45.71890837 56.90421065 -43.37427041 50.61436656 -41.31640625 44.16015625 C-40.65640625 44.16015625 -39.99640625 44.16015625 -39.31640625 44.16015625 C-39.2184375 43.48210938 -39.12046875 42.8040625 -39.01953125 42.10546875 C-37.93365039 35.34679648 -36.10705189 29.40524189 -33.31640625 23.16015625 C-32.65640625 23.16015625 -31.99640625 23.16015625 -31.31640625 23.16015625 C-31.13464844 21.87818359 -31.13464844 21.87818359 -30.94921875 20.5703125 C-29.71131991 13.8994132 -27.68817862 5.58289716 -22.50390625 0.84765625 C-16.83186281 -2.45473349 -6.0918862 -2.20869398 0 0 Z " fill="#5B5B5B" transform="translate(589.31640625,558.83984375)"/>
<path d="M0 0 C4.46686807 2.6596619 7.3746814 6.02964778 10.609375 10.09375 C11.75533999 11.11740783 12.92330778 12.11683872 14.109375 13.09375 C17.37365678 15.79522457 19.89455879 18.83597055 22.609375 22.09375 C23.73720556 23.09359979 24.88421729 24.072121 26.046875 25.03125 C29.13212699 27.58225922 31.60292951 30.36047258 34.14453125 33.44140625 C35.75840843 35.34516992 35.75840843 35.34516992 38.609375 37.59375 C41.50854974 40.00972895 43.70509961 42.49330905 46.0859375 45.390625 C47.60792671 47.09213089 49.18654202 48.44262195 50.984375 49.84375 C51.850625 50.58625 52.716875 51.32875 53.609375 52.09375 C53.609375 53.08375 53.609375 54.07375 53.609375 55.09375 C54.269375 55.09375 54.929375 55.09375 55.609375 55.09375 C58.60462664 60.11379175 58.19075721 65.42900025 57.609375 71.09375 C55.97003819 76.65504448 51.82196761 79.88848038 47.484375 83.4765625 C45.46311003 85.12000678 45.46311003 85.12000678 43.609375 87.59375 C41.24652296 90.54731506 38.56053373 92.81438815 35.6953125 95.26953125 C31.49492267 98.94290587 27.63802407 102.83365488 24.109375 107.15625 C21.68248486 110.00784591 19.16607679 112.21923817 16.296875 114.59375 C14.36382183 116.23707242 14.36382183 116.23707242 12.109375 119.09375 C9.69114945 121.99562066 7.20363614 124.19370837 4.3046875 126.578125 C2.64443725 128.06240403 1.34246444 129.58421274 -0.015625 131.34375 C-3.21084681 135.04348052 -5.70022466 135.95148858 -10.546875 136.359375 C-11.6503125 136.35421875 -12.75375 136.3490625 -13.890625 136.34375 C-14.9940625 136.34890625 -16.0975 136.3540625 -17.234375 136.359375 C-20.35454834 136.09678615 -22.57367314 135.41813782 -25.390625 134.09375 C-25.390625 133.43375 -25.390625 132.77375 -25.390625 132.09375 C-25.98875 131.908125 -26.586875 131.7225 -27.203125 131.53125 C-30.44294799 129.40222347 -31.50414915 126.73671279 -32.390625 123.09375 C-32.92365876 117.36158692 -33.00074723 112.33169019 -30.390625 107.09375 C-28.9615806 105.85957529 -27.52600412 104.63028049 -26.03125 103.4765625 C-24.25794911 101.98192318 -22.86283265 100.38364457 -21.390625 98.59375 C-19.486936 96.29448926 -17.78379403 94.59020941 -15.453125 92.65625 C-11.13540408 89.04346311 -7.59237841 84.84758486 -4.08203125 80.45703125 C-1.36210721 77.05935565 1.56238225 74.37331949 4.89453125 71.6171875 C7.45760159 69.34020018 9.49378687 66.78631671 11.609375 64.09375 C11.16207031 63.73023438 10.71476563 63.36671875 10.25390625 62.9921875 C6.22495112 59.64188366 2.97135577 56.12812692 -0.390625 52.09375 C-1.51845556 51.09390021 -2.66546729 50.115379 -3.828125 49.15625 C-6.91195294 46.60641824 -9.38212324 43.83012448 -11.921875 40.75 C-14.15249076 38.23462478 -16.80722023 36.2374263 -19.390625 34.09375 C-24.390625 28.81815945 -24.390625 28.81815945 -24.390625 26.09375 C-25.050625 26.09375 -25.710625 26.09375 -26.390625 26.09375 C-28.15708149 19.65052757 -28.31386854 14.20220923 -25.203125 8.15625 C-23.43714279 5.26003917 -22.60365945 4.21210247 -19.578125 2.53125 C-18.85625 2.386875 -18.134375 2.2425 -17.390625 2.09375 C-17.390625 1.43375 -17.390625 0.77375 -17.390625 0.09375 C-11.90757369 -1.73393377 -5.46008865 -2.06983753 0 0 Z " fill="#5B5B5B" transform="translate(642.390625,603.90625)"/>
<path d="M0 0 C3.32514349 -0.00290944 6.65028374 -0.00707524 9.97542572 -0.01134872 C23.65602447 -0.02599297 37.33582273 0.00252772 51.01610565 0.09993362 C53.11629822 0.11485161 55.21649822 0.12875441 57.3167038 0.14171219 C63.54812381 0.18152 69.77858821 0.2437403 76.00941467 0.33911896 C77.9324955 0.36598235 79.85567903 0.38638017 81.77890015 0.39987183 C84.42062142 0.42016817 87.06078259 0.46530372 89.70204926 0.51706314 C90.4722364 0.51790028 91.24242355 0.51873741 92.03594971 0.51959991 C97.19136051 0.65814001 100.13766087 1.89432414 104.12880707 5.12204361 C107.51390058 8.95848293 107.64513604 12.75636669 107.47646332 17.68454361 C106.95071202 21.37071005 105.64066315 23.4118831 103.12880707 26.12204361 C98.98877009 28.56024459 95.90896854 29.50231799 91.12245941 29.55441666 C89.94719193 29.57420074 88.77192444 29.59398483 87.56104279 29.61436844 C85.65712517 29.62396843 85.65712517 29.62396843 83.71474457 29.63376236 C82.36545007 29.65078211 81.01617064 29.66903499 79.66690826 29.6884346 C76.0367596 29.73671003 72.4066809 29.76642658 68.77630997 29.79200363 C65.71690903 29.81561717 62.65765295 29.84937052 59.59834957 29.88311386 C50.44904161 29.98375581 41.2996827 30.05244921 32.15000916 30.1091423 C29.16652742 30.12818583 26.1830705 30.15053061 23.19960785 30.17233658 C9.55757859 30.26457714 -4.08200256 30.22925686 -17.72397614 30.14487076 C-21.58565102 30.12237231 -25.44733699 30.10776545 -29.30905056 30.09369469 C-38.60769561 30.05972895 -47.90604123 30.00887687 -57.20445919 29.93492699 C-61.89482501 29.89784436 -66.58502836 29.86687487 -71.27552032 29.85159683 C-75.71000022 29.83660709 -80.14393448 29.80232638 -84.57817078 29.75386047 C-86.22790864 29.73905151 -87.87772276 29.73099649 -89.52752686 29.73012543 C-91.81039936 29.72776146 -94.09175689 29.70076941 -96.37436676 29.66794205 C-97.65870102 29.6590596 -98.94303528 29.65017715 -100.26628876 29.64102554 C-105.43739123 28.89656504 -109.23231225 26.91952564 -112.80869293 22.99704361 C-114.40806035 18.66934355 -114.52806693 14.67637002 -113.87119293 10.12204361 C-111.64679915 5.5908711 -109.40988832 3.25048038 -104.87119293 1.12204361 C-101.8354099 0.64867238 -98.82242038 0.63284738 -95.75400543 0.61032486 C-94.32177139 0.5832621 -94.32177139 0.5832621 -92.86060333 0.55565262 C-89.57250304 0.499322 -86.28461714 0.46633857 -82.99619293 0.43454361 C-80.59807646 0.40183106 -78.19996462 0.36877717 -75.80185699 0.33542252 C-50.53661621 0.02190179 -25.26680468 0.02038115 0 0 Z " fill="#5B5B5B" transform="translate(526.8711929321289,465.87795639038086)"/>
<path d="M0 0 C11.30652056 8.37971709 19.12069907 19.79457268 21.53515625 33.87890625 C22.8490429 49.32471322 20.16699735 62.1917859 10.4609375 74.51171875 C1.98965088 84.41706262 -9.30171776 91.97866551 -22.46484375 93.87890625 C-30.35451124 94.25881185 -37.92727554 94.43401412 -45.46484375 91.87890625 C-46.25117187 91.62238281 -47.0375 91.36585938 -47.84765625 91.1015625 C-60.28009543 86.67226842 -71.44078976 76.62688342 -77.46484375 64.87890625 C-78.05458984 63.81929687 -78.05458984 63.81929687 -78.65625 62.73828125 C-83.84504597 51.52903559 -83.55479515 35.1916841 -79.46484375 23.62890625 C-73.03840299 9.98618285 -63.13921254 -0.12863824 -49.265625 -6.1484375 C-32.12157057 -12.10223046 -15.1728545 -10.1074193 0 0 Z M-56.859375 20.9609375 C-62.34497766 27.51429736 -64.96972005 36.2387623 -64.71875 44.73828125 C-63.90341745 51.61216184 -61.61361163 57.39182616 -57.46484375 62.87890625 C-56.80484375 63.86890625 -56.14484375 64.85890625 -55.46484375 65.87890625 C-54.80484375 65.87890625 -54.14484375 65.87890625 -53.46484375 65.87890625 C-53.46484375 66.53890625 -53.46484375 67.19890625 -53.46484375 67.87890625 C-51.4246342 69.41086479 -51.4246342 69.41086479 -48.83984375 70.87890625 C-47.98132813 71.39453125 -47.1228125 71.91015625 -46.23828125 72.44140625 C-38.18604244 76.61496101 -29.18097983 77.49021502 -20.40234375 75.015625 C-18.02388133 74.06493144 -15.74152863 73.05017595 -13.46484375 71.87890625 C-12.80484375 71.54890625 -12.14484375 71.21890625 -11.46484375 70.87890625 C-11.46484375 70.21890625 -11.46484375 69.55890625 -11.46484375 68.87890625 C-10.86671875 68.77707031 -10.26859375 68.67523438 -9.65234375 68.5703125 C-5.16482249 67.15193525 -2.50452359 62.67292794 -0.2265625 58.7421875 C4.10037087 50.2299295 4.90972225 41.36650756 2.921875 31.984375 C-0.64585423 22.00416328 -7.64063855 15.771401 -16.8515625 10.97265625 C-31.52270428 4.83226806 -46.31335281 10.04242888 -56.859375 20.9609375 Z " fill="#5B5B5B" transform="translate(571.46484375,328.12109375)"/>
<path d="" fill="#696969" transform="translate(0,0)"/>
<path d="" fill="#575757" transform="translate(0,0)"/>
<path d="" fill="#5B5B5B" transform="translate(0,0)"/>
<path d="" fill="#5F5F5F" transform="translate(0,0)"/>
<path d="" fill="#5A5A5A" transform="translate(0,0)"/>
</svg>
