<?xml version="1.0" encoding="UTF-8"?>
<svg version="1.1" xmlns="http://www.w3.org/2000/svg" width="1024" height="1024">
<path d="M0 0 C0.73810913 0.00093658 1.47621826 0.00187317 2.23669434 0.00283813 C91.45090799 0.2458797 177.80667149 33.39119793 266.75 111.1875 C268.13058594 112.50427734 268.13058594 112.50427734 269.5390625 113.84765625 C273.5395347 117.74210887 273.5395347 117.74210887 274.75 119.1875 C274.75 119.8475 274.75 120.5075 274.75 121.1875 C275.41 121.1875 276.07 121.1875 276.75 121.1875 C279.33248339 123.60761168 281.49739874 126.46379232 283.75 129.1875 C285.02037109 130.7034375 285.02037109 130.7034375 286.31640625 132.25 C295.50983988 143.38268604 303.66265316 155.23807846 311.75 167.1875 C312.21035645 167.86699707 312.67071289 168.54649414 313.14501953 169.24658203 C355.15087093 231.71813448 372.87644307 306.4336447 370.75 381.1875 C370.73066406 381.97979004 370.71132813 382.77208008 370.69140625 383.58837891 C369.51313686 426.72516775 360.09197192 469.68739238 342.75 509.1875 C342.29254395 510.24098633 341.83508789 511.29447266 341.36376953 512.37988281 C324.29132026 551.42439261 301.40021716 586.51919872 272.734375 617.98046875 C271.00022594 619.90919753 269.33747119 621.8746317 267.6875 623.875 C265.0314226 627.00407748 262.06676738 629.59517074 258.94140625 632.24609375 C256.49059942 634.41730764 254.22342971 636.71860694 251.9375 639.0625 C246.84734809 644.19906667 241.40468344 648.69162329 235.75 653.1875 C234.65065882 654.09823036 233.55307532 655.01108555 232.45703125 655.92578125 C216.57632947 669.07467548 199.19199739 679.93393051 181.15478516 689.86181641 C178.97367301 691.06419599 176.80461235 692.28574121 174.63671875 693.51171875 C135.12164262 715.51838074 90.38447091 728.43279848 45.75 734.1875 C44.58791016 734.364021 43.42582031 734.54054199 42.22851562 734.72241211 C36.27023344 735.45841481 30.28009575 735.37001955 24.28515625 735.390625 C22.97961288 735.39632507 21.67406952 735.40202515 20.32896423 735.40789795 C17.56281147 735.41836645 14.79668731 735.42423262 12.03051758 735.42773438 C9.24880518 735.43207239 6.46741114 735.44578666 3.68579102 735.46875 C-14.16017612 735.61302857 -31.57223835 734.84644627 -49.25 732.1875 C-50.63017893 731.99124408 -52.01045645 731.79567913 -53.39086914 731.60107422 C-89.88726449 726.21839392 -127.12997455 716.68483289 -160.25 700.1875 C-161.22775391 699.70410156 -162.20550781 699.22070312 -163.21289062 698.72265625 C-177.41072303 691.65458574 -191.09290602 684.04857907 -204.25 675.1875 C-204.97622559 674.69926758 -205.70245117 674.21103516 -206.45068359 673.70800781 C-216.5574788 666.8587747 -226.10810229 659.44544631 -235.48974609 651.63916016 C-237.05617487 650.34734524 -238.64572919 649.08368802 -240.23828125 647.82421875 C-247.28093706 642.24920757 -253.55402327 636.07194205 -259.81640625 629.65380859 C-262.78079676 626.6217702 -265.78862563 623.63629143 -268.828125 620.6796875 C-275.12223435 614.51440495 -280.7700152 608.09862133 -286.25 601.1875 C-287.1709046 600.07753773 -288.09419811 598.96955432 -289.01953125 597.86328125 C-319.66397176 560.93019248 -343.44907806 514.32108667 -356.25 468.1875 C-356.5279541 467.19443848 -356.8059082 466.20137695 -357.09228516 465.17822266 C-360.920461 451.28204867 -363.93000764 437.36103407 -366.125 423.125 C-366.280186 422.11924423 -366.280186 422.11924423 -366.43850708 421.09317017 C-380.32939144 329.89344279 -357.60702801 232.50365128 -300.60449219 152.93701172 C-283.58167715 129.92131616 -264.13875467 107.70875395 -242.25 89.1875 C-240.78240234 87.88619141 -240.78240234 87.88619141 -239.28515625 86.55859375 C-223.85206578 72.9315515 -206.95694186 61.6407153 -189.25 51.1875 C-188.04053711 50.47231201 -188.04053711 50.47231201 -186.80664062 49.74267578 C-164.52841077 36.71054992 -140.79250408 27.03608058 -116.25 19.1875 C-115.18910156 18.84235352 -114.12820313 18.49720703 -113.03515625 18.14160156 C-86.16395974 9.4695336 -58.39364489 3.62639381 -30.25 1.1875 C-29.18104492 1.0939624 -28.11208984 1.0004248 -27.01074219 0.90405273 C-18.00301583 0.18529689 -9.03012456 -0.01498446 0 0 Z M-253.25 139.1875 C-255.7146607 141.96385081 -258.03088346 144.84604938 -260.32421875 147.765625 C-262.15291356 150.06540346 -264.07045398 152.21661205 -266.0625 154.375 C-318.34199654 212.68274862 -342.5404913 293.22659315 -342.4375 370.3125 C-342.43609512 371.67560806 -342.43609512 371.67560806 -342.43466187 373.06625366 C-342.40533298 386.20053585 -342.26476504 399.18222792 -340.25 412.1875 C-340.08870605 413.2408252 -339.92741211 414.29415039 -339.76123047 415.37939453 C-330.27375786 475.60237753 -305.23232746 533.99836676 -266.25 581.1875 C-265.43917969 582.19941406 -264.62835938 583.21132813 -263.79296875 584.25390625 C-257.23200635 592.28449535 -249.99326101 599.65385945 -242.6875 607 C-241.96332382 607.73207672 -241.96332382 607.73207672 -241.22451782 608.47894287 C-234.57996936 615.17946769 -227.63769722 621.31526454 -220.25 627.1875 C-218.92144629 628.28409633 -217.59560586 629.38399447 -216.2734375 630.48828125 C-207.58702175 637.68195673 -198.67079474 644.41266592 -189.34716797 650.75976562 C-187.98809595 651.68501047 -186.63269393 652.61567856 -185.28173828 653.55273438 C-145.7245197 680.91622312 -99.52165058 695.65989312 -52.4375 703.4375 C-51.08192993 703.66421387 -51.08192993 703.66421387 -49.69897461 703.89550781 C-31.43747843 706.73629187 -13.14337792 707.56750369 5.3125 707.5 C6.877155 707.49726578 6.877155 707.49726578 8.47341919 707.49447632 C74.00683124 707.30253091 138.7740954 687.90729774 192.75 650.1875 C193.30929199 649.79949219 193.86858398 649.41148437 194.44482422 649.01171875 C201.56742122 644.0602858 208.46924789 638.94243573 215.12890625 633.375 C216.82727173 631.95758619 218.54266278 630.56023054 220.27734375 629.1875 C234.52749672 617.87309283 247.90284186 604.99275372 259.75 591.1875 C260.26900879 590.59630371 260.78801758 590.00510742 261.32275391 589.39599609 C277.5086857 570.91171329 290.78896054 549.92860139 302.53613281 528.40087891 C303.61441509 526.43472703 304.71817661 524.48682989 305.8359375 522.54296875 C337.07355337 466.76151185 348.02500053 400.11161372 342.5625 336.8125 C342.46405289 335.65462479 342.46405289 335.65462479 342.36361694 334.47335815 C336.57969341 267.74938072 310.58305998 206.43419676 267.75 155.1875 C266.90620787 154.15498235 266.0624594 153.12242901 265.21875 152.08984375 C253.93985278 138.45340565 241.42473242 125.15483133 227.41796875 114.296875 C224.72942875 112.17123576 222.18078133 109.93765579 219.62182617 107.65991211 C137.36152053 34.71249878 17.87168262 12.52237135 -253.25 139.1875 Z " fill="#5B5B5B" transform="translate(528.25,145.8125)"/>
<path d="M0 0 C17.49 0 34.98 0 53 0 C54.65 4.62 56.3 9.24 58 14 C59.09433103 16.92059381 59.09433103 16.92059381 60.19482422 19.83886719 C62.20940602 25.24610736 64.12956666 30.68815725 66.0625 36.125 C66.30498474 36.80660187 66.54746948 37.48820374 66.79730225 38.19046021 C70.18849056 47.73638037 73.46148067 57.31330069 76.625 66.9375 C81.7559438 82.52395192 87.25553585 97.97757269 92.76025391 113.43530273 C93.28703735 114.91516663 93.28703735 114.91516663 93.82446289 116.42492676 C94.4677215 118.23092844 95.1117969 120.03663965 95.75708008 121.84191895 C99.57042552 132.53894672 103.26880986 143.27282834 107 154 C170.855 154.495 170.855 154.495 236 155 C236 158.63 236 162.26 236 166 C232.37 166 228.74 166 225 166 C225 166.99 225 167.98 225 169 C224.34 169 223.68 169 223 169 C223 168.01 223 167.02 223 166 C186.04 166 149.08 166 111 166 C115.3288142 177.36082022 115.3288142 177.36082022 121 188 C125.94537265 189.78033415 130.80687194 190.45335494 136 191 C136 194.3 136 197.6 136 201 C108.94 201 81.88 201 54 201 C54 197.7 54 194.4 54 191 C55.39734375 190.89042969 56.7946875 190.78085937 58.234375 190.66796875 C60.07297627 190.50849823 61.91151489 190.34830414 63.75 190.1875 C64.67039062 190.11724609 65.59078125 190.04699219 66.5390625 189.97460938 C67.42851562 189.89404297 68.31796875 189.81347656 69.234375 189.73046875 C70.45979004 189.62835083 70.45979004 189.62835083 71.70996094 189.52416992 C74.4404955 188.89917443 75.93648091 187.87109063 78 186 C79.73375247 179.44723475 76.66015142 172.08722187 75 166 C65.43 166 55.86 166 46 166 C46 162.37 46 158.74 46 155 C58.375 154.505 58.375 154.505 71 154 C69.9171875 150.93074219 68.834375 147.86148438 67.71875 144.69921875 C66.67514726 141.73094265 65.63315033 138.76210748 64.59130859 135.79321289 C63.8654492 133.72751774 63.13791745 131.66240946 62.40869141 129.59790039 C61.36182223 126.63319538 60.32095248 123.66644344 59.28125 120.69921875 C58.95314331 119.7741301 58.62503662 118.84904144 58.2869873 117.8959198 C57.98667603 117.03525406 57.68636475 116.17458832 57.37695312 115.2878418 C57.11047974 114.53061325 56.84400635 113.7733847 56.56945801 112.99320984 C56 111 56 111 56 108 C37.52 108 19.04 108 0 108 C-0.99 111.63 -1.98 115.26 -3 119 C-3.73486153 121.21188755 -4.49831334 123.41473176 -5.3046875 125.6015625 C-5.72113525 126.74359131 -6.13758301 127.88562012 -6.56665039 129.06225586 C-6.99840576 130.23796143 -7.43016113 131.41366699 -7.875 132.625 C-15.9407679 153.53721724 -15.9407679 153.53721724 -19.25 175.5 C-19.27578125 176.6034375 -19.3015625 177.706875 -19.328125 178.84375 C-18.95445332 182.4381157 -18.29834316 184.21831429 -16 187 C-8.36093049 190.44364403 0.74429008 190.61384583 9 191 C9 194.3 9 197.6 9 201 C-8.82 201 -26.64 201 -45 201 C-45 189.8227104 -45 189.8227104 -42.25 186.50390625 C-38.81369212 181.89366064 -36.91632676 177.33336045 -35 171.9375 C-34.62593018 170.91333984 -34.25186035 169.88917969 -33.86645508 168.83398438 C-32.55904229 165.22912994 -31.27480771 161.61647498 -30 158 C-29.76408142 157.330755 -29.52816284 156.66151001 -29.28509521 155.97198486 C-26.81829022 148.96557204 -24.36684972 141.95381 -21.92553711 134.93847656 C-17.1399497 121.1958199 -12.25847923 107.48868939 -7.35153198 93.78894043 C-4.79697337 86.65173144 -2.25179852 79.51116882 0.29447937 72.3710022 C2.70125624 65.62574633 5.12094323 58.88532449 7.55158997 52.14863586 C8.9995025 48.12630531 10.43508999 44.09966001 11.86721802 40.07168579 C12.53421648 38.20415878 13.20656706 36.33853388 13.88449097 34.47494507 C14.80932121 31.93072802 15.71546376 29.38060513 16.6171875 26.828125 C16.89207504 26.08611343 17.16696259 25.34410187 17.45018005 24.5796051 C18.83049866 20.66275173 18.83049866 20.66275173 18.30126953 16.64355469 C13.53716249 10.62629979 7.21431449 9.97560125 0 9 C0 6.03 0 3.06 0 0 Z M28 31 C23.64874871 40.95238232 20.05789483 51.11952781 16.5 61.375 C15.6612336 63.78202158 14.82144643 66.18868495 13.98144531 68.59527588 C13.43567619 70.15988131 12.8907405 71.72477774 12.34667969 73.28997803 C11.07728067 76.93784531 9.79616577 80.58046171 8.48046875 84.21191406 C8.24565796 84.86100739 8.01084717 85.51010071 7.7689209 86.17886353 C7.13722692 87.91927694 6.50138324 89.65818263 5.86523438 91.39697266 C4.89485779 93.85913988 4.89485779 93.85913988 5 96 C20.18 96 35.36 96 51 96 C43.79045859 74.28754389 36.51857595 52.60707531 29 31 C28.67 31 28.34 31 28 31 Z " fill="#5B5B5B" transform="translate(439,566)"/>
<path d="M0 0 C1.18142578 0.00563965 2.36285156 0.0112793 3.58007812 0.01708984 C39.90022158 0.51686293 68.10432014 16.2688475 95.875 38.3125 C96.79667969 39.03953125 97.71835937 39.7665625 98.66796875 40.515625 C104.99451266 45.59146687 110.95246148 50.99775748 116.875 56.53125 C119.22516717 58.72317649 121.61937604 60.84902306 124.0625 62.9375 C148.94046736 84.50890208 148.94046736 84.50890208 152.875 96.3125 C153.46232182 105.41598827 149.81531989 109.61310543 144 116.25 C142.96054839 117.4462766 141.92148216 118.64288816 140.8828125 119.83984375 C140.37911133 120.41589355 139.87541016 120.99194336 139.35644531 121.58544922 C137.90361868 123.27913669 136.51114652 125.01171315 135.1171875 126.75390625 C134.37726563 127.59824219 133.63734375 128.44257813 132.875 129.3125 C132.215 129.3125 131.555 129.3125 130.875 129.3125 C130.545 130.3025 130.215 131.2925 129.875 132.3125 C129.215 132.3125 128.555 132.3125 127.875 132.3125 C127.875 132.9725 127.875 133.6325 127.875 134.3125 C126.51171875 135.6875 126.51171875 135.6875 124.5625 137.3125 C121.24205251 140.12300093 118.04541415 143.02144147 114.875 146 C88.1472562 170.26791024 57.36564406 185.98607488 21.875 192.3125 C20.8025 192.50714844 19.73 192.70179688 18.625 192.90234375 C-10.06857481 196.04070349 -37.3086815 190.77375053 -63.125 178.3125 C-64.05626709 177.86632324 -64.05626709 177.86632324 -65.00634766 177.41113281 C-83.8282262 168.2550783 -100.09764523 155.04753374 -115.3515625 140.86328125 C-117.58942174 138.80508113 -119.85914793 136.8279647 -122.1875 134.875 C-130.29839431 127.80525569 -146.62233245 113.48067418 -148.43359375 102.4296875 C-148.69527434 97.87803112 -148.36264024 95.05760835 -145.484375 91.43359375 C-144.6634436 90.3986377 -144.6634436 90.3986377 -143.82592773 89.34277344 C-141.282957 86.30741466 -138.65923086 83.37585199 -135.9375 80.5 C-135.3501709 79.87544922 -134.7628418 79.25089844 -134.15771484 78.60742188 C-128.93715395 73.0951119 -123.60722665 67.69171038 -118.25 62.3125 C-117.4660083 61.52383545 -116.6820166 60.7351709 -115.87426758 59.92260742 C-111.1199197 55.18135831 -106.24819763 50.65221091 -101.125 46.3125 C-100.50898926 45.78978516 -99.89297852 45.26707031 -99.25830078 44.72851562 C-70.8880985 20.88348402 -38.25043376 -0.19312827 0 0 Z M-28.125 22.3125 C-29.07761719 22.65152344 -30.03023438 22.99054688 -31.01171875 23.33984375 C-55.87376129 32.87085869 -77.01753349 48.79776233 -96.36328125 66.76953125 C-98.54040629 68.77421074 -100.74212768 70.713752 -103 72.625 C-116.68677876 84.45907988 -116.68677876 84.45907988 -128.125 98.3125 C-128.125 102.27259225 -126.71719817 103.45770759 -124.25 106.5 C-123.53070313 107.40105469 -122.81140625 108.30210937 -122.0703125 109.23046875 C-121.42835938 109.91753906 -120.78640625 110.60460937 -120.125 111.3125 C-119.465 111.3125 -118.805 111.3125 -118.125 111.3125 C-117.85623047 111.90579102 -117.58746094 112.49908203 -117.31054688 113.11035156 C-116.12209268 115.31790033 -114.91757611 116.77792882 -113.15625 118.546875 C-112.58519531 119.12050781 -112.01414062 119.69414062 -111.42578125 120.28515625 C-110.83152344 120.87167969 -110.23726563 121.45820313 -109.625 122.0625 C-108.73361328 122.96548828 -108.73361328 122.96548828 -107.82421875 123.88671875 C-107.25316406 124.45519531 -106.68210937 125.02367187 -106.09375 125.609375 C-105.57232422 126.12854492 -105.05089844 126.64771484 -104.51367188 127.18261719 C-103.16481731 128.52287547 -103.16481731 128.52287547 -101.125 128.3125 C-101.125 128.9725 -101.125 129.6325 -101.125 130.3125 C-98.23552827 133.03971198 -95.06446415 135.43386036 -91.93945312 137.88525391 C-90.6860576 138.87117294 -89.43765134 139.86345617 -88.19335938 140.86083984 C-58.2087493 164.8847412 -24.03157638 177.80582688 14.703125 175.0390625 C50.8645103 170.89067847 81.02568131 152.63176497 107.06640625 127.9453125 C109.23378122 125.91358686 111.42655674 123.97814803 113.68359375 122.05078125 C118.21992504 118.10353516 122.29401583 113.78473012 126.375 109.375 C127.10203125 108.59576172 127.8290625 107.81652344 128.578125 107.01367188 C130.34726605 105.11650088 132.11279169 103.21610821 133.875 101.3125 C131.26144651 96.30885671 127.55161888 92.5446366 123.6875 88.5 C123.01130615 87.78658447 122.3351123 87.07316895 121.63842773 86.33813477 C114.64759642 78.98224259 107.58526297 71.91401441 99.875 65.3125 C98.86788348 64.43037901 97.861424 63.54750755 96.85546875 62.6640625 C73.54095993 42.29199607 50.5889509 25.90203856 19.875 19.3125 C18.9773291 19.05098145 18.9773291 19.05098145 18.06152344 18.78417969 C3.74941878 15.69675381 -14.51443842 17.01853317 -28.125 22.3125 Z " fill="#5B5B5B" transform="translate(538.125,249.6875)"/>
<path d="M0 0 C0 18.81 0 37.62 0 57 C2.96295333 57 3.79824189 55.37024018 5.875 53.3125 C14.88122717 45.26407794 24.14704435 43.00020399 35.94140625 43.5859375 C46.41486682 44.45690124 54.61900497 49.21451103 61.71484375 56.84375 C72.67912418 70.45842901 75.19895957 88.01473945 74 105 C72.34866894 118.81613651 67.82517486 131.90968857 56.71484375 140.8359375 C44.66125519 149.66654179 32.83362419 152.55370603 18 151 C10.5392186 149.14313142 4.91153055 145.68221083 -0.57421875 140.35546875 C-1.79291374 138.88516494 -1.79291374 138.88516494 -3 139 C-3.33 142.63 -3.66 146.26 -4 150 C-10.27 149.67 -16.54 149.34 -23 149 C-23.01030746 147.31315094 -23.02061493 145.62630188 -23.03123474 143.88833618 C-23.12880764 128.02491519 -23.231467 112.16153575 -23.33933926 96.29818153 C-23.39467173 88.14183624 -23.44815377 79.98548658 -23.49731445 71.82910156 C-23.540156 64.7219157 -23.5864339 57.61476205 -23.63687855 50.50762594 C-23.66347974 46.7427308 -23.68833281 42.97784206 -23.70907402 39.2129097 C-23.73226424 35.01510103 -23.76312472 30.81738304 -23.79467773 26.61962891 C-23.80331093 24.73689018 -23.80331093 24.73689018 -23.81211853 22.81611633 C-23.82190735 21.67745621 -23.83169617 20.53879608 -23.84178162 19.3656311 C-23.84823417 18.37193827 -23.85468672 17.37824543 -23.8613348 16.35444069 C-23.84611723 13.97955415 -23.84611723 13.97955415 -25 12 C-27.57951874 11.30906104 -27.57951874 11.30906104 -30.5625 10.875 C-31.57441406 10.70742188 -32.58632813 10.53984375 -33.62890625 10.3671875 C-34.41136719 10.24601563 -35.19382812 10.12484375 -36 10 C-36 7.03 -36 4.06 -36 1 C-31.03377796 0.85740363 -26.06755068 0.71499183 -21.10131836 0.57275391 C-19.41056168 0.52430257 -17.71980647 0.47580007 -16.02905273 0.42724609 C-13.60400771 0.35761398 -11.17895754 0.28816361 -8.75390625 0.21875 C-7.99348526 0.19687622 -7.23306427 0.17500244 -6.44960022 0.15246582 C-1.11387171 0 -1.11387171 0 0 0 Z M0.68502808 70.33688354 C-2.34387361 75.12393608 -2.12362565 79.88336456 -2.02734375 85.41015625 C-2.03262589 86.57703476 -2.03790802 87.74391327 -2.04335022 88.94615173 C-2.04440743 91.4011005 -2.02562245 93.85612975 -1.98803711 96.31079102 C-1.93758223 100.05639586 -1.9672801 103.79538535 -2.00585938 107.54101562 C-1.99697901 109.9349184 -1.98346354 112.32880941 -1.96484375 114.72265625 C-1.97587631 115.83431656 -1.98690887 116.94597687 -1.99827576 118.09132385 C-1.83549032 124.85860248 -0.68749661 128.57276633 4.09983826 133.43748474 C10.4531324 138.6618395 16.80816428 139.68243381 24.921875 139.37109375 C32.75682978 138.42652433 37.25670329 134.44460924 42.23828125 128.50390625 C50.93461541 116.14392798 50.55901521 98.46028752 48.5390625 84.01953125 C46.67952977 74.86406714 43.2857903 66.8407736 35.4375 61.375 C22.44868436 54.51924919 9.62108849 59.96631622 0.68502808 70.33688354 Z " fill="#5B5B5B" transform="translate(572,565)"/>
<path d="M0 0 C3.32514349 -0.00290944 6.65028374 -0.00707524 9.97542572 -0.01134872 C23.65602447 -0.02599297 37.33582273 0.00252772 51.01610565 0.09993362 C53.11629822 0.11485161 55.21649822 0.12875441 57.3167038 0.14171219 C63.54812381 0.18152 69.77858821 0.2437403 76.00941467 0.33911896 C77.9324955 0.36598235 79.85567903 0.38638017 81.77890015 0.39987183 C84.42062142 0.42016817 87.06078259 0.46530372 89.70204926 0.51706314 C90.4722364 0.51790028 91.24242355 0.51873741 92.03594971 0.51959991 C97.19136051 0.65814001 100.13766087 1.89432414 104.12880707 5.12204361 C107.51390058 8.95848293 107.64513604 12.75636669 107.47646332 17.68454361 C106.95071202 21.37071005 105.64066315 23.4118831 103.12880707 26.12204361 C98.98877009 28.56024459 95.90896854 29.50231799 91.12245941 29.55441666 C89.94719193 29.57420074 88.77192444 29.59398483 87.56104279 29.61436844 C85.65712517 29.62396843 85.65712517 29.62396843 83.71474457 29.63376236 C82.36545007 29.65078211 81.01617064 29.66903499 79.66690826 29.6884346 C76.0367596 29.73671003 72.4066809 29.76642658 68.77630997 29.79200363 C65.71690903 29.81561717 62.65765295 29.84937052 59.59834957 29.88311386 C50.44904161 29.98375581 41.2996827 30.05244921 32.15000916 30.1091423 C29.16652742 30.12818583 26.1830705 30.15053061 23.19960785 30.17233658 C9.55757859 30.26457714 -4.08200256 30.22925686 -17.72397614 30.14487076 C-21.58565102 30.12237231 -25.44733699 30.10776545 -29.30905056 30.09369469 C-38.60769561 30.05972895 -47.90604123 30.00887687 -57.20445919 29.93492699 C-61.89482501 29.89784436 -66.58502836 29.86687487 -71.27552032 29.85159683 C-75.71000022 29.83660709 -80.14393448 29.80232638 -84.57817078 29.75386047 C-86.22790864 29.73905151 -87.87772276 29.73099649 -89.52752686 29.73012543 C-91.81039936 29.72776146 -94.09175689 29.70076941 -96.37436676 29.66794205 C-97.65870102 29.6590596 -98.94303528 29.65017715 -100.26628876 29.64102554 C-105.43739123 28.89656504 -109.23231225 26.91952564 -112.80869293 22.99704361 C-114.40806035 18.66934355 -114.52806693 14.67637002 -113.87119293 10.12204361 C-111.64679915 5.5908711 -109.40988832 3.25048038 -104.87119293 1.12204361 C-101.8354099 0.64867238 -98.82242038 0.63284738 -95.75400543 0.61032486 C-94.32177139 0.5832621 -94.32177139 0.5832621 -92.86060333 0.55565262 C-89.57250304 0.499322 -86.28461714 0.46633857 -82.99619293 0.43454361 C-80.59807646 0.40183106 -78.19996462 0.36877717 -75.80185699 0.33542252 C-50.53661621 0.02190179 -25.26680468 0.02038115 0 0 Z " fill="#5B5B5B" transform="translate(526.8711929321289,465.87795639038086)"/>
<path d="M0 0 C11.30652056 8.37971709 19.12069907 19.79457268 21.53515625 33.87890625 C22.8490429 49.32471322 20.16699735 62.1917859 10.4609375 74.51171875 C1.98965088 84.41706262 -9.30171776 91.97866551 -22.46484375 93.87890625 C-30.35451124 94.25881185 -37.92727554 94.43401412 -45.46484375 91.87890625 C-46.25117187 91.62238281 -47.0375 91.36585938 -47.84765625 91.1015625 C-60.28009543 86.67226842 -71.44078976 76.62688342 -77.46484375 64.87890625 C-78.05458984 63.81929687 -78.05458984 63.81929687 -78.65625 62.73828125 C-83.84504597 51.52903559 -83.55479515 35.1916841 -79.46484375 23.62890625 C-73.03840299 9.98618285 -63.13921254 -0.12863824 -49.265625 -6.1484375 C-32.12157057 -12.10223046 -15.1728545 -10.1074193 0 0 Z M-56.859375 20.9609375 C-62.34497766 27.51429736 -64.96972005 36.2387623 -64.71875 44.73828125 C-63.90341745 51.61216184 -61.61361163 57.39182616 -57.46484375 62.87890625 C-56.80484375 63.86890625 -56.14484375 64.85890625 -55.46484375 65.87890625 C-54.80484375 65.87890625 -54.14484375 65.87890625 -53.46484375 65.87890625 C-53.46484375 66.53890625 -53.46484375 67.19890625 -53.46484375 67.87890625 C-51.4246342 69.41086479 -51.4246342 69.41086479 -48.83984375 70.87890625 C-47.98132813 71.39453125 -47.1228125 71.91015625 -46.23828125 72.44140625 C-38.18604244 76.61496101 -29.18097983 77.49021502 -20.40234375 75.015625 C-18.02388133 74.06493144 -15.74152863 73.05017595 -13.46484375 71.87890625 C-12.80484375 71.54890625 -12.14484375 71.21890625 -11.46484375 70.87890625 C-11.46484375 70.21890625 -11.46484375 69.55890625 -11.46484375 68.87890625 C-10.86671875 68.77707031 -10.26859375 68.67523438 -9.65234375 68.5703125 C-5.16482249 67.15193525 -2.50452359 62.67292794 -0.2265625 58.7421875 C4.10037087 50.2299295 4.90972225 41.36650756 2.921875 31.984375 C-0.64585423 22.00416328 -7.64063855 15.771401 -16.8515625 10.97265625 C-31.52270428 4.83226806 -46.31335281 10.04242888 -56.859375 20.9609375 Z " fill="#5B5B5B" transform="translate(571.46484375,328.12109375)"/>
<path d="M0 0 C2.31 0 4.62 0 7 0 C7 2.97 7 5.94 7 9 C7.66 9 8.32 9 9 9 C8.67 6.03 8.34 3.06 8 0 C9.98 0 11.96 0 14 0 C14 3.3 14 6.6 14 10 C14.66 10 15.32 10 16 10 C16 11.32 16 12.64 16 14 C14.22950311 14.05410687 12.45853151 14.09284119 10.6875 14.125 C9.20830078 14.15980469 9.20830078 14.15980469 7.69921875 14.1953125 C5 14 5 14 2 12 C1.59156077 9.28796348 1.86663133 6.7562858 2 4 C1.34 4 0.68 4 0 4 C0 2.68 0 1.36 0 0 Z " fill="#5D5D5D" transform="translate(647,701)"/>
<path d="M0 0 C7.28358209 1.55223881 7.28358209 1.55223881 10 3.25 C11.58620561 6.02585981 11.51055269 7.87286475 11 11 C8.9375 13.4375 8.9375 13.4375 6 15 C-0.21052632 14.78947368 -0.21052632 14.78947368 -3 12 C-3.125 9.375 -3.125 9.375 -3 7 C-3.66 7 -4.32 7 -5 7 C-5 6.34 -5 5.68 -5 5 C-4.01 5 -3.02 5 -2 5 C-1.34 3.35 -0.68 1.7 0 0 Z M3 5 C2.67 6.65 2.34 8.3 2 10 C2.99 10.33 3.98 10.66 5 11 C6.01111093 7.95086772 6.01111093 7.95086772 5 5 C4.34 5 3.68 5 3 5 Z " fill="#5D5D5D" transform="translate(636,700)"/>
<path d="M0 0 C2.475 0.99 2.475 0.99 5 2 C5 2.99 5 3.98 5 5 C5.99 5 6.98 5 8 5 C8 6.32 8 7.64 8 9 C7.01 9 6.02 9 5 9 C5 10.98 5 12.96 5 15 C6.32 14.67 7.64 14.34 9 14 C9 15.32 9 16.64 9 18 C3.62857143 19.34285714 3.62857143 19.34285714 0.8515625 17.828125 C-1.4665284 15.53937702 -1.63350177 14.27442648 -1.875 11.0625 C-1.95492187 10.20785156 -2.03484375 9.35320313 -2.1171875 8.47265625 C-1.98953205 5.77912633 -1.29667291 4.32697503 0 2 C0 1.34 0 0.68 0 0 Z " fill="#5D5D5D" transform="translate(665,696)"/>
<path d="M0 0 C4.95 0 9.9 0 15 0 C15.09765625 6.15234375 15.09765625 6.15234375 15 8 C14 9 14 9 11.49609375 9.09765625 C9.98208984 9.08025391 9.98208984 9.08025391 8.4375 9.0625 C7.42558594 9.05347656 6.41367187 9.04445313 5.37109375 9.03515625 C4.58863281 9.02355469 3.80617188 9.01195312 3 9 C2.01 6.03 1.02 3.06 0 0 Z " fill="#5B5B5B" transform="translate(530,665)"/>
<path d="" fill="#696969" transform="translate(0,0)"/>
<path d="" fill="#575757" transform="translate(0,0)"/>
<path d="" fill="#5B5B5B" transform="translate(0,0)"/>
<path d="" fill="#5F5F5F" transform="translate(0,0)"/>
<path d="" fill="#5A5A5A" transform="translate(0,0)"/>
</svg>
