<?xml version="1.0" encoding="UTF-8"?>
<svg version="1.1" xmlns="http://www.w3.org/2000/svg" width="1024" height="1024">
<path d="M0 0 C0.73810913 0.00093658 1.47621826 0.00187317 2.23669434 0.00283813 C91.45090799 0.2458797 177.80667149 33.39119793 266.75 111.1875 C268.13058594 112.50427734 268.13058594 112.50427734 269.5390625 113.84765625 C273.5395347 117.74210887 273.5395347 117.74210887 274.75 119.1875 C274.75 119.8475 274.75 120.5075 274.75 121.1875 C275.41 121.1875 276.07 121.1875 276.75 121.1875 C279.33248339 123.60761168 281.49739874 126.46379232 283.75 129.1875 C285.02037109 130.7034375 285.02037109 130.7034375 286.31640625 132.25 C295.50983988 143.38268604 303.66265316 155.23807846 311.75 167.1875 C312.21035645 167.86699707 312.67071289 168.54649414 313.14501953 169.24658203 C355.15087093 231.71813448 372.87644307 306.4336447 370.75 381.1875 C370.73066406 381.97979004 370.71132813 382.77208008 370.69140625 383.58837891 C369.51313686 426.72516775 360.09197192 469.68739238 342.75 509.1875 C342.29254395 510.24098633 341.83508789 511.29447266 341.36376953 512.37988281 C324.29132026 551.42439261 301.40021716 586.51919872 272.734375 617.98046875 C271.00022594 619.90919753 269.33747119 621.8746317 267.6875 623.875 C265.0314226 627.00407748 262.06676738 629.59517074 258.94140625 632.24609375 C256.49059942 634.41730764 254.22342971 636.71860694 251.9375 639.0625 C246.84734809 644.19906667 241.40468344 648.69162329 235.75 653.1875 C234.65065882 654.09823036 233.55307532 655.01108555 232.45703125 655.92578125 C216.57632947 669.07467548 199.19199739 679.93393051 181.15478516 689.86181641 C178.97367301 691.06419599 176.80461235 692.28574121 174.63671875 693.51171875 C135.12164262 715.51838074 90.38447091 728.43279848 45.75 734.1875 C44.58791016 734.364021 43.42582031 734.54054199 42.22851562 734.72241211 C36.27023344 735.45841481 30.28009575 735.37001955 24.28515625 735.390625 C22.97961288 735.39632507 21.67406952 735.40202515 20.32896423 735.40789795 C17.56281147 735.41836645 14.79668731 735.42423262 12.03051758 735.42773438 C9.24880518 735.43207239 6.46741114 735.44578666 3.68579102 735.46875 C-14.16017612 735.61302857 -31.57223835 734.84644627 -49.25 732.1875 C-50.63017893 731.99124408 -52.01045645 731.79567913 -53.39086914 731.60107422 C-89.88726449 726.21839392 -127.12997455 716.68483289 -160.25 700.1875 C-161.22775391 699.70410156 -162.20550781 699.22070312 -163.21289062 698.72265625 C-177.41072303 691.65458574 -191.09290602 684.04857907 -204.25 675.1875 C-204.97622559 674.69926758 -205.70245117 674.21103516 -206.45068359 673.70800781 C-216.5574788 666.8587747 -226.10810229 659.44544631 -235.48974609 651.63916016 C-237.05617487 650.34734524 -238.64572919 649.08368802 -240.23828125 647.82421875 C-247.28093706 642.24920757 -253.55402327 636.07194205 -259.81640625 629.65380859 C-262.78079676 626.6217702 -265.78862563 623.63629143 -268.828125 620.6796875 C-275.12223435 614.51440495 -280.7700152 608.09862133 -286.25 601.1875 C-287.1709046 600.07753773 -288.09419811 598.96955432 -289.01953125 597.86328125 C-319.66397176 560.93019248 -343.44907806 514.32108667 -356.25 468.1875 C-356.5279541 467.19443848 -356.8059082 466.20137695 -357.09228516 465.17822266 C-360.920461 451.28204867 -363.93000764 437.36103407 -366.125 423.125 C-366.280186 422.11924423 -366.280186 422.11924423 -366.43850708 421.09317017 C-380.32939144 329.89344279 -357.60702801 232.50365128 -300.60449219 152.93701172 C-283.58167715 129.92131616 -264.13875467 107.70875395 -242.25 89.1875 C-240.78240234 87.88619141 -240.78240234 87.88619141 -239.28515625 86.55859375 C-223.85206578 72.9315515 -206.95694186 61.6407153 -189.25 51.1875 C-188.04053711 50.47231201 -188.04053711 50.47231201 -186.80664062 49.74267578 C-164.52841077 36.71054992 -140.79250408 27.03608058 -116.25 19.1875 C-115.18910156 18.84235352 -114.12820313 18.49720703 -113.03515625 18.14160156 C-86.16395974 9.4695336 -58.39364489 3.62639381 -30.25 1.1875 C-29.18104492 1.0939624 -28.11208984 1.0004248 -27.01074219 0.90405273 C-18.00301583 0.18529689 -9.03012456 -0.01498446 0 0 Z M-253.25 139.1875 C-255.7146607 141.96385081 -258.03088346 144.84604938 -260.32421875 147.765625 C-262.15291356 150.06540346 -264.07045398 152.21661205 -266.0625 154.375 C-318.34199654 212.68274862 -342.5404913 293.22659315 -342.4375 370.3125 C-342.43609512 371.67560806 -342.43609512 371.67560806 -342.43466187 373.06625366 C-342.40533298 386.20053585 -342.26476504 399.18222792 -340.25 412.1875 C-340.08870605 413.2408252 -339.92741211 414.29415039 -339.76123047 415.37939453 C-330.27375786 475.60237753 -305.23232746 533.99836676 -266.25 581.1875 C-265.43917969 582.19941406 -264.62835938 583.21132813 -263.79296875 584.25390625 C-257.23200635 592.28449535 -249.99326101 599.65385945 -242.6875 607 C-241.96332382 607.73207672 -241.96332382 607.73207672 -241.22451782 608.47894287 C-234.57996936 615.17946769 -227.63769722 621.31526454 -220.25 627.1875 C-218.92144629 628.28409633 -217.59560586 629.38399447 -216.2734375 630.48828125 C-207.58702175 637.68195673 -198.67079474 644.41266592 -189.34716797 650.75976562 C-187.98809595 651.68501047 -186.63269393 652.61567856 -185.28173828 653.55273438 C-145.7245197 680.91622312 -99.52165058 695.65989312 -52.4375 703.4375 C-51.08192993 703.66421387 -51.08192993 703.66421387 -49.69897461 703.89550781 C-31.43747843 706.73629187 -13.14337792 707.56750369 5.3125 707.5 C6.877155 707.49726578 6.877155 707.49726578 8.47341919 707.49447632 C74.00683124 707.30253091 138.7740954 687.90729774 192.75 650.1875 C193.30929199 649.79949219 193.86858398 649.41148437 194.44482422 649.01171875 C201.56742122 644.0602858 208.46924789 638.94243573 215.12890625 633.375 C216.82727173 631.95758619 218.54266278 630.56023054 220.27734375 629.1875 C234.52749672 617.87309283 247.90284186 604.99275372 259.75 591.1875 C260.26900879 590.59630371 260.78801758 590.00510742 261.32275391 589.39599609 C277.5086857 570.91171329 290.78896054 549.92860139 302.53613281 528.40087891 C303.61441509 526.43472703 304.71817661 524.48682989 305.8359375 522.54296875 C337.07355337 466.76151185 348.02500053 400.11161372 342.5625 336.8125 C342.46405289 335.65462479 342.46405289 335.65462479 342.36361694 334.47335815 C336.57969341 267.74938072 310.58305998 206.43419676 267.75 155.1875 C266.90620787 154.15498235 266.0624594 153.12242901 265.21875 152.08984375 C253.93985278 138.45340565 241.42473242 125.15483133 227.41796875 114.296875 C224.72942875 112.17123576 222.18078133 109.93765579 219.62182617 107.65991211 C137.36152053 34.71249878 17.87168262 12.52237135 -253.25 139.1875 Z " fill="#5B5B5B" transform="translate(528.25,145.8125)"/>
<path d="M0 0 C1.18142578 0.00563965 2.36285156 0.0112793 3.58007812 0.01708984 C39.90022158 0.51686293 68.10432014 16.2688475 95.875 38.3125 C96.79667969 39.03953125 97.71835937 39.7665625 98.66796875 40.515625 C104.99451266 45.59146687 110.95246148 50.99775748 116.875 56.53125 C119.22516717 58.72317649 121.61937604 60.84902306 124.0625 62.9375 C148.94046736 84.50890208 148.94046736 84.50890208 152.875 96.3125 C153.46232182 105.41598827 149.81531989 109.61310543 144 116.25 C142.96054839 117.4462766 141.92148216 118.64288816 140.8828125 119.83984375 C140.37911133 120.41589355 139.87541016 120.99194336 139.35644531 121.58544922 C137.90361868 123.27913669 136.51114652 125.01171315 135.1171875 126.75390625 C134.37726563 127.59824219 133.63734375 128.44257813 132.875 129.3125 C132.215 129.3125 131.555 129.3125 130.875 129.3125 C130.545 130.3025 130.215 131.2925 129.875 132.3125 C129.215 132.3125 128.555 132.3125 127.875 132.3125 C127.875 132.9725 127.875 133.6325 127.875 134.3125 C126.51171875 135.6875 126.51171875 135.6875 124.5625 137.3125 C121.24205251 140.12300093 118.04541415 143.02144147 114.875 146 C88.1472562 170.26791024 57.36564406 185.98607488 21.875 192.3125 C20.8025 192.50714844 19.73 192.70179688 18.625 192.90234375 C-10.06857481 196.04070349 -37.3086815 190.77375053 -63.125 178.3125 C-64.05626709 177.86632324 -64.05626709 177.86632324 -65.00634766 177.41113281 C-83.8282262 168.2550783 -100.09764523 155.04753374 -115.3515625 140.86328125 C-117.58942174 138.80508113 -119.85914793 136.8279647 -122.1875 134.875 C-130.29839431 127.80525569 -146.62233245 113.48067418 -148.43359375 102.4296875 C-148.69527434 97.87803112 -148.36264024 95.05760835 -145.484375 91.43359375 C-144.6634436 90.3986377 -144.6634436 90.3986377 -143.82592773 89.34277344 C-141.282957 86.30741466 -138.65923086 83.37585199 -135.9375 80.5 C-135.3501709 79.87544922 -134.7628418 79.25089844 -134.15771484 78.60742188 C-128.93715395 73.0951119 -123.60722665 67.69171038 -118.25 62.3125 C-117.4660083 61.52383545 -116.6820166 60.7351709 -115.87426758 59.92260742 C-111.1199197 55.18135831 -106.24819763 50.65221091 -101.125 46.3125 C-100.50898926 45.78978516 -99.89297852 45.26707031 -99.25830078 44.72851562 C-70.8880985 20.88348402 -38.25043376 -0.19312827 0 0 Z M-28.125 22.3125 C-29.07761719 22.65152344 -30.03023438 22.99054688 -31.01171875 23.33984375 C-55.87376129 32.87085869 -77.01753349 48.79776233 -96.36328125 66.76953125 C-98.54040629 68.77421074 -100.74212768 70.713752 -103 72.625 C-116.68677876 84.45907988 -116.68677876 84.45907988 -128.125 98.3125 C-128.125 102.27259225 -126.71719817 103.45770759 -124.25 106.5 C-123.53070313 107.40105469 -122.81140625 108.30210937 -122.0703125 109.23046875 C-121.42835938 109.91753906 -120.78640625 110.60460937 -120.125 111.3125 C-119.465 111.3125 -118.805 111.3125 -118.125 111.3125 C-117.85623047 111.90579102 -117.58746094 112.49908203 -117.31054688 113.11035156 C-116.12209268 115.31790033 -114.91757611 116.77792882 -113.15625 118.546875 C-112.58519531 119.12050781 -112.01414062 119.69414062 -111.42578125 120.28515625 C-110.83152344 120.87167969 -110.23726563 121.45820313 -109.625 122.0625 C-108.73361328 122.96548828 -108.73361328 122.96548828 -107.82421875 123.88671875 C-107.25316406 124.45519531 -106.68210937 125.02367187 -106.09375 125.609375 C-105.57232422 126.12854492 -105.05089844 126.64771484 -104.51367188 127.18261719 C-103.16481731 128.52287547 -103.16481731 128.52287547 -101.125 128.3125 C-101.125 128.9725 -101.125 129.6325 -101.125 130.3125 C-98.23552827 133.03971198 -95.06446415 135.43386036 -91.93945312 137.88525391 C-90.6860576 138.87117294 -89.43765134 139.86345617 -88.19335938 140.86083984 C-58.2087493 164.8847412 -24.03157638 177.80582688 14.703125 175.0390625 C50.8645103 170.89067847 81.02568131 152.63176497 107.06640625 127.9453125 C109.23378122 125.91358686 111.42655674 123.97814803 113.68359375 122.05078125 C118.21992504 118.10353516 122.29401583 113.78473012 126.375 109.375 C127.10203125 108.59576172 127.8290625 107.81652344 128.578125 107.01367188 C130.34726605 105.11650088 132.11279169 103.21610821 133.875 101.3125 C131.26144651 96.30885671 127.55161888 92.5446366 123.6875 88.5 C123.01130615 87.78658447 122.3351123 87.07316895 121.63842773 86.33813477 C114.64759642 78.98224259 107.58526297 71.91401441 99.875 65.3125 C98.86788348 64.43037901 97.861424 63.54750755 96.85546875 62.6640625 C73.54095993 42.29199607 50.5889509 25.90203856 19.875 19.3125 C18.9773291 19.05098145 18.9773291 19.05098145 18.06152344 18.78417969 C3.74941878 15.69675381 -14.51443842 17.01853317 -28.125 22.3125 Z " fill="#5B5B5B" transform="translate(538.125,249.6875)"/>
<path d="M0 0 C25.18284831 -0.51455339 47.08898601 7.71976573 66 24.12109375 C66.59683594 24.57484375 67.19367188 25.02859375 67.80859375 25.49609375 C83.99831717 38.05902 93.14502904 59.72449281 96.3125 79.37109375 C98.8661196 101.75552502 93.63000968 124.03755131 79.78466797 142.02734375 C75.58509323 146.95423197 70.72718233 151.30324328 65.98828125 155.703125 C54.13018662 167.1464691 51.0131518 179.38170529 50.7265625 195.33203125 C50.66636925 199.59219056 50.62868102 203.85221368 50.61914062 208.11279297 C50.60962397 210.64469791 50.57590789 213.17539717 50.5390625 215.70703125 C50.54410797 216.47792084 50.54915344 217.24881042 50.55435181 218.0430603 C50.48654231 221.74920721 50.11259875 223.93965507 48.14111328 227.11645508 C46 229.12109375 46 229.12109375 43.203125 229.609375 C42.22859375 229.55136719 41.2540625 229.49335937 40.25 229.43359375 C39.26515625 229.38847656 38.2803125 229.34335937 37.265625 229.296875 C36.51796875 229.23886719 35.7703125 229.18085937 35 229.12109375 C34.91363281 229.82234375 34.82726562 230.52359375 34.73828125 231.24609375 C33.3486669 240.62917777 30.24559617 246.54750921 23.13671875 252.796875 C16.63409215 256.8268392 10.60981918 257.65041019 3.125 257.55859375 C2.24166992 257.54884521 1.35833984 257.53909668 0.44824219 257.52905273 C-8.65413622 257.28106588 -14.81674393 255.69127392 -21.375 249.12109375 C-25.96551828 243.52698038 -29 236.42497304 -29 229.12109375 C-29.60328125 229.14429688 -30.2065625 229.1675 -30.828125 229.19140625 C-31.62734375 229.20945312 -32.4265625 229.2275 -33.25 229.24609375 C-34.03890625 229.26929688 -34.8278125 229.2925 -35.640625 229.31640625 C-38.27648974 229.09820553 -39.78448383 228.55076444 -42 227.12109375 C-44.41638728 223.49651283 -44.27777374 221.70780415 -44.34375 217.390625 C-44.37192686 216.02376174 -44.40016821 214.65689981 -44.4284668 213.29003906 C-44.44531021 212.22154724 -44.44531021 212.22154724 -44.4624939 211.13146973 C-44.52493742 207.47224866 -44.63073748 203.81438448 -44.73828125 200.15625 C-44.75913284 199.44536224 -44.77998444 198.73447449 -44.8014679 198.00204468 C-45.4460874 177.09898274 -51.14977994 164.2585773 -66.39453125 149.859375 C-81.86298393 135.20362561 -89.74696179 115.31205876 -90.35375977 94.11083984 C-90.57701431 68.59823438 -81.85355932 46.53155309 -64 28.12109375 C-63.47277344 27.52039063 -62.94554687 26.9196875 -62.40234375 26.30078125 C-55.10079946 18.27094993 -44.08705401 11.12736839 -34 7.12109375 C-33.01 7.12109375 -32.02 7.12109375 -31 7.12109375 C-30.67 6.46109375 -30.34 5.80109375 -30 5.12109375 C-27.34844633 4.32891593 -24.75832576 3.65829834 -22.0625 3.05859375 C-21.28487305 2.88231445 -20.50724609 2.70603516 -19.70605469 2.52441406 C-13.10650271 1.06915646 -6.74929655 0.27243254 0 0 Z M-57.2578125 38.04296875 C-71.93207144 55.54679331 -79.78248806 76.02200193 -78 99.12109375 C-75.12438678 119.85225882 -65.47020785 134.51519803 -50.39208984 148.49609375 C-38.83700354 159.27420671 -35.65140571 168.91039785 -33 184.12109375 C-23.1 184.12109375 -13.2 184.12109375 -3 184.12109375 C-2.69902208 176.32653745 -2.44124961 168.55260883 -2.28588867 160.75683594 C-2.2284481 158.11175806 -2.13292462 155.47620628 -2.01928711 152.83203125 C-1.34208263 136.6526663 -1.65135405 125.22298058 -12.66137695 112.75634766 C-13.23860504 112.13463684 -13.81583313 111.51292603 -14.41055298 110.87237549 C-16.56761057 108.49569006 -18.35712352 105.92334345 -20.15625 103.26953125 C-20.7234375 102.46128906 -21.290625 101.65304687 -21.875 100.8203125 C-22.41125 100.05332031 -22.9475 99.28632812 -23.5 98.49609375 C-24.0671875 97.69042969 -24.634375 96.88476562 -25.21875 96.0546875 C-26.82928799 93.75445153 -28.42037855 91.44264707 -30 89.12109375 C-30.76219849 88.01266113 -30.76219849 88.01266113 -31.53979492 86.88183594 C-32.00490479 86.17961914 -32.47001465 85.47740234 -32.94921875 84.75390625 C-33.36260498 84.13660645 -33.77599121 83.51930664 -34.2019043 82.88330078 C-35 81.12109375 -35 81.12109375 -34.3125 77.62109375 C-33.879375 76.79609375 -33.44625 75.97109375 -33 75.12109375 C-29.7890625 74.7890625 -29.7890625 74.7890625 -26 75.12109375 C-23.5859375 77.296875 -23.5859375 77.296875 -21.375 80.43359375 C-20.96604492 81.00102295 -20.55708984 81.56845215 -20.13574219 82.15307617 C-18.72895343 84.1240948 -17.36318424 86.11968729 -16 88.12109375 C-14.89339331 89.72537365 -13.78661515 91.32953529 -12.6796875 92.93359375 C-10.46188586 96.15791681 -8.2649329 99.39523276 -6.078125 102.640625 C-3.18555873 106.90447509 -0.13218522 111.03091891 3 115.12109375 C5.85918605 112.40071449 8.15451031 109.64726988 10.35546875 106.375 C10.97365479 105.46065186 11.59184082 104.54630371 12.22875977 103.60424805 C12.87514404 102.64043213 13.52152832 101.67661621 14.1875 100.68359375 C14.85515381 99.70108643 15.52280762 98.7185791 16.21069336 97.70629883 C19.10998657 93.43759257 21.99048804 89.16200809 24.7734375 84.81640625 C25.16893799 84.21111084 25.56443848 83.60581543 25.97192383 82.98217773 C26.98565832 81.42651399 27.97998678 79.85825166 28.97265625 78.2890625 C31 76.12109375 31 76.12109375 34.05859375 75.171875 C37 75.12109375 37 75.12109375 40 77.12109375 C40.57917478 81.65366396 39.81401802 84.13382893 37.2109375 87.81640625 C36.60531982 88.6880542 35.99970215 89.55970215 35.37573242 90.45776367 C34.71549072 91.3779126 34.05524902 92.29806152 33.375 93.24609375 C32.70509033 94.20298096 32.03518066 95.15986816 31.3449707 96.14575195 C29.94479423 98.14288636 28.53851688 100.13575606 27.12646484 102.12451172 C25.05597744 105.04221119 23.00333795 107.97155407 20.95703125 110.90625 C18.07273297 115.04248766 15.17833656 119.1713912 12.27416992 123.29370117 C9.61152682 127.11241809 8.75206541 128.9556468 8.77294922 133.60229492 C8.77310028 134.72323044 8.77325134 135.84416595 8.77340698 136.99906921 C8.78372955 138.208517 8.79405212 139.41796478 8.8046875 140.6640625 C8.80893234 142.52216301 8.80893234 142.52216301 8.81326294 144.4178009 C8.82256814 147.70747462 8.84053209 150.99695238 8.8626709 154.28656006 C8.8831473 157.64479125 8.89237811 161.003052 8.90234375 164.36132812 C8.92271723 170.94807308 8.961865 177.53433165 9 184.12109375 C18.9 184.12109375 28.8 184.12109375 39 184.12109375 C39.66 179.50109375 40.32 174.88109375 41 170.12109375 C45.14814048 157.60411008 53.32238563 149.83554922 63.1875 141.62109375 C75.15351729 131.34699284 82.92653004 115.13388115 84.21582031 99.50488281 C85.31492646 76.97716048 80.25623356 57.17217832 65 40.12109375 C64.38382813 39.30898438 63.76765625 38.496875 63.1328125 37.66015625 C51.7089738 24.06034827 32.31912307 15.26842419 15 13.12109375 C-12.24554926 11.6324354 -37.83791074 17.41513052 -57.2578125 38.04296875 Z M-32 196.12109375 C-32 203.05109375 -32 209.98109375 -32 217.12109375 C-30.15202799 218.96906576 -27.13203923 218.24885322 -24.66015625 218.25048828 C-23.66748245 218.25311676 -23.66748245 218.25311676 -22.65475464 218.25579834 C-20.4573101 218.26021592 -18.25994542 218.25727922 -16.0625 218.25390625 C-14.54174789 218.25457932 -13.02099588 218.25554936 -11.50024414 218.25680542 C-8.30907164 218.25828226 -5.11792708 218.25612827 -1.92675781 218.25146484 C2.1726453 218.24576755 6.27198296 218.24904663 10.37138367 218.25503731 C13.51282244 218.25864329 16.65424558 218.25750417 19.79568481 218.25490952 C21.30762744 218.25424035 22.81957146 218.25506832 24.33151245 218.25738907 C26.44109887 218.2599162 28.55057787 218.25607419 30.66015625 218.25048828 C31.86293213 218.24969269 33.06570801 218.24889709 34.30493164 218.24807739 C36.91747185 218.42796968 36.91747185 218.42796968 38 217.12109375 C38 210.19109375 38 203.26109375 38 196.12109375 C14.9 196.12109375 -8.2 196.12109375 -32 196.12109375 Z M-16 229.12109375 C-14.96373111 235.33870706 -13.66435381 238.77969192 -8.9375 242.93359375 C-5.06629134 245.30627003 -1.63414021 245.31426768 2.8125 245.37109375 C4.61654297 245.40976562 4.61654297 245.40976562 6.45703125 245.44921875 C11.50725226 244.98150258 14.77108505 243.41828175 18.25 239.74609375 C20.63651385 236.16632297 22 233.45095624 22 229.12109375 C9.46 229.12109375 -3.08 229.12109375 -16 229.12109375 Z " fill="#5C5C5C" transform="translate(530,576.87890625)"/>
<path d="M0 0 C3.32514349 -0.00290944 6.65028374 -0.00707524 9.97542572 -0.01134872 C23.65602447 -0.02599297 37.33582273 0.00252772 51.01610565 0.09993362 C53.11629822 0.11485161 55.21649822 0.12875441 57.3167038 0.14171219 C63.54812381 0.18152 69.77858821 0.2437403 76.00941467 0.33911896 C77.9324955 0.36598235 79.85567903 0.38638017 81.77890015 0.39987183 C84.42062142 0.42016817 87.06078259 0.46530372 89.70204926 0.51706314 C90.4722364 0.51790028 91.24242355 0.51873741 92.03594971 0.51959991 C97.19136051 0.65814001 100.13766087 1.89432414 104.12880707 5.12204361 C107.51390058 8.95848293 107.64513604 12.75636669 107.47646332 17.68454361 C106.95071202 21.37071005 105.64066315 23.4118831 103.12880707 26.12204361 C98.98877009 28.56024459 95.90896854 29.50231799 91.12245941 29.55441666 C89.94719193 29.57420074 88.77192444 29.59398483 87.56104279 29.61436844 C85.65712517 29.62396843 85.65712517 29.62396843 83.71474457 29.63376236 C82.36545007 29.65078211 81.01617064 29.66903499 79.66690826 29.6884346 C76.0367596 29.73671003 72.4066809 29.76642658 68.77630997 29.79200363 C65.71690903 29.81561717 62.65765295 29.84937052 59.59834957 29.88311386 C50.44904161 29.98375581 41.2996827 30.05244921 32.15000916 30.1091423 C29.16652742 30.12818583 26.1830705 30.15053061 23.19960785 30.17233658 C9.55757859 30.26457714 -4.08200256 30.22925686 -17.72397614 30.14487076 C-21.58565102 30.12237231 -25.44733699 30.10776545 -29.30905056 30.09369469 C-38.60769561 30.05972895 -47.90604123 30.00887687 -57.20445919 29.93492699 C-61.89482501 29.89784436 -66.58502836 29.86687487 -71.27552032 29.85159683 C-75.71000022 29.83660709 -80.14393448 29.80232638 -84.57817078 29.75386047 C-86.22790864 29.73905151 -87.87772276 29.73099649 -89.52752686 29.73012543 C-91.81039936 29.72776146 -94.09175689 29.70076941 -96.37436676 29.66794205 C-97.65870102 29.6590596 -98.94303528 29.65017715 -100.26628876 29.64102554 C-105.43739123 28.89656504 -109.23231225 26.91952564 -112.80869293 22.99704361 C-114.40806035 18.66934355 -114.52806693 14.67637002 -113.87119293 10.12204361 C-111.64679915 5.5908711 -109.40988832 3.25048038 -104.87119293 1.12204361 C-101.8354099 0.64867238 -98.82242038 0.63284738 -95.75400543 0.61032486 C-94.32177139 0.5832621 -94.32177139 0.5832621 -92.86060333 0.55565262 C-89.57250304 0.499322 -86.28461714 0.46633857 -82.99619293 0.43454361 C-80.59807646 0.40183106 -78.19996462 0.36877717 -75.80185699 0.33542252 C-50.53661621 0.02190179 -25.26680468 0.02038115 0 0 Z " fill="#5B5B5B" transform="translate(526.8711929321289,465.87795639038086)"/>
<path d="M0 0 C11.30652056 8.37971709 19.12069907 19.79457268 21.53515625 33.87890625 C22.8490429 49.32471322 20.16699735 62.1917859 10.4609375 74.51171875 C1.98965088 84.41706262 -9.30171776 91.97866551 -22.46484375 93.87890625 C-30.35451124 94.25881185 -37.92727554 94.43401412 -45.46484375 91.87890625 C-46.25117187 91.62238281 -47.0375 91.36585938 -47.84765625 91.1015625 C-60.28009543 86.67226842 -71.44078976 76.62688342 -77.46484375 64.87890625 C-78.05458984 63.81929687 -78.05458984 63.81929687 -78.65625 62.73828125 C-83.84504597 51.52903559 -83.55479515 35.1916841 -79.46484375 23.62890625 C-73.03840299 9.98618285 -63.13921254 -0.12863824 -49.265625 -6.1484375 C-32.12157057 -12.10223046 -15.1728545 -10.1074193 0 0 Z M-56.859375 20.9609375 C-62.34497766 27.51429736 -64.96972005 36.2387623 -64.71875 44.73828125 C-63.90341745 51.61216184 -61.61361163 57.39182616 -57.46484375 62.87890625 C-56.80484375 63.86890625 -56.14484375 64.85890625 -55.46484375 65.87890625 C-54.80484375 65.87890625 -54.14484375 65.87890625 -53.46484375 65.87890625 C-53.46484375 66.53890625 -53.46484375 67.19890625 -53.46484375 67.87890625 C-51.4246342 69.41086479 -51.4246342 69.41086479 -48.83984375 70.87890625 C-47.98132813 71.39453125 -47.1228125 71.91015625 -46.23828125 72.44140625 C-38.18604244 76.61496101 -29.18097983 77.49021502 -20.40234375 75.015625 C-18.02388133 74.06493144 -15.74152863 73.05017595 -13.46484375 71.87890625 C-12.80484375 71.54890625 -12.14484375 71.21890625 -11.46484375 70.87890625 C-11.46484375 70.21890625 -11.46484375 69.55890625 -11.46484375 68.87890625 C-10.86671875 68.77707031 -10.26859375 68.67523438 -9.65234375 68.5703125 C-5.16482249 67.15193525 -2.50452359 62.67292794 -0.2265625 58.7421875 C4.10037087 50.2299295 4.90972225 41.36650756 2.921875 31.984375 C-0.64585423 22.00416328 -7.64063855 15.771401 -16.8515625 10.97265625 C-31.52270428 4.83226806 -46.31335281 10.04242888 -56.859375 20.9609375 Z " fill="#5B5B5B" transform="translate(571.46484375,328.12109375)"/>
<path d="M0 0 C1.66040039 1.01953125 1.66040039 1.01953125 3 3 C3.31038716 5.76366474 3.44423763 8.29764592 3.43359375 11.0625 C3.4388356 11.85019775 3.44407745 12.63789551 3.44947815 13.44946289 C3.45589751 15.11375754 3.45456241 16.77809757 3.44604492 18.44238281 C3.43752989 20.99105402 3.46630199 23.53748754 3.49804688 26.0859375 C3.49965886 27.70312433 3.49908142 29.32031513 3.49609375 30.9375 C3.51294472 32.08134155 3.51294472 32.08134155 3.53013611 33.24829102 C3.46090942 38.493913 3.46090942 38.493913 1.16430664 41.015625 C-1.89179487 42.40560823 -3.82147532 41.89827871 -7 41 C-9.53694403 38.46305597 -9.25712283 36.82368559 -9.30354309 33.36158752 C-9.30263168 32.5938652 -9.30172028 31.82614288 -9.30078125 31.03515625 C-9.30506638 30.24604355 -9.3093515 29.45693085 -9.31376648 28.64390564 C-9.31951363 26.97363241 -9.32000721 25.30333414 -9.31567383 23.63305664 C-9.31251655 21.07590028 -9.33595751 18.5199036 -9.36132812 15.96289062 C-9.36360134 14.3411473 -9.36430451 12.71940085 -9.36328125 11.09765625 C-9.372491 10.33195816 -9.38170074 9.56626007 -9.39118958 8.77735901 C-9.34526587 3.51269046 -9.34526587 3.51269046 -7.66479492 1.01733398 C-5.03573709 -0.58924821 -3.00034649 -0.37504331 0 0 Z " fill="#5C5C5C" transform="translate(536,519)"/>
<path d="M0 0 C3.28149414 0.90869141 3.28149414 0.90869141 5.28149414 2.90869141 C5.82341599 6.69620728 5.67701903 8.35382813 3.43310547 11.50170898 C2.58514404 12.3437085 1.73718262 13.18570801 0.86352539 14.05322266 C-0.06137695 14.97683594 -0.9862793 15.90044922 -1.93920898 16.85205078 C-2.42655518 17.32280029 -2.91390137 17.7935498 -3.41601562 18.27856445 C-4.90161381 19.71693897 -6.35871944 21.18015757 -7.81420898 22.64892578 C-15.95899241 30.66970559 -15.95899241 30.66970559 -20.71850586 30.90869141 C-23.53100586 29.28369141 -23.53100586 29.28369141 -25.71850586 26.90869141 C-26.140625 24.59375 -26.140625 24.59375 -25.71850586 21.90869141 C-23.07398049 18.30169006 -19.8753704 15.22118482 -16.70361328 12.07714844 C-15.16201639 10.53968582 -13.65830465 8.97088638 -12.15405273 7.39697266 C-11.17635351 6.41179281 -10.19659908 5.42864744 -9.21459961 4.44775391 C-8.32957764 3.55266113 -7.44455566 2.65756836 -6.53271484 1.73535156 C-3.71850586 -0.09130859 -3.71850586 -0.09130859 0 0 Z " fill="#5C5C5C" transform="translate(635.718505859375,562.09130859375)"/>
<path d="M0 0 C0 0.66 0 1.32 0 2 C0.66 2 1.32 2 2 2 C3.33984375 3.36328125 3.33984375 3.36328125 4.9375 5.3125 C7.15088565 7.94792953 9.41142548 10.43784424 11.90625 12.8046875 C12.40648682 13.28252686 12.90672363 13.76036621 13.42211914 14.25268555 C14.88659467 15.63930109 16.3630247 17.01325716 17.83984375 18.38671875 C20 21 20 21 20.39453125 23.72265625 C19.91171067 26.50963047 19.2879479 27.3657515 17 29 C15.125 29.875 15.125 29.875 13 30 C7.14846824 26.93427304 2.84335405 22.28780321 -1.8125 17.6875 C-2.69615234 16.84509766 -3.57980469 16.00269531 -4.49023438 15.13476562 C-5.32490234 14.31041016 -6.15957031 13.48605469 -7.01953125 12.63671875 C-7.78370361 11.89123779 -8.54787598 11.14575684 -9.33520508 10.37768555 C-11.44196591 7.36877754 -11.44054097 5.60039019 -11 2 C-7.8024827 -1.96492145 -4.62667537 -0.97871979 0 0 Z " fill="#5C5C5C" transform="translate(436,563)"/>
<path d="M0 0 C0.67671753 -0.0004985 1.35343506 -0.00099701 2.05065918 -0.00151062 C3.47960348 0.00082702 4.90855212 0.01053742 6.33740234 0.02709961 C8.52348687 0.05069745 10.70835167 0.0476583 12.89453125 0.04101562 C23.61238578 0.08403843 23.61238578 0.08403843 27.03125 2.36328125 C27.68516092 8.35746471 27.68516092 8.35746471 25.92749023 11.06103516 C23.08799703 13.01106177 20.73165362 12.75221246 17.31640625 12.76171875 C16.33818153 12.76602402 16.33818153 12.76602402 15.3401947 12.77041626 C13.96254609 12.77245519 12.58486842 12.76693711 11.20727539 12.75439453 C9.1043173 12.73836181 7.00328835 12.75423295 4.90039062 12.7734375 C3.55989161 12.77145453 2.21939379 12.76760973 0.87890625 12.76171875 C-0.33788818 12.75833496 -1.55468262 12.75495117 -2.80834961 12.75146484 C-6.19511072 12.33547796 -7.61977452 11.80512571 -9.96875 9.36328125 C-10.41606615 6.2959705 -10.61049423 4.3418264 -8.87695312 1.69848633 C-5.9746844 -0.33228487 -3.506021 -0.00826892 0 0 Z " fill="#5C5C5C" transform="translate(653.96875,662.63671875)"/>
<path d="M0 0 C0.67671753 -0.00287018 1.35343506 -0.00574036 2.05065918 -0.00869751 C3.47958209 -0.01073647 4.90853302 -0.00521819 6.33740234 0.00732422 C8.52374725 0.02338239 10.70824379 0.00747216 12.89453125 -0.01171875 C14.28385824 -0.00973629 15.67318409 -0.00589254 17.0625 0 C18.32642578 0.00338379 19.59035156 0.00676758 20.89257812 0.01025391 C24.03125 0.3984375 24.03125 0.3984375 25.97460938 1.70068359 C27.03125 3.3984375 27.03125 3.3984375 26.90625 6.9609375 C26.03125 10.3984375 26.03125 10.3984375 23.03125 12.3984375 C18.90465838 12.78405222 14.77774565 12.72763327 10.63452148 12.71411133 C8.60410778 12.71095361 6.57515524 12.73440925 4.54492188 12.75976562 C3.26294922 12.76041016 1.98097656 12.76105469 0.66015625 12.76171875 C-0.51474365 12.76469971 -1.68964355 12.76768066 -2.90014648 12.77075195 C-6.23997137 12.36553014 -7.64316032 11.79864879 -9.96875 9.3984375 C-10.41590848 6.33220793 -10.61169083 4.37751332 -8.87695312 1.73583984 C-5.97778404 -0.29610082 -3.50504114 0.00938372 0 0 Z " fill="#5C5C5C" transform="translate(394.96875,662.6015625)"/>
<path d="" fill="#696969" transform="translate(0,0)"/>
<path d="" fill="#575757" transform="translate(0,0)"/>
<path d="" fill="#5B5B5B" transform="translate(0,0)"/>
<path d="" fill="#5F5F5F" transform="translate(0,0)"/>
<path d="" fill="#5A5A5A" transform="translate(0,0)"/>
</svg>
